<?xml version="1.0" encoding="utf-8"?>
<!-- Generator: Adobe Illustrator 25.1.0, SVG Export Plug-In . SVG Version: 6.00 Build 0)  -->
<svg version="1.1" xmlns="http://www.w3.org/2000/svg" xmlns:xlink="http://www.w3.org/1999/xlink" x="0px" y="0px"
	 viewBox="0 0 500 500" style="enable-background:new 0 0 500 500;" xml:space="preserve">
<style type="text/css">
	.st0{fill:#FFFFFF;}
	.st1{fill:#141B23;}
	.st2{fill:#232D3C;}
	.st3{fill:#314055;}
	.st4{fill:#394961;}
	.st5{fill:#1C2430;}
	.st6{fill:#2A3748;}
	.st7{fill:none;stroke:#141B23;stroke-width:2;stroke-miterlimit:10;}
	.st8{fill:none;stroke:#141B23;stroke-miterlimit:10;}
	.st9{fill:none;stroke:#141B23;stroke-miterlimit:10;stroke-dasharray:7.0328,7.0328;}
	.st10{fill:none;stroke:#141B23;stroke-width:0.75;stroke-miterlimit:10;}
	.st11{fill:#FFFFFF;stroke:#000000;stroke-miterlimit:10;}
	.st12{fill:#FFFFFF;stroke:#000000;stroke-width:3;stroke-miterlimit:10;}
	.st13{fill:#FFFFFF;stroke:#000000;stroke-width:0.75;stroke-miterlimit:10;}
	.st14{fill:none;stroke:#000000;stroke-miterlimit:10;}
	.st15{fill:none;stroke:#000000;stroke-miterlimit:10;stroke-dasharray:10.6177,10.6177;}
	.st16{fill:none;stroke:#000000;stroke-width:2;stroke-miterlimit:10;}
	.st17{fill:none;stroke:#000000;stroke-width:3;stroke-miterlimit:10;}
	.st18{fill:#FFFFFF;stroke:#141B23;stroke-miterlimit:10;}
	.st19{fill:#FFFFFF;stroke:#141B23;stroke-miterlimit:10;stroke-dasharray:6;}
	.st20{fill:#FFFFFF;stroke:#141B23;stroke-width:2;stroke-miterlimit:10;}
	.st21{fill:#FFFFFF;stroke:#141B23;stroke-width:3;stroke-miterlimit:10;}
	.st22{fill:#141B23;stroke:#141B23;stroke-width:2;stroke-miterlimit:10;}
	.st23{fill:none;stroke:#000000;stroke-width:0.75;stroke-miterlimit:10;}
	.st24{fill:#FFFFFF;stroke:#141B23;stroke-miterlimit:5;stroke-dasharray:3;}
	.st25{fill:none;stroke:#141B23;stroke-miterlimit:10;stroke-dasharray:3;}
	.st26{fill:#FFFFFF;stroke:#141B23;stroke-width:0.5;stroke-miterlimit:10;}
	.st27{fill:none;stroke:#141B23;stroke-width:0.5;stroke-miterlimit:10;}
</style>
<g id="Lager_1">
	<g>
		<rect class="st0" width="500" height="500"/>
		<g>
			<g>
				<g>
					<path class="st1" d="M398.2-5.7c-15.2,0.3-41.4-0.2-37-1.1l-3.1-0.6C371-7.3,425.1-7.3,398.2-5.7z"/>
					<path class="st0" d="M401.9-1.6c-13.2-0.3-3.1-0.6-0.8-0.9l18.1,0.1C424.7-2,409.4-1.8,401.9-1.6z"/>
					<path class="st1" d="M394.2,7.1l5.4,0.2C394.2,7.1,386.4,7,381.2,7c-0.4-0.5,9.4-0.9,19.9-0.7C398.9,6.6,388.6,6.6,394.2,7.1z"
						/>
					<path class="st1" d="M130.8-2.4C126.9-1,144.1,1,165.9,2.3l-8.2,2.3c-16.5-1.1-49.4-0.5-75.1-0.4c-9.9,0.5,23.9,0.8-1.4,1.3
						c-2.9-0.3-0.8-0.9-6.1-1.1C52.4,4.9,64.3,6.7,14.9,6.2L11.2,6L9.3,5.9L8.4,5.8c-0.1,0-0.4,0-0.4,0l-0.1,0
						C7.1,5.6,6.3,5.4,5.2,5.2L5.1,5.7c0,9.2,0.1,18.5,0.1,27.8C5.3,44.2,5.4,55,5.4,65.7c0.2,21.5,0.4,43,0.5,64.5
						c0.3,42.8,0.5,85.1,0,125.6c1.2,14.4,0.8,56,1.5,81.1l-0.7,0.6c1.2,14.4-0.3,38.9-0.1,56.8l-0.7,16c-1.1,6.1-0.5-45.9-2.2-31.5
						c-1,34.3,1.6,57.8,0.4,87.2C4,477.1,4.1,483.4,4.2,488c0,1.2,0.1,2.2,0.1,3.2c0,0.2,0,0.5,0,0.7l0,0.3c0,0.2,0,0.4,0.1,0.6
						c0.1,0.7,0.2,1.5,0.3,2.4c0.5,0,1-0.1,1.7-0.1c0.3,0,0.6,0,0.9-0.1c0.2,0,0.3,0,0.5,0l0.1,0l0.2,0c0.2,0,0.5,0,0.7,0
						c2.3-0.3,0.8-0.5-0.9-0.7c-0.5-0.2-0.9-0.4-0.6-0.8c0.2,0,0.4,0,0.6,0c1,0,1.9,0,2.8,0c1.9,0,3.7,0,5.5,0c3.6,0,6.9,0,10.1,0
						c6.3,0.1,11.9,0.2,17,0.3c10.2,0.3,18.4,0.7,26.3,1.1c15.9,0.8,30.8,1.6,58.9,1.5c2.1-0.6,47.1-2,5.2-2.9l-19.9,0.7l-13.6-0.8
						c15.4,0,43.8,0,40.5-0.8c20.3,2.6,106-2.5,63.1,1.5c-26.3-0.6-34-0.5-51,0.5c59.5,0.2,111.9,1.3,160.8,1.3l14.4-1.2
						c1,1.1,24.9,1.9,48.3,2.2c10.1-0.2,23-0.2,19.9-0.7c4.5-0.7-85.3-0.4-43.4-2.4c54.5,0.5,112.1,1.5,147,3.2
						c-25.5,0.3-43.8,0-70.8,1.5c-91.3,1.5-190.2,0.3-278.7,2.2c-3.3-0.8-26.7-1.1-19.7-1.9c-8.2-0.6-30.9,0.1-37-1.1
						c-14.9,0.3-30.4,0.4-46.2,0.5c-7.9,0-15.8,0.1-23.8,0.1c-7.5,0-14.9,0-22.4,0c0.1-40.7,0.2-81,0.3-115.5
						c-2,17.3-1.3-37.4-2.2-54.7C0.5,312,0.1,284,0.1,263.5c-0.3-2.3-0.5-15-1-11.9c0.3,15.2-0.2,20.8-0.4,36.4
						c-1.5-6.4,0.1-33.5,0.1-56.8l0.8,12.1c0-38.7,2.6-84.7,1.2-119.5l-1.4,29.6C-1.3,110.2,0.7,57-1.1,25.1
						c-0.5,28.8,0.6,76.7-1.4,75.9c-1-1.6-1-35.2-0.5-51c0.2-8.8,0.4-17.3,0.5-25.6c0.1-8.6,0.1-15.3,0-26.9c3.7,0,7.4,0,11.1-0.1
						c2.8,0,5.7-0.1,8.5-0.1c5.6-0.1,11.2-0.2,16.7-0.2c11-0.2,21.8-0.3,32.5-0.5C87.6-3.6,108.8-3.5,130.8-2.4z"/>
					<path class="st1" d="M37.7-5.8c-11.2,0-19.1,0.1-24.9,0.3C9.2-5.3,6.2-5.2,3.6-5.2C0.3-5-2.5-4.9-4.8-4.8
						c0.2,4,0.4,7.2,0.6,10.4c0,0.8,0.1,1.6,0.1,2.4C-4,8.6-4,9.2-3.9,9.8c0.1,1.2,0.2,2.5,0.3,4c0.3,6,0.5,14.8,0.4,31.3
						c-1-6.8-1.9,19.7-2,37.8c0.6,17.5,0.2,38.5,0.2,53.9c-0.2,10.5-1.5,9.1-1.5-11.5c0.8-19.2,0.8-40.3,0.6-61.7
						C-6,52.9-6.1,42.1-6.2,31.4c0-5.3-0.1-10.6-0.1-15.9c0-7.4,0-14.8-0.1-22c5.5,0,10.9,0,16.2,0c3.2,0,6.4,0.1,9.6,0.1
						C25.7-6.2,31.8-6,37.7-5.8z"/>
					<path class="st0" d="M86.6,0C58.4,0.1,69.1-2.3,41.3-1.7c11.7-1.3,15.4,0,41.1-0.1L67.6-1L86.6,0z"/>
					<path class="st1" d="M-3.3,142.9c0.1,17.9-0.5,59.6-1.8,60.9c-0.1,2.7-0.8-1.9-0.6,8.2C-5.3,196.2-5.1,149.7-3.3,142.9z"/>
					<path class="st0" d="M2.2,63.4c0.2,10.1,0.3,20.4,0.3,35.8C2.2,89.1,1.6,76.8,2.2,63.4z"/>
					<path class="st1" d="M-0.7,166.4c1-3.5,0.3,15.2,0.3,20.4l-0.4,10.7C-1.2,187.4-1.3,174.6-0.7,166.4z"/>
					<path class="st1" d="M-3.8,321c-0.4,26.1-1.3-27.2-1.5,3.9L-5.4,307l1.6-6.6L-3.8,321z"/>
					<path class="st1" d="M-5.2,360.9c0.4,7.4,0.5,15,0.2,28.2l-0.6-7.2C-5.9,377-5.2,371.2-5.2,360.9z"/>
					<path class="st1" d="M-1.6,326.8c0.4,12.6-0.4,10.7-0.8,18.7C-2.8,340.8-1.7,314.1-1.6,326.8z"/>
					<path class="st1" d="M8,452.2c-1.3-11.7-0.5-35.6-0.9-58.4C7.5,416.6,8.2,426.2,8,452.2z"/>
					<path class="st1" d="M506.9,85.2c-0.4,10.7-0.1,23.2,0.3,30.6l0.4-5.6L506.9,85.2z"/>
					<path class="st1" d="M430.1-7.5c-11.5,1.5,8.4,0.8,30,1.9c6.6,0.1,13.2,0.1,19.9,0c8.6-0.1,17.3-0.2,25.9-0.3L506,4.4l0.1,7.5
						c0.1,3.9,0.1,7.9,0.2,11.8c0.1,7.8,0.2,15.6,0.2,23.3l0.8,17.3c0.1-8.4,0.2-18.5,0.4-29.4c0-5.5,0.1-11.2,0.1-17
						c0-8.4,0.1-17,0.1-25.7c-8.7,0-17.5,0-26.2,0c-6.1,0-12.2,0-18.1,0C451.7-7.8,440.3-7.7,430.1-7.5z"/>
					<path class="st0" d="M408.4,0c21.2,0.6,48.6-0.4,64-0.5c-25.9-0.1-59.4-0.2-77.5-0.3C392.6-0.5,403.1-0.3,408.4,0z"/>
					<path class="st1" d="M507.7,359.9c-0.1-36,1.1-85.9-0.8-125.5c-0.3,18.3-0.8,18.7-1.1,47.3c-2-21.4,0.3-44,0.2-69.7
						c-0.4,21-1.3-6.6-1.4-24.5c0.5-33.9,0.3-87.8,0.2-134.1c-0.2-5.4-0.3-14.2-0.3-23.9c0-11.2,0-23.5,0-34.1c-3,0-6,0-8.8,0
						c-2.3,0-4.4,0-6.4,0.1c-3.2,0-5.9,0.1-8,0.2c-4.2,0.2-6,0.5-3.8,0.9c-28.2,0.2-32.1-1.3-53.1-1.7
						c-62.3,2.3-111.8-4.1-178.9-1.4c4.1-1.1-29.2-1-42.1-1.1c-28.4-0.1-95.4-0.2-80.6,2c19.3,1.5,58.4-0.9,88,0.5
						c51,2.3-53.3,0.9-54.1,2.8c7.4-0.4,11.5,1.4,34.1,0.7c-48.1,0.9,19.9,2.1-4.8,3.3C241.2,3,236.1,3,264,5.5
						c33.1-0.4,23.9-2.1,33.3-3c35.2-1,62.9,1.3,93.4,0.7c-23.1,3,51,2.3,87,2.2c5.6,0,10.1,0,13.7-0.1c0.2,0,0.4,0,0.6,0l0.2,0
						c0.1,0,0.3,0,0.4,0c0.3,0,0.5,0,0.8-0.1c0.5,0,1-0.1,1.4-0.2c0.2,1.1,0.4,1.8,0.6,2.6c0,0.1,0.1,0.2,0.1,0.3
						c0,0.1,0.1,0.4,0.1,0.6c0.1,0.4,0.1,0.8,0.2,1.2c0.1,0.8,0.2,1.7,0.4,2.8c0.5,4.2,0.8,11.4,0.7,30c-1.4,24.5-1.9-49.8-3.5-17.5
						l0.6,22.6c1.2,14.4,2.7,25.9,3.5,43.2c0,10.3,0,25.7-0.4,26.1c-0.5-20.2-1.6-14-2.3,7.2c0.5,9.9,0.6,12.3,1.1,17.1
						c3.2-41.5,0.2,43.6,2.1,72.8c2.7,85.2-3.8,44.6-2.4,128.3c2.8-25.7,1.5,55.3,2.5,82.7c-0.1,23.2-0.9,31.7-1.7,47.9
						c0.3,6.4,0.5,24.3,1,27c3.8-13,7.3-66.8,10.4-136.6C507.8,361.5,507.8,359.9,507.7,359.9z"/>
				</g>
			</g>
		</g>
	</g>
	<g>
		<g id="XMLID_1_">
			<g>
				<polygon class="st2" points="325.4,186.1 396.1,288.4 325.4,257 				"/>
				<polygon class="st3" points="396.1,301.9 325.4,400.7 325.8,336.8 				"/>
				<polygon class="st1" points="396.1,288.4 325.4,322.4 325.4,257 				"/>
				<polygon class="st4" points="325.8,336.8 325.4,400.7 255.4,301.9 				"/>
				<polygon class="st5" points="325.4,257 325.4,322.4 255.4,288.4 				"/>
				<polygon class="st6" points="325.4,186.1 325.4,257 255.4,288.4 				"/>
			</g>
			<g>
			</g>
		</g>
	</g>
	<g>
		<g>
			<path d="M433.2,470.4c0.4-1,0.8-2,2-2.4c0.4-0.2,0.8,0,1.2,0.2c0.4,0.4,0.4,1.2,0.4,1.6c0,1.2-0.2,2.4-0.4,3.5
				c-0.2,1.2-0.6,2.2-0.6,3.3c0,1.8,1.4,3.3,2.9,3.9c2,1,4.3,0.8,6.3,0.4c0.6-0.2,0.6-1.2-0.2-1.2c-2.4,0.2-4.7,0.6-6.7-1
				c-0.8-0.6-1.2-1.6-1.2-2.5c0-1.4,0.6-2.5,0.8-3.7c0.2-1.2,0.2-2.4,0.2-3.7c0-0.8-0.4-1.6-1.2-1.8c-2-0.6-3.1,1.4-3.7,2.9
				C432.5,470.4,433,470.6,433.2,470.4L433.2,470.4z"/>
		</g>
	</g>
	<g>
		<g>
			<path d="M448.7,466.3c-2,0.8-3.5,2.7-3.9,4.9c-0.4,2.2,0.6,4.3,2.4,5.7c1.8,1.4,4.1,1.4,5.9,0.2c1.8-1.2,2.9-3.3,2.2-5.5
				c-0.8-2.2-3.5-3.9-5.7-2.7c-0.6,0.4-0.4,1.4,0.4,1.4c0.8,0,1.4-0.2,2.2,0.2c0.6,0.4,1.2,0.8,1.6,1.4c0.8,1.4,0.2,2.9-1,3.9
				c-2.9,2.4-6.7-0.6-6.5-3.9c0-2,1.4-3.9,2.9-5.1C449.3,466.5,448.9,466.1,448.7,466.3L448.7,466.3z"/>
		</g>
	</g>
	<g>
		<g>
			<path d="M457.8,467.7c0.8-1.2,2-2.2,3.3-2.5c-0.2-0.2-0.6-0.2-0.8-0.4c1.2,3.1-1.8,6.7,0.2,9.8c0.8,1,2,1.6,3.1,1.4
				c1.2-0.2,2.2-1,2-2.4c0-0.6-1-0.6-1.2,0c-0.2,0.8-0.8,1.2-1.6,1c-1,0-1.6-1-1.8-2c-0.2-1.4,0.2-2.5,0.4-3.7
				c0.4-1.6,0.6-2.9,0-4.5c-0.2-0.4-0.4-0.6-0.8-0.4c-1.8,0.4-3.1,1.8-3.7,3.3C456.8,467.7,457.6,468.1,457.8,467.7L457.8,467.7z"/>
		</g>
	</g>
	<g>
		<g>
			<path d="M417.9,459.2c3.3-11.4,5.5-22.9,6.1-34.9c-0.4,0.2-1,0.2-1.4,0.4c3.1,4.9,3.9,11.2,5.1,16.7c1.4,6.1,2.7,12.4,4.1,18.4
				c0.4-0.2,1-0.4,1.4-0.6c-2.7-6.3-9.2-9-15.3-11.4c0,0.4-0.2,1-0.2,1.4c5.7-0.8,11.6-1.8,17.1-3.3c1-0.2,0.6-1.6-0.4-1.4
				c-5.5,1.4-11.2,2.7-16.9,3.5c-0.8,0.2-0.6,1.2,0,1.4c5.5,2.4,11.6,5.1,14.3,10.8c0.4,0.8,1.6,0.2,1.4-0.6
				c-1.4-6.3-2.7-12.7-4.3-19c-1.2-5.5-2-11.6-5.3-16.5c-0.4-0.6-1.4-0.4-1.4,0.4c-0.6,11.8-2.2,23.3-5.5,34.7
				C417,459.4,417.7,459.8,417.9,459.2L417.9,459.2z"/>
		</g>
	</g>
	<g>
		<g>
			<path d="M430.9,424.1c0.4,5.5,1.4,10.8,2.4,16.1c1,5.5,2.2,11,3.3,16.5c0.2,0.4,0.8,0.8,1.2,0.6c1.4-1,2-2.5,1.6-4.1
				c-0.4-1-1.8-0.6-1.6,0.4c0.2,1,0,1.8-0.8,2.4c0.4,0.2,0.8,0.4,1.2,0.6c-1.2-5.3-2.4-10.8-3.5-16.1c-1-5.3-1.8-10.8-2.9-16.3
				C431.9,423.6,430.9,423.7,430.9,424.1L430.9,424.1z"/>
		</g>
	</g>
	<g>
		<g>
			<path d="M465,461.5c1.1,4.3,3,8.5,5.7,12.1c0.5,0.6,1.3,1,2.1,0.5c0.6-0.4,1-1.4,0.5-2.1c-2.5-3.4-4.4-7.2-5.4-11.4
				C467.4,458.9,464.5,459.6,465,461.5L465,461.5z"/>
		</g>
	</g>
</g>
<g id="Lager_2">
	<line class="st7" x1="441.4" y1="195" x2="441.4" y2="284.8"/>
	<g>
		<g>
			<line class="st8" x1="441.2" y1="156.7" x2="441.2" y2="159.7"/>
			<line class="st9" x1="441.3" y1="166.8" x2="441.4" y2="191.4"/>
			<line class="st8" x1="441.5" y1="194.9" x2="441.5" y2="197.9"/>
		</g>
	</g>
	<line class="st10" x1="432" y1="195" x2="451.4" y2="195"/>
	<circle class="st1" cx="441.2" cy="155.1" r="1.6"/>
	<line class="st11" x1="389.9" y1="363.5" x2="441.7" y2="288.3"/>
	<line class="st12" x1="364" y1="401" x2="389.9" y2="363.5"/>
	<line class="st13" x1="326.2" y1="451.9" x2="364" y2="401"/>
	<circle class="st11" cx="441.7" cy="288.3" r="3.4"/>
	<circle class="st11" cx="326.8" cy="450.2" r="2.5"/>
	<g>
		<g>
			<line class="st14" x1="324.3" y1="450.2" x2="318.3" y2="450.2"/>
			<line class="st15" x1="307.7" y1="450.2" x2="270.5" y2="450.2"/>
			<line class="st14" x1="265.2" y1="450.2" x2="259.2" y2="450.2"/>
		</g>
	</g>
	<polyline class="st16" points="158.7,438.9 139,427.5 119.3,438.9 119.3,461.6 139,472.9 158.7,461.6 	"/>
	<path class="st17" d="M158.6,439"/>
	<path class="st17" d="M158.6,461.7"/>
	<circle cx="139" cy="472.9" r="2.9"/>
	<circle cx="119.3" cy="461.7" r="2.9"/>
	<circle cx="139" cy="427.5" r="2.9"/>
	<circle cx="156.9" cy="438.2" r="2.9"/>
	<circle cx="156.9" cy="462.3" r="2.9"/>
	<circle class="st11" cx="119.2" cy="438.9" r="1.6"/>
	<circle cx="138.8" cy="450.2" r="1.6"/>
	<line class="st17" x1="187.1" y1="450.2" x2="223.6" y2="450.2"/>
	<line class="st14" x1="158.7" y1="450.2" x2="187.1" y2="450.2"/>
	<circle class="st11" cx="159.1" cy="450.2" r="2.2"/>
	<polygon class="st1" points="63.7,435.3 69,444.4 74.2,453.5 63.7,453.5 53.2,453.5 58.5,444.4 	"/>
	<polygon class="st18" points="63.7,418.4 69,427.5 74.2,436.6 63.7,436.6 53.2,436.6 58.5,427.5 	"/>
	<line class="st19" x1="63.7" y1="363.2" x2="63.7" y2="330.1"/>
	<line class="st20" x1="63.7" y1="406" x2="63.7" y2="363.2"/>
	<path class="st20" d="M63.7,239.5c25,0,45.3,20.3,45.3,45.3"/>
	<path class="st21" d="M18.4,284.8c0-25,20.3-45.3,45.3-45.3"/>
	<path class="st19" d="M63.7,330.1c-25,0-45.3-20.3-45.3-45.3"/>
	<path class="st20" d="M63.7,330.1"/>
	<path class="st20" d="M109,284.8"/>
	<path class="st18" d="M63.7,280.6c2.4,0,4.3,1.9,4.3,4.3c0,2.4-1.9,4.3-4.3,4.3c-2.4,0-4.3-1.9-4.3-4.3
		C59.4,282.5,61.4,280.6,63.7,280.6"/>
	<line class="st18" x1="177.2" y1="284.8" x2="177.2" y2="351.3"/>
	<line class="st19" x1="116.2" y1="284.8" x2="177.2" y2="284.8"/>
	<line class="st18" x1="68" y1="284.8" x2="109" y2="284.8"/>
	<circle class="st1" cx="63.7" cy="330.1" r="2.9"/>
	<circle class="st1" cx="109" cy="284.8" r="3.7"/>
	<path class="st8" d="M138.3,284.8"/>
	<path class="st8" d="M177.2,323.8"/>
	<path class="st8" d="M216.2,284.8c0,21.5-17.4,39-39,39"/>
	<path class="st8" d="M216.2,284.8"/>
	<path class="st8" d="M177.2,245.9"/>
	<path class="st8" d="M138.3,284.8c0-21.5,17.4-39,39-39"/>
	<circle class="st18" cx="177.2" cy="323.8" r="2.9"/>
	<circle class="st18" cx="177.2" cy="284.8" r="2.9"/>
	<path class="st8" d="M341.9,124.1"/>
	<g>
		<line class="st22" x1="420.1" y1="89.3" x2="420.1" y2="145.2"/>
		<path class="st14" d="M446.9,89.3c0,14.8-12,26.8-26.8,26.8"/>
		<path class="st17" d="M420.1,62.4c14.8,0,26.8,12,26.8,26.8"/>
		<path class="st23" d="M393.3,89.3c0-14.8,12-26.8,26.8-26.8"/>
		<path class="st11" d="M393.3,89.3"/>
		<path class="st11" d="M420.1,116.1"/>
		<line class="st11" x1="323.8" y1="89.3" x2="420.1" y2="89.3"/>
		<circle class="st1" cx="420.1" cy="89.3" r="3.6"/>
		<path class="st8" d="M420.1,105.9"/>
		<path class="st8" d="M420.1,72.7"/>
		<path class="st1" d="M420.1,105.9V89.3h-16.6C403.5,98.4,410.9,105.9,420.1,105.9"/>
		<circle class="st20" cx="420.1" cy="145.2" r="2.4"/>
	</g>
	<g>
		<line class="st24" x1="324.3" y1="159.2" x2="372" y2="206.9"/>
		<line class="st18" x1="273.9" y1="209.5" x2="324.3" y2="159.2"/>
		<line class="st18" x1="323.8" y1="118.4" x2="323.8" y2="159.3"/>
		<line class="st20" x1="323.8" y1="91.7" x2="323.8" y2="118.4"/>
		<circle class="st20" cx="323.8" cy="159.3" r="6.9"/>
		<circle class="st18" cx="279.7" cy="203.4" r="2.2"/>
		<circle class="st18" cx="273.9" cy="209.5" r="3.2"/>
		<circle class="st18" cx="285.4" cy="197.8" r="2.2"/>
		<circle class="st1" cx="323.8" cy="88.3" r="4.6"/>
	</g>
	<g>
		<line class="st20" x1="158.4" y1="220.5" x2="176" y2="246"/>
		<line class="st18" x1="131.9" y1="182" x2="158.4" y2="220.5"/>
		<line class="st20" x1="106.1" y1="144.5" x2="131.9" y2="182"/>
		<circle class="st20" cx="158.4" cy="220.5" r="2.1"/>
		<circle class="st20" cx="131.9" cy="182" r="2.1"/>
		<circle class="st1" cx="176" cy="246" r="2.1"/>
		<circle class="st20" cx="105.6" cy="143.2" r="2.1"/>
	</g>
	<g>
		<rect x="69.2" y="41.8" class="st1" width="4.3" height="38"/>
		<rect x="76.6" y="41.8" class="st1" width="4.3" height="34.9"/>
		<rect x="84.1" y="41.8" class="st1" width="4.3" height="31.6"/>
		<rect x="91.5" y="41.8" class="st1" width="4.3" height="28.8"/>
		<rect x="99" y="41.8" class="st1" width="4.3" height="24.4"/>
		<rect x="106.5" y="41.8" class="st1" width="4.3" height="20.7"/>
	</g>
	<line class="st8" x1="180.1" y1="34.8" x2="142.5" y2="72.4"/>
	<line class="st25" x1="116.2" y1="34.8" x2="180.1" y2="34.8"/>
	<line class="st7" x1="63.7" y1="34.8" x2="116.2" y2="34.8"/>
	<circle class="st1" cx="116.2" cy="34.8" r="3.2"/>
	<path class="st1" d="M63.7,55.6"/>
	<path class="st1" d="M73.3,34.8"/>
	<path class="st1" d="M73.3,34.8"/>
	<path class="st1" d="M63.7,14"/>
	<path class="st8" d="M42.9,34.8c0-11.5,9.3-20.8,20.8-20.8"/>
	<path class="st8" d="M63.7,55.6c-11.5,0-20.8-9.3-20.8-20.8"/>
	<circle class="st26" cx="63.7" cy="34.8" r="2.7"/>
	<circle class="st18" cx="180.1" cy="34.8" r="5.3"/>
	<circle class="st25" cx="310.1" cy="392.7" r="2.7"/>
	<circle class="st25" cx="304.8" cy="384.9" r="2.7"/>
	<circle class="st25" cx="299.4" cy="377" r="2.7"/>
	<circle class="st27" cx="254.7" cy="275" r="2.7"/>
	<circle class="st27" cx="260" cy="268" r="2.7"/>
	<circle class="st27" cx="265.3" cy="261.1" r="2.7"/>
</g>
</svg>
