<?xml version="1.0" encoding="utf-8"?>
<!-- Generator: Adobe Illustrator 25.1.0, SVG Export Plug-In . SVG Version: 6.00 Build 0)  -->
<svg version="1.1" xmlns="http://www.w3.org/2000/svg" xmlns:xlink="http://www.w3.org/1999/xlink" x="0px" y="0px"
	 viewBox="0 0 500 500" style="enable-background:new 0 0 500 500;" xml:space="preserve">
<style type="text/css">
	.st0{fill:#FFFFFF;}
	.st1{fill:#141B23;}
	.st2{fill:#232D3C;}
	.st3{fill:#394961;}
	.st4{fill:#2A3648;}
	.st5{fill:#151A23;}
	.st6{fill:#1C2430;}
	.st7{fill:none;stroke:#232D3C;stroke-miterlimit:10;}
	.st8{fill:none;stroke:#232D3C;stroke-width:3;stroke-miterlimit:10;}
	.st9{fill:none;stroke:#232D3C;stroke-width:0.5;stroke-miterlimit:10;}
	.st10{fill:none;stroke:#232D3C;stroke-width:2;stroke-miterlimit:10;}
	.st11{fill:none;stroke:#232D3C;stroke-miterlimit:10;stroke-dasharray:5.1663,5.1663;}
	.st12{fill:#FFFFFF;stroke:#232D3C;stroke-miterlimit:10;}
	.st13{fill:none;stroke:#232D3C;stroke-width:0.5;stroke-miterlimit:10;stroke-dasharray:2.0351,2.0351;}
	.st14{fill:none;stroke:#232D3C;stroke-width:0.5;stroke-miterlimit:10;stroke-dasharray:5.0896,5.0896;}
	.st15{fill:none;stroke:#C51F5D;stroke-miterlimit:10;stroke-dasharray:6;}
	.st16{fill:none;stroke:#232D3C;stroke-width:0.5;stroke-miterlimit:10;stroke-dasharray:10.213,10.213;}
	.st17{fill:#C51F5D;}
	.st18{fill:none;stroke:#232D3C;stroke-width:0.5;stroke-miterlimit:10;stroke-dasharray:4.8078,4.8078;}
	.st19{fill:none;stroke:#C51F5D;stroke-miterlimit:10;stroke-dasharray:2.8198,2.8198;}
	.st20{fill:none;stroke:#232D3C;stroke-miterlimit:10;stroke-dasharray:2.8198,2.8198;}
	.st21{fill:none;stroke:#232D3C;stroke-miterlimit:10;stroke-dasharray:1.9503,1.9503;}
	.st22{fill:none;stroke:#232D3C;stroke-width:0.5;stroke-miterlimit:10;stroke-dasharray:2.8247,2.8247;}
</style>
<g id="Lager_1">
	<g>
		<rect x="-0.7" y="1.7" class="st0" width="500" height="500"/>
		<g>
			<g>
				<g>
					<path class="st1" d="M397.5-4c-15.2,0.3-41.4-0.2-37-1.1l-3.1-0.6C370.3-5.6,424.4-5.6,397.5-4z"/>
					<path class="st0" d="M401.2,0.1c-13.2-0.3-3.1-0.6-0.8-0.9l18.1,0.1C424-0.3,408.7-0.1,401.2,0.1z"/>
					<path class="st1" d="M393.5,8.8l5.4,0.2c-5.4-0.2-13.2-0.3-18.4-0.3c-0.4-0.5,9.4-0.9,19.9-0.7C398.2,8.3,387.9,8.3,393.5,8.8z
						"/>
					<path class="st1" d="M130.1-0.7c-3.9,1.4,13.3,3.4,35.1,4.7L157,6.3c-16.5-1.1-49.4-0.5-75.1-0.4c-9.9,0.5,23.9,0.8-1.4,1.3
						c-2.9-0.3-0.8-0.9-6.1-1.1C51.7,6.6,63.6,8.4,14.2,7.9l-3.7-0.2L8.6,7.6L7.7,7.5c-0.1,0-0.4,0-0.4,0H7.2
						C6.4,7.3,5.6,7.1,4.5,6.9L4.4,7.4c0,9.2,0.1,18.5,0.1,27.8c0.1,10.7,0.2,21.5,0.2,32.2c0.2,21.5,0.4,43,0.5,64.5
						c0.3,42.8,0.5,85.1,0,125.6c1.2,14.4,0.8,56,1.5,81.1L6,339.2c1.2,14.4-0.3,38.9-0.1,56.8l-0.7,16c-1.1,6.1-0.5-45.9-2.2-31.5
						c-1,34.3,1.6,57.8,0.4,87.2c-0.1,11.1,0,17.4,0.1,22c0,1.2,0.1,2.2,0.1,3.2c0,0.2,0,0.5,0,0.7v0.3c0,0.2,0,0.4,0.1,0.6
						c0.1,0.7,0.2,1.5,0.3,2.4c0.5,0,1-0.1,1.7-0.1c0.3,0,0.6,0,0.9-0.1c0.2,0,0.3,0,0.5,0h0.1h0.2c0.2,0,0.5,0,0.7,0
						c2.3-0.3,0.8-0.5-0.9-0.7c-0.5-0.2-0.9-0.4-0.6-0.8c0.2,0,0.4,0,0.6,0c1,0,1.9,0,2.8,0c1.9,0,3.7,0,5.5,0c3.6,0,6.9,0,10.1,0
						c6.3,0.1,11.9,0.2,17,0.3c10.2,0.3,18.4,0.7,26.3,1.1c15.9,0.8,30.8,1.6,58.9,1.5c2.1-0.6,47.1-2,5.2-2.9l-19.9,0.7l-13.6-0.8
						c15.4,0,43.8,0,40.5-0.8c20.3,2.6,106-2.5,63.1,1.5c-26.3-0.6-34-0.5-51,0.5c59.5,0.2,111.9,1.3,160.8,1.3l14.4-1.2
						c1,1.1,24.9,1.9,48.3,2.2c10.1-0.2,23-0.2,19.9-0.7c4.5-0.7-85.3-0.4-43.4-2.4c54.5,0.5,112.1,1.5,147,3.2
						c-25.5,0.3-43.8,0-70.8,1.5c-91.3,1.5-190.2,0.3-278.7,2.2c-3.3-0.8-26.7-1.1-19.7-1.9c-8.2-0.6-30.9,0.1-37-1.1
						c-14.9,0.3-30.4,0.4-46.2,0.5c-7.9,0-15.8,0.1-23.8,0.1c-7.5,0-14.9,0-22.4,0c0.1-40.7,0.2-81,0.3-115.5
						c-2,17.3-1.3-37.4-2.2-54.7c1.2-16.1,0.8-44.1,0.8-64.6c-0.3-2.3-0.5-15-1-11.9c0.3,15.2-0.2,20.8-0.4,36.4
						c-1.5-6.4,0.1-33.5,0.1-56.8l0.8,12.1c0-38.7,2.6-84.7,1.2-119.5l-1.4,29.6C-2,111.9,0,58.7-1.8,26.8
						c-0.5,28.8,0.6,76.7-1.4,75.9c-1-1.6-1-35.2-0.5-51c0.2-8.8,0.4-17.3,0.5-25.6c0.1-8.6,0.1-15.3,0-26.9c3.7,0,7.4,0,11.1-0.1
						c2.8,0,5.7-0.1,8.5-0.1C22-1.1,27.6-1.2,33.1-1.2c11-0.2,21.8-0.3,32.5-0.5C86.9-1.9,108.1-1.8,130.1-0.7z"/>
					<path class="st1" d="M37-4.1C25.8-4.1,17.9-4,12.1-3.8C8.5-3.6,5.5-3.5,2.9-3.5c-3.3,0.2-6.1,0.3-8.4,0.4
						c0.2,4,0.4,7.2,0.6,10.4c0,0.8,0.1,1.6,0.1,2.4c0.1,0.6,0.1,1.2,0.2,1.8c0.1,1.2,0.2,2.5,0.3,4c0.3,6,0.5,14.8,0.4,31.3
						c-1-6.8-1.9,19.7-2,37.8c0.6,17.5,0.2,38.5,0.2,53.9c-0.2,10.5-1.5,9.1-1.5-11.5c0.8-19.2,0.8-40.3,0.6-61.7
						c-0.1-10.7-0.2-21.5-0.3-32.2c0-5.3-0.1-10.6-0.1-15.9c0-7.4,0-14.8-0.1-22c5.5,0,10.9,0,16.2,0c3.2,0,6.4,0.1,9.6,0.1
						C25-4.5,31.1-4.3,37-4.1z"/>
					<path class="st0" d="M85.9,1.7C57.7,1.8,68.4-0.6,40.6,0C52.3-1.3,56,0,81.7-0.1L66.9,0.7L85.9,1.7z"/>
					<path class="st1" d="M-4,144.6c0.1,17.9-0.5,59.6-1.8,60.9c-0.1,2.7-0.8-1.9-0.6,8.2C-6,197.9-5.8,151.4-4,144.6z"/>
					<path class="st0" d="M1.5,65.1c0.2,10.1,0.3,20.4,0.3,35.8C1.5,90.8,0.9,78.5,1.5,65.1z"/>
					<path class="st1" d="M-1.4,168.1c1-3.5,0.3,15.2,0.3,20.4l-0.4,10.7C-1.9,189.1-2,176.3-1.4,168.1z"/>
					<path class="st1" d="M-4.5,322.7c-0.4,26.1-1.3-27.2-1.5,3.9l-0.1-17.9l1.6-6.6L-4.5,322.7z"/>
					<path class="st1" d="M-5.9,362.6c0.4,7.4,0.5,15,0.2,28.2l-0.6-7.2C-6.6,378.7-5.9,372.9-5.9,362.6z"/>
					<path class="st1" d="M-2.3,328.5c0.4,12.6-0.4,10.7-0.8,18.7C-3.5,342.5-2.4,315.8-2.3,328.5z"/>
					<path class="st1" d="M7.3,453.9c-1.3-11.7-0.5-35.6-0.9-58.4C6.8,418.3,7.5,427.9,7.3,453.9z"/>
					<path class="st1" d="M506.2,86.9c-0.4,10.7-0.1,23.2,0.3,30.6l0.4-5.6L506.2,86.9z"/>
					<path class="st1" d="M429.4-5.8c-11.5,1.5,8.4,0.8,30,1.9c6.6,0.1,13.2,0.1,19.9,0c8.6-0.1,17.3-0.2,25.9-0.3l0.1,10.3l0.1,7.5
						c0.1,3.9,0.1,7.9,0.2,11.8c0.1,7.8,0.2,15.6,0.2,23.3l0.8,17.3c0.1-8.4,0.2-18.5,0.4-29.4c0-5.5,0.1-11.2,0.1-17
						c0-8.4,0.1-17,0.1-25.7c-8.7,0-17.5,0-26.2,0c-6.1,0-12.2,0-18.1,0C451-6.1,439.6-6,429.4-5.8z"/>
					<path class="st0" d="M407.7,1.7c21.2,0.6,48.6-0.4,64-0.5c-25.9-0.1-59.4-0.2-77.5-0.3C391.9,1.2,402.4,1.4,407.7,1.7z"/>
					<path class="st1" d="M507,361.6c-0.1-36,1.1-85.9-0.8-125.5c-0.3,18.3-0.8,18.7-1.1,47.3c-2-21.4,0.3-44,0.2-69.7
						c-0.4,21-1.3-6.6-1.4-24.5c0.5-33.9,0.3-87.8,0.2-134.1c-0.2-5.4-0.3-14.2-0.3-23.9c0-11.2,0-23.5,0-34.1c-3,0-6,0-8.8,0
						c-2.3,0-4.4,0-6.4,0.1c-3.2,0-5.9,0.1-8,0.2c-4.2,0.2-6,0.5-3.8,0.9c-28.2,0.2-32.1-1.3-53.1-1.7
						c-62.3,2.3-111.8-4.1-178.9-1.4c4.1-1.1-29.2-1-42.1-1.1c-28.4-0.1-95.4-0.2-80.6,2c19.3,1.5,58.4-0.9,88,0.5
						c51,2.3-53.3,0.9-54.1,2.8c7.4-0.4,11.5,1.4,34.1,0.7C142,1,210,2.2,185.3,3.4c55.2,1.3,50.1,1.3,78,3.8
						c33.1-0.4,23.9-2.1,33.3-3c35.2-1,62.9,1.3,93.4,0.7c-23.1,3,51,2.3,87,2.2c5.6,0,10.1,0,13.7-0.1c0.2,0,0.4,0,0.6,0h0.2
						c0.1,0,0.3,0,0.4,0c0.3,0,0.5,0,0.8-0.1c0.5,0,1-0.1,1.4-0.2c0.2,1.1,0.4,1.8,0.6,2.6c0,0.1,0.1,0.2,0.1,0.3s0.1,0.4,0.1,0.6
						c0.1,0.4,0.1,0.8,0.2,1.2c0.1,0.8,0.2,1.7,0.4,2.8c0.5,4.2,0.8,11.4,0.7,30c-1.4,24.5-1.9-49.8-3.5-17.5l0.6,22.6
						c1.2,14.4,2.7,25.9,3.5,43.2c0,10.3,0,25.7-0.4,26.1c-0.5-20.2-1.6-14-2.3,7.2c0.5,9.9,0.6,12.3,1.1,17.1
						c3.2-41.5,0.2,43.6,2.1,72.8c2.7,85.2-3.8,44.6-2.4,128.3c2.8-25.7,1.5,55.3,2.5,82.7c-0.1,23.2-0.9,31.7-1.7,47.9
						c0.3,6.4,0.5,24.3,1,27c3.8-13,7.3-66.8,10.4-136.6C507.1,363.2,507.1,361.6,507,361.6z"/>
				</g>
			</g>
		</g>
	</g>
	<g id="XMLID_1_">
		<g>
			<polygon class="st2" points="327.4,177.9 398.1,280.2 327.4,314.2 257.4,280.2 			"/>
			<polygon class="st3" points="397.7,301.9 327,400.7 257,301.9 327.4,336.8 			"/>
		</g>
		<g>
		</g>
	</g>
	<g>
		<g>
			<g>
				<path d="M440.5,471.8c0.4-1,0.8-2,2-2.4c0.4-0.2,0.8,0,1.2,0.2c0.4,0.4,0.4,1.2,0.4,1.6c0,1.2-0.2,2.4-0.4,3.5
					c-0.2,1.2-0.6,2.2-0.6,3.3c0,1.8,1.4,3.3,2.9,3.9c2,1,4.3,0.8,6.3,0.4c0.6-0.2,0.6-1.2-0.2-1.2c-2.4,0.2-4.7,0.6-6.7-1
					c-0.8-0.6-1.2-1.6-1.2-2.5c0-1.4,0.6-2.5,0.8-3.7c0.2-1.2,0.2-2.4,0.2-3.7c0-0.8-0.4-1.6-1.2-1.8c-2-0.6-3.1,1.4-3.7,2.9
					C439.8,471.8,440.3,472,440.5,471.8L440.5,471.8z"/>
			</g>
		</g>
		<g>
			<g>
				<path d="M456,467.7c-2,0.8-3.5,2.7-3.9,4.9c-0.4,2.2,0.6,4.3,2.4,5.7c1.8,1.4,4.1,1.4,5.9,0.2c1.8-1.2,2.9-3.3,2.2-5.5
					c-0.8-2.2-3.5-3.9-5.7-2.7c-0.6,0.4-0.4,1.4,0.4,1.4s1.4-0.2,2.2,0.2c0.6,0.4,1.2,0.8,1.6,1.4c0.8,1.4,0.2,2.9-1,3.9
					c-2.9,2.4-6.7-0.6-6.5-3.9c0-2,1.4-3.9,2.9-5.1C456.6,467.9,456.2,467.5,456,467.7L456,467.7z"/>
			</g>
		</g>
		<g>
			<g>
				<path d="M465.1,469.1c0.8-1.2,2-2.2,3.3-2.5c-0.2-0.2-0.6-0.2-0.8-0.4c1.2,3.1-1.8,6.7,0.2,9.8c0.8,1,2,1.6,3.1,1.4
					c1.2-0.2,2.2-1,2-2.4c0-0.6-1-0.6-1.2,0c-0.2,0.8-0.8,1.2-1.6,1c-1,0-1.6-1-1.8-2c-0.2-1.4,0.2-2.5,0.4-3.7
					c0.4-1.6,0.6-2.9,0-4.5c-0.2-0.4-0.4-0.6-0.8-0.4c-1.8,0.4-3.1,1.8-3.7,3.3C464.1,469.1,464.9,469.5,465.1,469.1L465.1,469.1z"
					/>
			</g>
		</g>
		<g>
			<g>
				<path d="M425.2,460.6c3.3-11.4,5.5-22.9,6.1-34.9c-0.4,0.2-1,0.2-1.4,0.4c3.1,4.9,3.9,11.2,5.1,16.7c1.4,6.1,2.7,12.4,4.1,18.4
					c0.4-0.2,1-0.4,1.4-0.6c-2.7-6.3-9.2-9-15.3-11.4c0,0.4-0.2,1-0.2,1.4c5.7-0.8,11.6-1.8,17.1-3.3c1-0.2,0.6-1.6-0.4-1.4
					c-5.5,1.4-11.2,2.7-16.9,3.5c-0.8,0.2-0.6,1.2,0,1.4c5.5,2.4,11.6,5.1,14.3,10.8c0.4,0.8,1.6,0.2,1.4-0.6
					c-1.4-6.3-2.7-12.7-4.3-19c-1.2-5.5-2-11.6-5.3-16.5c-0.4-0.6-1.4-0.4-1.4,0.4c-0.6,11.8-2.2,23.3-5.5,34.7
					C424.3,460.8,425,461.2,425.2,460.6L425.2,460.6z"/>
			</g>
		</g>
		<g>
			<g>
				<path d="M438.2,425.5c0.4,5.5,1.4,10.8,2.4,16.1c1,5.5,2.2,11,3.3,16.5c0.2,0.4,0.8,0.8,1.2,0.6c1.4-1,2-2.5,1.6-4.1
					c-0.4-1-1.8-0.6-1.6,0.4c0.2,1,0,1.8-0.8,2.4c0.4,0.2,0.8,0.4,1.2,0.6c-1.2-5.3-2.4-10.8-3.5-16.1c-1-5.3-1.8-10.8-2.9-16.3
					C439.2,425,438.2,425.1,438.2,425.5L438.2,425.5z"/>
			</g>
		</g>
		<g>
			<g>
				<path d="M472.3,462.9c1.1,4.3,3,8.5,5.7,12.1c0.5,0.6,1.3,1,2.1,0.5c0.6-0.4,1-1.4,0.5-2.1c-2.5-3.4-4.4-7.2-5.4-11.4
					C474.7,460.3,471.8,461,472.3,462.9L472.3,462.9z"/>
			</g>
		</g>
	</g>
	<polygon class="st4" points="257.4,280.2 327.4,177.9 327.7,280.2 	"/>
	<polygon class="st5" points="327.4,314.2 398.1,280.2 327.7,280.2 	"/>
	<polygon class="st2" points="327.6,336.8 327,400.7 397.9,301.9 	"/>
</g>
<g id="Lager_3">
	<polygon class="st6" points="257.4,280.2 327.7,280.2 327.7,314.2 	"/>
</g>
<g id="Lager_2">
	<line class="st7" x1="389.9" y1="370.9" x2="423.1" y2="322.7"/>
	<line class="st8" x1="364" y1="408.4" x2="389.9" y2="370.9"/>
	<line class="st9" x1="326.2" y1="459.3" x2="364" y2="408.4"/>
	<g>
		<line class="st10" x1="423.8" y1="226.7" x2="423.8" y2="316.5"/>
		<g>
			<g>
				<line class="st7" x1="423.6" y1="188.4" x2="423.6" y2="190.9"/>
				<line class="st11" x1="423.6" y1="196" x2="423.8" y2="224.5"/>
				<line class="st7" x1="423.8" y1="227" x2="423.8" y2="229.5"/>
			</g>
		</g>
		<line class="st7" x1="414.3" y1="226.7" x2="433.7" y2="226.7"/>
		<circle class="st2" cx="423.6" cy="186.8" r="1.6"/>
		<circle class="st7" cx="424" cy="319.9" r="3.4"/>
	</g>
	<circle class="st12" cx="326.8" cy="457.7" r="2.5"/>
	<g>
		<g>
			<line class="st9" x1="324.3" y1="457.7" x2="323.3" y2="457.7"/>
			<line class="st13" x1="321.3" y1="457.7" x2="261.3" y2="457.7"/>
			<line class="st9" x1="260.2" y1="457.7" x2="259.2" y2="457.7"/>
		</g>
	</g>
	<circle class="st2" cx="141.9" cy="467.7" r="2.9"/>
	<g>
		<polyline class="st7" points="181.2,446.3 161.5,435 141.9,446.3 141.9,469 161.5,480.4 181.2,469 		"/>
		<path class="st2" d="M181.1,446.4"/>
		<path class="st2" d="M181.1,469.1"/>
		<circle class="st2" cx="161.5" cy="480.4" r="2.9"/>
		<circle class="st2" cx="161.5" cy="435" r="2.9"/>
		<circle class="st2" cx="179.5" cy="445.6" r="2.9"/>
		<circle class="st2" cx="179.5" cy="469.7" r="2.9"/>
		<circle class="st2" cx="161.3" cy="457.7" r="1.6"/>
		<line class="st10" x1="209.6" y1="457.7" x2="246.1" y2="457.7"/>
		<line class="st9" x1="181.2" y1="457.7" x2="209.6" y2="457.7"/>
		<circle class="st12" cx="181.7" cy="457.7" r="2.2"/>
	</g>
	<circle class="st12" cx="141.9" cy="446.3" r="1.6"/>
	<polygon class="st2" points="91.7,431.1 97,440.2 102.2,449.3 91.7,449.3 81.2,449.3 86.5,440.2 	"/>
	<polygon class="st12" points="91.7,414.3 97,423.4 102.2,432.5 91.7,432.5 81.2,432.5 86.5,423.4 	"/>
	<line class="st7" x1="91.7" y1="359" x2="91.7" y2="325.9"/>
	<line class="st10" x1="91.7" y1="401.8" x2="91.7" y2="359"/>
	<path class="st7" d="M91.7,235.3c25,0,45.3,20.3,45.3,45.3"/>
	<path class="st8" d="M46.4,280.6c0-25,20.3-45.3,45.3-45.3"/>
	<g>
		<g>
			<path class="st9" d="M91.7,326c-0.8,0-1.7,0-2.5-0.1"/>
			<path class="st14" d="M84.1,325.3c-19.8-3.3-35.3-19.5-37.5-39.6"/>
			<path class="st9" d="M46.5,283.1c0-0.8-0.1-1.7-0.1-2.5"/>
		</g>
	</g>
	<path class="st2" d="M91.7,326"/>
	<path class="st2" d="M137,280.6"/>
	<path class="st9" d="M91.7,276.4c2.4,0,4.3,1.9,4.3,4.3c0,2.4-1.9,4.3-4.3,4.3c-2.4,0-4.3-1.9-4.3-4.3
		C87.4,278.3,89.3,276.4,91.7,276.4"/>
	<path class="st15" d="M205.2,307.3c-14.7,0-26.7-11.9-26.7-26.7"/>
	<line class="st7" x1="205.2" y1="280.6" x2="205.2" y2="347.1"/>
	<g>
		<g>
			<line class="st9" x1="144.2" y1="280.6" x2="149.2" y2="280.6"/>
			<line class="st16" x1="159.4" y1="280.6" x2="195.1" y2="280.6"/>
			<line class="st9" x1="200.2" y1="280.6" x2="205.2" y2="280.6"/>
		</g>
	</g>
	<line class="st9" x1="96" y1="280.6" x2="137" y2="280.6"/>
	<circle class="st2" cx="91.7" cy="326" r="2.9"/>
	<circle class="st2" cx="137" cy="280.6" r="3.7"/>
	<path class="st2" d="M166.3,280.6"/>
	<path class="st2" d="M205.2,319.6"/>
	<path class="st7" d="M244.2,280.6c0,21.5-17.4,39-39,39"/>
	<path class="st2" d="M244.2,280.6"/>
	<path class="st2" d="M205.2,241.7"/>
	<path class="st7" d="M166.3,280.6c0-21.5,17.4-39,39-39"/>
	<path class="st17" d="M214.9,280.6c0-5.4-4.3-9.7-9.7-9.7v9.7H214.9z"/>
	<circle class="st12" cx="205.2" cy="319.6" r="2.9"/>
	<circle class="st2" cx="205.2" cy="280.6" r="2.9"/>
	<path class="st2" d="M341.9,124.1"/>
	<g>
		<line class="st7" x1="424" y1="90.5" x2="424" y2="146.4"/>
		<path class="st9" d="M450.9,90.5c0,14.8-12,26.8-26.8,26.8"/>
		<path class="st10" d="M424,63.7c14.8,0,26.8,12,26.8,26.8"/>
		<path class="st9" d="M397.2,90.5c0-14.8,12-26.8,26.8-26.8"/>
		<path class="st2" d="M397.2,90.5"/>
		<path class="st2" d="M424,117.4"/>
		<line class="st7" x1="327.8" y1="90.5" x2="424" y2="90.5"/>
		<circle class="st2" cx="424" cy="90.5" r="3.6"/>
		<path class="st2" d="M424,107.1"/>
		<path class="st2" d="M424,73.9"/>
		<path class="st2" d="M424,107.1V90.5h-16.6C407.4,99.7,414.9,107.1,424,107.1"/>
		<circle class="st12" cx="424" cy="146.4" r="2.4"/>
	</g>
	<g>
		<g>
			<g>
				<line class="st9" x1="328.2" y1="160.4" x2="330" y2="162.2"/>
				<line class="st18" x1="333.4" y1="165.6" x2="372.5" y2="204.7"/>
				<line class="st9" x1="374.2" y1="206.4" x2="375.9" y2="208.1"/>
			</g>
		</g>
		<line class="st7" x1="277.8" y1="210.8" x2="328.2" y2="160.4"/>
		<line class="st7" x1="327.8" y1="119.6" x2="327.8" y2="160.6"/>
		<line class="st8" x1="327.8" y1="92.9" x2="327.8" y2="119.6"/>
		<circle class="st12" cx="327.8" cy="160.6" r="6.9"/>
		<circle class="st2" cx="283.6" cy="204.7" r="2.2"/>
		<circle class="st2" cx="277.8" cy="210.8" r="3.2"/>
		<circle class="st12" cx="289.3" cy="199" r="2.2"/>
		<circle class="st2" cx="327.8" cy="89.6" r="4.6"/>
	</g>
	<g>
		<line class="st10" x1="186.4" y1="216.3" x2="203.9" y2="241.9"/>
		<line class="st7" x1="159.9" y1="177.8" x2="186.4" y2="216.3"/>
		<line class="st10" x1="134.1" y1="140.3" x2="159.9" y2="177.8"/>
		<circle class="st12" cx="186.4" cy="216.3" r="2.1"/>
		<circle class="st12" cx="159.9" cy="177.8" r="2.1"/>
		<circle class="st2" cx="203.9" cy="241.9" r="2.1"/>
		<circle class="st12" cx="133.6" cy="139" r="2.1"/>
	</g>
	<g>
		
			<ellipse transform="matrix(0.9871 -0.1602 0.1602 0.9871 -58.8927 54.75)" class="st19" cx="310.1" cy="392.7" rx="2.7" ry="2.7"/>
	</g>
	<g>
		
			<ellipse transform="matrix(0.3827 -0.9239 0.9239 0.3827 -167.4972 519.1763)" class="st20" cx="304.8" cy="384.9" rx="2.7" ry="2.7"/>
	</g>
	<g>
		
			<ellipse transform="matrix(0.3827 -0.9239 0.9239 0.3827 -163.5238 509.3141)" class="st20" cx="299.4" cy="377" rx="2.7" ry="2.7"/>
	</g>
	<circle class="st7" cx="254.7" cy="275" r="2.7"/>
	<circle class="st7" cx="260" cy="268" r="2.7"/>
	<circle class="st7" cx="265.3" cy="261.1" r="2.7"/>
	<path class="st2" d="M205.2,290.3"/>
	<g>
		<g>
			<rect x="61.8" y="106.8" class="st2" width="4.3" height="38"/>
			<rect x="69.3" y="106.8" class="st2" width="4.3" height="34.9"/>
			<rect x="76.7" y="106.8" class="st2" width="4.3" height="31.6"/>
			<rect x="84.2" y="106.8" class="st2" width="4.3" height="28.8"/>
			<rect x="91.7" y="106.8" class="st2" width="4.3" height="24.4"/>
			<rect x="99.1" y="106.8" class="st2" width="4.3" height="20.7"/>
		</g>
		<line class="st7" x1="172.8" y1="99.8" x2="135.2" y2="137.4"/>
		<line class="st7" x1="108.8" y1="99.8" x2="172.8" y2="99.8"/>
		<line class="st7" x1="56.4" y1="99.8" x2="108.8" y2="99.8"/>
		<circle class="st12" cx="108.8" cy="99.8" r="3.2"/>
		<path class="st2" d="M56.4,120.6"/>
		<path class="st2" d="M66,99.8"/>
		<path class="st2" d="M66,99.8"/>
		<path class="st2" d="M32.2,66.3"/>
		<path class="st10" d="M35.6,99.8c0-11.5,9.3-20.8,20.8-20.8"/>
		<path class="st7" d="M56.4,120.6c-11.5,0-20.8-9.3-20.8-20.8"/>
		<circle class="st2" cx="56.4" cy="99.8" r="2.7"/>
		<circle class="st2" cx="172.8" cy="99.8" r="5.3"/>
		<g>
			<g>
				<path class="st7" d="M172.8,74.9c0.3,0,0.7,0,1,0"/>
				<path class="st21" d="M175.7,75.1c12.3,1.5,21.9,12,21.9,24.7c0,13.1-10.1,23.8-22.9,24.8"/>
				<path class="st7" d="M173.8,124.6c-0.3,0-0.7,0-1,0"/>
			</g>
		</g>
	</g>
	<g>
		<g>
			<line class="st9" x1="161.9" y1="177.3" x2="163.4" y2="177.3"/>
			<line class="st22" x1="166.3" y1="177.3" x2="204.4" y2="177.3"/>
			<line class="st9" x1="205.8" y1="177.3" x2="207.3" y2="177.3"/>
		</g>
	</g>
	<circle class="st9" cx="209.2" cy="177.3" r="1.7"/>
	<line class="st7" x1="210.4" y1="176.2" x2="218.5" y2="168.1"/>
	<circle class="st2" cx="219.6" cy="167" r="1.7"/>
</g>
</svg>
