<?xml version="1.0" encoding="utf-8"?>
<!-- Generator: Adobe Illustrator 25.1.0, SVG Export Plug-In . SVG Version: 6.00 Build 0)  -->
<svg version="1.1" xmlns="http://www.w3.org/2000/svg" xmlns:xlink="http://www.w3.org/1999/xlink" x="0px" y="0px"
	 viewBox="0 0 500 500" style="enable-background:new 0 0 500 500;" xml:space="preserve">
<style type="text/css">
	.st0{fill:#FFFFFF;}
	.st1{fill:#141B23;}
	.st2{fill:#232D3C;}
	.st3{fill:#394961;}
	.st4{fill:#2A3648;}
	.st5{fill:#151A23;}
	.st6{fill:#FFFFFF;stroke:#232D3C;stroke-width:0.5;stroke-miterlimit:10;}
	.st7{fill:#1C2430;}
	.st8{fill:none;stroke:#232D3C;stroke-miterlimit:10;}
	.st9{fill:none;stroke:#232D3C;stroke-width:3;stroke-miterlimit:10;}
	.st10{fill:none;stroke:#232D3C;stroke-width:0.5;stroke-miterlimit:10;}
	.st11{fill:none;stroke:#232D3C;stroke-width:2;stroke-miterlimit:10;}
	.st12{fill:none;stroke:#232D3C;stroke-miterlimit:10;stroke-dasharray:5.1663,5.1663;}
	.st13{fill:#FFFFFF;stroke:#232D3C;stroke-miterlimit:10;}
	.st14{fill:none;stroke:#232D3C;stroke-width:0.5;stroke-miterlimit:10;stroke-dasharray:2.0351,2.0351;}
	.st15{fill:none;stroke:#232D3C;stroke-width:0.5;stroke-miterlimit:10;stroke-dasharray:5.0896,5.0896;}
	.st16{fill:none;stroke:#232D3C;stroke-width:0.5;stroke-miterlimit:10;stroke-dasharray:10.213,10.213;}
	.st17{fill:none;stroke:#232D3C;stroke-width:0.5;stroke-miterlimit:10;stroke-dasharray:4.8078,4.8078;}
	.st18{fill:none;stroke:#232D3C;stroke-miterlimit:10;stroke-dasharray:2.8198,2.8198;}
	.st19{fill:none;stroke:#232D3C;stroke-miterlimit:10;stroke-dasharray:1.9503,1.9503;}
	.st20{fill:none;stroke:#232D3C;stroke-width:0.5;stroke-miterlimit:10;stroke-dasharray:2.8247,2.8247;}
</style>
<g id="Lager_1">
	<g>
		<rect x="-0.7" y="1.7" class="st0" width="500" height="500"/>
		<g>
			<g>
				<g>
					<path class="st1" d="M397.5-4c-15.2,0.3-41.4-0.2-37-1.1l-3.1-0.6C370.3-5.6,424.4-5.6,397.5-4z"/>
					<path class="st0" d="M401.2,0.1c-13.2-0.3-3.1-0.6-0.8-0.9l18.1,0.1C424-0.3,408.7-0.1,401.2,0.1z"/>
					<path class="st1" d="M393.5,8.8l5.4,0.2c-5.4-0.2-13.2-0.3-18.4-0.3c-0.4-0.5,9.4-0.9,19.9-0.7C398.2,8.3,387.9,8.3,393.5,8.8z
						"/>
					<path class="st1" d="M130.1-0.7c-3.9,1.4,13.3,3.4,35.1,4.7L157,6.3c-16.5-1.1-49.4-0.5-75.1-0.4c-9.9,0.5,23.9,0.8-1.4,1.3
						c-2.9-0.3-0.8-0.9-6.1-1.1C51.7,6.6,63.6,8.4,14.2,7.9l-3.7-0.2L8.6,7.6L7.7,7.5c-0.1,0-0.4,0-0.4,0H7.2
						C6.4,7.3,5.6,7.1,4.5,6.9L4.4,7.4c0,9.2,0.1,18.5,0.1,27.8c0.1,10.7,0.2,21.5,0.2,32.2c0.2,21.5,0.4,43,0.5,64.5
						c0.3,42.8,0.5,85.1,0,125.6c1.2,14.4,0.8,56,1.5,81.1L6,339.2c1.2,14.4-0.3,38.9-0.1,56.8l-0.7,16c-1.1,6.1-0.5-45.9-2.2-31.5
						c-1,34.3,1.6,57.8,0.4,87.2c-0.1,11.1,0,17.4,0.1,22c0,1.2,0.1,2.2,0.1,3.2c0,0.2,0,0.5,0,0.7v0.3c0,0.2,0,0.4,0.1,0.6
						c0.1,0.7,0.2,1.5,0.3,2.4c0.5,0,1-0.1,1.7-0.1c0.3,0,0.6,0,0.9-0.1c0.2,0,0.3,0,0.5,0h0.1h0.2c0.2,0,0.5,0,0.7,0
						c2.3-0.3,0.8-0.5-0.9-0.7c-0.5-0.2-0.9-0.4-0.6-0.8c0.2,0,0.4,0,0.6,0c1,0,1.9,0,2.8,0c1.9,0,3.7,0,5.5,0c3.6,0,6.9,0,10.1,0
						c6.3,0.1,11.9,0.2,17,0.3c10.2,0.3,18.4,0.7,26.3,1.1c15.9,0.8,30.8,1.6,58.9,1.5c2.1-0.6,47.1-2,5.2-2.9l-19.9,0.7l-13.6-0.8
						c15.4,0,43.8,0,40.5-0.8c20.3,2.6,106-2.5,63.1,1.5c-26.3-0.6-34-0.5-51,0.5c59.5,0.2,111.9,1.3,160.8,1.3l14.4-1.2
						c1,1.1,24.9,1.9,48.3,2.2c10.1-0.2,23-0.2,19.9-0.7c4.5-0.7-85.3-0.4-43.4-2.4c54.5,0.5,112.1,1.5,147,3.2
						c-25.5,0.3-43.8,0-70.8,1.5c-91.3,1.5-190.2,0.3-278.7,2.2c-3.3-0.8-26.7-1.1-19.7-1.9c-8.2-0.6-30.9,0.1-37-1.1
						c-14.9,0.3-30.4,0.4-46.2,0.5c-7.9,0-15.8,0.1-23.8,0.1c-7.5,0-14.9,0-22.4,0c0.1-40.7,0.2-81,0.3-115.5
						c-2,17.3-1.3-37.4-2.2-54.7c1.2-16.1,0.8-44.1,0.8-64.6c-0.3-2.3-0.5-15-1-11.9c0.3,15.2-0.2,20.8-0.4,36.4
						c-1.5-6.4,0.1-33.5,0.1-56.8l0.8,12.1c0-38.7,2.6-84.7,1.2-119.5l-1.4,29.6C-2,111.9,0,58.7-1.8,26.8
						c-0.5,28.8,0.6,76.7-1.4,75.9c-1-1.6-1-35.2-0.5-51c0.2-8.8,0.4-17.3,0.5-25.6c0.1-8.6,0.1-15.3,0-26.9c3.7,0,7.4,0,11.1-0.1
						c2.8,0,5.7-0.1,8.5-0.1C22-1.1,27.6-1.2,33.1-1.2c11-0.2,21.8-0.3,32.5-0.5C86.9-1.9,108.1-1.8,130.1-0.7z"/>
					<path class="st1" d="M37-4.1C25.8-4.1,17.9-4,12.1-3.8C8.5-3.6,5.5-3.5,2.9-3.5c-3.3,0.2-6.1,0.3-8.4,0.4
						c0.2,4,0.4,7.2,0.6,10.4c0,0.8,0.1,1.6,0.1,2.4c0.1,0.6,0.1,1.2,0.2,1.8c0.1,1.2,0.2,2.5,0.3,4c0.3,6,0.5,14.8,0.4,31.3
						c-1-6.8-1.9,19.7-2,37.8c0.6,17.5,0.2,38.5,0.2,53.9c-0.2,10.5-1.5,9.1-1.5-11.5c0.8-19.2,0.8-40.3,0.6-61.7
						c-0.1-10.7-0.2-21.5-0.3-32.2c0-5.3-0.1-10.6-0.1-15.9c0-7.4,0-14.8-0.1-22c5.5,0,10.9,0,16.2,0c3.2,0,6.4,0.1,9.6,0.1
						C25-4.5,31.1-4.3,37-4.1z"/>
					<path class="st0" d="M85.9,1.7C57.7,1.8,68.4-0.6,40.6,0C52.3-1.3,56,0,81.7-0.1L66.9,0.7L85.9,1.7z"/>
					<path class="st1" d="M-4,144.6c0.1,17.9-0.5,59.6-1.8,60.9c-0.1,2.7-0.8-1.9-0.6,8.2C-6,197.9-5.8,151.4-4,144.6z"/>
					<path class="st0" d="M1.5,65.1c0.2,10.1,0.3,20.4,0.3,35.8C1.5,90.8,0.9,78.5,1.5,65.1z"/>
					<path class="st1" d="M-1.4,168.1c1-3.5,0.3,15.2,0.3,20.4l-0.4,10.7C-1.9,189.1-2,176.3-1.4,168.1z"/>
					<path class="st1" d="M-4.5,322.7c-0.4,26.1-1.3-27.2-1.5,3.9l-0.1-17.9l1.6-6.6L-4.5,322.7z"/>
					<path class="st1" d="M-5.9,362.6c0.4,7.4,0.5,15,0.2,28.2l-0.6-7.2C-6.6,378.7-5.9,372.9-5.9,362.6z"/>
					<path class="st1" d="M-2.3,328.5c0.4,12.6-0.4,10.7-0.8,18.7C-3.5,342.5-2.4,315.8-2.3,328.5z"/>
					<path class="st1" d="M7.3,453.9c-1.3-11.7-0.5-35.6-0.9-58.4C6.8,418.3,7.5,427.9,7.3,453.9z"/>
					<path class="st1" d="M506.2,86.9c-0.4,10.7-0.1,23.2,0.3,30.6l0.4-5.6L506.2,86.9z"/>
					<path class="st1" d="M429.4-5.8c-11.5,1.5,8.4,0.8,30,1.9c6.6,0.1,13.2,0.1,19.9,0c8.6-0.1,17.3-0.2,25.9-0.3l0.1,10.3l0.1,7.5
						c0.1,3.9,0.1,7.9,0.2,11.8c0.1,7.8,0.2,15.6,0.2,23.3l0.8,17.3c0.1-8.4,0.2-18.5,0.4-29.4c0-5.5,0.1-11.2,0.1-17
						c0-8.4,0.1-17,0.1-25.7c-8.7,0-17.5,0-26.2,0c-6.1,0-12.2,0-18.1,0C451-6.1,439.6-6,429.4-5.8z"/>
					<path class="st0" d="M407.7,1.7c21.2,0.6,48.6-0.4,64-0.5c-25.9-0.1-59.4-0.2-77.5-0.3C391.9,1.2,402.4,1.4,407.7,1.7z"/>
					<path class="st1" d="M507,361.6c-0.1-36,1.1-85.9-0.8-125.5c-0.3,18.3-0.8,18.7-1.1,47.3c-2-21.4,0.3-44,0.2-69.7
						c-0.4,21-1.3-6.6-1.4-24.5c0.5-33.9,0.3-87.8,0.2-134.1c-0.2-5.4-0.3-14.2-0.3-23.9c0-11.2,0-23.5,0-34.1c-3,0-6,0-8.8,0
						c-2.3,0-4.4,0-6.4,0.1c-3.2,0-5.9,0.1-8,0.2c-4.2,0.2-6,0.5-3.8,0.9c-28.2,0.2-32.1-1.3-53.1-1.7
						c-62.3,2.3-111.8-4.1-178.9-1.4c4.1-1.1-29.2-1-42.1-1.1c-28.4-0.1-95.4-0.2-80.6,2c19.3,1.5,58.4-0.9,88,0.5
						c51,2.3-53.3,0.9-54.1,2.8c7.4-0.4,11.5,1.4,34.1,0.7C142,1,210,2.2,185.3,3.4c55.2,1.3,50.1,1.3,78,3.8
						c33.1-0.4,23.9-2.1,33.3-3c35.2-1,62.9,1.3,93.4,0.7c-23.1,3,51,2.3,87,2.2c5.6,0,10.1,0,13.7-0.1c0.2,0,0.4,0,0.6,0h0.2
						c0.1,0,0.3,0,0.4,0c0.3,0,0.5,0,0.8-0.1c0.5,0,1-0.1,1.4-0.2c0.2,1.1,0.4,1.8,0.6,2.6c0,0.1,0.1,0.2,0.1,0.3s0.1,0.4,0.1,0.6
						c0.1,0.4,0.1,0.8,0.2,1.2c0.1,0.8,0.2,1.7,0.4,2.8c0.5,4.2,0.8,11.4,0.7,30c-1.4,24.5-1.9-49.8-3.5-17.5l0.6,22.6
						c1.2,14.4,2.7,25.9,3.5,43.2c0,10.3,0,25.7-0.4,26.1c-0.5-20.2-1.6-14-2.3,7.2c0.5,9.9,0.6,12.3,1.1,17.1
						c3.2-41.5,0.2,43.6,2.1,72.8c2.7,85.2-3.8,44.6-2.4,128.3c2.8-25.7,1.5,55.3,2.5,82.7c-0.1,23.2-0.9,31.7-1.7,47.9
						c0.3,6.4,0.5,24.3,1,27c3.8-13,7.3-66.8,10.4-136.6C507.1,363.2,507.1,361.6,507,361.6z"/>
				</g>
			</g>
		</g>
	</g>
	<g id="XMLID_1_">
		<g>
			<polygon class="st2" points="327.4,177.9 398.1,280.2 327.4,314.2 257.4,280.2 			"/>
			<polygon class="st3" points="327.4,336.8 397.7,301.9 327,400.7 257,301.9 			"/>
		</g>
		<g>
		</g>
	</g>
	<g>
		<g>
			<g>
				<path d="M447.9,479.4c0.3-0.7,0.5-1.3,1.3-1.6c0.3-0.1,0.5,0,0.8,0.1c0.3,0.3,0.3,0.8,0.3,1.1c0,0.8-0.1,1.6-0.3,2.3
					c-0.1,0.8-0.4,1.4-0.4,2.2c0,1.2,0.9,2.2,1.9,2.6c1.3,0.7,2.8,0.5,4.1,0.3c0.4-0.1,0.4-0.8-0.1-0.8c-1.6,0.1-3.1,0.4-4.4-0.7
					c-0.5-0.4-0.8-1.1-0.8-1.6c0-0.9,0.4-1.6,0.5-2.4c0.1-0.8,0.1-1.6,0.1-2.4c0-0.5-0.3-1.1-0.8-1.2c-1.3-0.4-2,0.9-2.4,1.9
					C447.4,479.4,447.7,479.6,447.9,479.4L447.9,479.4z"/>
			</g>
		</g>
		<g>
			<g>
				<path d="M458,476.8c-1.3,0.5-2.3,1.8-2.6,3.2s0.4,2.8,1.6,3.7c1.2,0.9,2.7,0.9,3.9,0.1c1.2-0.8,1.9-2.2,1.4-3.6
					c-0.5-1.4-2.3-2.6-3.7-1.8c-0.4,0.3-0.3,0.9,0.3,0.9c0.5,0,0.9-0.1,1.4,0.1c0.4,0.3,0.8,0.5,1.1,0.9c0.5,0.9,0.1,1.9-0.7,2.6
					c-1.9,1.6-4.4-0.4-4.3-2.6c0-1.3,0.9-2.6,1.9-3.3C458.4,476.9,458.2,476.6,458,476.8L458,476.8z"/>
			</g>
		</g>
		<g>
			<g>
				<path d="M464,477.7c0.5-0.8,1.3-1.4,2.2-1.6c-0.1-0.1-0.4-0.1-0.5-0.3c0.8,2-1.2,4.4,0.1,6.4c0.5,0.7,1.3,1.1,2,0.9
					c0.8-0.1,1.4-0.7,1.3-1.6c0-0.4-0.7-0.4-0.8,0c-0.1,0.5-0.5,0.8-1.1,0.7c-0.7,0-1.1-0.7-1.2-1.3c-0.1-0.9,0.1-1.6,0.3-2.4
					c0.3-1.1,0.4-1.9,0-3c-0.1-0.3-0.3-0.4-0.5-0.3c-1.2,0.3-2,1.2-2.4,2.2C463.4,477.7,463.9,477.9,464,477.7L464,477.7z"/>
			</g>
		</g>
		<g>
			<g>
				<path d="M437.8,472.1c2.2-7.5,3.6-15,4-22.9c-0.3,0.1-0.7,0.1-0.9,0.3c2,3.2,2.6,7.4,3.3,11c0.9,4,1.8,8.1,2.7,12.1
					c0.3-0.1,0.7-0.3,0.9-0.4c-1.8-4.1-6-5.9-10-7.5c0,0.3-0.1,0.7-0.1,0.9c3.7-0.5,7.6-1.2,11.2-2.2c0.7-0.1,0.4-1.1-0.3-0.9
					c-3.6,0.9-7.4,1.8-11.1,2.3c-0.5,0.1-0.4,0.8,0,0.9c3.6,1.6,7.6,3.3,9.4,7.1c0.3,0.5,1.1,0.1,0.9-0.4c-0.9-4.1-1.8-8.3-2.8-12.5
					c-0.8-3.6-1.3-7.6-3.5-10.8c-0.3-0.4-0.9-0.3-0.9,0.3c-0.4,7.7-1.4,15.3-3.6,22.8C437.2,472.2,437.7,472.5,437.8,472.1
					L437.8,472.1z"/>
			</g>
		</g>
		<g>
			<g>
				<path d="M446.3,449c0.3,3.6,0.9,7.1,1.6,10.6c0.7,3.6,1.4,7.2,2.2,10.8c0.1,0.3,0.5,0.5,0.8,0.4c0.9-0.7,1.3-1.6,1.1-2.7
					c-0.3-0.7-1.2-0.4-1.1,0.3c0.1,0.7,0,1.2-0.5,1.6c0.3,0.1,0.5,0.3,0.8,0.4c-0.8-3.5-1.6-7.1-2.3-10.6c-0.7-3.5-1.2-7.1-1.9-10.7
					C447,448.7,446.3,448.8,446.3,449L446.3,449z"/>
			</g>
		</g>
		<g>
			<g>
				<path d="M468.7,473.6c0.7,2.8,2,5.6,3.7,7.9c0.3,0.4,0.9,0.7,1.4,0.3c0.4-0.3,0.7-0.9,0.3-1.4c-1.6-2.2-2.9-4.7-3.5-7.5
					C470.3,471.9,468.4,472.4,468.7,473.6L468.7,473.6z"/>
			</g>
		</g>
	</g>
	<polygon class="st4" points="257.4,280.2 327.4,177.9 327.7,280.2 	"/>
	<polygon class="st5" points="327.4,314.2 398.1,280.2 327.7,280.2 	"/>
	<polygon class="st2" points="327.6,336.8 327,400.7 397.9,301.9 	"/>
	<line class="st6" x1="326.8" y1="457.7" x2="344.5" y2="475.4"/>
	<circle class="st6" cx="344.5" cy="476.1" r="1.2"/>
	<circle class="st2" cx="344.5" cy="479.9" r="1.2"/>
	<circle class="st6" cx="344.5" cy="483.8" r="1.2"/>
	<circle class="st6" cx="344.5" cy="487.7" r="1.2"/>
</g>
<g id="Lager_3">
	<polygon class="st7" points="257.4,280.2 327.7,280.2 327.7,314.2 	"/>
</g>
<g id="Lager_2">
	<line class="st8" x1="389.9" y1="370.9" x2="423.1" y2="322.7"/>
	<line class="st9" x1="364" y1="408.4" x2="389.9" y2="370.9"/>
	<line class="st10" x1="326.2" y1="459.3" x2="364" y2="408.4"/>
	<g>
		<line class="st11" x1="423.8" y1="226.7" x2="423.8" y2="316.5"/>
		<g>
			<g>
				<line class="st8" x1="423.6" y1="188.4" x2="423.6" y2="190.9"/>
				<line class="st12" x1="423.6" y1="196" x2="423.8" y2="224.5"/>
				<line class="st8" x1="423.8" y1="227" x2="423.8" y2="229.5"/>
			</g>
		</g>
		<line class="st8" x1="414.3" y1="226.7" x2="433.7" y2="226.7"/>
		<circle class="st2" cx="423.6" cy="186.8" r="1.6"/>
		<circle class="st8" cx="424" cy="319.9" r="3.4"/>
	</g>
	<circle class="st13" cx="326.8" cy="457.7" r="2.5"/>
	<g>
		<g>
			<line class="st10" x1="324.3" y1="457.7" x2="323.3" y2="457.7"/>
			<line class="st14" x1="321.3" y1="457.7" x2="261.3" y2="457.7"/>
			<line class="st10" x1="260.2" y1="457.7" x2="259.2" y2="457.7"/>
		</g>
	</g>
	<circle class="st2" cx="141.9" cy="467.7" r="2.9"/>
	<circle class="st2" cx="141.9" cy="446.3" r="1.6"/>
	<g>
		<polyline class="st8" points="181.2,446.3 161.5,435 141.9,446.3 141.9,469 161.5,480.4 181.2,469 		"/>
		<path class="st2" d="M181.1,446.4"/>
		<path class="st2" d="M181.1,469.1"/>
		<circle class="st2" cx="161.5" cy="480.4" r="2.9"/>
		<circle class="st2" cx="161.5" cy="435" r="2.9"/>
		<circle class="st2" cx="179.5" cy="445.6" r="2.9"/>
		<circle class="st2" cx="179.5" cy="469.7" r="2.9"/>
		<circle class="st2" cx="161.3" cy="457.7" r="1.6"/>
		<line class="st11" x1="209.6" y1="457.7" x2="246.1" y2="457.7"/>
		<line class="st10" x1="181.2" y1="457.7" x2="209.6" y2="457.7"/>
		<circle class="st13" cx="181.7" cy="457.7" r="2.2"/>
	</g>
	<polygon class="st2" points="83.6,442.1 88.8,451.2 94.1,460.3 83.6,460.3 73.1,460.3 78.3,451.2 	"/>
	<polygon class="st13" points="83.6,425.2 88.8,434.3 94.1,443.4 83.6,443.4 73.1,443.4 78.3,434.3 	"/>
	<line class="st8" x1="83.7" y1="353.7" x2="83.7" y2="320.7"/>
	<line class="st11" x1="83.7" y1="396.5" x2="83.7" y2="353.7"/>
	<path class="st8" d="M83.7,230.1c25,0,45.3,20.3,45.3,45.3"/>
	<path class="st9" d="M38.4,275.4c0-25,20.3-45.3,45.3-45.3"/>
	<g>
		<g>
			<path class="st10" d="M83.7,320.7c-0.8,0-1.7,0-2.5-0.1"/>
			<path class="st15" d="M76.2,320.1c-19.8-3.3-35.3-19.5-37.5-39.6"/>
			<path class="st10" d="M38.5,277.9c0-0.8-0.1-1.7-0.1-2.5"/>
		</g>
	</g>
	<path class="st2" d="M83.7,320.7"/>
	<path class="st2" d="M129.1,275.4"/>
	<path class="st10" d="M83.7,271.1c2.4,0,4.3,1.9,4.3,4.3c0,2.4-1.9,4.3-4.3,4.3c-2.4,0-4.3-1.9-4.3-4.3
		C79.5,273,81.4,271.1,83.7,271.1"/>
	<line class="st8" x1="197.3" y1="275.4" x2="197.3" y2="341.9"/>
	<g>
		<g>
			<line class="st10" x1="136.2" y1="275.4" x2="141.2" y2="275.4"/>
			<line class="st16" x1="151.4" y1="275.4" x2="187.2" y2="275.4"/>
			<line class="st10" x1="192.3" y1="275.4" x2="197.3" y2="275.4"/>
		</g>
	</g>
	<line class="st10" x1="88" y1="275.4" x2="129.1" y2="275.4"/>
	<circle class="st2" cx="83.7" cy="320.7" r="2.9"/>
	<circle class="st2" cx="129.1" cy="275.4" r="3.7"/>
	<path class="st2" d="M158.3,275.4"/>
	<path class="st2" d="M197.3,314.4"/>
	<path class="st8" d="M236.2,275.4c0,21.5-17.4,39-39,39"/>
	<path class="st2" d="M236.2,275.4"/>
	<path class="st2" d="M197.3,236.4"/>
	<path class="st8" d="M158.3,275.4c0-21.5,17.4-39,39-39"/>
	<circle class="st13" cx="197.3" cy="314.4" r="2.9"/>
	<circle class="st2" cx="197.3" cy="275.4" r="2.9"/>
	<path class="st2" d="M341.9,124.1"/>
	<g>
		<line class="st8" x1="424" y1="90.5" x2="424" y2="146.4"/>
		<path class="st10" d="M450.9,90.5c0,14.8-12,26.8-26.8,26.8"/>
		<path class="st11" d="M424,63.7c14.8,0,26.8,12,26.8,26.8"/>
		<path class="st10" d="M397.2,90.5c0-14.8,12-26.8,26.8-26.8"/>
		<path class="st2" d="M397.2,90.5"/>
		<path class="st2" d="M424,117.4"/>
		<line class="st8" x1="327.8" y1="90.5" x2="424" y2="90.5"/>
		<circle class="st2" cx="424" cy="90.5" r="3.6"/>
		<path class="st2" d="M424,107.1"/>
		<path class="st2" d="M424,73.9"/>
		<path class="st2" d="M424,107.1V90.5h-16.6C407.4,99.7,414.9,107.1,424,107.1"/>
		<circle class="st13" cx="424" cy="146.4" r="2.4"/>
	</g>
	<g>
		<g>
			<g>
				<line class="st10" x1="328.2" y1="160.4" x2="330" y2="162.2"/>
				<line class="st17" x1="333.4" y1="165.6" x2="372.5" y2="204.7"/>
				<line class="st10" x1="374.2" y1="206.4" x2="375.9" y2="208.1"/>
			</g>
		</g>
		<line class="st8" x1="277.8" y1="210.8" x2="328.2" y2="160.4"/>
		<line class="st8" x1="327.8" y1="119.6" x2="327.8" y2="160.6"/>
		<line class="st9" x1="327.8" y1="92.9" x2="327.8" y2="119.6"/>
		<circle class="st13" cx="327.8" cy="160.6" r="6.9"/>
		<circle class="st2" cx="283.6" cy="204.7" r="2.2"/>
		<circle class="st2" cx="277.8" cy="210.8" r="3.2"/>
		<circle class="st13" cx="289.3" cy="199" r="2.2"/>
		<circle class="st2" cx="327.8" cy="89.6" r="4.6"/>
	</g>
	<g>
		<line class="st11" x1="178.4" y1="211.1" x2="196" y2="236.6"/>
		<line class="st8" x1="151.9" y1="172.5" x2="178.4" y2="211.1"/>
		<line class="st11" x1="126.1" y1="135" x2="151.9" y2="172.5"/>
		<circle class="st13" cx="178.4" cy="211.1" r="2.1"/>
		<circle class="st13" cx="151.9" cy="172.5" r="2.1"/>
		<circle class="st2" cx="196" cy="236.6" r="2.1"/>
		<circle class="st13" cx="125.6" cy="133.8" r="2.1"/>
	</g>
	<g>
		<rect x="53.7" y="101.9" class="st2" width="4.3" height="38"/>
		<rect x="61.2" y="101.9" class="st2" width="4.3" height="34.9"/>
		<rect x="68.7" y="101.9" class="st2" width="4.3" height="31.6"/>
		<rect x="76.1" y="101.9" class="st2" width="4.3" height="28.8"/>
		<rect x="83.6" y="101.9" class="st2" width="4.3" height="24.4"/>
		<rect x="91" y="101.9" class="st2" width="4.3" height="20.7"/>
	</g>
	<line class="st8" x1="164.7" y1="94.9" x2="127.1" y2="132.5"/>
	<line class="st8" x1="100.8" y1="94.9" x2="164.7" y2="94.9"/>
	<line class="st8" x1="48.3" y1="94.9" x2="100.8" y2="94.9"/>
	<circle class="st13" cx="100.8" cy="94.9" r="3.2"/>
	<path class="st2" d="M48.3,115.7"/>
	<path class="st2" d="M57.9,94.9"/>
	<path class="st2" d="M57.9,94.9"/>
	<path class="st2" d="M63.7,14"/>
	<path class="st11" d="M27.5,94.9c0-11.5,9.3-20.8,20.8-20.8"/>
	<path class="st8" d="M48.3,115.7c-11.5,0-20.8-9.3-20.8-20.8"/>
	<circle class="st2" cx="48.3" cy="94.9" r="2.7"/>
	<circle class="st2" cx="164.7" cy="94.9" r="5.3"/>
	<g>
		
			<ellipse transform="matrix(0.9871 -0.1602 0.1602 0.9871 -58.8927 54.75)" class="st18" cx="310.1" cy="392.7" rx="2.7" ry="2.7"/>
	</g>
	<g>
		
			<ellipse transform="matrix(0.3827 -0.9239 0.9239 0.3827 -167.4972 519.1763)" class="st18" cx="304.8" cy="384.9" rx="2.7" ry="2.7"/>
	</g>
	<g>
		
			<ellipse transform="matrix(0.3827 -0.9239 0.9239 0.3827 -163.5238 509.3141)" class="st18" cx="299.4" cy="377" rx="2.7" ry="2.7"/>
	</g>
	<circle class="st8" cx="254.7" cy="275" r="2.7"/>
	<circle class="st8" cx="260" cy="268" r="2.7"/>
	<circle class="st8" cx="265.3" cy="261.1" r="2.7"/>
	<path class="st2" d="M197.3,285.1"/>
	<path class="st2" d="M207,275.4c0-5.4-4.3-9.7-9.7-9.7v9.7H207z"/>
	<g>
		<g>
			<path class="st8" d="M164.7,70c0.3,0,0.7,0,1,0"/>
			<path class="st19" d="M167.6,70.2c12.3,1.5,21.9,12,21.9,24.7c0,13.1-10.1,23.8-22.9,24.8"/>
			<path class="st8" d="M165.7,119.7c-0.3,0-0.7,0-1,0"/>
		</g>
	</g>
	<g>
		<g>
			<line class="st10" x1="154.4" y1="172.5" x2="155.9" y2="172.5"/>
			<line class="st20" x1="158.8" y1="172.5" x2="196.9" y2="172.5"/>
			<line class="st10" x1="198.3" y1="172.5" x2="199.8" y2="172.5"/>
		</g>
	</g>
	<circle class="st10" cx="201.7" cy="172.5" r="1.7"/>
</g>
</svg>
