<?xml version="1.0" encoding="utf-8"?>
<!-- Generator: Adobe Illustrator 25.1.0, SVG Export Plug-In . SVG Version: 6.00 Build 0)  -->
<svg version="1.0" id="Lager_1" xmlns="http://www.w3.org/2000/svg" xmlns:xlink="http://www.w3.org/1999/xlink" x="0px" y="0px"
	 viewBox="0 0 500 500" style="enable-background:new 0 0 500 500;" xml:space="preserve">
<style type="text/css">
	.st0{fill:#FFFFFF;}
	.st1{fill:#BCB28F;}
	.st2{fill:#8CA4A4;}
	.st3{fill:#5F473B;}
	.st4{fill:#7F755C;}
	.st5{fill:#7F7387;}
	.st6{fill:none;}
</style>
<g>
	<rect x="0" y="0.8" class="st0" width="500" height="500"/>
</g>
<g>
	<g>
		<path class="st1" d="M282.5,135.1c-0.4-1.2-1.6-2-2.7-2.7c-0.3-0.2-0.6-0.4-0.9-0.6c-0.9-0.5-1.9-0.7-2.8-0.7
			c-0.3,0-0.8,0.1-0.8,0.4c0,0.2,0.1,0.3,0.2,0.5c0.7,0.8,0.9,2,0.8,3.1c0,0.1,0,0.2,0,0.3c0,0.1,0.1,0.1,0.2,0.1
			c0.4,0.1,0.7,0.3,1.1,0.4c-0.3,0.4-0.5,0.8-0.8,1.2c-0.1,0.2-0.2,0.3-0.3,0.5c-0.1,0.5,0.2,1,0.4,1.4c0,0.1,0.1,0.2,0.1,0.2
			c0,0.1,0,0.1-0.1,0.2c-0.2,0.3-0.3,0.6-0.5,1c-0.1,0.1-0.2,0.3-0.2,0.5c0,0.2,0.1,0.3,0.2,0.4c0.1,0.1,0.4,0,0.4-0.2
			c0-0.1,0-0.1,0-0.2c-0.1-0.4,0.2-0.8,0.6-0.8c0.5,0,0.8,0.5,1.3,0.5c0.2,0,0.4-0.1,0.5-0.2c0.4-0.2,0.6-0.6,0.9-1
			c0.6-0.9,1.2-1.9,1.7-2.8c-0.2,0.7-0.5,1.4-0.9,2c0.1,0,0.2-0.1,0.2-0.1c0.4-0.5,0.6-1.1,1.1-1.4c-0.2,0.7-0.6,1.3-1,1.9
			c-0.5,0.7-1.1,1.4-1.1,2.2c0,0.2,0.1,0.4,0.2,0.5c0.1,0.2,0.4,0.2,0.5,0.4c0.3,0.3,0.3,0.9,0,1.1c-0.1,0.1-0.3,0.2-0.3,0.4
			c0,0.2,0.2,0.3,0.4,0.3s0.3-0.2,0.3-0.4s0.1-0.4,0.1-0.5c0.1-0.4,0.5-0.8,0.9-0.9"/>
	</g>
	<g>
		<path class="st1" d="M282,142.4c0.1-0.2,0.4-0.2,0.6-0.2c0.2,0,0.4,0.1,0.7,0.1c0.4,0,0.7-0.3,0.9-0.6c0.2-0.3,0.3-0.7,0.5-1
			c0.4,0.3,0.8,0.5,1.3,0.7c0.1,0,0.2,0.1,0.4,0c0.2,0,0.4-0.2,0.5-0.3c0.6-0.4,1.5-0.2,2.2-0.2c0.3,0,0.7,0,0.9-0.3
			c0.1-0.2,0.2-0.4,0.2-0.6c0-0.6-0.5-1.2-0.9-1.6c-1.6-1.4-3.7-2-5.7-2.8c0,0-0.1,0-0.1-0.1c-0.1-0.1,0-0.3,0.1-0.5s0.2-0.4,0-0.4
			c0.6-0.5,1.4-0.8,2.1-0.9c-0.8-0.2-1.6,0.3-2.3,0.7c0.2-0.4,0.3-0.8,0.3-1.2c0-0.4-0.3-0.9-0.7-0.9c0.2,0,0.4,0.3,0.3,0.6
			c0,0.2-0.1,0.5,0,0.7c0.1,0.3,0.3,0.6,0,0.8c-0.1,0-0.2,0-0.3,0c-0.2,0.2,0.1,0.7-0.2,0.7c-0.1,0-0.2-0.1-0.3-0.2
			c-0.1-0.1-0.3-0.1-0.3,0"/>
	</g>
	<g>
		<path class="st1" d="M282,142.4"/>
	</g>
</g>
<g>
	<g>
		<path d="M284.7,169.3c-3.3,1.9-3.7,6.5-2,9.6c2.4,4.3,7.6,6.1,12.1,7.5c5.3,1.7,11,3,15.3,6.7c2,1.7,3.7,3.8,4.6,6.2
			c1,2.9,0.7,5.9-0.2,8.7c-0.9,3-2.4,5.8-3.6,8.7c-1.2,2.6-2.3,5.3-3.2,8c-1.9,5.4-3.3,11.1-3.6,16.9c-0.3,6.1,0.6,12.2,1.6,18.2
			c1,5.7,1.9,11.5,3.5,17c0.8,2.9,1.9,5.8,3.2,8.5c1.4,2.8,3.1,5.4,4.8,8.1c3.1,4.9,6.4,11.9,2.1,17.1c0.2,0.1,0.5,0.2,0.7,0.3
			c0.2-2.5-0.1-5.1-1-7.5c-0.7-1.8-1.7-3.9-3.6-4.7c-1.4-0.6-2.8,0.1-3.2,1.5c-0.5,1.6,0.4,4.2-1.1,5.3c0.2,0,0.3,0,0.5,0.1
			c-5.9-6.5-7.4-15.4-9.7-23.6c-1.2-4.2-2.6-8.3-4.7-12.1c-2.4-4.4-5.3-8.5-7.6-13c-2.3-4.4-3.9-9.3-3.7-14.3
			c0.2-4.7,2.6-8.3,5.4-11.9c2.2-2.8,4.6-5.6,5.7-9c1.2-3.8-0.2-7.4-2.1-10.7c-1.3-2.2-2.7-4.3-3.4-6.8c-0.7-2.2-0.9-4.4-0.7-6.7
			c0.4-4.7,2.6-9.1,6.1-12.3c0.3-0.3-0.2-0.8-0.5-0.5c-6,5-8.1,14.1-5,21.3c1.7,4.1,5.2,7.7,5.3,12.3c0.1,4.2-2.7,7.7-5.1,10.8
			c-2.5,3.2-5,6.4-5.9,10.4c-1,4.6-0.1,9.4,1.5,13.7c1.8,4.6,4.5,8.8,7.1,13c2.6,4.3,4.7,8.6,6.2,13.4c2.8,9.1,3.9,19.2,10.6,26.5
			c0.1,0.1,0.3,0.2,0.5,0.1c1-0.7,1.2-1.7,1.2-2.9c0.1-1.3-0.4-4,1.6-4.1c2.2,0,3.5,3.3,4.1,5c0.7,2.2,1,4.4,0.8,6.7
			c0,0.3,0.5,0.5,0.7,0.3c3-3.6,2.7-8.6,1-12.7c-2.1-5-5.8-9.1-8-14c-2.5-5.3-3.9-11.1-5-16.8c-1.1-5.9-2.2-11.9-2.8-18
			c-0.6-6.3-0.1-12.4,1.5-18.5c1.5-5.8,3.8-11.3,6.3-16.8c2.2-4.8,4.6-10.3,2.6-15.6c-1.6-4.1-5.2-7.2-9.1-9.1
			c-5.7-2.8-12.2-3.5-17.8-6.5c-2.6-1.4-5.1-3.4-5.8-6.3c-0.7-2.6,0-5.6,2.4-7.1C285.3,169.6,285,169.1,284.7,169.3L284.7,169.3z"/>
	</g>
</g>
<g>
	<path class="st2" d="M291.8,184.4c-3.4,0.2-4.1,5.2-7.1,6.7c-1.5,0.8-3.4,0.4-5,0.1c-9.4-1.9-18.9-3.7-28.3-5.6
		c-0.2-3.2-0.5-6.4-0.7-9.5c-1.2,0.6-2.3,1.2-3.5,1.8c2.9,6.5-1.9,13.9-7.6,18.2c-2.9,2.2-6.4,4.3-7.5,7.8c-0.5,1.6-0.5,3.4-0.4,5.1
		c0.3,8.5,0.6,17,1,25.4c0,1.2,0.2,2.6,1,3.5c0.7,0.6,1.6,0.8,2.5,1c12.7,2.6,25.6,4.5,38.5,5.9c4,0.4,8.4,0.7,11.7-1.7"/>
	<g>
		<path d="M291.8,184.1c-2.5-0.1-3.8,2.1-5,3.9c-0.8,1.2-1.7,2.3-3.1,2.6c-2,0.5-4.3-0.3-6.3-0.7c-8.6-1.7-17.2-3.4-25.8-5.1
			c0.2,0.3,0.4,0.5,0.6,0.8c-0.2-3.2-0.5-6.4-0.7-9.5c0-0.6-0.7-1-1.2-0.7c-1.2,0.6-2.3,1.2-3.5,1.8c-0.4,0.2-0.5,0.7-0.3,1.1
			c3.1,7.1-3.2,14.1-8.5,18c-2.6,1.9-5.3,3.8-6.5,6.8c-0.7,1.8-0.7,3.9-0.6,5.8c0.1,2.3,0.2,4.7,0.3,7c0.2,4.6,0.3,9.1,0.5,13.7
			c0.1,2,0,4.1,0.3,6.1c0.2,1.6,0.9,2.9,2.5,3.5c1.9,0.7,4.1,0.9,6.1,1.3c2.3,0.4,4.5,0.8,6.8,1.2c4.5,0.8,8.9,1.5,13.4,2.1
			c4.8,0.7,9.7,1.3,14.5,1.8c3.9,0.4,8.2,0.5,11.6-1.8c0.9-0.6,0-2.1-0.8-1.5c-3,2.1-6.8,2-10.3,1.7c-4.2-0.4-8.4-0.9-12.6-1.5
			c-8.7-1.2-17.3-2.6-25.9-4.3c-0.9-0.2-1.9-0.3-2.6-0.8c-0.9-0.7-1-1.8-1-2.9c-0.1-2.1-0.2-4.3-0.2-6.4c-0.2-4.4-0.3-8.8-0.5-13.2
			c-0.1-2.2-0.2-4.3-0.2-6.5c-0.1-2,0-4.1,1.1-5.9c1.7-2.9,4.9-4.5,7.4-6.5c5.4-4.3,10-11.6,7-18.6c-0.1,0.4-0.2,0.7-0.3,1.1
			c1.2-0.6,2.3-1.2,3.5-1.7c-0.4-0.2-0.8-0.5-1.2-0.7c0.2,3.2,0.5,6.4,0.7,9.5c0,0.3,0.2,0.7,0.6,0.8c8.9,1.7,17.7,3.5,26.6,5.2
			c3.2,0.6,6.6,1.5,9.1-1.3c1.6-1.8,2.6-5,5.1-5.7C292.2,184.5,292.1,184.1,291.8,184.1L291.8,184.1z"/>
	</g>
</g>
<g>
	<g>
		<path d="M233.2,224.5c0.1-0.4,1,0.4,1.1,0.6c0.3,0.3,0.5,0.7,0.7,1.1c0.5,0.6,1.1,1.2,1.7,1.7c1.3,1,2.9,1.7,4.5,2.1
			c3.3,0.7,6.8,0,9.4-2.2c0.7-0.6-0.3-1.5-1-1c-2.8,2.3-6.8,2.7-10.1,1.3c-1.7-0.7-3.1-1.8-4.2-3.3c-0.6-0.7-2.6-2.2-3-0.5
			C232.3,224.8,233.1,225,233.2,224.5L233.2,224.5z"/>
	</g>
</g>
<g>
	<g>
		<path d="M320.9,306.8c3.1,1.2,6.3,2.3,9.5,3.5c0.6,0.2,1.5,0.4,1.7,1.1c0.1,0.5,0,1-0.1,1.5c-0.2,0.8-0.3,1.7,0.4,2.4
			c0.1-0.2,0.2-0.4,0.4-0.6c-4.5-1.5-8.9-3-13.4-4.5c-0.3-0.1-0.5,0.2-0.5,0.5c0.1,0.3,0.1,0.6,0.2,1c0.1,0.4,0.7,0.3,0.7-0.1
			c0-0.4-0.1-0.7-0.1-1.1c-0.2,0.2-0.3,0.3-0.5,0.5c4.5,1.5,8.9,3,13.4,4.5c0.4,0.1,0.6-0.4,0.4-0.6c-0.7-0.7,0-2,0-2.9
			c0-1.2-0.7-1.7-1.8-2.1c-3.3-1.2-6.7-2.3-10.1-3.4C320.8,306.3,320.7,306.7,320.9,306.8L320.9,306.8z"/>
	</g>
</g>
<g>
	<g>
		<path d="M318.8,307.4c0.2,0,0.2-0.3,0-0.3C318.6,307.1,318.6,307.4,318.8,307.4L318.8,307.4z"/>
	</g>
</g>
<g>
	<path class="st3" d="M320,306.7c-1.9-0.1-3.7-0.6-5.4-1.5c-2.1,0-2.5,3.5-0.8,4.8c1.7,1.3,4.1,1,6.1,0.6"/>
</g>
<g>
	<path class="st4" d="M306.8,301.1c-8.3,4.5-14.2,13.4-23.2,16c-4.5,1.3-9.4,0.9-14.1,0.5c-2.9-0.3-5.9-0.5-8.8-0.8
		c-2.8-0.3-5.5-0.5-8.2-1.1c-2.5-0.6-4.9-1.4-7.4-1.9c-4.7-0.9-9.6-0.2-13.9,1.7c-2.8,1.3-5.5,3.2-8.6,3.6c-3.1,0.4-6.8-1.4-6.9-4.5
		c0-1.3,0.6-2.6,0.3-3.9c-0.4-1.7-2.1-2.7-3.7-3.5c-3.3-1.7-6.7-3.4-10-5c-2-1-4.2-2.2-5-4.3c-0.4-1-0.4-2.1-0.3-3.2
		c1.2-20.9,24.5-33.9,30.3-54c17.1,7.6,36.5,10,55,6.9"/>
	<g>
		<path d="M306.4,300.5c-5.4,2.7-9.6,7.3-14.3,10.9c-2.4,1.8-4.9,3.5-7.8,4.5c-3.5,1.2-7.2,1.3-10.8,1.1c-4-0.2-8-0.7-12-1.1
			c-3.8-0.4-7.6-0.8-11.3-1.8c-3.5-1-6.9-1.8-10.6-1.7c-3.4,0.2-6.7,1.1-9.8,2.6c-2.9,1.4-6,3.7-9.4,3.1c-1.3-0.2-2.6-0.8-3.4-1.8
			c-1.2-1.5-0.4-3.1-0.4-4.9c0.1-3.2-3-4.5-5.5-5.7c-3.3-1.7-6.8-3.2-10-5c-1.3-0.7-2.7-1.6-3.3-3c-0.6-1.5-0.4-3.3-0.2-4.8
			c0.3-2.7,1-5.4,2-7.9c1.9-4.9,5-9.4,8.2-13.6c7.3-9.7,16.4-18.7,19.9-30.6c-0.4,0.2-0.8,0.3-1.2,0.5c17.4,7.7,36.9,10.1,55.6,7
			c1.1-0.2,0.6-1.8-0.4-1.6c-18.3,3-37.4,0.6-54.4-6.8c-0.5-0.2-1-0.1-1.2,0.5c-3.3,11.1-11.6,19.7-18.5,28.6
			c-3.4,4.3-6.6,8.8-8.8,13.8c-1.1,2.5-2,5-2.5,7.7c-0.5,2.6-1.1,6,0.2,8.4c1.5,2.7,5,4,7.6,5.3c1.8,0.9,3.6,1.8,5.5,2.7
			c1.5,0.7,3.3,1.4,4.5,2.6c1.5,1.5,0.3,3.5,0.5,5.3c0.1,1.2,0.7,2.2,1.5,3c1.8,1.8,4.6,2.4,7.1,1.9c3.5-0.7,6.4-3.1,9.8-4.2
			c3.6-1.3,7.6-1.7,11.4-1c3.9,0.7,7.5,2.1,11.4,2.6c4,0.5,8,0.8,12,1.2c7.1,0.7,14.2,1.2,20.7-2.4c5.4-3.1,9.7-7.8,14.7-11.5
			c1.2-0.9,2.5-1.8,3.8-2.6C307.8,301.2,307.2,300.1,306.4,300.5L306.4,300.5z"/>
	</g>
</g>
<g>
	<g>
		<path d="M249.8,178.2c-6.5,0.9-13.1,2.3-19.5,3.7c-2.5,0.5-4.9,1.3-6.8,3c-1.5,1.3-2.6,3-3.2,4.9c-1.6,4.4-1.2,9.3-1,13.8
			c0.3,5.8-0.1,11.5-1.4,17.1c-1.4,5.8-3.6,11.3-6.6,16.4c-3,5-6.8,9.3-10.6,13.7c-3.6,4.2-7,8.5-9.4,13.4c-1.3,2.7-2.5,5.1-5.2,6.7
			c-2.4,1.4-4.5,2.6-6.3,4.8c-3.2,3.9-4.2,9.5-1.2,13.8c0.6,0.9,1.4,1.8,2.4,2.4c0.6,0.4,2.1,1.4,2.9,1.3c0.7-0.1,1-1.2,1-1.8
			c0-0.9-0.4-1.7-1.2-2.1c-0.1,0.3-0.2,0.5-0.3,0.8c3.6,1.1,7.5-0.9,8.9-4.3c0.1-0.2-0.1-0.4-0.2-0.5c-3.5-2.5,1-7.5,2.9-9.4
			c3.7-3.5,7.3-7.1,11-10.6c7.3-7,14.6-13.9,21.7-21c0.4-0.4-0.2-0.9-0.6-0.6c-6.3,6-12.6,12.1-18.9,18.2c-3.2,3.1-6.4,6.1-9.5,9.2
			c-2.5,2.5-5.6,4.8-7.4,7.9c-1.3,2.2-2.1,5.3,0.4,7c-0.1-0.2-0.1-0.3-0.2-0.5c-1.2,3.1-4.7,4.7-7.8,3.7c-0.5-0.1-0.8,0.6-0.3,0.8
			c0.6,0.3,1,1.1,0.7,1.8c-0.2,0.7-0.7,0.4-1.2,0.1c-1-0.5-1.9-1.2-2.7-2.1c-1.5-1.8-2.4-4.1-2.4-6.4c0-2.4,1-4.8,2.4-6.7
			c1.6-2.2,3.8-3.6,6.2-5c2-1.2,3.5-2.6,4.7-4.6c1.2-2.2,2.2-4.5,3.6-6.7c2.8-4.4,6.2-8.2,9.6-12.1c3.3-3.9,6.5-7.9,9-12.3
			c2.5-4.5,4.5-9.4,5.7-14.5c1.2-5,1.8-10.1,1.7-15.3c-0.1-4.4-0.6-8.8,0-13.1c0.4-2.4,1.1-4.7,2.7-6.6c1.8-2.2,4.4-3.2,7.2-3.8
			c6.6-1.5,13.3-2.4,19.8-4.1C250.2,178.6,250.1,178.2,249.8,178.2L249.8,178.2z"/>
	</g>
</g>
<g>
	<g>
		<path d="M182.6,278.4c-1.8,2-2.4,4.9-1.5,7.5c0.4,1.1,1.6,1.5,2.7,1.1c1-0.4,1.9-1.2,2.2-2.3c0.2-0.8,0.2-1.7,0.1-2.6
			c0-0.4-0.1-0.8-0.1-1.2c0-0.5,0-0.9-0.1-1.4c0-0.3-0.2-0.6-0.5-0.6c-0.3,0-0.6,0.1-0.7,0.4c-0.3,1.9,1.2,4.9-0.8,6.2
			c-0.3,0.2-0.6,0.3-1,0.3c-0.1,0-0.2,0-0.3-0.1c-0.2-0.1-0.3-0.2-0.3-0.3c-0.3-1-0.5-2.1-0.3-3.1c0.2-1.2,0.7-2.4,1.4-3.4
			C183.8,278.6,183,278,182.6,278.4L182.6,278.4z"/>
	</g>
</g>
<g>
	<g>
		<path d="M224.6,264.9c0.6,2,1,3.8,0.9,5.9c-0.1,2.1-0.4,4.1-0.9,6.1c-1,4.2-2,8.4-3.1,12.5c-1.1,4.2-2.3,8.4-3.6,12.6
			c-0.3,1-0.5,2.2-1.1,3.1c-0.5,0.7-1.3,1-2,1.4c-1,0.6-1.8,1.3-1.6,2.5c0.1,0.8,1.4,0.6,1.4-0.2c0-1.1,2.4-1.8,3.1-2.5
			c1.2-1.4,1.5-3.7,2-5.4c1.3-4.3,2.5-8.7,3.7-13.1c1.1-4.2,2.2-8.5,2.9-12.8c0.5-3.4,0.9-7.5-1.3-10.4
			C224.9,264.6,224.6,264.7,224.6,264.9L224.6,264.9z"/>
	</g>
</g>
<g>
	<g>
		<path d="M257,264.1c-0.3,4-0.4,8-1,12c-0.7,4-1.9,7.7-3.7,11.3c-3.1,6.1-7.1,12.1-7.3,19.2c-0.1,3.5,0.9,6.8,3.2,9.5
			c0.7,0.8,1.8-0.3,1.1-1.1c-6-7.2-0.9-17,2.8-23.9c2.2-4.1,4.1-8.1,5-12.6c0.9-4.7,1-9.6,0.8-14.4
			C257.9,263.5,257.1,263.5,257,264.1L257,264.1z"/>
	</g>
</g>
<g>
	<g>
		<path d="M276.7,262.9c0,4.5,0.8,9.2,1.5,13.7c0.7,4.5,1.5,8.9,2.7,13.3c1.1,4.3,2.5,8.5,4.3,12.6c1.9,4.3,4.8,8.8,3.7,13.7
			c-0.2,1,1.3,1.4,1.5,0.4c1.1-4.4-0.8-8.6-2.7-12.5c-2.1-4.4-3.8-8.9-5.1-13.5c-1.3-4.5-2.2-9.1-3-13.7c-0.8-4.6-1.1-9.5-2.3-14.1
			C277.2,262.4,276.7,262.5,276.7,262.9L276.7,262.9z"/>
	</g>
</g>
<g>
	<g>
		<path d="M286.8,317.9c-4.9,4.4-5.5,11-5.4,17.2c0.1,3.4,0.3,6.8,0.3,10.3c0,4.4-0.7,8.8-1.8,13c-4.1,16-13.8,32.3-9.7,49.3
			c1,4.1,3.4,8,3.8,12.2c0.3,3.4-0.7,6.8-2.5,9.6c-1.9,2.9-4.8,5.1-8.1,6.1c-2.1,0.6-4.5,0.7-6.4-0.6c-1.5-0.9-2.3-2.5-2.8-4.2
			c-0.9-3.6-0.3-7.5,0-11.1c0.4-4.7,0.8-9.4,1.2-14c0.8-9.2,1.6-18.4,2.4-27.6c1.4-18.5,2.3-37.1,1.4-55.7c-0.1-2.3-0.3-4.6-0.4-6.9
			c0-0.5-0.9-0.5-0.8,0c1.4,19.1,0.8,38.3-0.6,57.4c-0.7,9.5-1.5,19.1-2.4,28.6c-0.4,4.8-0.8,9.5-1.2,14.3c-0.3,4.1-1,8.3-0.7,12.4
			c0.2,2.9,1.1,6,3.7,7.6c2.9,1.7,6.7,1,9.5-0.5c5.6-2.9,9.3-9.4,8.6-15.8c-0.5-4.2-2.8-7.9-3.8-11.9c-1.1-4.3-1.2-8.9-0.7-13.3
			c1-9,4.4-17.5,7.3-26c2.8-8.2,5-16.4,4.8-25.1c-0.2-6.8-1.4-14.5,1.7-20.9c0.8-1.6,1.8-2.9,3-4.1
			C287.5,318.1,287.1,317.7,286.8,317.9L286.8,317.9z"/>
	</g>
</g>
<g>
	<g>
		<path d="M255.2,401.2c0.2,0,0.2,0.1,0.4,0.2c0.2,0.1,0.5,0,0.7,0c0.6,0,1.2-0.1,1.9-0.1c1.2-0.1,2.4-0.2,3.6-0.2
			c1.2,0,2.4,0,3.6,0c1.2,0.1,2.5,0.2,3.7,0.2c0.8,0,1.1-1.3,0.2-1.5c-1.2-0.2-2.5-0.2-3.7-0.2c-1.3,0-2.6,0-3.9,0.1
			c-1.2,0.1-2.4,0.2-3.6,0.3c-0.6,0.1-1.2,0.2-1.8,0.3c-0.2,0-0.6,0.1-0.8,0.2c-0.2,0.1-0.2,0.3-0.3,0.3
			C254.8,400.8,254.9,401.3,255.2,401.2L255.2,401.2z"/>
	</g>
</g>
<g>
	<g>
		<path d="M254.7,416c-1.8,4.1,0.9,9,4.7,10.6c4.1,1.8,8.9,0.2,11.5-3.4c1.4-1.9,2-4.4,1-6.6c-0.4-0.9-1.7-0.1-1.3,0.7
			c1,2.1-0.2,4.5-1.7,6c-1.6,1.6-3.9,2.7-6.3,2.6c-2.2-0.1-4.5-1.3-5.8-3.1c-1.4-2-1.5-4.3-1.2-6.6
			C255.7,415.8,254.9,415.6,254.7,416L254.7,416z"/>
	</g>
</g>
<g>
	<g>
		<path d="M257.3,429.7c0.2,0.6,0.3,1.1,0.5,1.7c0.1,0.2,0.2,0.3,0.5,0.4c2.8,0.3,5.5,0.5,8.3,0.5c0.8,0,0.8-1.2,0-1.2
			c-2.8,0-5.5-0.1-8.3-0.3c0.1,0.1,0.3,0.2,0.4,0.2c-0.2-0.5-0.6-1-0.8-1.6C257.7,429.1,257.2,429.3,257.3,429.7L257.3,429.7z"/>
	</g>
</g>
<g>
	<g>
		<path d="M258.9,420.4c1-0.3,2.1-0.4,3.2-0.3c1.1,0,2.1,0.2,3.2,0.4c0.8,0.2,1.1-0.9,0.3-1.2c-1.1-0.3-2.3-0.4-3.5-0.4
			c-0.6,0-1.1,0.1-1.7,0.2c-0.6,0.1-1.1,0.4-1.7,0.6C258.3,419.9,258.5,420.5,258.9,420.4L258.9,420.4z"/>
	</g>
</g>
<g>
	<g>
		<path d="M258.8,412.7c3.1-0.8,6.6-0.4,9.2,1.7c0.6,0.5,1.6-0.4,0.9-0.9c-2.9-2.3-7-3.1-10.4-1.5
			C258,412.2,258.3,412.9,258.8,412.7L258.8,412.7z"/>
	</g>
</g>
<g>
	<g>
		<path d="M257.7,408.8c-0.5-0.2-0.7,0.5-0.5,0.8c0.4,0.5,1.1,0.2,1.4-0.2c0.2-0.3,0.2-0.8,0.2-1.2c0-0.6,0.1-1.1,0.1-1.7
			c0-1.2,0.1-2.3,0.1-3.5c-0.3,0.2-0.7,0.4-1,0.6c2.6,1.3,5.6,1.6,8.4,0.6c-0.3-0.1-0.5-0.2-0.8-0.3c0.7,1.6,1.1,3.2,1.5,4.9
			c0.2,0.7,1.4,0.6,1.3-0.2c-0.1-1.9-0.8-3.7-1.6-5.4c-0.1-0.3-0.5-0.4-0.8-0.3c-2.4,0.9-5,0.7-7.3-0.4c-0.5-0.2-1,0-1,0.6
			c0,1.2,0,2.4,0,3.6c0,0.6,0,1.1,0,1.7c0,0.2,0,0.4,0,0.6c0,0,0,0.1,0,0.1c0,0.1,0,0.2,0.1,0.1c0.1,0,0.1,0,0.1-0.1
			c0-0.1-0.1-0.1-0.1,0.1C257.9,409.2,257.9,408.8,257.7,408.8L257.7,408.8z"/>
	</g>
</g>
<g>
	<g>
		<path d="M248.5,317.4c0.1,8,0.2,15.9-0.3,23.8c-0.5,8-1.5,15.9-2.9,23.7c-2.4,13.5-5.9,27.8-2.2,41.4c0.9,3.4,2.5,6.3,4,9.4
			c1.6,3.3,1.6,7.1-1.4,9.6c-2.5,2.1-6,2-8.8,0.5c-2.9-1.5-4.8-4-5.8-7c-2.4-7.2,0.3-14.8,0.5-22c0.1-3.7-0.5-7.1-1.8-10.6
			c-1.4-3.6-2.8-7-3.6-10.8c-1.9-8.4-1.8-17.2-2-25.8c-0.2-9.2-0.4-18.3-0.6-27.5c0-0.5-0.9-0.5-0.8,0c0.2,8.6,0.4,17.1,0.6,25.7
			c0.2,7.8,0.1,15.7,1.3,23.5c0.6,3.9,1.5,7.8,3,11.5c1.5,3.8,3.1,7.4,3.2,11.6c0.3,7.6-2.6,15.2-1,22.8c1.2,5.5,5.5,10.6,11.5,10.5
			c2.7,0,5.2-1.4,6.6-3.8c1.6-2.7,1.3-5.6,0.1-8.3c-0.8-1.7-1.7-3.2-2.4-4.9c-0.7-1.7-1.3-3.5-1.8-5.3c-0.9-3.6-1.3-7.3-1.4-11
			c-0.1-7.6,1.1-15.2,2.5-22.7c1.4-7.8,2.8-15.5,3.6-23.4c0.8-8.2,1.1-16.5,0.8-24.8c-0.1-2.1-0.2-4.2-0.4-6.3
			C248.8,317.1,248.5,317.1,248.5,317.4L248.5,317.4z"/>
	</g>
</g>
<g>
	<g>
		<path d="M228.7,415.4c1.3,3.4-0.6,6.9-1,10.3c-0.4,3.5,1.2,6.2,4.1,8.1c1.5,1,3.2,1.8,4.9,2.5c1.8,0.8,3.7,1.3,5.7,1.1
			c3.3-0.3,6.5-2.3,8-5.3c1.7-3.5,1.2-7.7-1.2-10.8c-0.6-0.8-1.7,0.3-1.1,1.1c2,2.5,2.4,6.2,1,9.1c-1.4,2.7-4.4,4.5-7.4,4.6
			c-1.9,0-3.7-0.7-5.5-1.5c-1.4-0.6-2.8-1.3-4-2.2c-1.3-0.9-2.4-2.1-2.9-3.6c-0.4-1.4-0.3-3,0-4.4c0.6-3.1,1.9-6.3,0.5-9.4
			C229.4,414.5,228.5,414.9,228.7,415.4L228.7,415.4z"/>
	</g>
</g>
<g>
	<g>
		<path d="M235.9,431.5c0.7,0.1,1.3,0.2,2,0.1c0.7-0.1,1.3-0.2,2-0.5c1.3-0.5,2.5-1.2,3.3-2.3c0.2-0.3,0.3-0.7,0-0.9
			c-0.2-0.2-0.7-0.3-0.9,0c-0.8,0.8-1.7,1.6-2.8,2c-1.1,0.5-2.3,0.7-3.4,0.7C235.5,430.6,235.3,431.5,235.9,431.5L235.9,431.5z"/>
	</g>
</g>
<g>
	<g>
		<path d="M255.5,400.6c1.6,2.2,4.3,2,6.7,1.6c1.3-0.2,2.6-0.4,3.9-0.5c0.6,0,1.1,0,1.7,0.2c0.6,0.2,1,0.5,1.6,0.8
			c0.6,0.3,1.5-0.4,1-1c-1.6-2.1-5-1.6-7.2-1.2c-2.1,0.4-5.1,1.2-6.8-0.7C256,399.5,255.1,400.1,255.5,400.6L255.5,400.6z"/>
	</g>
</g>
<g>
	<g>
		<path d="M258.8,399c-0.1-0.3-0.5-0.4-0.8-0.2c-0.3,0.2-0.6,0.5-0.5,1c0.2,1.3,2.1,1,3,1c3-0.2,6-0.7,8.8-1.7
			c0.9-0.3,0.5-1.7-0.4-1.4c-1.8,0.6-3.7,1.1-5.6,1.4c-1,0.2-1.9,0.3-2.9,0.4c-0.4,0-0.9,0.1-1.3,0.1c-0.4,0-0.4,0-0.6-0.4
			c0,0.1,0,0.2,0,0.3c0-0.1,0.1-0.2,0.2-0.2C258.7,399.2,258.8,399.1,258.8,399L258.8,399z"/>
	</g>
</g>
<g>
	<g>
		<path d="M229,396.9c0-0.1-0.1-0.1-0.1-0.2c-0.1,0.1-0.2,0.1-0.3,0.2c0.2,0.1,0.5,0,0.7,0c0.3,0.1,0.6,0.3,0.9,0.4
			c0.6,0.2,1.2,0.3,1.8,0.3c1.3,0.1,2.6-0.2,3.8-0.4c2.2-0.5,5.1-1.4,7.1,0.3c0.7,0.6,1.7-0.4,1-1c-2.2-1.9-5.1-1.3-7.8-0.6
			c-1.4,0.3-2.8,0.7-4.3,0.6c-0.7,0-1.4-0.2-2.1-0.4c-0.6-0.2-1.3-0.2-1.5,0.5c0,0.1,0,0.2,0.1,0.3c-0.1-0.1,0.1,0.2,0.1,0.3
			c0.1,0.1,0.2,0.2,0.4,0.2c0.3,0,0.4-0.1,0.4-0.4C229.3,396.7,229,396.7,229,396.9L229,396.9z"/>
	</g>
</g>
<g>
	<g>
		<path d="M229.9,400.5c2.1,0.5,4.3,0.7,6.4,0.7c1.1,0,2.1,0,3.2-0.1c1.1-0.1,2.3-0.1,3.3-0.4c0.7-0.2,0.6-1.3-0.2-1.3
			c-1,0-2.1,0.2-3.1,0.3c-1,0.1-2.1,0.1-3.2,0.1c-2.1,0-4.2-0.2-6.3-0.3C229.5,399.5,229.4,400.4,229.9,400.5L229.9,400.5z"/>
	</g>
</g>
<g>
	<g>
		<path d="M232.3,414.6c3.1,0.7,6.6,0.2,9.4-1.4c0.7-0.4,0.1-1.3-0.6-1c-1.4,0.6-2.7,1.2-4.2,1.4c-1.5,0.3-3,0.3-4.5,0.2
			C231.9,413.8,231.8,414.5,232.3,414.6L232.3,414.6z"/>
	</g>
</g>
<g>
	<g>
		<path d="M262.9,346.8c-0.3,2.1,1.2,4.2,3.3,4.6c2.1,0.4,4.2-0.8,4.9-2.8c0.2-0.5-0.6-0.7-0.7-0.2c-0.6,1.6-2.4,2.6-4.1,2.2
			c-1.7-0.4-2.9-2.1-2.8-3.9C263.4,346.5,262.9,346.5,262.9,346.8L262.9,346.8z"/>
	</g>
</g>
<g>
	<g>
		<path d="M230.3,345c0,0.4-0.2,0.4-0.1,0.8c0,0.3,0.1,0.6,0.2,0.9c0.2,0.6,0.5,1.1,0.8,1.5c0.7,1,1.8,1.7,3,1.9
			c1.2,0.2,2.5,0,3.6-0.6c1.1-0.6,1.8-2,3.2-1.9c0.3,0,0.4-0.4,0.1-0.5c-1-0.4-1.9,0.4-2.6,1c-0.9,0.9-2,1.5-3.3,1.5
			c-1.2,0-2.4-0.5-3.2-1.3c-0.4-0.4-0.8-1-1-1.5c-0.1-0.3-0.2-0.6-0.2-0.9c0-0.1,0-0.3-0.1-0.4c0-0.2-0.1-0.1-0.2-0.4
			C230.4,344.9,230.3,344.9,230.3,345L230.3,345z"/>
	</g>
</g>
<g>
	<g>
		<path d="M250,172.2c0.4,0.8,0.8,1.6,1.1,2.4c0.3,0.9,0.5,1.7,0.8,2.6c0.3,0.8,0.6,1.6,1.2,2.4c0.3,0.4,0.6,0.7,0.8,1.1
			c0.2,0.4,0.2,0.8,0.7,1.1c0.8,0.4,1.5-0.7,0.7-1.2c0,0-0.1-0.3-0.1-0.4c-0.1-0.2-0.2-0.4-0.3-0.6c-0.2-0.3-0.5-0.7-0.8-1
			c-0.5-0.7-0.8-1.5-1.1-2.3c-0.6-1.5-1-3.4-2.3-4.5C250.2,171.6,249.8,171.9,250,172.2L250,172.2z"/>
	</g>
</g>
<g>
	<path class="st5" d="M254.4,170.9c-0.7-0.2-1.4,0.2-2,0.5c-4.3,2.5-9.3,3.1-14.2,3.7c-0.8,0.1-1.6,0.2-2.3,0
		c-0.8-0.1-1.5-0.6-1.9-1.3c-0.6-1.2,0.1-3-0.9-3.9c-0.3-0.3-0.7-0.4-1-0.6c-1.5-0.9-1.7-3.1-1.7-4.9c0.6,0.5,1.3,0.9,1.9,1.4
		c-0.7-0.8-1.7-1.3-2.5-2c-0.8-0.7-1.4-1.9-1-2.8c0.2-0.4,0.5-0.7,0.6-1.1c0.3-0.8,0-1.8-0.5-2.5c-0.5-0.7-1.2-1.3-1.6-2.1
		c-0.4-0.8-0.4-1.9,0.3-2.4c0.3-0.2,0.6-0.3,0.9-0.5c2.3-0.9,4-3.1,4.2-5.6c0.1-0.7,0-1.3,0-2c-0.1-2.5-0.2-5.1-0.4-7.6
		c-0.1-2.1-0.2-4.3,0.4-6.3"/>
</g>
<g>
	<g>
		<path d="M282.8,167c-0.2-0.1-0.4-0.1-0.6,0c-0.2,0.1-0.5,0.2-0.7,0.3c-0.4,0.3-0.8,0.6-1,1c-0.2,0.4-0.4,0.9-0.3,1.4
			c0,0.6,0.3,1,0.6,1.6c0-0.3,0.1-0.5,0.1-0.8c-0.4,0.5-0.5,1-0.4,1.6c0.2-0.3,0.4-0.6,0.7-0.9c0.1,0-0.1,0-0.1,0c0,0-0.1,0-0.1,0
			c0,0,0,0,0,0c0,0,0,0-0.1,0c0,0-0.1,0-0.1-0.1c-0.2-0.1-0.4-0.3-0.6-0.4c-0.1-0.1-0.1-0.1-0.2-0.1c-0.1-0.1-0.2-0.1-0.3-0.2
			c-0.1-0.1-0.2-0.2-0.3-0.3c0,0-0.1-0.1-0.1-0.1c0,0-0.1-0.1-0.1-0.1c-0.2-0.3-0.3-0.6-0.3-1.1c0-0.5,0.2-1,0.3-1.5
			c0-0.7-1-0.9-1.3-0.3c-0.3,0.6-0.4,1.3-0.4,2c0,0.7,0.2,1.3,0.6,1.8c0.4,0.5,0.8,0.8,1.3,1.2c0.5,0.4,1.1,0.7,1.7,0.7
			c0.5,0,0.7-0.5,0.7-0.9c0,0,0,0,0-0.1c0,0,0,0,0,0c0-0.1,0-0.1,0-0.2c0,0,0-0.1,0.1-0.2c0.1-0.2,0.1-0.3,0.1-0.5
			c0-0.2-0.1-0.3-0.2-0.5c-0.2-0.4-0.4-0.8-0.3-1.2c0.1-0.4,0.4-0.7,0.7-1c0.2-0.2,0.4-0.3,0.5-0.5c0.2-0.2,0.4-0.3,0.4-0.6
			C282.9,167.1,282.9,167,282.8,167L282.8,167z"/>
	</g>
</g>
<g>
	<g>
		<path d="M278.3,166.9C278.3,166.9,278.3,166.9,278.3,166.9C278.3,166.9,278.3,166.8,278.3,166.9c-0.1-0.1-0.2-0.2-0.3-0.2
			c-0.1,0-0.2,0-0.4,0c-0.2,0-0.4,0-0.6,0.1c-0.5,0.2-0.8,0.5-1.1,0.9c-0.3,0.4-0.4,0.8-0.4,1.3c0,0.2,0,0.5,0.1,0.7
			c0,0.1,0,0.1,0.1,0.2c0.1,0.2,0,0,0,0.1c0,0,0,0.1,0,0.1c0,0,0-0.2,0-0.2c0.1-0.1,0.1-0.1,0.2-0.2c0.2-0.1,0.3,0,0.2-0.1
			c0,0-0.1-0.1-0.1,0c-0.1,0-0.2-0.1-0.3-0.1c-0.2-0.1-0.2-0.2-0.4-0.3c-0.2-0.2-0.4-0.5-0.5-0.9c0,0,0-0.1,0-0.1c0,0.1,0,0,0-0.1
			c0-0.1,0-0.2,0-0.3c0,0,0-0.2,0-0.1c0-0.1,0-0.1,0-0.2c0-0.1,0-0.2,0.1-0.3c0-0.1,0.1-0.3,0.3-0.5c0,0,0.1-0.1,0,0
			c0,0,0.1-0.1,0.1-0.1c0.1-0.1,0.2-0.2,0.3-0.2c0.3-0.2,0.2-0.6,0-0.9c-0.3-0.3-0.6-0.2-0.9,0c-1.2,1-1.5,2.9-0.6,4.1
			c0.2,0.3,0.5,0.6,0.9,0.8c0.3,0.2,0.8,0.5,1.2,0.3c0.5-0.1,0.6-0.7,0.5-1.2c-0.1-0.2-0.1-0.3-0.1-0.5c0-0.1,0-0.3,0-0.4
			c0.1-0.3,0.2-0.6,0.5-0.7c0.2-0.1,0.3-0.1,0.5-0.2c0.3-0.1,0.5-0.1,0.7-0.3c-0.1,0.1-0.1,0.1-0.2,0.2c0,0,0,0,0,0
			C278.5,167.5,278.6,167,278.3,166.9L278.3,166.9z"/>
	</g>
</g>
<g>
	<g>
		<path d="M275.3,165.7c-0.2-0.3-0.4-0.3-0.7-0.3c-0.4,0-0.6,0.3-0.8,0.6c-0.4,0.7-0.8,1.4-0.8,2.2c-0.1,0.8,0.2,1.6,0.4,2.3
			c0.1,0.4,0.2,0.8,0.4,1.2c0.1,0.4,0.2,0.9,0.4,1.3c0.3,0.5,1.1,0.3,1-0.3c0-0.6-0.3-1.3-0.5-1.9c-0.2-0.6-0.4-1.2-0.5-1.8
			c-0.1-0.6-0.1-1.1,0.1-1.6c0.1-0.3,0.2-0.5,0.3-0.8c0.1-0.1,0.1-0.3,0.2-0.4c0.1,0,0.1-0.1,0.1-0.2c-0.1,0-0.1,0,0,0
			C275.3,166.1,275.5,165.9,275.3,165.7L275.3,165.7z"/>
	</g>
</g>
<g>
	<g>
		<path d="M258.5,148.3c1-0.2,1.8-0.9,2.8-1.2c0.8-0.2,1.7-0.3,2.4,0c1.7,0.7,1.5,2.9,1.2,4.4c-0.4,2-0.9,3.9-1.8,5.7
			c-0.4,0.8-0.9,1.7-1.8,2.1c-0.9,0.4-1.7,0.1-2.6,0c-0.6-0.1-1,0.9-0.5,1.2c1.3,1,3.5,0.6,4.7-0.5c1.5-1.3,2.2-3.4,2.8-5.2
			c0.9-2.9,2.1-8.2-2-9.2c-0.9-0.2-1.9-0.1-2.8,0.2c-1,0.3-2.2,0.9-2.9,1.7C257.7,147.9,258,148.4,258.5,148.3L258.5,148.3z"/>
	</g>
</g>
<g>
	<g>
		<path d="M263,155.2c0.2-0.2,0.3-0.4,0.5-0.7c0.1-0.3,0.3-0.5,0.4-0.8c0.2-0.5,0.3-1,0.4-1.5c0-0.2,0-0.4-0.1-0.5
			c-0.1-0.1-0.2-0.3-0.4-0.3c-0.3-0.1-0.8,0.1-0.8,0.5c-0.1,0.5-0.2,1-0.3,1.5c-0.1,0.2-0.1,0.5-0.2,0.7c-0.1,0.2-0.2,0.5-0.2,0.7
			c0,0.2,0,0.5,0.2,0.6C262.6,155.4,262.8,155.4,263,155.2L263,155.2z"/>
	</g>
</g>
<g>
	<g>
		<path d="M262.5,147.7C262.5,147.7,262.5,147.8,262.5,147.7c-0.1,0.2-0.1,0.3,0,0.3c0,0.1,0.1,0.1,0.1,0.2c0,0,0.1,0,0.1,0.1
			c0.1,0,0.1,0.1,0.2,0.1c0.1,0,0.1,0,0.2,0c0.1,0,0.1,0,0.1-0.1c0.1-0.1,0.1-0.1,0.1-0.2c0-0.1,0-0.2,0-0.2c0,0,0-0.1,0-0.1
			c0,0,0-0.1,0-0.1c0,0-0.1-0.1-0.1-0.1c0,0-0.1,0-0.1-0.1c0,0-0.1,0-0.2,0c0,0-0.1,0-0.1,0c0,0-0.1,0-0.1,0c0,0-0.1,0.1-0.1,0.1
			C262.5,147.6,262.5,147.7,262.5,147.7L262.5,147.7z"/>
	</g>
</g>
<g>
	<g>
		<path d="M263.6,148.4c-0.7-1-2-0.9-2.9-0.2c-0.9,0.7-1.7,1.7-2.1,2.8c-0.5,1.2-0.1,2.4,0.5,3.5c0.2,0.5,0.5,1,0.6,1.5
			c0,0.5-0.5,1.1,0,1.6c0.3,0.3,0.9,0.3,1.1-0.1c0.5-0.9,0.3-1.9-0.1-2.8c-0.4-0.8-1-1.7-1-2.6c0.1-0.8,0.7-1.6,1.2-2.2
			c0.3-0.3,0.6-0.8,1-0.9c0.3-0.2,0.7-0.1,1.1,0.1C263.4,149.2,263.9,148.8,263.6,148.4L263.6,148.4z"/>
	</g>
</g>
<g>
	<g>
		<path d="M260.7,154.3c0.1-0.7,0-1.4,0.1-2.1c0-0.4,0.1-0.7,0.2-1.1c0.1-0.4,0.3-0.8,0.3-1.1c-0.1-0.4-0.5-0.7-0.9-0.4
			c-0.3,0.3-0.4,0.8-0.5,1.2c-0.1,0.4-0.2,0.9-0.2,1.3c-0.1,0.8,0,1.6,0.4,2.4C260.2,154.8,260.7,154.6,260.7,154.3L260.7,154.3z"/>
	</g>
</g>
<g>
	<g>
		<path d="M260.7,160.3c-1.6,1-3.5,1.7-5.3,0.9c-0.5-0.2-1.3,0.2-1.1,0.8c1,2.9,4.5,3.9,6.8,1.9c-0.4-0.3-0.8-0.6-1.1-0.9
			c-0.3,0.5-0.7,1.1-1,1.6c-0.2,0.2-0.3,0.7-0.6,0.7c-0.3,0-0.8-0.4-1-0.5c-0.4-0.3-1.1-0.3-1.2,0.3c-0.3,1.7,0.9,3.3,2.6,3.4
			c-0.2-0.2-0.5-0.5-0.7-0.7c-0.2,1.3,0,2.5,0.5,3.7c0.4-0.2,0.9-0.4,1.3-0.6c-0.8-1.2,3.2-1,3.7-1.1c1.3-0.4,1.9-1.7,3.1-2.1
			c-0.3-0.2-0.6-0.5-0.9-0.7c-0.2,1.7,0.5,3.3,1.8,4.4c0.5,0.4,1.4,0.1,1.2-0.7c-0.2-0.7,0.2-1.5,0.9-1.7c-0.3-0.2-0.6-0.3-0.9-0.5
			c0.8,2,2.7,2.9,4.6,3.6c0.7,0.3,1.2-0.8,0.7-1.2c-0.4-0.4-1.7-1.5-0.8-2c0.8-0.5,0-1.8-0.7-1.3c-1.8,1.2-0.7,3.2,0.6,4.4
			c0.2-0.4,0.5-0.8,0.7-1.2c-1.3-0.5-3-1.1-3.6-2.6c-0.1-0.4-0.5-0.6-0.9-0.5c-1.5,0.5-2.4,2-2,3.5c0.4-0.2,0.8-0.5,1.2-0.7
			c-1.1-0.8-1.6-2-1.4-3.3c0.1-0.5-0.5-0.9-0.9-0.7c-0.9,0.3-1.5,0.9-2.2,1.6c-1,0.9-2,0.6-3.2,0.6c-1.5,0.1-3.3,1.5-2.2,3.2
			c0.4,0.7,1.7,0.2,1.3-0.6c-0.4-1.1-0.6-2.1-0.4-3.3c0.1-0.4-0.4-0.7-0.7-0.7c-0.7-0.1-1.3-0.8-1.2-1.5c-0.4,0.1-0.8,0.2-1.2,0.3
			c0.8,0.6,1.8,1.3,2.9,0.7c1-0.5,1.6-2,2.1-2.9c0.5-0.7-0.5-1.4-1.1-0.9c-1.5,1.3-3.8,0.7-4.4-1.2c-0.4,0.3-0.7,0.5-1.1,0.8
			c2.3,1,5.2,0.7,6.7-1.4C261.6,160.6,261.1,160.1,260.7,160.3L260.7,160.3z"/>
	</g>
</g>
<g>
	<g>
		<path d="M234.1,139.6C234,139.6,234.1,139.6,234.1,139.6c0,0,0.1,0.1,0.2,0.1C234.2,139.7,234.1,139.6,234.1,139.6
			C234,139.6,234,139.5,234.1,139.6C234,139.6,234,139.6,234.1,139.6c-0.1-0.1-0.1-0.1-0.1-0.1c-0.1-0.1,0.1,0.1,0,0
			c0,0,0-0.1,0-0.1c-0.1-0.1,0,0,0,0c0,0-0.1-0.1-0.1-0.2c0,0,0-0.1,0-0.1c0,0,0,0.1,0,0c0,0,0-0.1,0-0.1c0,0,0-0.2,0-0.1
			c0,0.1,0,0,0-0.1c0,0,0-0.1,0-0.1c0-0.1,0-0.2,0.1-0.2c0,0,0.1-0.2,0,0c0,0.1,0,0,0,0c0.1-0.1,0.1-0.3,0.2-0.4c0,0,0-0.1,0.1-0.1
			c0.1-0.1-0.1,0.1,0,0c0,0,0.1-0.1,0.1-0.1c0.1-0.1-0.1,0.1,0,0c0,0,0,0,0.1,0c0.1,0,0.1-0.1,0.2-0.1c0.2-0.1,0.4-0.4,0.3-0.7
			c-0.1-0.3-0.3-0.4-0.6-0.5c-0.5,0-1,0.4-1.3,0.8c-0.2,0.3-0.4,0.8-0.5,1.2c-0.1,0.5,0,1.1,0.4,1.5c0.4,0.3,1,0.5,1.3,0.1
			c-0.1,0.1-0.1,0.1-0.2,0.2c0.1,0,0.1,0,0.2-0.1c0.1-0.1,0.2-0.3,0.1-0.4C234.4,139.6,234.2,139.6,234.1,139.6L234.1,139.6z"/>
	</g>
</g>
<g>
	<g>
		<path d="M235.5,138.6C235.5,138.6,235.5,138.6,235.5,138.6c0,0,0,0.1,0,0.2C235.5,138.7,235.5,138.7,235.5,138.6
			C235.5,138.6,235.5,138.6,235.5,138.6C235.5,138.6,235.5,138.7,235.5,138.6C235.5,138.6,235.5,138.7,235.5,138.6
			c0-0.1,0-0.1,0-0.2c0,0,0,0,0,0c0,0.1,0,0,0,0c0,0,0-0.1,0-0.1c0-0.1,0-0.2,0.1-0.3c0,0,0,0.1,0,0.1c0-0.2,0.1-0.3,0.1-0.5
			c0,0,0,0.1-0.1,0.1c0-0.1,0.1-0.2,0.2-0.3c0,0-0.1,0.1-0.1,0.1c0-0.1,0.1-0.1,0.1-0.1c0,0-0.1,0.1-0.1,0.1c0.1,0,0.1-0.1,0.2-0.1
			c0,0-0.1,0-0.1,0.1c0.1,0,0.1,0,0.2-0.1c-0.1,0-0.1,0-0.2,0c0.1,0,0.1,0,0.2,0c-0.1,0-0.1,0-0.2,0c0.1,0,0.2,0,0.3,0
			c-0.1,0-0.1,0-0.2,0c0.1,0,0.1,0,0.2,0c0.1,0,0.1,0,0.2,0c-0.1,0-0.1,0-0.2,0c0,0,0,0,0,0c0.2,0,0.3-0.1,0.4-0.2
			c0.1-0.1,0.1-0.3,0.1-0.5c-0.1-0.2-0.1-0.3-0.3-0.4c-0.1,0-0.2-0.1-0.3-0.1c-0.2-0.1-0.4,0-0.6,0c-0.4,0.1-0.7,0.4-0.9,0.8
			c-0.1,0.4-0.2,0.8-0.1,1.2c0.1,0.3,0.2,0.7,0.5,0.8c0.1,0,0.2,0,0.3-0.1c0,0,0,0,0,0C235.5,138.9,235.6,138.7,235.5,138.6
			L235.5,138.6z"/>
	</g>
</g>
<g>
	<g>
		<path d="M236.7,138.6C236.7,138.6,236.7,138.5,236.7,138.6c0-0.1,0,0.2,0-0.1c0,0,0-0.1,0-0.1c0,0.1,0,0,0,0c0-0.1,0-0.1,0.1-0.2
			c0-0.1,0,0.1,0,0c0,0,0-0.1,0-0.1c0-0.1,0.1-0.1,0.1-0.2c0.1-0.1,0,0,0,0c0,0,0-0.1,0.1-0.1c0,0,0.1-0.1,0.1-0.1c0,0,0,0,0,0
			c-0.1,0.1,0,0,0,0c0,0,0.1-0.1,0.1-0.1c0,0,0,0,0.1-0.1c0.1,0-0.1,0.1,0,0c0.1,0,0.1-0.1,0.2-0.1c0.1-0.1,0.2-0.1,0.3-0.2
			c0.1,0,0.1-0.1,0.2-0.1c0,0,0.2-0.1,0,0c0,0,0.1,0,0.1,0c0.3-0.1,0.5-0.3,0.6-0.6c0.1-0.2,0-0.5-0.2-0.6c-0.4-0.3-0.9,0-1.3,0.2
			c-0.3,0.2-0.6,0.4-0.8,0.6c-0.1,0.2-0.3,0.3-0.3,0.5c-0.1,0.2-0.1,0.3-0.1,0.5c0,0.2,0,0.3,0,0.5c0,0.1,0,0.1,0.1,0.2
			c0,0.1,0.1,0.1,0.1,0.2c0,0,0,0,0,0c0,0,0,0.1,0.1,0.1C236.3,139.2,236.9,139,236.7,138.6L236.7,138.6z"/>
	</g>
</g>
<g>
	<g>
		<path d="M237.5,138.2c0.3,0.2,0.8-0.1,1-0.3c0.1-0.1,0.3-0.2,0.4-0.3c0.1-0.1,0.1-0.1,0.2-0.2c0,0,0,0,0.1-0.1c0.1-0.1-0.1,0,0,0
			c0.1-0.1,0.2-0.1,0.3-0.2c0.1-0.1-0.1,0,0,0c0,0,0.1,0,0.1,0c0,0,0.1,0,0.1,0c0.1,0,0,0,0,0c0,0,0.1,0,0.1,0c0,0,0.1,0,0,0
			c-0.1,0,0,0,0,0c0,0,0.1,0,0.1,0c0.1,0,0,0,0,0c0,0,0,0,0.1,0c0.1,0,0.2,0.1,0.3,0.1c0.4,0.1,0.7-0.3,0.6-0.6
			c-0.1-0.5-0.6-0.7-1.1-0.7c-0.4,0-0.8,0.1-1.1,0.4c-0.3,0.2-0.6,0.5-0.9,0.7c-0.1,0.1-0.3,0.3-0.4,0.5c-0.1,0.1-0.1,0.2-0.2,0.3
			C237.2,137.9,237.3,138.1,237.5,138.2L237.5,138.2z"/>
	</g>
</g>
<g>
	<g>
		<path d="M240.6,138.2c0.1-0.1,0.2-0.1,0.2-0.1c0,0,0.1-0.1,0,0c-0.1,0,0,0,0,0c0,0,0.1,0,0.1-0.1c0.1,0,0.1-0.1,0.2-0.1
			c0,0,0.1,0,0.1,0c0.1,0-0.1,0,0,0c0,0,0,0,0.1,0c0.1,0,0.1,0,0.2-0.1c0,0,0,0,0.1,0c0,0,0.1,0,0,0c-0.1,0,0,0,0.1,0
			c0.2,0,0.3,0,0.5,0c0,0-0.1,0-0.1,0c0.1,0,0.3,0,0.4,0.1c0.2,0,0.5-0.2,0.5-0.4c0.1-0.2,0-0.5-0.2-0.6c-0.2-0.1-0.5-0.2-0.8-0.2
			c-0.2,0-0.5,0.1-0.7,0.1c-0.3,0.1-0.5,0.2-0.7,0.4c-0.1,0.1-0.1,0.1-0.2,0.2c-0.1,0.1-0.1,0.2-0.2,0.3c0,0,0,0.1-0.1,0.1
			c0,0.1,0,0.3,0.1,0.4C240.3,138.2,240.5,138.3,240.6,138.2L240.6,138.2z"/>
	</g>
</g>
<g>
	<g>
		<path d="M241.6,138.8C241.6,138.8,241.6,138.8,241.6,138.8C241.6,138.8,241.6,138.8,241.6,138.8c0.1-0.1,0.1-0.1,0.1-0.1
			c0.1,0-0.1,0,0,0c0.1,0,0.2-0.1,0.3-0.1c0.1,0,0.2-0.1,0.3-0.1c0,0,0,0,0.1,0c0.1,0-0.2,0,0,0c0.1,0,0.1,0,0.2,0c0,0-0.1,0,0,0
			c0,0,0,0,0.1,0c0.1,0,0.1,0,0.2,0s0.1,0,0.2,0c0,0,0,0,0.1,0c0.1,0,0,0,0,0c0,0,0.1,0,0.2,0c0.1,0,0.1,0,0.2,0
			c0.1,0,0.3,0.1,0.4,0.1c0.2,0,0.4-0.2,0.5-0.3c0.1-0.2,0.1-0.5-0.1-0.6c-0.5-0.4-1.2-0.4-1.8-0.3c-0.3,0-0.5,0.2-0.8,0.3
			c-0.2,0.1-0.4,0.3-0.6,0.5c-0.1,0.2-0.2,0.4,0,0.6C241.2,139,241.4,138.9,241.6,138.8L241.6,138.8z"/>
	</g>
</g>
<g>
	<g>
		<path d="M243.6,139.7c0.2,0,0.4,0,0.7,0c0.2,0,0.4,0,0.7,0c0.4,0,0.9,0,1.3,0c0.3,0,0.5-0.2,0.5-0.4c0-0.3-0.1-0.5-0.4-0.5
			c-0.5-0.2-1-0.2-1.5-0.1c-0.3,0-0.5,0-0.8,0.1c-0.3,0.1-0.5,0.1-0.7,0.2c-0.2,0.1-0.2,0.3-0.2,0.5
			C243.2,139.5,243.4,139.7,243.6,139.7L243.6,139.7z"/>
	</g>
</g>
<g>
	<g>
		<path d="M246.3,140.5c0.2,0,0.4,0,0.5,0c0.1,0,0.2,0,0.3,0c0,0,0.1,0,0.1,0c0.1,0,0,0,0,0c0.1,0,0.1,0,0.2,0c-0.1,0,0,0,0,0
			c0,0,0.1,0,0.1,0c0.1,0,0.2,0,0.2,0.1c0.2,0.1,0.3,0.1,0.5,0.1c0.2,0,0.4,0,0.5-0.2c0-0.1,0.1-0.2,0.1-0.2c0-0.1-0.1-0.3-0.1-0.3
			c-0.1-0.1-0.2-0.2-0.4-0.3c-0.1,0-0.2-0.1-0.3-0.1c-0.2-0.1-0.4-0.1-0.7-0.1c-0.2,0-0.4,0-0.7,0.1c-0.2,0-0.4,0.1-0.6,0.3
			C245.8,140.1,245.9,140.5,246.3,140.5L246.3,140.5z"/>
	</g>
</g>
<g>
	<g>
		<path d="M235.4,142.9c0.2,0.4,0.5,0.7,0.8,1c0.3,0.3,0.5,0.5,0.5,0.9c0,0.5-0.1,0.9-0.2,1.4c-0.1,0.5-0.3,1.1,0.1,1.6
			c0.3,0.4,0.9,0.5,1.4,0.6c0.5,0.1,1.1,0.2,1.6,0.2c1.1,0.1,2.2,0,3.2,0c1,0,1-1.6,0-1.6c-1,0-2,0.1-3,0.1c-0.4,0-0.9,0-1.3-0.1
			c-0.3,0-0.5-0.1-0.8-0.2c-0.2-0.1-0.1-0.1,0,0.2c0.2,0.4,0.1,0.1,0.1-0.1c0.2-0.9,0.4-1.9,0-2.8c-0.4-0.8-1.2-1.1-1.8-1.6
			C235.7,142.1,235.1,142.5,235.4,142.9L235.4,142.9z"/>
	</g>
</g>
<g>
	<g>
		<path d="M237.9,146.3c0.2,0.2,0.4,0.3,0.7,0.3c0.2,0.1,0.3,0.1,0.5,0.1c0.3,0.1,0.7,0.2,1,0.2c0.2,0,0.4,0,0.6-0.1
			c0.1-0.1,0.3-0.3,0.3-0.4c0.1-0.4-0.1-0.8-0.5-0.9c-0.3-0.1-0.7-0.1-1-0.2c-0.2,0-0.4-0.1-0.6-0.1c-0.2,0-0.4,0-0.6,0
			c-0.2,0.1-0.3,0.2-0.4,0.4C237.7,146,237.8,146.2,237.9,146.3L237.9,146.3z"/>
	</g>
</g>
<g>
	<g>
		<path d="M237,146.4c-0.1-0.1-0.1-0.1-0.2-0.1c0,0-0.1,0-0.1,0C236.8,146.3,236.9,146.3,237,146.4c-0.1-0.1-0.2-0.1-0.3-0.2
			c-0.1,0-0.1,0-0.2,0c0,0-0.1,0-0.1,0c-0.1,0-0.2,0-0.3,0c-0.1,0-0.2,0-0.3,0c0,0-0.1,0-0.1,0c0,0-0.1,0-0.1,0
			c-0.1,0-0.2,0-0.2,0.1c0,0,0,0,0,0c0,0-0.1,0.1-0.1,0.1c0,0-0.1,0.1-0.1,0.1c-0.1,0.1-0.1,0.3-0.1,0.4c0,0.1,0.1,0.2,0.1,0.3
			c0.1,0.1,0.2,0.2,0.3,0.2c0.1,0,0.3,0,0.4,0c0.1,0,0.2,0,0.3,0c0.1,0,0.3,0,0.4-0.1c0,0,0.1,0,0.1,0c0.1,0,0.1,0,0.2-0.1
			c0.1-0.1,0.1-0.1,0.2-0.2c-0.1,0.1-0.1,0.1-0.2,0.2c0.1,0,0.1-0.1,0.1-0.1c0.1-0.1,0.2-0.2,0.1-0.3
			C237.1,146.6,237.1,146.5,237,146.4L237,146.4z"/>
	</g>
</g>
<g>
	<g>
		<path d="M237.1,147C237.1,147,237.1,147,237.1,147c0,0,0.1,0,0.1,0C237.3,147.1,237.3,147.1,237.1,147
			C237.1,147,237.1,147,237.1,147C237.1,147,237.1,147,237.1,147C237.1,147,237.1,147,237.1,147c-0.1-0.1-0.1-0.1-0.2-0.1
			c-0.1,0-0.2,0-0.3,0c-0.1,0-0.2,0-0.3,0.1c-0.1,0-0.2,0.1-0.3,0.1c-0.1,0-0.1,0-0.2,0.1c-0.2,0.1-0.2,0.1-0.4,0.2
			c-0.1,0.1-0.2,0.4-0.1,0.5c0,0.1,0.1,0.2,0.1,0.2c0.1,0.1,0.4,0.2,0.5,0.1c0.1,0,0.3-0.1,0.4-0.2c0.1-0.1,0.2-0.1,0.3-0.2
			c0.1-0.1,0.2-0.1,0.3-0.1c0.1,0,0.1,0,0.1-0.1c0,0,0,0,0,0c0,0,0.1-0.1,0.1-0.1c0,0,0,0,0,0c0,0,0.1-0.1,0.1-0.1c0,0,0,0,0,0
			c0-0.1,0-0.1,0,0c0,0-0.1,0.1-0.1,0.1c0,0,0,0,0,0c0.1,0,0.2-0.2,0.2-0.3C237.3,147.1,237.2,147,237.1,147L237.1,147z"/>
	</g>
</g>
<g>
	<g>
		<path d="M237,147.5c-0.1,0.1-0.2,0.1-0.3,0.2c0,0,0.1,0,0.1,0c-0.1,0-0.2,0.1-0.3,0.1c0,0,0.1,0,0.1,0c-0.1,0-0.1,0-0.2,0.1
			c-0.1,0-0.2,0.1-0.3,0.1c0,0,0.1,0,0.1-0.1c0,0-0.1,0-0.1,0c-0.1,0-0.2,0.1-0.2,0.2c-0.1,0.1-0.1,0.3,0,0.4c0,0.1,0.1,0.1,0.1,0.2
			c0.1,0.1,0.1,0.1,0.2,0.1c0.1,0,0.2,0,0.4,0c0.1,0,0.2-0.1,0.2-0.1c0.1-0.1,0.2-0.1,0.3-0.2c0.1-0.1,0.1-0.1,0.2-0.2
			c0.1-0.1,0.1-0.2,0.2-0.3c0.1-0.1,0.1-0.3-0.1-0.4C237.3,147.5,237.1,147.4,237,147.5L237,147.5z"/>
	</g>
</g>
<g>
	<g>
		<path d="M237.7,147.9C237.7,147.9,237.7,147.9,237.7,147.9c0,0,0.1-0.1,0.1-0.1C237.7,147.8,237.7,147.8,237.7,147.9
			c-0.1,0.1-0.1,0.1-0.1,0.2C237.6,148,237.6,148,237.7,147.9c-0.1,0.2-0.2,0.3-0.3,0.4c-0.1,0.1-0.1,0.2-0.2,0.3
			c0,0,0.1-0.1,0.1-0.1c-0.1,0.1-0.1,0.2-0.2,0.2c0,0-0.1,0.1-0.1,0.1c0,0-0.1,0.1-0.1,0.1c-0.1,0.1-0.1,0.2-0.1,0.3
			c0,0,0,0.1,0,0.1c0,0.1,0,0.1,0.1,0.2c0.1,0.1,0.2,0.1,0.3,0.2c0.3,0.1,0.6-0.1,0.8-0.3c0.1-0.1,0.2-0.3,0.3-0.4
			c0.1-0.2,0.2-0.4,0.2-0.6c0-0.1,0-0.1,0-0.2c0-0.1,0-0.1,0-0.2c0-0.1-0.2-0.3-0.3-0.3c0.1,0.1,0.1,0.1,0.2,0.2c0,0,0,0,0,0
			c-0.1-0.1-0.2-0.2-0.3-0.2C237.9,147.7,237.8,147.8,237.7,147.9L237.7,147.9z"/>
	</g>
</g>
<g>
	<g>
		<path class="st5" d="M263.5,124.4c0.5-1.2,1.1-2.5,1.8-3.6c0.8-1.1,1.7-2.1,2.9-2.7c0.6-0.3,1.2-0.5,1.8-0.3
			c0.6,0.2,1.1,0.7,1,1.4c-0.1,0.4-0.4,0.8-0.6,1.1c-0.3,0.7-0.1,1.6,0,2.4c0,0.8-0.3,1.8-1.1,1.9c0,0.2,0.1,0.4,0.3,0.5
			c0.2,0.1,0.4,0.1,0.5,0.3c0.4,0.3,0.4,0.9,0.3,1.4c-0.1,0.6-0.2,1.2-0.3,1.7c0,0.1,0,0.2-0.1,0.3c-0.1,0.1-0.2,0.2-0.3,0.3
			c-0.2,0.2-0.1,0.6,0.1,0.8s0.4,0.4,0.6,0.6c0.4,0.4,0.8,0.8,1.1,1.3c0.1,0.1,0.1,0.2,0.1,0.3c0,0.1-0.1,0.1-0.2,0.1
			c-0.4,0.2-0.9-0.3-1.1-0.7c-0.2-0.4-0.4-1-0.9-1.1c-0.4-0.1-0.8,0.2-1.2,0.3c-0.7,0.3-1.6-0.1-2.1-0.7c-0.5-0.6-0.8-1.4-1.1-2.1
			s-0.7-1.5-1.3-1.9c0.3,0.6,0.6,1.2,0.8,1.8c0.1,0.2,0.1,0.5-0.1,0.6c-0.3,0.2-0.6-0.2-0.8-0.5c-0.2-0.6-0.5-1.1-0.7-1.7
			c0.1,0.8,0.2,1.7,0.3,2.5c0,0.2,0.1,0.4,0.1,0.7c0.1,0.6,0.2,1.3,0,1.9c-0.2,0.6-0.6,1.2-1.3,1.3c-0.2,0-0.4,0-0.6,0.1
			c-0.5,0.2-0.5,0.9-0.4,1.5s0.3,1.2-0.1,1.6c-0.4-0.1-0.7-0.6-0.7-1.1c0-0.5,0.2-0.9,0.2-1.3c0-0.4-0.1-1-0.5-1.2
			c-0.1-0.1-0.3-0.1-0.4-0.2c-0.1-0.1-0.2-0.3-0.3-0.5c-0.3-0.7-1.5-0.9-1.7-1.7c-0.1-0.3,0-0.6,0-0.9c0-0.3-0.2-0.6-0.5-0.6
			c-0.1,0.2-0.3,0.2-0.5,0.1s-0.2-0.3-0.1-0.5"/>
	</g>
	<g>
		<path class="st5" d="M256.7,128.4c-1-1.7-2.4-3.1-4.2-3.9c-0.1-0.1-0.3-0.2-0.3-0.3c0-0.1,0.1-0.1,0.1-0.2
			c0.9-1.2,2.7-1.5,4.2-1.4c2.3,0.2,4.4,1.1,6.2,2.6c-0.1-0.3-0.2-0.8,0.1-0.8c-0.3-0.8-1.2-1.4-2.1-1.3c0.8,0,1.5,0.4,2.1,1
			c0-0.7,0.3-1.3,0.9-1.8c-0.3,0.5-0.5,1-0.7,1.5c0,0.1-0.1,0.2,0,0.3c0.1,0.3,0.6,0.4,0.6,0.7c0.1-0.1,0.1-0.1,0.1-0.2"/>
	</g>
</g>
<g>
	<path class="st6" d="M255.6,98.8"/>
</g>
<g>
	<g>
		<path class="st3" d="M245.5,101.6c-1,2.1-1.2,4.6-0.3,6.8c0.6,1.6,1.7,3.1,1.8,4.8c-0.6-0.5-1.1-1.3-1.2-2.1c0.2,1,0.6,2,1.1,2.8
			c0.1,0.1,0.2,0.3,0.3,0.4c0.2,0.1,0.4,0.2,0.6,0.3c0.4,0.2,0.6,0.6,0.9,0.9c0.2,0.3,0.6,0.7,1,0.7c-0.3-0.7-0.8-1.3-1.3-1.8
			c1.1,0.3,1.8,1.2,2.4,2.1c0.7,0.9,1.5,1.9,2.6,1.9"/>
	</g>
	<g>
		<path class="st3" d="M253.4,118.4c1.7-0.5,2.9-2.1,3.5-3.8c0.3-0.8,0.5-1.6,0.4-2.4c-0.1-0.8-0.5-1.6-1.2-2
			c-0.7-0.4-1.6-0.3-2.5-0.2c0.7,0.2,1.3-0.5,1.4-1.2c0.1-0.7-0.3-1.4-0.6-2c-0.6-1.1-1.1-2.3-1.2-3.5c-1.1,0.7-2.1,1.6-2.9,2.6"/>
	</g>
	<g>
		<path class="st3" d="M250.3,106c-0.7-0.6-1.3-1.1-1.8-1.8c-0.7-0.8-1.1-1.9-2.1-2.4c-0.1-0.1-0.3-0.1-0.4-0.1
			c-0.2,0.1-0.3,0.2-0.4,0.2"/>
	</g>
	<g>
		<path class="st3" d="M253.5,118.4c0.7-1,0.8-2.4,0.8-3.6c0-1,0.1-2-0.2-2.9c-0.3-0.9-1-1.8-2-2c-0.2,0-0.4-0.1-0.6-0.2
			c-0.5-0.3-0.5-1.1-0.5-1.7c0-0.9-0.5-1.7-1.1-2.3"/>
	</g>
</g>
<g>
	<path class="st2" d="M261.5,106c-0.1-3.4,0.3-6.8,1.2-10.1c0.1-0.3,0.3-0.8,0.6-0.8c0.2,0,0.3,0.1,0.4,0.2c0.8,0.6,1.2,1.5,1.4,2.5
		c0.2,1,0.2,2,0,2.9c0.6-0.4,1.3-0.7,2.1-0.7c0.7,0,1.5,0.3,1.8,1c0.4,0.8,0,1.9,0.6,2.6c0.2,0.2,0.5,0.4,0.7,0.6
		c0.4,0.5,0.2,1.3-0.3,1.7s-1.2,0.5-1.8,0.4c0.9,0.4,1.5,1.2,1.8,2.2c0.3,0.9,0.1,2-0.4,2.8c-0.1,0.1-0.2,0.3-0.4,0.3
		c-0.2,0-0.3,0-0.5-0.1c-1.3-0.5-2.6-1.1-3.7-1.9c-0.4-0.3-0.7-0.6-1.1-0.9c-0.6-0.5-1.3-0.9-2-1.2c0.6,0.6,1.1,1.2,1.5,1.8
		c-1.2-0.5-2.2-1.5-2.6-2.7c-0.3-0.9-0.4-1.9-0.4-2.9c0.2,0.8,0.5,1.5,0.9,2.2"/>
</g>
<g>
	<path class="st6" d="M265.2,100.6c-0.3,0.2-0.6,0.4-0.9,0.7c-0.7,0.6-1.3,1.2-1.8,2c-0.5,0.8-0.8,1.7-0.7,2.6"/>
</g>
<g>
	<path class="st2" d="M306.5,113.3c1.4-0.7,2.8-1.5,4.3-1.6c0.5,0,1,0,1.4,0.4c0.2,0.2,0.3,0.4,0.1,0.6c-0.1,0.1-0.2,0.2-0.4,0.2
		c-0.4,0.1-0.8,0.4-1.1,0.8c-0.3,0.4-0.5,0.9-0.8,1.3c0,0.1-0.1,0.1-0.2,0.2c-0.1,0.1-0.2,0.1-0.3,0c-0.5-0.1-0.9-0.2-1.3-0.5
		c-0.1,0.4,0.4,0.7,0.5,1.1c0.1,0.3,0.1,0.5,0,0.8c-0.1,0.4-0.4,0.8-0.7,0.9c-0.3,0.2-0.8,0.2-1.1,0.1c-0.4-0.1-0.8-0.3-1-0.6
		c-0.3-0.5-0.2-1.2-0.1-1.8c0.1-0.4,0.2-0.8,0.3-1.3c-0.2,0.3-0.4,0.7-0.5,1.1c-0.1,0-0.2-0.1-0.3-0.1c0.1-0.4,0.3-0.8,0.5-1.2
		c-0.3,0.1-0.6,0.5-0.7,0.8c-0.1,0.2-0.1,0.4-0.2,0.6c-0.1,0.1-0.2,0.2-0.3,0.2c-0.3,0.2-0.5,0.3-0.8,0.5c-0.2,0.1-0.3,0.2-0.5,0.2
		c-0.2,0-0.4-0.1-0.6-0.2c-0.2-0.1-0.5-0.2-0.6-0.4c-0.3-0.3-0.3-0.8-0.3-1.3c0-0.2,0-0.4,0.1-0.6c0.2-0.5,0.9-0.7,1.5-0.9
		c-0.2-0.2-0.4-0.4-0.6-0.6c-0.1,0-0.2,0-0.3-0.1c0.2-0.3,0.3-0.6,0.4-1c0-0.1,0.1-0.3,0.1-0.4c0-0.5-0.3-1-0.3-1.5
		c0-0.1,0.1-0.3,0-0.4c0-0.1-0.1-0.2-0.2-0.2c-0.2-0.3,0.1-0.6,0.4-0.6c0.3,0,0.6,0.2,0.8,0.4c0.3,0.4,0.6,0.8,0.8,1.2
		c0.1,0.2,0.3,0.5,0.4,0.7c0.2,0.3,0.3,0.5,0.4,0.8c0.1,0.2,0.1,0.4,0.1,0.6c0.1,0.6,0.3,1.1,0.5,1.6c0.3-0.5,0.3-1.1,0.2-1.6
		c0.1,0.3,0.1,0.7,0.2,1c0.2-0.3,0.6-0.4,0.9-0.5c-0.5,0.1-0.9,0.5-1.1,1c0.2-0.1,0.4-0.2,0.7-0.1"/>
</g>
<g>
	<g>
		<path class="st5" d="M244.7,117.8c0.5,1.7,0.3,3.6-0.6,5.1c-0.6,1.1-1.6,2-1.9,3.3c0.5-0.3,1-0.8,1.2-1.4
			c-0.3,0.7-0.7,1.4-1.2,1.9c-0.1,0.1-0.2,0.2-0.3,0.2c-0.2,0.1-0.3,0.1-0.5,0.1c-0.3,0.1-0.5,0.4-0.8,0.6c-0.2,0.2-0.5,0.4-0.8,0.4
			c0.3-0.5,0.7-0.8,1.2-1.2c-0.8,0.1-1.5,0.7-2.1,1.3c-0.6,0.6-1.3,1.2-2.1,1.1"/>
	</g>
	<g>
		<path class="st5" d="M236.7,129.3c-1.2-0.6-1.8-1.9-2.1-3.3c-0.1-0.6-0.1-1.2,0-1.8c0.2-0.6,0.6-1.1,1.2-1.3
			c0.6-0.2,1.3,0,1.9,0.2c-0.5,0.1-0.9-0.5-0.9-1.1c0-0.5,0.4-1,0.7-1.4c0.6-0.7,1.1-1.5,1.3-2.5c0.7,0.7,1.3,1.4,1.8,2.3"/>
	</g>
	<g>
		<path class="st5" d="M240.6,120.5c0.6-0.3,1.1-0.7,1.6-1.1c0.6-0.5,1.1-1.2,1.8-1.5c0.1,0,0.2-0.1,0.3,0c0.1,0.1,0.2,0.2,0.3,0.2"
			/>
	</g>
	<g>
		<path class="st5" d="M236.7,129.3c-0.4-0.9-0.3-1.8-0.2-2.8c0.1-0.7,0.2-1.5,0.5-2.2c0.3-0.7,1-1.2,1.7-1.2c0.2,0,0.3,0,0.5,0
			c0.4-0.2,0.5-0.7,0.6-1.2c0.1-0.6,0.6-1.2,1.1-1.5"/>
	</g>
</g>
<g>
	<path class="st4" d="M286.2,118.8c1.9-2,3.9-4.2,6.4-5.2c0.8-0.3,1.7-0.5,2.5-0.1c0.4,0.2,0.7,0.5,0.6,0.9
		c-0.1,0.3-0.3,0.4-0.5,0.6c-0.7,0.5-1.2,1.2-1.5,2c-0.3,0.9-0.4,1.8-0.5,2.7c0,0.1-0.1,0.3-0.2,0.4c-0.1,0.1-0.3,0.2-0.5,0.2
		c-0.8,0.2-1.7,0.2-2.5-0.1c0.1,0.7,1,1,1.5,1.6c0.3,0.4,0.4,0.9,0.5,1.4c0,0.7-0.2,1.5-0.7,2c-0.5,0.5-1.2,0.7-1.9,0.8
		c-0.7,0.1-1.5,0-2.1-0.4c-0.9-0.7-1-1.9-1.1-3c-0.1-0.8-0.1-1.6-0.2-2.3c-0.1,0.7-0.2,1.4-0.2,2.1c-0.2,0-0.4,0-0.6-0.1
		c0-0.8,0.1-1.5,0.2-2.3c-0.5,0.4-0.8,1.1-0.8,1.8c0,0.4,0.1,0.7,0,1.1c-0.1,0.2-0.2,0.4-0.3,0.6c-0.3,0.4-0.7,0.9-1,1.3
		c-0.2,0.3-0.4,0.6-0.8,0.7c-0.3,0.1-0.7,0.1-1.1,0c-0.5-0.1-0.9-0.1-1.3-0.4c-0.7-0.4-1-1.2-1.2-2c-0.1-0.3-0.2-0.7-0.2-1
		c0.1-1.1,1.1-1.8,2-2.3c-0.5-0.2-0.9-0.5-1.4-0.8c-0.2,0.1-0.4,0.1-0.6,0c0.1-0.6,0.1-1.3,0.1-1.9c0-0.3,0-0.5-0.1-0.8
		c-0.2-0.9-1.1-1.5-1.4-2.5c-0.1-0.3-0.1-0.5-0.3-0.7c-0.1-0.1-0.3-0.2-0.5-0.3c-0.4-0.3-0.1-1.1,0.4-1.3s1.1,0,1.5,0.3
		c0.7,0.4,1.4,1,2.1,1.5c0.4,0.3,0.8,0.7,1.2,1c0.4,0.4,0.9,0.7,1.2,1.2c0.2,0.3,0.4,0.7,0.6,1c0.5,0.9,1.1,1.7,1.8,2.4
		c0.2-1,0-2-0.6-2.8c0.3,0.6,0.6,1.1,0.9,1.7c0.3-0.6,0.7-1.1,1.3-1.3c-0.8,0.5-1.2,1.4-1.2,2.3c0.3-0.3,0.7-0.5,1.1-0.6"/>
</g>
<g>
	<g>
		<path class="st1" d="M306.4,123.7c0.5,1.7,0.3,3.6-0.6,5.1c-0.6,1.1-1.6,2-1.9,3.3c0.5-0.3,1-0.8,1.2-1.4
			c-0.3,0.7-0.7,1.4-1.2,1.9c-0.1,0.1-0.2,0.2-0.3,0.2c-0.2,0.1-0.3,0.1-0.5,0.1c-0.3,0.1-0.5,0.4-0.8,0.6c-0.2,0.2-0.5,0.4-0.8,0.4
			c0.3-0.5,0.7-0.8,1.2-1.2c-0.8,0.1-1.5,0.7-2.1,1.3c-0.6,0.6-1.3,1.2-2.1,1.1"/>
	</g>
	<g>
		<path class="st1" d="M298.4,135.1c-1.2-0.6-1.8-1.9-2.1-3.3c-0.1-0.6-0.1-1.2,0-1.8c0.2-0.6,0.6-1.1,1.2-1.3
			c0.6-0.2,1.3,0,1.9,0.2c-0.5,0.1-0.9-0.5-0.9-1.1s0.4-1,0.7-1.4c0.6-0.7,1.1-1.5,1.3-2.5c0.7,0.7,1.3,1.4,1.8,2.3"/>
	</g>
	<g>
		<path class="st1" d="M302.3,126.3c0.6-0.3,1.1-0.7,1.6-1.1c0.6-0.5,1.1-1.2,1.8-1.5c0.1,0,0.2-0.1,0.3,0c0.1,0.1,0.2,0.2,0.3,0.2"
			/>
	</g>
	<g>
		<path class="st1" d="M298.4,135.1c-0.4-0.9-0.3-1.8-0.2-2.8c0.1-0.7,0.2-1.5,0.5-2.2s1-1.2,1.7-1.2c0.2,0,0.3,0,0.5,0
			c0.4-0.2,0.5-0.7,0.6-1.2c0.1-0.6,0.6-1.2,1.1-1.5"/>
	</g>
</g>
<path class="st0" d="M266.6,132.8"/>
<g>
	<g>
		<path d="M86.3,435.4c0.3-0.8,0.6-1.5,1.5-1.9c0.3-0.1,0.6,0,1,0.1c0.3,0.3,0.3,1,0.3,1.2c0,1-0.1,1.9-0.3,2.8
			c-0.1,1-0.5,1.7-0.5,2.6c0,1.4,1.1,2.6,2.3,3.1c1.5,0.8,3.5,0.6,5,0.3c0.5-0.1,0.5-1-0.1-1c-1.9,0.1-3.7,0.5-5.3-0.8
			c-0.6-0.5-1-1.2-1-2c0-1.1,0.5-2,0.6-3c0.1-1,0.1-1.9,0.1-3c0-0.6-0.3-1.2-1-1.4c-1.5-0.5-2.5,1.1-3,2.3
			C85.7,435.4,86.2,435.5,86.3,435.4L86.3,435.4z"/>
	</g>
</g>
<g>
	<g>
		<path d="M98.7,432.1c-1.5,0.6-2.8,2.2-3.1,3.9c-0.3,1.7,0.5,3.5,1.9,4.5c1.4,1.1,3.3,1.1,4.7,0.1c1.4-1,2.3-2.6,1.7-4.4
			c-0.6-1.7-2.8-3.1-4.5-2.2c-0.5,0.3-0.3,1.1,0.3,1.1c0.6,0,1.1-0.1,1.7,0.1c0.5,0.3,1,0.6,1.2,1.1c0.6,1.1,0.1,2.3-0.8,3.1
			c-2.3,1.9-5.3-0.5-5.1-3.1c0-1.5,1.1-3.1,2.3-4C99.1,432.2,98.8,431.9,98.7,432.1L98.7,432.1z"/>
	</g>
</g>
<g>
	<g>
		<path d="M74.1,426.5c2.6-9.1,4.4-18.3,4.8-27.8c-0.3,0.1-0.8,0.1-1.1,0.3c2.5,3.9,3.1,8.9,4,13.3c1.1,4.8,2.2,9.8,3.3,14.7
			c0.3-0.1,0.8-0.3,1.1-0.5c-2.2-5-7.3-7.2-12.2-9.1c0,0.3-0.1,0.8-0.1,1.1c4.5-0.6,9.2-1.4,13.6-2.6c0.8-0.1,0.5-1.2-0.3-1.1
			c-4.4,1.1-8.9,2.2-13.4,2.8c-0.6,0.1-0.5,1,0,1.1c4.4,1.9,9.2,4,11.4,8.6c0.3,0.6,1.2,0.1,1.1-0.5c-1.1-5-2.2-10.1-3.5-15.1
			c-1-4.4-1.5-9.2-4.2-13.1c-0.3-0.5-1.1-0.3-1.1,0.3c-0.5,9.4-1.7,18.6-4.4,27.6C73.4,426.6,74,427,74.1,426.5L74.1,426.5z"/>
	</g>
</g>
<g>
	<g>
		<path d="M84.5,398.5c0.3,4.4,1.1,8.6,1.9,12.8c0.8,4.4,1.7,8.7,2.6,13.1c0.1,0.3,0.6,0.6,1,0.5c1.1-0.8,1.5-2,1.2-3.3
			c-0.3-0.8-1.4-0.5-1.2,0.3c0.1,0.8,0,1.4-0.6,1.9c0.3,0.1,0.6,0.3,1,0.5c-1-4.2-1.9-8.6-2.8-12.8c-0.8-4.2-1.4-8.6-2.3-13
			C85.2,398.1,84.5,398.2,84.5,398.5L84.5,398.5z"/>
	</g>
</g>
<g>
	<g>
		<path d="M103.7,428.7c0.1,0.9,0.7,1.7,1.1,2.5c0.5,0.8,0.9,1.6,1.4,2.4c0.4,0.8,0.9,1.6,1.3,2.4c0.2,0.4,0.4,0.8,0.6,1.2
			c0.2,0.4,0.4,1,0.9,1.2c0.5,0.2,1.2,0.1,1.4-0.5c0.1-0.3,0.1-0.6-0.1-0.9c-0.1-0.2-0.2-0.4-0.3-0.6c-0.2-0.4-0.4-0.8-0.7-1.2
			c-0.5-0.8-1-1.6-1.5-2.4c-0.5-0.8-1-1.5-1.5-2.3c-0.2-0.4-0.5-0.8-0.8-1.1c-0.3-0.4-0.6-0.8-1-1.1
			C104.3,427.9,103.7,428.2,103.7,428.7L103.7,428.7z"/>
	</g>
</g>
<g>
	<g>
		<path d="M114.6,424.2c-0.4,0.1-0.7,0.1-1.1,0.3c-0.4,0.1-0.7,0.3-1.1,0.5c-0.7,0.4-1.3,0.9-1.7,1.7c-0.7,1.3-0.4,3,0.6,4
			c1.3,1.2,3.1,0.8,4.1-0.6c1.1-1.5,1-3.6,0.3-5.2c-0.6,0.3-1.1,0.7-1.7,1c0.7,1.5,1.7,2.9,2.9,4.1c0.6,0.6,1.3,1.2,1.9,1.7
			c0.7,0.5,1.5,1.2,2.3,1.2c0.6,0,1.2-0.8,0.8-1.4c-0.5-0.7-1.3-1-2-1.4c-0.6-0.4-1.2-0.9-1.7-1.4c-1.1-1.1-1.9-2.3-2.6-3.7
			c-0.2-0.5-0.9-0.6-1.3-0.3c-0.5,0.3-0.6,0.8-0.3,1.3c0.4,1,0.4,2.2-0.2,3.1c-0.2,0.3-0.5,0.6-0.9,0.6c-0.1,0-0.4-0.2-0.5-0.4
			c-0.5-0.7-0.3-1.4,0.1-2.1c0.3-0.4,0.6-0.8,1-1.1c0.2-0.2,0.4-0.4,0.7-0.6c0.2-0.2,0.4-0.5,0.6-0.6
			C115.1,424.6,114.9,424,114.6,424.2L114.6,424.2z"/>
	</g>
</g>
</svg>
