<?xml version="1.0" encoding="utf-8"?>
<!-- Generator: Adobe Illustrator 25.1.0, SVG Export Plug-In . SVG Version: 6.00 Build 0)  -->
<svg version="1.1" id="Lager_2_1_" xmlns="http://www.w3.org/2000/svg" xmlns:xlink="http://www.w3.org/1999/xlink" x="0px" y="0px"
	 viewBox="0 0 500 500" style="enable-background:new 0 0 500 500;" xml:space="preserve">
<style type="text/css">
	.st0{fill:#FFFFFF;}
	.st1{fill:#664020;}
	.st2{fill:#D8D1B4;}
	.st3{fill:#E0DBC3;}
	.st4{fill:#CEC0BA;}
	.st5{fill:#56341B;}
	.st6{fill:#E2D0C7;}
	.st7{fill:#2D1D12;}
	.st8{fill:#A57A68;}
	.st9{fill:#4F3D33;}
	.st10{fill:#BC8F79;}
	.st11{fill:#3F2D21;}
	.st12{fill:#306A7A;}
	.st13{fill:#C9C3A9;}
	.st14{fill:#7C5D52;}
	.st15{fill:#382B24;}
</style>
<g id="XMLID_2_">
	<g>
		<polygon class="st0" points="261.4,214.4 261.4,214.5 261.4,214.5 261.4,214.4 		"/>
		<polygon class="st1" points="261.3,214.5 261.3,214.4 261.4,214.4 261.4,214.5 		"/>
		<polygon class="st1" points="261.3,152.3 261.4,200.4 261.3,214.4 		"/>
		<polygon class="st2" points="261.4,200.4 261.4,214.4 261.3,214.4 261.3,214.4 		"/>
		<path class="st3" d="M261.5,152.3l61.8-14v42.2h-2.7l-0.1,0.1v-0.1l-2.4,1.2l-1.6,22.3l-13.6,2.6c-3-10.8-8.5-21.6-18.1-15.6v0
			c0,0-0.1,0-0.1,0.1v19l-4.4,0.9l-18.9,3.5l0,0l0-14L261.5,152.3z"/>
		<polygon class="st0" points="261.3,152.3 261.5,152.3 261.4,200.4 		"/>
		<polygon class="st1" points="261.3,214.4 261.3,214.5 242.2,218.1 		"/>
		<polygon class="st0" points="261.4,214.4 280.3,210.9 261.4,214.5 		"/>
		<path class="st4" d="M245.4,152.1l-26.1,0.6V0c0,0,279.1,2.5,280.7,0h0c0.4,0.3,0.5,18,0.6,45.6v44.5c0,24.9-0.1,53-0.2,81.7
			l-0.4-3l-68.7,13.1c3.3-23.9,5.6-41,5.6-41.3c0,0,0,0,0,0c0,0,0,0-0.1,0c-0.1,0-0.1,0-0.2,0c0,0-0.1,0-0.1,0c-0.1,0-0.1,0-0.2,0
			c-0.4-0.1-1-0.1-1.9-0.2c-0.2,0-0.5,0-0.7,0c-1.2-0.1-2.8-0.1-4.7-0.2c-0.4,0-0.9,0-1.3-0.1c-1.2,0-2.6-0.1-4-0.1
			c-0.8,0-1.7-0.1-2.6-0.1c-0.1,0-0.2,0-0.2,0c-1.2,0-2.4-0.1-3.7-0.1c-0.3,0-0.7,0-1,0c-0.3,0-0.7,0-1,0c-0.4,0-0.9,0-1.4,0
			c-0.6,0-1.2,0-1.8,0c-0.1,0-0.3,0-0.4,0c-1.3,0-2.7-0.1-4-0.1c-0.6,0-1.2,0-1.8,0c-0.2,0-0.3,0-0.5,0c-0.6,0-1.3,0-1.9,0
			c-0.1,0-0.3,0-0.5,0c-3.1-0.1-6.4-0.1-9.7-0.2c0,0-0.1,0-0.1,0c-4.6-0.1-9.3-0.2-14.1-0.2c-0.1,0-0.2,0-0.4,0
			c-27.9-0.5-55.5-0.8-55.5-0.8l-61.8,14v0l-0.2,0.1v0.1v62.1v0l-19.1,3.7L245.4,152.1z"/>
		<polygon class="st1" points="261.4,214.5 261.4,219.3 241.9,223 242.2,218.1 261.3,214.5 		"/>
		<polygon class="st5" points="504.6,382.9 504.6,504 75.7,500.6 500.6,500.6 500.6,380.9 		"/>
		<path class="st4" d="M500.6,45.6c0,12.9,0,28,0,44.5V45.6z"/>
		<path class="st6" d="M500.6,0v45.6C500.5,18,500.4,0.3,500,0H500.6z"/>
		<path class="st1" d="M500.4,171.8c0,0.6,0,1.3,0,1.9l-41.2,7.9l-28.6,5.4c0.2-1.7,0.5-3.4,0.7-5.1l68.7-13.1L500.4,171.8z"/>
		<path class="st7" d="M500.3,195.6c0,3.5,0,7.1,0,10.6l-0.1,0c0,0,0,0,0,0l-45.5,10.3l1.4-10.3c0,0,0.1,0,0.1,0
			C458.4,206.2,498.2,196.2,500.3,195.6C500.3,195.6,500.3,195.6,500.3,195.6z"/>
		<path class="st7" d="M500.2,206.2C500.2,206.2,500.2,206.2,500.2,206.2l-45.5,10.3v0L500.2,206.2z"/>
		<path class="st8" d="M452,236.3l48.1,13.6c-0.3,71.5-0.7,130.4-0.7,130.4l-89-45.5c0.3-2.2,6.4-47.2,12.8-93.3L452,236.3z"/>
		<path class="st4" d="M500,0L500,0C500,0,500,0,500,0z"/>
		<path class="st6" d="M500.6,90.1v290.8l-1.2-0.6c0,0,0.4-58.9,0.7-130.4L452,236.3l48,13.5c0.1-14.2,0.1-28.8,0.2-43.6l0.1,0
			c0-3.5,0-7.1,0-10.6c0-7.3,0.1-14.6,0.1-21.9c0-0.6,0-1.3,0-1.9C500.5,143.1,500.6,115,500.6,90.1z"/>
		<polygon class="st9" points="500,394.8 499.4,500 466.8,500 235.8,346.6 240.2,257.9 		"/>
		<polygon class="st5" points="500.6,380.9 500.6,500.6 75.7,500.6 0,500 466.8,500 499.4,500 500,394.8 240.2,257.9 240.7,248.2 
			261.4,258.8 261.4,258.9 323.3,290.6 323.3,290.4 410.4,334.9 499.4,380.3 		"/>
		<path class="st10" d="M466.8,500H0v-99.9l49.4,19.8c0,0,0,0,0,0l64.7-72l121.7-1.3L466.8,500z"/>
		<path class="st11" d="M459.2,181.6l-3.2,24.5l-1.4,10.4l-2.6,19.7l-28.8,5.2c2.1-15.4,4.2-30.8,6.1-44.9c0.3-2.2,0.6-4.3,0.9-6.4
			c0.1-1.1,0.3-2.1,0.4-3.1L459.2,181.6z"/>
		<path class="st6" d="M456.2,206.1c3.2-0.1,42-10,44-10.5C498.2,196.2,458.4,206.2,456.2,206.1z"/>
		<path class="st7" d="M456.2,206.1c0,0-0.1,0-0.1,0v0C456.1,206.1,456.1,206.1,456.2,206.1z"/>
		<path class="st5" d="M500.2,195.6c-2,0.5-40.9,10.4-44,10.5c-0.1,0-0.1,0-0.1,0v0c-0.1,0-0.1,0-0.1,0l3.2-24.5l41.2-7.9
			C500.4,181,500.3,188.3,500.2,195.6C500.3,195.6,500.3,195.6,500.2,195.6z"/>
		<path class="st6" d="M456.1,206.1l-1.4,10.3l-0.1,0l1.4-10.4C456,206.1,456,206.1,456.1,206.1z"/>
		<path class="st7" d="M454.7,216.5l45.5-10.3c-0.1,14.8-0.1,29.4-0.2,43.6l-48-13.5l2.6-19.8H454.7L454.7,216.5z"/>
		<path class="st6" d="M436.8,140.6C436.9,140.6,436.9,140.6,436.8,140.6C436.9,140.6,436.9,140.6,436.8,140.6z"/>
		<path class="st6" d="M436.6,140.5c0.1,0,0.1,0,0.2,0C436.8,140.5,436.7,140.5,436.6,140.5z"/>
		<path class="st2" d="M436.6,140.5c-0.1,0-0.1,0-0.2,0C436.5,140.5,436.5,140.5,436.6,140.5z"/>
		<path class="st6" d="M434.5,140.3c-0.2,0-0.5,0-0.7,0C434.1,140.3,434.3,140.3,434.5,140.3z"/>
		<path class="st2" d="M400.1,187.9l31.2-6c-0.2,1.7-0.5,3.4-0.7,5.1l-26.7,5.1c-0.2-0.3-0.4-0.6-0.6-0.9c-0.1-0.1-0.2-0.2-0.3-0.4
			C402.3,190,401.3,188.9,400.1,187.9z"/>
		<path class="st6" d="M430.2,190.1c-0.3,2.1-0.6,4.2-0.9,6.4C429.6,194.3,429.9,192.2,430.2,190.1z"/>
		<path class="st6" d="M429.1,140.1c-0.4,0-0.9,0-1.3-0.1C428.3,140,428.7,140,429.1,140.1z"/>
		<path class="st6" d="M423.2,241.4c2-15.4,4.2-30.8,6.1-44.9C427.4,210.6,425.3,226,423.2,241.4z"/>
		<path class="st6" d="M423.8,139.9c-0.8,0-1.7-0.1-2.6-0.1C422.1,139.8,423,139.9,423.8,139.9z"/>
		<path class="st6" d="M421,139.8c-1.2,0-2.4-0.1-3.7-0.1C418.6,139.7,419.8,139.8,421,139.8z"/>
		<path class="st6" d="M416.3,139.7c-0.3,0-0.7,0-1,0C415.6,139.6,416,139.7,416.3,139.7z"/>
		<path class="st6" d="M413.9,139.6c-0.6,0-1.2,0-1.8,0C412.7,139.6,413.3,139.6,413.9,139.6z"/>
		<path class="st8" d="M410.4,334.9C410.4,334.9,410.4,334.9,410.4,334.9l89,45.4L410.4,334.9z"/>
		<path class="st6" d="M411.7,139.6c-1.3,0-2.7-0.1-4-0.1C409,139.5,410.4,139.5,411.7,139.6z"/>
		<path class="st6" d="M405.9,139.4c0.6,0,1.2,0,1.8,0C407,139.5,406.5,139.4,405.9,139.4z"/>
		<path class="st12" d="M405.2,194.3L405.2,194.3l-3.6,3.8c0,0-1.1-2.1-3.7-4.7l6.2-1c0.4,0.6,0.7,1.1,0.9,1.5c0,0,0,0.1,0.1,0.1
			C405.1,194.1,405.1,194.2,405.2,194.3L405.2,194.3C405.2,194.3,405.2,194.3,405.2,194.3z"/>
		<path class="st12" d="M405.1,194.1c0,0.1,0.1,0.1,0.1,0.2C405.1,194.2,405.1,194.1,405.1,194.1z"/>
		<path class="st12" d="M404.2,192.5c0.4,0.6,0.7,1.1,0.9,1.5C404.9,193.6,404.6,193.1,404.2,192.5L404.2,192.5z"/>
		<path class="st6" d="M403.4,139.4c0.6,0,1.3,0,1.9,0C404.7,139.4,404.1,139.4,403.4,139.4z"/>
		<path class="st12" d="M404,192.2c0.1,0.1,0.1,0.2,0.2,0.3l-6.2,1c0,0,0,0,0,0L404,192.2z"/>
		<path class="st12" d="M404,192.2c0.1,0.1,0.1,0.2,0.2,0.3h0C404.1,192.4,404,192.3,404,192.2L404,192.2z"/>
		<path class="st2" d="M397.8,193.4C397.8,193.4,397.8,193.4,397.8,193.4c2.6,2.7,3.9,4.9,3.9,4.9l3.6-3.8c0,0,0-0.1-0.1-0.3l0,0
			c0-0.1-0.1-0.1-0.1-0.2c0,0,0-0.1-0.1-0.1c-0.2-0.4-0.5-0.9-0.9-1.5c0-0.1-0.1-0.2-0.2-0.3c0,0,0-0.1-0.1-0.1l26.7-5.1
			c-0.1,1-0.3,2.1-0.4,3.1c-0.3,2.1-0.6,4.2-0.9,6.4c-1.9,14.1-4.1,29.5-6.1,44.9l-71.3,12.9l-1.8-2.2l1-28.8H381v-0.1v-3.4v-0.1
			h-28.9l0.7-17.8L397.8,193.4C397.7,193.3,397.8,193.4,397.8,193.4z"/>
		<path class="st12" d="M403.9,192.1C404,192.1,404,192.2,403.9,192.1l0,0.1C404,192.2,403.9,192.1,403.9,192.1L403.9,192.1z"/>
		<path class="st12" d="M403.9,192.1c0,0,0.1,0.1,0.1,0.1l-6.1,1.2c-0.1-0.1-0.1-0.1-0.2-0.2l-0.1,0c-0.3-0.3-0.5-0.5-0.8-0.8
			c-0.8-0.7-1.6-1.4-2.5-2.1c-0.5-0.3-0.9-0.7-1.5-1l7.3-1.4c1.1,0.9,2.1,2,2.9,3c0.1,0.1,0.2,0.2,0.3,0.4
			C403.5,191.5,403.7,191.8,403.9,192.1z"/>
		<path class="st12" d="M403.9,192.1L403.9,192.1c-0.2-0.3-0.4-0.6-0.6-0.9C403.5,191.5,403.7,191.8,403.9,192.1z"/>
		<polygon class="st12" points="401.1,250.6 401.1,254.9 401,255 401,250.7 399.6,250.7 399.7,250.6 		"/>
		<polygon class="st12" points="401,250.7 401,255 395,259.5 390.2,261.1 354.6,261.1 352.5,259.7 354.1,257.5 354.1,257.5 
			393.3,256.8 399.6,250.7 		"/>
		<path class="st6" d="M403,190.9c-0.8-1-1.8-2.1-2.9-3C401.3,188.9,402.3,190,403,190.9z"/>
		<path class="st12" d="M401.7,198.3c0,0-1.3-2.2-3.9-4.9l0.1,0c2.5,2.6,3.7,4.7,3.7,4.7l3.6-3.8v0c0,0,0,0,0-0.1
			c0.1,0.2,0.1,0.3,0.1,0.3L401.7,198.3z"/>
		<path class="st12" d="M397.9,193.4C397.9,193.4,397.9,193.4,397.9,193.4L397.9,193.4C397.8,193.4,397.8,193.4,397.9,193.4
			L397.9,193.4z"/>
		<path class="st12" d="M397.7,193.2c0.1,0.1,0.1,0.1,0.2,0.2l-0.1,0c0,0-0.1-0.1-0.1-0.1C397.7,193.3,397.6,193.2,397.7,193.2
			L397.7,193.2z"/>
		<path class="st2" d="M397.7,193.3l-44.9,8.6v-0.1L397.7,193.3C397.6,193.2,397.7,193.3,397.7,193.3z"/>
		<path class="st2" d="M396.8,192.4c0.3,0.3,0.6,0.5,0.8,0.8l-44.8,8.6l0.2-4.9l39.8-7.6c0.5,0.3,1,0.7,1.5,1
			C395.2,191,396,191.7,396.8,192.4z"/>
		<path class="st12" d="M396.8,192.4c-0.8-0.7-1.6-1.4-2.5-2.1C395.2,191,396,191.7,396.8,192.4z"/>
		<path class="st6" d="M393.3,139.2c3.3,0.1,6.5,0.1,9.7,0.2C399.8,139.3,396.6,139.2,393.3,139.2z"/>
		<polygon class="st12" points="393.4,256.6 399.6,250.7 393.3,256.8 354.1,257.5 354.1,257.5 354.2,257.3 		"/>
		<path class="st2" d="M392.8,189.3c-0.5-0.3-1-0.6-1.5-0.9C391.8,188.7,392.3,189,392.8,189.3z"/>
		<path class="st2" d="M392.8,189.3l-39.8,7.6l0.2-5.2c0.5-0.2,0.9-0.5,1.3-0.7c1.1-0.6,2.2-1.1,3.2-1.6c15.3-7.1,26.4-5,33.6-1
			c0,0,0,0,0,0C391.8,188.7,392.3,189,392.8,189.3z"/>
		<path class="st6" d="M388.6,182.1c5.2,1.3,8.9,3.6,11.5,5.8C397.5,185.7,393.8,183.4,388.6,182.1z"/>
		<path class="st6" d="M393.2,139.2c-4.6-0.1-9.3-0.2-14.1-0.2C383.8,139,388.6,139.1,393.2,139.2z"/>
		<rect x="351.1" y="223.2" class="st12" width="29.9" height="0.1"/>
		<rect x="352.1" y="219.7" class="st6" width="28.9" height="0.1"/>
		<path class="st12" d="M372.2,181.4c2.2-0.3,4.5-0.4,7-0.4c3.6,0,6.7,0.4,9.4,1.1c5.2,1.3,8.9,3.6,11.5,5.8l-7.3,1.4
			c-0.5-0.3-1-0.6-1.5-0.9c0,0,0,0,0,0c-7.1-4.1-18.1-6.2-33.6,1c-1,0.5-2.1,1-3.2,1.6l-0.8-2.7
			C357.2,185.8,363.2,182.6,372.2,181.4z"/>
		<path class="st2" d="M357.7,189.4c15.5-7.3,26.4-5.1,33.6-1C384.1,184.4,373,182.3,357.7,189.4z"/>
		<path class="st12" d="M353.7,188.3l0.8,2.7c-0.1,0-0.2,0.1-0.2,0.1l-1-2.5c0,0,0,0,0.1-0.1C353.5,188.5,353.6,188.4,353.7,188.3z"
			/>
		<path class="st6" d="M354.2,191.1c0.1-0.1,0.2-0.1,0.2-0.1c-0.4,0.2-0.8,0.5-1.3,0.7C353.5,191.5,353.9,191.3,354.2,191.1z"/>
		<path class="st12" d="M353.3,188.6l1,2.5c-0.4,0.2-0.7,0.4-1,0.6l-0.2,5.2l-3.3,0.7l0.3-6.2C350.1,191.4,351.4,190.1,353.3,188.6z
			"/>
		<polygon class="st12" points="351.9,254.4 354.2,257.3 354.1,257.5 		"/>
		<polygon class="st12" points="351.9,254.4 354.1,257.5 352.5,259.7 347.2,255.9 347.2,255.2 		"/>
		<path class="st12" d="M353.7,188.3L353.7,188.3c-0.1,0.1-0.2,0.2-0.3,0.2C353.5,188.5,353.6,188.4,353.7,188.3z"/>
		<path class="st6" d="M353.2,188.6c3.4-2.5,9.6-6,19-7.2c-9,1.2-15.1,4.4-18.6,6.9v0c-0.1,0.1-0.2,0.2-0.3,0.2
			C353.3,188.6,353.3,188.6,353.2,188.6c-1.8,1.4-3.1,2.8-3.2,2.8C350.3,191.1,351.4,189.9,353.2,188.6z"/>
		<polygon class="st12" points="353,196.9 352.8,201.8 352.8,201.9 349.5,202.5 349.7,197.7 		"/>
		<polygon class="st12" points="353,196.9 349.7,197.7 349.7,197.6 		"/>
		<path class="st2" d="M352.4,259.8l2.1,1.5h35.6l4.8-1.7l6.1-4.6v0l0.1-0.1v-4.3h-1.4l-0.1,0.1l-6.2,5.9l-39.2,0.7l-2.3-2.9
			l71.3-12.9c-6.3,46.1-12.5,91.1-12.8,93.3l0,0l-87.1-44.5v-30.7l6.9-1.2c0.5,0.9,1.2,1.5,1.9,1.5c0.8,0,1.7-0.8,2.1-1.9
			c0,0,0,0,0,0c0-0.1,0.1-0.1,0.1-0.2l12.8-2.3v0.7L352.4,259.8z"/>
		<polygon class="st6" points="351.9,254.3 423.2,241.4 452,236.2 454.6,216.5 452,236.3 423.2,241.5 351.9,254.4 350.1,252.2 
			350.1,252.1 		"/>
		<polygon class="st12" points="351.1,223.2 351.1,223.3 350.1,252.1 350.1,252.2 351.9,254.4 347.2,255.2 349.5,202.5 352.8,201.9 
			352.1,219.7 352.1,219.8 381,219.8 381,223.2 		"/>
		<polygon class="st12" points="349.7,197.6 349.7,197.7 349.7,197.6 		"/>
		<path class="st6" d="M349.6,197.6l0.3-6.1c0,0,0,0,0.1-0.1l-0.3,6.2h0l-5.9,1.1L349.6,197.6z"/>
		<path class="st12" d="M334.5,252.8c0.2,0.7,0.3,1.4,0.3,2.2c0,0.9-0.1,1.8-0.4,2.5l-4.1,0.8c-0.4-0.9-0.7-2-0.7-3.3
			c0-0.3,0-0.7,0-1c0.3-2.2,1.3-3.8,2.6-3.8C333.2,250.3,334,251.3,334.5,252.8z"/>
		<path class="st6" d="M354.6,261.1h35.6l4.8-1.6l6-4.5v0l-6.1,4.6l-4.8,1.7h-35.6l-2.1-1.5l-5.3-3.7v-0.7l-12.8,2.3
			c0-0.1,0-0.1,0.1-0.2l12.8-2.3v0.7l5.3,3.8L354.6,261.1z"/>
		<path class="st12" d="M334.3,257.7c0,0.1-0.1,0.2-0.1,0.2C334.2,257.9,334.3,257.8,334.3,257.7L334.3,257.7z"/>
		<path class="st6" d="M332.2,250.2c1,0,1.8,1.1,2.3,2.6C334,251.3,333.2,250.3,332.2,250.2z"/>
		<path class="st12" d="M332.2,259.7c-0.8,0.1-1.4-0.5-1.9-1.4l4.1-0.8c0,0.1,0,0.1-0.1,0.2h0c0,0.1,0,0.2-0.1,0.2c0,0,0,0,0,0
			C333.7,259,333,259.7,332.2,259.7z"/>
		<path class="st6" d="M329.6,254c0.2-2.2,1.3-3.8,2.6-3.8C331,250.2,329.9,251.9,329.6,254z"/>
		<path class="st2" d="M323.3,290.4v-0.1l87.1,44.5l0,0c0,0.1,0,0.1,0,0.1L323.3,290.4z"/>
		<polygon class="st3" points="323.3,259.6 323.3,290.3 278.9,267.7 287.5,266.1 314.7,261.2 		"/>
		<path class="st6" d="M330.3,258.3c0.5,0.9,1.1,1.5,1.9,1.4c0.8,0,1.5-0.7,2-1.7c-0.4,1.1-1.3,1.9-2.1,1.9c-0.7,0-1.4-0.6-1.9-1.5
			l-6.9,1.2v-0.1L330.3,258.3z"/>
		<path class="st2" d="M329.6,255c0,1.3,0.3,2.4,0.7,3.3l-7,1.3v-52.1l26.2-5l-2.3,52.7l-12.8,2.3c0.3-0.7,0.4-1.6,0.4-2.5
			c0-0.8-0.1-1.6-0.3-2.2c-0.4-1.5-1.3-2.6-2.3-2.6c-1.2,0-2.3,1.6-2.6,3.8C329.6,254.3,329.6,254.7,329.6,255z"/>
		<polygon class="st3" points="323.3,207.5 323.3,259.6 314.8,261.1 318.6,208.4 		"/>
		<polygon class="st2" points="323.3,207.5 323.3,202.6 343.8,198.7 349.7,197.6 349.7,197.7 349.5,202.5 		"/>
		<polygon class="st3" points="323.3,202.6 323.3,207.5 318.6,208.4 318.9,203.5 		"/>
		<polygon class="st2" points="323.3,202.6 323.3,202.6 343.8,198.7 		"/>
		<polygon class="st0" points="323.3,202.6 323.3,202.6 318.9,203.5 318.9,203.4 		"/>
		<polygon class="st3" points="323.3,180.4 323.3,202.6 318.9,203.4 320.6,180.4 		"/>
		<polygon class="st0" points="278.8,267.7 278.9,267.7 323.3,290.3 323.3,290.4 		"/>
		<path class="st2" d="M323.1,138.2c0.1-0.1,27.7,0.3,55.7,0.7c0.1,0,0.2,0,0.4,0c4.7,0.1,9.4,0.2,14.1,0.2c0,0,0.1,0,0.1,0
			c3.3,0.1,6.5,0.1,9.7,0.2c0.2,0,0.3,0,0.5,0c0.6,0,1.3,0,1.9,0c0.2,0,0.4,0,0.5,0c0.6,0,1.2,0,1.8,0c1.4,0,2.7,0.1,4,0.1
			c0.1,0,0.3,0,0.4,0c0.6,0,1.2,0,1.8,0c0.5,0,0.9,0,1.4,0c0.4,0,0.7,0,1,0c0.3,0,0.7,0,1,0c1.3,0,2.5,0.1,3.7,0.1
			c0.1,0,0.2,0,0.2,0c0.9,0,1.8,0.1,2.6,0.1c1.4,0,2.8,0.1,4,0.1c0.4,0,0.9,0,1.3,0.1c1.9,0.1,3.5,0.1,4.7,0.2c0.2,0,0.5,0,0.7,0
			c0.8,0.1,1.5,0.1,1.9,0.2c0.1,0,0.1,0,0.2,0c0,0,0,0,0.1,0c0.1,0,0.1,0,0.2,0c0,0,0,0,0.1,0c0,0,0,0,0,0c0,0.3-2.3,17.4-5.6,41.3
			l-31.2,6c-2.6-2.2-6.3-4.5-11.5-5.8c-2.7-0.7-5.8-1.1-9.4-1.1c-2.5,0-4.8,0.2-7,0.4c-9.4,1.2-15.6,4.7-19,7.2
			c-1.8,1.3-2.9,2.4-3.2,2.8c-0.1,0.1-0.1,0.1-0.1,0.1l-0.3,6.1l-5.8,1.1l-20.5,3.9v-22.2v-42.2l-61.8,14v-0.1L323.1,138.2z"/>
		<path class="st6" d="M323.3,138.1c0,0,27.5,0.3,55.5,0.8c-28-0.4-55.6-0.8-55.7-0.7l-61.6,13.9v0L323.3,138.1z"/>
		<polygon class="st0" points="320.5,180.4 320.6,180.4 318.9,203.4 318.8,203.4 		"/>
		<polygon class="st0" points="318.9,203.4 318.9,203.5 318.8,203.5 318.8,203.4 		"/>
		<polygon class="st12" points="316.6,203.9 318.8,203.4 318.8,203.5 318.9,203.5 318.6,208.4 316.2,208.9 		"/>
		<polygon class="st12" points="316.6,203.9 318.2,181.6 320.5,180.4 318.8,203.4 		"/>
		<path class="st3" d="M316.6,203.9l-0.4,5l-12.2,2.3c0,0,0-0.1,0-0.1h0c-0.1-0.3-0.1-0.7-0.2-1c-0.3-1.2-0.6-2.4-0.9-3.6
			c0,0,0,0,0,0L316.6,203.9z"/>
		<polygon class="st0" points="318.2,181.6 316.6,203.9 302.9,206.5 316.5,203.9 318.1,181.6 320.5,180.4 320.5,180.4 		"/>
		<polygon class="st12" points="316.2,208.9 318.6,208.4 314.8,261.1 312.6,261.1 		"/>
		<path class="st3" d="M312.5,261.2h2.2l-27.2,4.9l-0.7-32.5l19.3-9.6c0,0-0.2-2.5-0.8-6.3c-0.3-1.9-0.7-4.2-1.3-6.5l12.2-2.3
			L312.5,261.2z"/>
		<polygon class="st0" points="314.8,261.1 323.3,259.6 323.3,259.6 314.7,261.2 312.5,261.2 316.2,208.9 312.6,261.1 		"/>
		<path class="st0" d="M304,211.2c0.5,2.4,1,4.6,1.3,6.5C305,215.8,304.5,213.6,304,211.2L304,211.2z"/>
		<path class="st0" d="M304,211.1C304,211.1,304,211.2,304,211.1L304,211.1C304,211.2,304,211.1,304,211.1L304,211.1z"/>
		<path class="st0" d="M304,211.1C304,211.1,304,211.2,304,211.1l-2.2,0.5c0,0,0-0.1,0-0.1L304,211.1z"/>
		<path class="st0" d="M303.5,222.3L303.5,222.3c0-0.1,0-0.3-0.1-0.6C303.5,222.1,303.5,222.3,303.5,222.3z"/>
		<path class="st3" d="M303.5,222.3l-15.6,8v-16l13.9-2.7c1,4.5,1.5,8.6,1.6,10.1C303.5,222,303.5,222.2,303.5,222.3z"/>
		<path class="st0" d="M303.8,210.1c-0.3-1.1-0.6-2.3-1-3.5l0.1,0C303.2,207.7,303.5,208.9,303.8,210.1z"/>
		<path class="st12" d="M303.8,210.1c0.1,0.4,0.1,0.7,0.2,1l-2.2,0.4c0,0,0,0.1,0,0.1h0c0,0,0-0.1,0-0.1c-0.3-1.3-0.6-2.7-1-4.1
			c0-0.2-0.1-0.4-0.1-0.6l2.2-0.4C303.2,207.7,303.5,208.9,303.8,210.1z"/>
		<path class="st0" d="M302.8,206.5L302.8,206.5c0.1,0,0.1,0,0.1,0H302.8C302.8,206.5,302.8,206.5,302.8,206.5z"/>
		<path class="st12" d="M284.8,190.9c9.5-6,15,4.8,18,15.6c0,0,0,0,0,0l-2.2,0.4c-0.5-1.7-1.1-3.4-1.9-5c-2.3-5-5.5-8.8-10.1-8.3
			c-0.2,0-0.5,0.1-0.7,0.1v15.6l-3.1,0.6V190.9z"/>
		<path class="st0" d="M301.8,211.6c1,4.7,1.5,8.7,1.6,10.1C303.3,220.2,302.8,216.1,301.8,211.6L301.8,211.6z"/>
		<path class="st3" d="M301.8,211.5c0,0,0,0.1,0,0.1l-13.9,2.7v-0.1v-4.8l12.7-2.4c0,0.1,0.1,0.3,0.1,0.4
			C301.1,208.8,301.5,210.2,301.8,211.5z"/>
		<path class="st0" d="M300.7,207.4c0.4,1.3,0.8,2.7,1,4.1C301.5,210.2,301.1,208.8,300.7,207.4z"/>
		<path class="st3" d="M300.6,206.9l-12.7,2.4v-15.6c0.2,0,0.5-0.1,0.7-0.1c4.6-0.4,7.9,3.4,10.1,8.3
			C299.5,203.5,300.1,205.2,300.6,206.9z"/>
		<path class="st6" d="M500,0c-1.6,2.5-280.7,0-280.7,0H500z"/>
		<path class="st0" d="M284.8,190.9c9.6-6,15.1,4.8,18.1,15.6l-0.1,0C299.8,195.7,294.3,185,284.8,190.9L284.8,190.9z"/>
		<path class="st0" d="M288.6,193.6c4.6-0.5,7.9,3.3,10.1,8.3C296.5,197,293.2,193.2,288.6,193.6z"/>
		<path class="st0" d="M303.5,222.4l-15.6,8v-0.1L303.5,222.4C303.5,222.4,303.5,222.4,303.5,222.4z"/>
		<polygon class="st0" points="287.9,214.2 287.9,214.3 284.8,214.9 284.8,214.8 		"/>
		<polygon class="st12" points="287.9,209.4 287.9,214.2 284.8,214.8 284.8,210 		"/>
		<polygon class="st0" points="287.5,266.1 278.9,267.7 278.8,267.6 		"/>
		<polygon class="st0" points="287.5,266.1 284.8,266.5 284.8,266.4 		"/>
		<path class="st12" d="M305.3,217.7c0.6,3.7,0.8,6.3,0.8,6.3l-19.3,9.6l0.7,32.5l-2.7,0.3V235l-3.1,2.6l-1.2-2.2l4.3-4.1v-0.1
			v-16.3l3.1-0.6v16v0.1l15.6-8c0,0,0,0,0-0.1h0c0,0,0-0.2-0.1-0.6c-0.1-1.4-0.6-5.5-1.6-10.1l2.2-0.4
			C304.5,213.6,305,215.8,305.3,217.7z"/>
		<polygon class="st3" points="284.8,266.5 287.5,266.1 278.8,267.6 261.4,258.8 261.4,219.3 284.8,214.9 284.8,231.2 280.5,235.4 
			281.7,237.6 284.8,235 284.8,266.4 		"/>
		<polygon class="st0" points="284.8,231.2 284.8,231.3 280.5,235.4 		"/>
		<polygon class="st3" points="284.8,214.8 284.8,214.9 261.4,219.3 261.4,214.5 280.3,210.9 284.8,210 		"/>
		<path class="st0" d="M300.6,207l-12.7,2.4l-3.1,0.6l-4.5,0.9l4.4-0.9v-19c0,0,0.1,0,0.1-0.1v19l3.1-0.6l12.7-2.4
			c0,0.2,0.1,0.4,0.1,0.6C300.7,207.3,300.6,207.1,300.6,207z"/>
		<polygon class="st0" points="323.3,290.6 261.4,258.9 261.4,258.8 278.8,267.6 278.9,267.7 278.8,267.7 323.3,290.4 		"/>
		<polygon class="st0" points="261.4,258.8 261.4,219.3 261.4,219.3 		"/>
		<polygon class="st11" points="261.4,219.3 261.4,258.8 240.7,248.2 241.9,223 		"/>
		<polygon class="st0" points="261.4,219.3 261.4,214.5 261.4,214.5 261.4,219.3 		"/>
		<polygon class="st1" points="261.3,152.3 261.3,152.2 261.5,152.1 261.5,152.3 		"/>
		<polygon class="st13" points="245.4,152.1 242.2,218.1 219.4,222.5 219.4,152.8 		"/>
		<polygon class="st6" points="245.4,152.1 219.4,152.8 219.3,152.8 219.3,152.7 		"/>
		<polygon class="st13" points="242.2,218.1 241.9,223 219.4,227.4 219.4,222.6 219.4,222.5 		"/>
		<polygon class="st13" points="241.9,223 240.7,248.2 219.3,237.3 219.3,227.4 219.4,227.4 219.4,227.4 		"/>
		<polygon class="st13" points="235.8,346.6 114.1,347.9 113.7,314.7 126.6,311.1 165.9,300.2 		"/>
		<polygon class="st13" points="219.4,227.4 219.4,227.4 219.3,227.4 		"/>
		<polygon class="st13" points="219.4,222.6 219.4,227.4 219.3,227.4 219.3,222.5 219.4,222.5 		"/>
		<polygon class="st13" points="219.4,152.8 219.4,222.5 219.3,222.5 219.3,152.9 219.3,152.8 		"/>
		<polygon class="st14" points="219.3,152.8 219.3,152.9 215.3,152.9 		"/>
		<polygon class="st14" points="219.3,152.7 219.3,152.8 215.3,152.9 213.1,152.9 213.1,0 219.3,0 		"/>
		<polygon class="st6" points="200,251.5 200.2,254.6 200.1,254.6 200.1,256.7 200,256.7 200,254.6 		"/>
		<polygon class="st12" points="200,256.7 192.7,256.7 192.6,256.7 192.7,254.6 200,254.6 		"/>
		<polygon class="st13" points="199.9,227.4 193.9,228.3 193.9,228.2 		"/>
		<polygon class="st13" points="193.6,237 199.1,236.2 240.2,257.9 199,236.3 		"/>
		<path class="st12" d="M194.3,206l0,0.5l-0.6,21.7l-4.4,0.6l0.8-21.1v-0.1l0.1-2h0C191.5,205.6,192.9,205.7,194.3,206z"/>
		<polygon class="st12" points="193.7,228.2 194.3,206.5 193.8,228.2 		"/>
		<polygon class="st13" points="193.9,228.3 199.9,227.4 219.3,237.3 240.7,248.2 240.2,257.9 199.1,236.2 193.6,237 193.8,228.3 
			193.8,228.2 193.9,228.2 		"/>
		<polygon class="st12" points="193.8,228.2 193.8,228.3 193.7,228.3 193.7,228.2 		"/>
		<polygon class="st12" points="193.8,228.3 189.3,228.8 193.7,228.2 193.7,228.3 		"/>
		<polygon class="st6" points="193.6,237 193.1,251.5 193.5,237.1 193.5,237 193.8,228.3 		"/>
		<polygon class="st12" points="193.5,237 193.5,237.1 189,237.7 189,237.6 		"/>
		<path class="st6" d="M193.8,228.2l0.7-24.4c-1.1-0.2-2.2-0.4-3.3-0.4c1.1,0.1,2.3,0.2,3.4,0.4L193.8,228.2L193.8,228.2z"/>
		<path class="st12" d="M190.2,205.4c1.4,0,2.7,0.2,4.1,0.5v0.1c-1.4-0.3-2.8-0.4-4.1-0.4h0L190.2,205.4z"/>
		<path class="st12" d="M190.2,205.6l-0.1,2c-12.4,1.3-22.4,14-28.9,25.2l-5.3,0.8C164,219.9,176,205.4,190.2,205.6z"/>
		<path class="st13" d="M190.1,207.7l-0.8,21.1v0.1l-28.1,4C167.7,221.7,177.8,209,190.1,207.7z"/>
		<polygon class="st6" points="190.1,306.7 192.5,256.7 192.6,256.7 192.7,256.7 190.2,306.8 190.1,308.9 190,308.8 190.1,306.8 
			184.3,302.4 		"/>
		<polygon class="st12" points="190,308.8 184.2,304.5 184.3,302.4 184.3,302.4 190.1,306.8 		"/>
		<path class="st13" d="M189.3,228.9l-0.3,8.8l-32.8,4.6c1.3-2.8,3-6,4.9-9.4L189.3,228.9z"/>
		<polygon class="st12" points="189,237.6 189,237.7 189,237.7 189.3,228.9 189.3,228.8 193.8,228.3 193.5,237 		"/>
		<path class="st12" d="M189,237.7l4.5-0.6l-0.4,14.4h6.9v3.1h-7.3l-0.1,2.1h-0.1l-2.4,50l-5.8-4.3l3.1-46.8h-0.1l0-0.1h0l0.1-2.1
			l-42.1,1.8c1-2.4,2.7-6.6,5.2-11.6l5.7-1.2c-2.1,4.5-3.2,7.6-3.2,7.6h0c0,0.1,0,0.1,0,0.1h35.6V250L189,237.7L189,237.7z"/>
		<path class="st13" d="M189,237.7l-0.5,12.3h-35.6c0.2-0.6,1.4-3.6,3.3-7.6L189,237.7z"/>
		<path class="st13" d="M189,237.7l-32.8,4.7c0,0,0-0.1,0.1-0.1L189,237.7z"/>
		<path class="st6" d="M188.5,250v0.1h-35.6c0,0,0,0,0-0.1H188.5z"/>
		<path class="st12" d="M189.5,203.3c-0.7,0-1.4,0.1-2.1,0.2C188.1,203.4,188.8,203.4,189.5,203.3z"/>
		<path class="st12" d="M187.4,253.4l-0.1,2.1l-42.7,1.9c0.1-0.3,0.3-1,0.8-2.1L187.4,253.4z"/>
		<polygon class="st12" points="187.4,255.6 184.3,302.4 184.2,302.3 187.3,255.6 		"/>
		<path class="st12" d="M187.4,253.4l-42.1,1.9c0,0,0-0.1,0-0.1L187.4,253.4z"/>
		<polygon class="st12" points="187.3,255.5 187.3,255.6 187.3,255.6 187.3,255.5 		"/>
		<polygon class="st12" points="187.3,255.6 184.2,302.3 187.3,255.6 		"/>
		<path class="st6" d="M187.3,255.5v0.1l-42.8,1.9c0,0,0,0,0-0.1L187.3,255.5z"/>
		<polygon class="st12" points="184.2,304.5 190,308.8 190,308.9 184.1,304.5 184.2,302.3 184.3,302.4 184.3,302.4 		"/>
		<path class="st12" d="M161.2,232.8c-1.9,3.2-3.5,6.5-4.8,9.1c0.9-2.7-2.3-5-0.8-8c0,0,0,0,0-0.1h0l0.1,0c0-0.1,0.1-0.2,0.1-0.2
			L161.2,232.8z"/>
		<path class="st6" d="M161.2,232.8c6.5-11.2,16.5-23.9,28.9-25.2v0.1C177.8,209,167.7,221.7,161.2,232.8c-2,3.5-3.7,6.7-4.9,9.5
			c0.1-0.1,0.1-0.3,0.1-0.4C157.7,239.3,159.3,236,161.2,232.8z"/>
		<path class="st12" d="M190.2,205.6c-14.2-0.2-26.2,14.2-34.3,28l-0.1,0c8.1-13.8,20.1-28.3,34.4-28.2L190.2,205.6z"/>
		<path class="st12" d="M156.2,242.3c0.1-0.1,0.1-0.3,0.2-0.4C156.4,242,156.3,242.2,156.2,242.3L156.2,242.3L156.2,242.3z"/>
		<path class="st13" d="M156.2,242.3c0,0,0,0.1-0.1,0.1C156.2,242.4,156.2,242.3,156.2,242.3L156.2,242.3z"/>
		<path class="st12" d="M156.2,242.3c0,0,0,0.1,0,0.1l-0.1,0C156.2,242.4,156.2,242.3,156.2,242.3L156.2,242.3z"/>
		<path class="st13" d="M156.1,242.4L156.1,242.4c-1.8,4-3,7-3.2,7.6h0C152.9,250,154.1,246.9,156.1,242.4z"/>
		<path class="st12" d="M156.1,242.4l-5.7,1.2c0.1-0.1,0.1-0.3,0.2-0.4l-0.1,0c0,0,0,0,0,0L156.1,242.4z"/>
		<path class="st12" d="M155.8,233.6l-1,0.2c7.5-13.4,18.9-28.4,32.6-30.2c0.7-0.1,1.4-0.1,2.1-0.2c0.6,0,1.1,0,1.7,0
			c1.1,0.1,2.2,0.2,3.3,0.4l-0.7,24.4l0.5-21.7l0-0.5v-0.1c-1.4-0.3-2.7-0.5-4.1-0.5C175.9,205.3,163.9,219.8,155.8,233.6z"/>
		<path class="st12" d="M155.7,233.8c0-0.1,0.1-0.2,0.1-0.2l0.1,0c0,0.1-0.1,0.1-0.1,0.2L155.7,233.8z"/>
		<path class="st12" d="M150.6,243.1c1.4-2.9,3.2-6,5-9.2c-1.5,3,1.6,5.3,0.8,8c-0.1,0.1-0.1,0.3-0.2,0.4L150.6,243.1z"/>
		<path class="st12" d="M154.7,233.8c7.6-13.6,19-28.5,32.7-30.3c-13.7,1.8-25.1,16.8-32.6,30.2L154.7,233.8z"/>
		<path class="st12" d="M155.7,233.8l-1.1,0.2c0-0.1,0.1-0.1,0.1-0.2l0.1,0c0,0,0,0,0,0l1-0.2C155.8,233.7,155.7,233.8,155.7,233.8
			L155.7,233.8z"/>
		<path class="st12" d="M154.8,233.8C154.8,233.8,154.8,233.8,154.8,233.8l-0.1,0.1c0,0,0,0,0,0L154.8,233.8z"/>
		<path class="st12" d="M154.6,233.8l0.1,0C154.7,233.8,154.7,233.8,154.6,233.8L154.6,233.8L154.6,233.8L154.6,233.8z"/>
		<path class="st13" d="M154.7,233.8L154.7,233.8L154.7,233.8l-0.1,0c0,0,0,0,0,0L154.7,233.8L154.7,233.8z"/>
		<path class="st13" d="M154.6,233.8C154.6,233.8,154.6,233.8,154.6,233.8l-27.4,3.9v0L154.6,233.8z"/>
		<path class="st13" d="M154.6,233.8l0.1,0c-0.8,1.4-1.6,2.8-2.3,4.2C153.1,236.6,153.9,235.1,154.6,233.8z"/>
		<path class="st6" d="M152.4,238c-0.7,1.4-1.3,2.7-2,3.9C151,240.7,151.7,239.4,152.4,238z"/>
		<path class="st12" d="M150.7,243.2c-0.1,0.1-0.1,0.3-0.2,0.4l-0.1,0c0.1-0.1,0.1-0.3,0.2-0.4L150.7,243.2z"/>
		<path class="st12" d="M155.6,233.9c-1.8,3.2-3.6,6.3-5,9.2l5.6-0.8c0,0,0,0.1-0.1,0.1l-5.5,0.8c0,0,0,0,0,0l-0.8,0.1
			c0.2-0.4,0.4-0.9,0.6-1.4c0.6-1.2,1.3-2.6,2-3.9c0.7-1.4,1.5-2.7,2.3-4.2l0,0c0,0.1-0.1,0.1-0.1,0.2L155.6,233.9
			C155.7,233.9,155.6,233.9,155.6,233.9z"/>
		<path class="st12" d="M149.8,243.3L149.8,243.3l0.8-0.1c-0.1,0.1-0.1,0.3-0.2,0.4l-0.9,0.2c0,0,0,0,0,0
			C149.5,243.7,149.6,243.5,149.8,243.3L149.8,243.3z"/>
		<path class="st13" d="M149.7,243.3c0.2-0.4,0.5-0.9,0.7-1.4C150.2,242.4,150,242.8,149.7,243.3L149.7,243.3z"/>
		<path class="st12" d="M149.8,243.3L149.8,243.3L149.8,243.3C149.7,243.3,149.7,243.3,149.8,243.3L149.8,243.3z"/>
		<path class="st12" d="M149.7,243.3C149.7,243.3,149.7,243.3,149.7,243.3L149.7,243.3C149.7,243.3,149.7,243.3,149.7,243.3
			L149.7,243.3z"/>
		<path class="st12" d="M149.7,243.3c-0.1,0.2-0.2,0.4-0.3,0.5C149.5,243.7,149.6,243.5,149.7,243.3L149.7,243.3z"/>
		<path class="st13" d="M149.7,243.3C149.7,243.3,149.7,243.3,149.7,243.3l-22.7,3.2v0L149.7,243.3z"/>
		<path class="st12" d="M145.2,255.2c1-2.4,2.7-6.6,5.1-11.6l0.1,0C148,248.6,146.3,252.8,145.2,255.2L145.2,255.2z"/>
		<path class="st12" d="M150.4,243.6c-2.5,4.9-4.2,9.1-5.1,11.6h0c0,0,0,0.1,0,0.1h-0.6c0,0,1.7-4.8,4.8-11.4L150.4,243.6z"/>
		<path class="st12" d="M145.3,255.2c0,0,0,0.1,0,0.1h-0.1C145.2,255.3,145.2,255.2,145.3,255.2L145.3,255.2z"/>
		<path class="st12" d="M145.2,255.3h0.1c-0.5,1.1-0.7,1.8-0.8,2.1l-0.1,0C144.4,257.4,144.7,256.6,145.2,255.3L145.2,255.3z"/>
		<path class="st12" d="M145.2,255.2c0,0,0,0.1,0,0.1h0C145.2,255.3,145.2,255.2,145.2,255.2L145.2,255.2z"/>
		<polygon class="st6" points="127.7,207.7 127.2,237.7 127.1,237.7 127.6,207.7 		"/>
		<polygon class="st12" points="127.6,207.7 127.1,237.7 127,237.7 127.4,209.8 121.5,209.8 121.5,207.7 		"/>
		<polygon class="st12" points="127.4,209.8 127,237.7 121.1,238.5 121.4,209.8 121.5,209.8 		"/>
		<path class="st13" d="M150.4,241.9c-0.2,0.5-0.5,0.9-0.7,1.4h0l-22.7,3.2l0.1-8.8l0.1,0v0l27.4-3.9c-0.7,1.3-1.4,2.8-2.2,4.2
			C151.7,239.4,151,240.7,150.4,241.9z"/>
		<polygon class="st6" points="127.1,237.7 127,246.5 126.9,246.5 125.9,306.1 125.8,306.1 126.8,246.5 127,237.7 		"/>
		<polygon class="st12" points="127,237.7 126.8,246.5 120.9,247.4 121,238.5 121.1,238.5 121.1,238.5 		"/>
		<polygon class="st12" points="126.8,246.5 125.8,306.1 120.3,306.1 120.9,247.4 		"/>
		<polygon class="st13" points="125.8,308.2 126.6,311.1 113.7,314.7 112.8,248.5 120.8,247.4 120.2,308.2 		"/>
		<path class="st13" d="M200,251.5h-6.9l0.5-14.5l5.4-0.7l41.2,21.6l-4.4,88.7l-69.9-46.4l-39.3,10.9l-0.8-2.9v-2.1h0.1l1-59.6
			l0.1,0v0l22.7-3.2c-0.1,0.2-0.2,0.3-0.2,0.5c0,0,0,0,0,0c-3.1,6.6-4.8,11.4-4.8,11.4h0.6c-0.5,1.3-0.8,2.1-0.8,2.1l0.1,0
			c0,0.1,0,0.1,0,0.1l42.8-1.9l-3.1,46.7l-0.1,2.2l5.9,4.4v-0.1l0.1,0.1l0.1-2.1l2.5-50.1h7.3h0.1v-2.1h0.1L200,251.5z"/>
		<rect x="121.4" y="207.7" class="st12" width="0.1" height="2.1"/>
		<polygon class="st12" points="121.4,209.8 121.1,238.5 121,238.5 		"/>
		<polygon class="st12" points="121.1,238.5 121.1,238.5 121,238.5 121,238.5 		"/>
		<path class="st13" d="M154.6,233.8L154.6,233.8L154.6,233.8l-27.4,3.9l0.5-30h-0.1h-6.1h-0.1v2.1l-0.4,28.7v0l-0.1,0v0l-8,1.2
			l-1.1-84.3l103.5-2.5h4v69.6v4.9v9.9l-19.4-9.9l-6,0.8l0.7-24.4c-1.2-0.2-2.3-0.4-3.4-0.4c-0.6,0-1.1,0-1.7,0
			c-0.7,0-1.4,0.1-2.1,0.2c-13.7,1.8-25.1,16.7-32.7,30.3L154.6,233.8z"/>
		<polygon class="st6" points="120.9,238.5 121,238.5 120.9,247.4 120.8,247.4 		"/>
		<polygon class="st13" points="120.9,238.5 120.9,238.5 112.9,239.7 112.9,239.7 		"/>
		<polygon class="st12" points="125.8,306.1 125.8,308.2 120.2,308.2 120.8,247.4 120.9,247.4 120.3,306.1 		"/>
		<polygon class="st13" points="112.9,239.7 120.9,238.5 120.8,247.4 112.8,248.5 112.7,239.7 112.8,239.7 112.8,239.7 112.9,239.7 
					"/>
		<polygon class="st2" points="112.7,239.7 112.8,239.7 112.8,239.7 112.7,239.7 		"/>
		<polygon class="st2" points="112.7,239.7 112.7,239.7 92.5,242.6 92.5,242.6 		"/>
		<path class="st12" d="M107.1,309c0,0.2,0,0.4-0.1,0.5C107.1,309.4,107.1,309.2,107.1,309z"/>
		<path class="st2" d="M113.6,314.7l-22,6.1c0.1-0.4,0.2-0.7,0.3-1.1c0,0,0-0.1,0-0.1c0.4-1.5,0.4-2.6,0.4-3.3c0-0.2,0-0.3,0-0.4
			c0.2-1.5,0-2.4,0-2.4v-62.1l20.4-2.9L113.6,314.7z M107,309.7c0,0,0-0.1,0-0.1c0.1-0.2,0.1-0.3,0.1-0.5c0,0,0,0,0,0
			c0-0.3,0.1-0.6,0.1-0.9c0-2.6-1.2-4.8-2.6-4.8c0,0-0.1,0-0.1,0c0,0,0,0-0.1,0c-1.4,0-2.6,2.2-2.6,4.8c0,0.2,0,1.6,0,1.8
			c0,0,0,0,0-0.1c0,0.1,0,0.2,0,0.3c0,0.3,0,0.7,0,1c0.2,2.2,1.3,3.8,2.6,3.8s2.3-1.6,2.5-3.8c0-0.3,0.1-0.6,0.1-1
			C107,310,107,309.9,107,309.7z"/>
		<path class="st6" d="M107,309.7c0,0,0-0.1,0-0.1C107,309.6,107,309.7,107,309.7C107,309.7,107,309.7,107,309.7z"/>
		<path class="st6" d="M104.6,303.3c1.4,0,2.6,2.2,2.6,4.8c0,0.3,0,0.6-0.1,0.9c0-0.3,0-0.5,0-0.8
			C107.2,305.6,106.1,303.5,104.6,303.3C104.5,303.3,104.6,303.3,104.6,303.3z"/>
		<path class="st6" d="M104.4,315c1.2,0,2.3-1.7,2.5-3.8C106.7,313.4,105.6,315,104.4,315z"/>
		<path class="st12" d="M106.9,309.8c0,0,0-0.1,0.1-0.1C107,309.7,107,309.7,106.9,309.8c0,0.1,0,0.2-0.1,0.4
			c-0.5,1.5-1.4,2.6-2.3,2.7c-1.3,0-2.4-1.7-2.6-3.9c0,0,0,0,0,0c0.5-1.7,1.4-3.5,2.3-3.5C105.8,305.5,106.8,307.4,106.9,309.8z"/>
		<path class="st12" d="M107,309.7c0,0,0,0.1-0.1,0.1c-0.1-2.4-1.2-4.3-2.6-4.3c-0.9,0-1.8,1.9-2.3,3.5c0-0.1,0-0.3,0-0.4
			c0-0.2,0-0.3,0-0.5c0.4-1.6,1.3-2.7,2.4-2.7C105.7,305.4,106.8,307.3,107,309.7z"/>
		<path class="st12" d="M104.6,312.9c0.9-0.1,1.8-1.2,2.3-2.7c-0.4,1.6-1.3,3.2-2.4,3.2c-1.2,0-2.2-2-2.5-4.1c0-0.1,0-0.1,0.1-0.2
			C102.2,311.2,103.3,312.9,104.6,312.9z"/>
		<path class="st12" d="M107,309.7c0,0.2,0,0.3,0,0.5c0,0.3,0,0.7-0.1,1c-0.3,2.1-1.3,3.8-2.5,3.8s-2.3-1.7-2.6-3.8c0-0.3,0-0.6,0-1
			c0-0.1,0-0.2,0-0.3c0,0,0,0,0,0c0-0.2,0.1-0.4,0.2-0.6c0.3,2.1,1.4,4.1,2.5,4.1c1.1,0,1.9-1.5,2.4-3.2
			C106.9,310,107,309.9,107,309.7z"/>
		<path class="st12" d="M104.5,303.3c1.6,0.1,2.7,2.3,2.7,4.9c0,0.3,0,0.5,0,0.8c0,0,0,0,0,0c0,0.2-0.1,0.4-0.1,0.5c0,0,0,0.1,0,0.1
			c-0.2-2.4-1.3-4.3-2.6-4.3c-1.1,0-2,1.1-2.4,2.7C102,305.5,103.1,303.4,104.5,303.3z"/>
		<path class="st12" d="M104.4,315c-1.2,0-2.3-1.6-2.6-3.8C102.1,313.3,103.2,315,104.4,315z"/>
		<path class="st12" d="M102,309C102,309,102,309,102,309c0,0.1,0,0.1-0.1,0.2C101.9,309.2,101.9,309.1,102,309
			C101.9,309,101.9,309,102,309c-0.1-0.2,0-0.3,0-0.4C102,308.8,102,308.9,102,309z"/>
		<path class="st12" d="M102,308.1c0,0.2,0,0.3,0,0.5c0,0.1-0.1,0.2-0.1,0.4c0-0.2,0-0.3,0-0.5C101.9,308.4,102,308.2,102,308.1z"/>
		<path class="st12" d="M102,308.6c0,0.1-0.1,0.2-0.1,0.4c0,0,0,0,0,0C101.9,308.8,102,308.7,102,308.6z"/>
		<path class="st12" d="M101.9,309c0,0.1,0,0.2,0,0.3c-0.1,0.2-0.1,0.4-0.2,0.6c0-0.2,0-0.3,0-0.5
			C101.9,309.3,101.9,309.2,101.9,309C101.9,309,101.9,309,101.9,309z"/>
		<path class="st12" d="M101.9,309c0,0.1,0,0.2-0.1,0.4C101.9,309.3,101.9,309.2,101.9,309z"/>
		<path class="st12" d="M104.5,303.3c-1.4,0.1-2.5,2.1-2.5,4.8c0,0.1-0.1,0.3-0.1,0.4c0,0.1,0,0.3,0,0.5c0,0,0,0,0,0c0,0,0,0,0,0
			c0,0,0,0,0,0.1c0,0.1,0,0.2-0.1,0.4c0,0.1,0,0.3,0,0.5c0,0,0,0,0,0c0,0,0,0.1,0,0.1c0-0.2,0-1.6,0-1.8
			C101.8,305.5,103.1,303.3,104.5,303.3C104.5,303.3,104.5,303.3,104.5,303.3z"/>
		<polygon class="st2" points="92.4,242.6 92.5,242.6 92.5,242.6 112.7,239.7 112.8,248.5 92.4,251.4 		"/>
		<path class="st6" d="M92.2,315.7v-64.3l0.1,0v-8.8h0.1v8.8v62.1c0,0,0.2,0.9,0,2.4c0-0.1-0.1-0.2-0.1-0.2H92.2z"/>
		<path class="st12" d="M92.4,315.9c0,0.1,0,0.2,0,0.4c0,0.2-0.1,0.4-0.1,0.6c0-0.2,0-0.4,0-0.6C92.3,316.2,92.3,316,92.4,315.9z"/>
		<path class="st12" d="M92.3,316.9c0.1-0.2,0.1-0.4,0.1-0.6c-0.1,0.8-0.1,2-0.4,3.3c0,0,0,0.1,0,0.1c-0.1,0.4-0.2,0.7-0.4,1.1
			l-0.1,0C92,319.2,92.2,317.9,92.3,316.9C92.3,316.9,92.3,316.9,92.3,316.9z"/>
		<polygon class="st12" points="89.3,243 92.3,242.6 92.3,251.4 92.2,251.4 92.2,251.3 89.2,251.7 		"/>
		<path class="st12" d="M90.7,321c0.8-1.5,1.3-2.9,1.6-4c0,0.9-0.2,2.2-0.8,3.8l0.1,0c0,0,0,0,0,0L90.7,321z"/>
		<polygon class="st12" points="92.2,251.3 92.2,251.4 89.2,251.9 89.2,251.7 		"/>
		<path class="st12" d="M92,319.6c0.3-1.3,0.3-2.5,0.4-3.3C92.4,316.9,92.4,318.1,92,319.6z"/>
		<path class="st12" d="M91.6,320.8c0.2-0.4,0.3-0.8,0.4-1.1C91.9,320,91.8,320.4,91.6,320.8L91.6,320.8z"/>
		<path class="st12" d="M91.4,321.4c0.1-0.1,0.1-0.3,0.2-0.4l0,0C91.5,321,91.4,321.2,91.4,321.4z"/>
		<path class="st12" d="M90.7,321.1l0.9-0.2c-0.1,0.1-0.1,0.3-0.2,0.4c0,0,0,0.1-0.1,0.1l-1.3,1C90.2,322,90.5,321.5,90.7,321.1z"/>
		<path class="st6" d="M113.7,314.7l-21.9,6.2c-1,2.6-3,6.2-7.2,10.4c3.2-3.5,5.2-6.9,6.7-9.8c0,0,0.1-0.1,0.1-0.1
			c0.1-0.1,0.2-0.3,0.2-0.5l0,0c0-0.1,0-0.1,0.1-0.1L113.7,314.7l-0.9-66.2L113.7,314.7z"/>
		<path class="st12" d="M89.8,303.5c0.4-12.7-0.5-27.9-0.5-28.9l0.1,0c0,0,1.3,21.7,0.2,35.3c0-0.4,0-0.7,0.1-1.1
			c0.1-1.6,0.1-3.3,0.2-5.1C89.8,303.6,89.8,303.5,89.8,303.5z"/>
		<path class="st6" d="M89.2,277.4c0.2,3.1,0.8,15.2,0.6,26.1c0,0,0,0.1,0,0.2c0,0.6,0,1.2-0.1,1.8C90,294,89.4,280.5,89.2,277.4z"
			/>
		<path class="st12" d="M89.8,305.5c0-0.6,0.1-1.2,0.1-1.8c0,1.7-0.1,3.4-0.2,5.1C89.7,307.7,89.7,306.6,89.8,305.5z"/>
		<path class="st2" d="M89.6,310c0,0,0,0.1,0,0.1c0,0.1,0,0.2,0,0.3c-0.1,1.3-0.2,2.5-0.4,3.6c0.1-1.1,0.2-2.4,0.3-3.6
			c0,0.1,0,0.3,0,0.4c0-0.2,0-0.3,0-0.5C89.5,310.2,89.5,310.1,89.6,310c0-1.4,0.1-2.9,0.2-4.5c0,1.1-0.1,2.2-0.1,3.2
			c0,0.4,0,0.7-0.1,1.1C89.6,309.9,89.6,309.9,89.6,310z"/>
		<path class="st12" d="M89.5,310.8c0-0.1,0-0.3,0-0.4c-0.1,1.3-0.2,2.5-0.3,3.6c0,0.1,0,0.1,0,0.2c0,0,0,0.1,0,0.1
			c0.1-1,0.2-2.1,0.3-3.2C89.4,311,89.5,310.9,89.5,310.8z"/>
		<path class="st12" d="M89.3,274.5l-0.9,0.4l-24.5,11.7l-0.5-4.1l25.2-10.1L89.3,274.5C89.3,274.5,89.3,274.5,89.3,274.5z"/>
		<polygon class="st6" points="89.3,243 89.2,251.7 89.1,251.7 89.2,243 		"/>
		<path class="st2" d="M89.2,234.4l-0.1,8.6l-37.8,5.4c5.4-6.8,12.7-13.3,17.5-15.1c2-0.7,4.2-1.1,6.3-1.1c0.9,0,1.8,0,2.7,0.1
			C83.9,232.6,89.2,234.4,89.2,234.4z"/>
		<path class="st12" d="M89.4,274.5l-0.8-2l0.3-0.1v-1.9l0.1,0l0.2-18.4l-0.1,0v-0.2v-0.2l0.1,0v0.2l3-0.5v64.3h0.1
			c0,0,0,0.1,0.1,0.2c0,0.1,0,0.3-0.1,0.4c0,0.2,0,0.4,0,0.6c0,0,0,0,0,0c-0.2,1.2-0.7,2.5-1.6,4l0.9-0.2c0,0,0,0,0,0l0,0
			c0,0,0,0.1-0.1,0.1l-0.9,0.2l-3.3,0.9c0.2-0.4,0.4-0.7,0.5-1.1c0.6-1.5,1-3.9,1.3-6.7c0-0.1,0-0.1,0-0.2c0.2-1.1,0.3-2.3,0.4-3.6
			c0-0.1,0-0.2,0-0.3c0,0,0-0.1,0-0.1c0-0.1,0-0.1,0-0.2C90.7,296.2,89.4,274.5,89.4,274.5z"/>
		<path class="st6" d="M89.2,243l-37.9,5.4c0,0,0,0,0,0L89.2,243v-8.6c0,0-5.3-1.8-11.3-2.2c6.1,0.3,11.4,2.2,11.4,2.2L89.2,243z"/>
		<path class="st6" d="M89.1,252.1l-43.4,6.2c0-0.1,0-0.1,0-0.2l43.4-6.2V252.1z"/>
		<polygon class="st12" points="88.5,272.4 88.8,272.3 88.8,270.6 88.9,270.5 88.9,272.4 88.6,272.5 88.6,272.5 		"/>
		<polygon class="st12" points="88.9,270.3 88.9,270.5 88.8,270.6 88.8,270.3 		"/>
		<polygon class="st2" points="88.9,270.3 88.8,270.3 88.8,270.2 88.9,270.1 89.1,252.1 89.2,252.1 89,270.5 88.9,270.5 		"/>
		<polygon class="st12" points="88.8,270.3 88.8,270.6 63.2,280.9 63.3,282.1 63.1,280.7 		"/>
		<path class="st12" d="M88.6,272.5l0.8,2l-0.1,0c0,0,0,0,0,0L88.6,272.5L88.6,272.5z"/>
		<polygon class="st12" points="88.5,272.4 88.6,272.5 63.4,282.6 63.3,282.1 63.2,280.9 88.8,270.6 88.8,272.3 		"/>
		<path class="st12" d="M90,322.4l-6.2,4.3c0.1-0.2,0.7-1,1.4-2.1c0.1-0.1,0.2-0.2,0.2-0.2c0.3-0.4,0.7-0.7,1-1.1
			c0.3-0.4,0.5-0.7,0.8-1c0.1-0.1,0.1-0.2,0.2-0.3l3.3-0.9C90.5,321.5,90.2,322,90,322.4z"/>
		<path class="st12" d="M85.3,322.6c1.4-1.4,2.4-2.7,2.8-3.8c0.7-1.7,1.1-4.4,1.3-7.7c-0.1,1.1-0.2,2.2-0.3,3.2c0,0.2,0,0.3-0.1,0.5
			c-0.3,1.7-0.6,3.1-0.9,4.1c-0.4,1.2-1.4,2.4-2.8,3.8L85.3,322.6z"/>
		<path class="st12" d="M85.4,322.6c1.4-1.4,2.4-2.6,2.8-3.8c0.3-1,0.6-2.4,0.9-4.1c-0.3,2.5-0.7,4.6-1.2,6.1c0,0.1-0.4,0.6-0.8,1.3
			L85.4,322.6z"/>
		<path class="st12" d="M87.9,320.8c0.5-1.4,0.9-3.5,1.2-6.1c0-0.1,0-0.3,0.1-0.5c0,0,0-0.1,0-0.1c-0.3,2.9-0.7,5.2-1.3,6.7
			c-0.1,0.4-0.3,0.7-0.5,1.1l-0.3,0.1C87.5,321.4,87.9,320.9,87.9,320.8z"/>
		<path class="st12" d="M87.2,322.3c-0.2,0.3-0.5,0.7-0.8,1C86.7,323,87,322.7,87.2,322.3z"/>
		<path class="st12" d="M85.4,328.3c0.5-0.5,0.9-1,1.3-1.4C86.3,327.3,85.8,327.8,85.4,328.3z"/>
		<path class="st12" d="M86.4,323.4c-0.3,0.4-0.6,0.7-1,1.1c0,0-0.1,0.1-0.2,0.1c0.6-0.8,1.3-1.8,1.8-2.5l0.3-0.1
			c-0.1,0.1-0.1,0.2-0.2,0.3C87,322.7,86.7,323,86.4,323.4z"/>
		<path class="st12" d="M85.5,324.5c-0.1,0.1-0.1,0.1-0.2,0.2c0,0,0,0,0.1-0.1C85.3,324.5,85.4,324.5,85.5,324.5z"/>
		<path class="st12" d="M85.4,322.6C85.4,322.6,85.4,322.6,85.4,322.6l-0.2,0.1c0,0,0,0,0,0L85.4,322.6z"/>
		<path class="st2" d="M85.3,322.6l-61.5,17.1c0,0,0,0,0,0v0L85.3,322.6C85.3,322.6,85.3,322.6,85.3,322.6z"/>
		<path class="st12" d="M84.6,331.3c-5.1,5.7-13.1,11.7-25.7,16.5C71.7,341.8,79.6,336.1,84.6,331.3z"/>
		<path class="st6" d="M83.9,323.9c-1.5,1.3-3.2,2.6-5.1,3.9C80.7,326.5,82.4,325.2,83.9,323.9z"/>
		<path class="st12" d="M68.9,231.2c8.8-5.6,20,0.8,20.5,1.1C88.8,232.1,77.2,228.2,68.9,231.2z"/>
		<path class="st6" d="M66.8,227.8c4.4-2.1,9.3-3,14.2-2.7c4.5,0.3,8.4,1.7,11.5,4.3v13.2l-0.1,0v-13.2c-3.1-2.5-6.9-3.9-11.6-4.2
			C76,224.8,71.2,225.8,66.8,227.8z"/>
		<path class="st6" d="M77.7,328.5c-0.7,0.4-1.3,0.9-2,1.3C76.4,329.4,77.1,329,77.7,328.5z"/>
		<polygon class="st6" points="75.7,500.6 0,500.6 0,500 		"/>
		<path class="st12" d="M73.6,331.2c-6.8,4.2-14.3,8-18.7,10.1C59.2,339.2,66.8,335.4,73.6,331.2z"/>
		<polygon class="st12" points="63.9,286.7 88.4,275 63.8,286.8 63.4,282.6 		"/>
		<path class="st6" d="M89.2,276.7l-25.5,12.4L63,283l0,0l0.7,5.8l25.5-12.2c0,0,0,0.1,0,0.4C89.2,276.8,89.2,276.7,89.2,276.7z"/>
		<path class="st12" d="M63.8,286.8L88.4,275l0.9-0.4c0.1,1,0.9,16.2,0.5,28.9c0.2-10.9-0.4-23-0.6-26.1c0-0.1,0-0.3,0-0.4
			c0-0.3,0-0.4,0-0.4l-25.5,12.2L63,283l0.4-0.1l0-0.3l0,0L63.8,286.8z"/>
		<polygon class="st12" points="63.4,282.6 63.4,282.9 63,283 63,282.7 		"/>
		<polygon class="st6" points="63.4,282.6 63.4,282.6 63.3,282.1 		"/>
		<path class="st6" d="M57.7,348.2c0.4-0.2,0.8-0.3,1.2-0.5c-0.3,0.2-0.7,0.3-1,0.5c-1.5,0.6-3.1,1-4.6,1
			C54.8,349.2,56.3,348.8,57.7,348.2z"/>
		<path class="st2" d="M68.8,233.3c-4.8,1.8-12.1,8.3-17.5,15.1l-0.2,0c5.4-6.8,12.7-13.3,17.5-15.1c2.1-0.7,4.3-1.1,6.6-1.1
			C73,232.2,70.8,232.6,68.8,233.3z"/>
		<path class="st12" d="M56.2,345.2l2-1.4C59.3,344.5,57.6,345,56.2,345.2z"/>
		<path class="st12" d="M68.9,231.2c-5,1.9-12.9,9-18.4,16.2c2.3-4.7,5.1-10.4,11.3-14.7c5.5-3.9,12.2-5.9,18.9-5.4
			c4.5,0.3,8.4,1.7,11.5,4.3v11h0.1l-3,0.4l0.1-10.7c0,0,0,0,0,0C88.9,232,77.7,225.6,68.9,231.2z"/>
		<path class="st12" d="M56.2,345.2c1.5-0.1,3.1-0.6,2-1.4L56.2,345.2z M57.8,346c-2.7,1.2-5.8,1.3-8.5,0.2c0.3,0,4.5,0.2,4.8,0.4
			l2.1-1.4c-1.3,0.1-2.4,0-1.4-0.6c7.4-3.5,23.8-13,30.5-19.9c-0.7,1-1.4,1.9-1.4,2.1l6.2-4.3c-0.8,1.4-1.9,2.8-3.3,4.4
			c-0.4,0.5-0.9,0.9-1.3,1.4c0,0,0,0,0,0C80.4,333.4,72,339.6,57.8,346z"/>
		<path class="st12" d="M51.3,248.4l-0.1,0L51.3,248.4l-1.4,0.2c0.2-0.4,0.4-0.8,0.6-1.2c5.5-7.2,13.4-14.3,18.4-16.2
			c8.3-3,19.9,0.9,20.5,1.1c0,0,0,0,0,0L89.3,243h-0.1l0.1-8.6c0,0-5.4-1.9-11.4-2.2c-0.9-0.1-1.8-0.1-2.7-0.1
			c-2.2,0.1-4.5,0.4-6.6,1.1c-4.8,1.8-12.1,8.3-17.5,15.1H51.3C51.3,248.4,51.3,248.4,51.3,248.4z"/>
		<path class="st12" d="M49.6,248.6c0.3-0.4,0.6-0.8,0.9-1.2c-0.2,0.4-0.4,0.8-0.6,1.2h0L49.6,248.6z"/>
		<polygon class="st12" points="49.9,248.6 51.2,248.4 51.2,248.4 49.9,248.6 49.9,248.6 		"/>
		<path class="st12" d="M49.6,248.6l0.3,0v0L49.6,248.6C49.6,248.6,49.6,248.6,49.6,248.6z"/>
		<path class="st12" d="M49.6,248.6C49.6,248.6,49.6,248.6,49.6,248.6l-0.1,0c0,0,0,0,0,0L49.6,248.6z"/>
		<path class="st12" d="M49.5,248.6C49.5,248.6,49.4,248.7,49.5,248.6l-3.4,0.5L49.5,248.6z"/>
		<path class="st15" d="M42.5,402.8c3.9,10,7,16.6,7,17.1l0,0c0,0-0.1-0.1-0.2-0.3c-0.1-0.1-0.1-0.2-0.2-0.4c0-0.1-0.1-0.2-0.1-0.3
			C48,416.7,45.6,411.3,42.5,402.8z"/>
		<path class="st15" d="M49.4,419.9L49.4,419.9C49.4,419.9,49.4,419.9,49.4,419.9z"/>
		<path class="st15" d="M49.2,419.6c0.1,0.2,0.2,0.3,0.2,0.3L0,400.1l34.4-20.8c2.3,7.9,4.8,15.1,7.2,21.2c3.6,9.8,6.3,16,7.3,18.3
			c0,0.1,0.1,0.2,0.1,0.3C49.1,419.3,49.2,419.5,49.2,419.6z"/>
		<path class="st12" d="M49.4,346.3l-0.3-0.1c0.1,0,0.2,0,0.2,0c2.7,1.1,5.8,1,8.5-0.2c14.2-6.4,22.6-12.6,27.6-17.7
			c-5,5.2-13.3,11.3-27.5,17.8C55.2,347.3,52.2,347.4,49.4,346.3z"/>
		<path class="st12" d="M47.6,345.5l1.7,0.7c0,0-0.1,0-0.2,0h0l-1.4-0.6c-0.5-0.2-0.9-0.5-1.2-0.7C46.8,345.1,47.2,345.3,47.6,345.5
			z"/>
		<path class="st15" d="M49,419.1c0.1,0.2,0.1,0.3,0.2,0.4C49.2,419.5,49.1,419.3,49,419.1z"/>
		<path class="st12" d="M49.9,248.6c-0.7,1.4-1.4,2.8-2.1,3.9l-0.6-0.3c0.7-1.1,1.5-2.3,2.3-3.4l-0.1,0c0,0,0-0.1,0.1-0.1l0.1,0
			L49.9,248.6z"/>
		<path class="st12" d="M48,340.8c0.9,0.6,1.9,1,2.9,1.1C49.9,341.8,48.9,341.4,48,340.8z"/>
		<path class="st12" d="M49.5,248.7c-0.8,1.1-1.6,2.3-2.3,3.4l-0.6-0.4C47.7,250.7,48.7,249.7,49.5,248.7L49.5,248.7z"/>
		<path class="st12" d="M47.7,343c2.1,1.4,4.7,1.6,6.9,0.5c7.5-3.6,24-12.1,30.7-18.9c0,0,0,0-0.1,0.1c-6.7,7-23.1,16.4-30.5,19.9
			c-1,0.5,0.1,0.7,1.4,0.6l-2.1,1.4c-0.3-0.2-4.5-0.4-4.8-0.4l-1.7-0.7c-0.4-0.2-0.8-0.4-1.1-0.6c-0.5-0.4-0.9-0.9-1.1-1.5
			c0,0,0-0.1,0.1-0.1v0c0.3-0.4,0.8-0.6,1.2-0.6c0.3,0,0.6,0.1,0.9,0.3L47.7,343z"/>
		<path class="st12" d="M46.1,249.1l-1.4,0.2c0,0,0,0,0,0L46.1,249.1z"/>
		<path class="st12" d="M49.4,348.4l-1.7-0.7c-1.2-0.5-2-1.3-2.4-2.2c0.6-0.2,2.9,0.5,3.7,0.7h0l0.3,0.1c2.8,1.1,5.8,1,8.5-0.2
			c14.1-6.5,22.5-12.6,27.5-17.8c0,0,0,0,0,0c0.5-0.5,0.9-1,1.3-1.4c1.4-1.6,2.5-3.1,3.3-4.4l1.3-1c-1.5,2.9-3.6,6.3-6.7,9.8
			c-5,4.9-12.9,10.5-25.7,16.5c-0.4,0.2-0.8,0.3-1.2,0.5c-1.4,0.6-2.9,1-4.4,1c-0.1,0-0.3,0-0.4,0C51.7,349.1,50.5,348.9,49.4,348.4
			z"/>
		<path class="st12" d="M45.3,343.3c0.2,0.6,0.6,1.1,1.1,1.5C45.9,344.5,45.5,344,45.3,343.3C45.3,343.4,45.3,343.4,45.3,343.3
			C45.3,343.4,45.3,343.4,45.3,343.3z"/>
		<path class="st2" d="M45.7,258.1l-0.6,0.1c0-0.1,0.1-0.1,0.1-0.2l0.3-0.1C45.7,257.9,45.7,258,45.7,258.1z"/>
		<path class="st12" d="M48,340.8c0.9,0.6,1.9,1,2.9,1.1c1.4,0.2,2.8,0,4-0.6c4.3-2.1,11.8-5.9,18.7-10.1c0.7-0.5,1.5-0.9,2.2-1.4
			c0.7-0.4,1.3-0.9,2-1.3c0.3-0.2,0.7-0.5,1-0.7c1.9-1.3,3.7-2.6,5.1-3.9c0.5-0.4,1-0.9,1.4-1.3l0.1,0c0,0,0,0,0,0l1.6-0.5
			c-0.5,0.7-1.2,1.7-1.8,2.5c-6.7,6.8-23.2,15.3-30.7,18.9c-2.2,1.1-4.8,0.9-6.9-0.5l-0.2-0.1c-0.3-0.2-0.6-0.3-0.9-0.3
			c-0.4,0-0.9,0.2-1.2,0.6c-0.1-0.3-0.2-0.7-0.2-1.1c0-1,0.8-1.7,1.7-1.7c0.3,0,0.6,0.1,0.9,0.3L48,340.8z"/>
		<path class="st12" d="M46.5,344.9c0.4,0.3,0.8,0.5,1.2,0.7l1.4,0.6c-0.8-0.2-3.1-0.9-3.7-0.7c-0.1-0.2-0.1-0.4-0.2-0.6
			c0-0.3,0-0.8,0-1.2c0-0.1,0.1-0.2,0.1-0.3C45.5,344,45.9,344.5,46.5,344.9z"/>
		<path class="st12" d="M45.4,343.2c0,0-0.1,0.1-0.1,0.1c0,0,0,0,0,0C45.3,343.3,45.4,343.2,45.4,343.2L45.4,343.2z"/>
		<path class="st12" d="M45.2,345.6c0-0.1,0-0.4,0-0.7c0,0.2,0.1,0.4,0.2,0.6C45.3,345.5,45.2,345.6,45.2,345.6z"/>
		<path class="st12" d="M45.3,343.4C45.3,343.4,45.3,343.4,45.3,343.4c0,0.1-0.1,0.2-0.1,0.3c0-0.1,0-0.3,0-0.5c0,0,0,0,0,0
			C45.2,343.3,45.2,343.3,45.3,343.4z"/>
		<path class="st12" d="M45.2,343.2c0-0.5,0-1,0-1.1c0,0.4,0.1,0.8,0.2,1.1c0,0-0.1,0.1-0.1,0.1c0,0,0,0,0,0c0,0,0,0,0,0.1
			C45.2,343.3,45.2,343.3,45.2,343.2C45.2,343.2,45.2,343.2,45.2,343.2z"/>
		<path class="st2" d="M45.7,258.1c0-0.1-0.1-0.2-0.2-0.2l-0.3,0.1c1.2-2.9,3.5-6.3,6.1-9.6l37.9-5.4l-0.1,8.7v0.2L45.7,258.1z"/>
		<path class="st6" d="M45.1,258c1.3-2.9,3.5-6.2,6.1-9.6l0.1,0C48.7,251.7,46.4,255,45.1,258L45.1,258C45.1,258,45.1,258,45.1,258z
			"/>
		<path class="st12" d="M45.2,343.7c0,0.4,0,0.8,0,1.2c0-0.2-0.1-0.5-0.1-0.7C45.1,344,45.1,343.9,45.2,343.7z"/>
		<path class="st12" d="M47.8,252.4c0.8-1.1,1.4-2.4,2.1-3.9l1.3-0.1c-2.6,3.3-4.8,6.6-6.1,9.6l-0.6,0c0.5-1.8,1.4-3.8,2.7-5.9
			L47.8,252.4z"/>
		<path class="st12" d="M47.7,347.7l1.7,0.7c1.1,0.5,2.3,0.7,3.5,0.8c-1.2,0-2.5-0.3-3.7-0.8l-1.7-0.7c-1.7-0.7-2.6-2-2.6-3.5
			c0-0.4,0.1-0.7,0.3-1c0,0.1,0,0.3,0,0.5c0,0.1-0.1,0.3-0.1,0.5c0,0.2,0,0.5,0.1,0.7c0,0.4,0,0.6,0,0.7c0,0,0.1-0.1,0.1-0.1
			C45.7,346.4,46.5,347.2,47.7,347.7z"/>
		<path class="st12" d="M45,258.2c0,0,0-0.1,0-0.1C45,258.1,45,258.1,45,258.2z"/>
		<path class="st12" d="M44.4,258.1l0.7-0.1c0,0,0,0,0,0.1c0,0,0,0.1,0,0.1c0,0,0,0,0,0l0,0l-0.4,0l-0.2,0
			C44.4,258.2,44.4,258.2,44.4,258.1z"/>
		<path class="st12" d="M44.7,249.3c3.3-4.9,8.6-10.7,17.3-16.8c5.5-3.9,12.2-5.9,18.9-5.4c4.4,0.5,8.3,1.9,11.4,4.5v11h-0.1v-11
			c-3.1-2.6-7-4-11.5-4.3c-6.7-0.5-13.4,1.5-18.9,5.4c-6.2,4.3-9,9.9-11.3,14.7c-0.3,0.4-0.6,0.8-0.9,1.2l-0.1,0c0,0,0,0,0,0
			l-3.4,0.5L44.7,249.3z"/>
		<path class="st12" d="M43.5,249.5c3.1-5.4,8.6-12,18.6-19c0.9-0.7,1.9-1.3,2.9-1.8c0.6-0.3,1.2-0.6,1.8-0.9c4.4-2,9.2-2.9,14-2.6
			c4.7,0.3,8.5,1.7,11.6,4.2v13.2h-0.1v-11c-3.1-2.6-7-4-11.4-4.5c-6.7-0.5-13.4,1.5-18.9,5.4c-8.7,6.1-14,11.9-17.3,16.8l-0.3,0
			c0,0,0,0,0,0L43.5,249.5z"/>
		<path class="st12" d="M46.6,251.7l-2.6-1.5c0.2-0.3,0.4-0.6,0.6-0.9l-0.2,0c0,0,0,0,0,0l0.3,0c0,0,0,0,0,0l1.4-0.2l3.3-0.4
			C48.7,249.7,47.7,250.7,46.6,251.7z"/>
		<path class="st12" d="M44.6,249.3c-0.2,0.3-0.4,0.6-0.6,0.9l-0.1-0.1c0.1-0.3,0.3-0.5,0.5-0.8L44.6,249.3z"/>
		<path class="st12" d="M45.1,258l-0.7,0.1c0-0.1,0-0.1,0.1-0.2L45.1,258C45.1,258,45.1,258,45.1,258z"/>
		<path class="st12" d="M43.8,258l0.7,0c0,0.1,0,0.1-0.1,0.2l-0.6,0.1h0C43.8,258.2,43.7,258.1,43.8,258z"/>
		<path class="st12" d="M44.4,258.1c0,0,0,0.1,0,0.1l-0.5,0.1c0,0,0,0,0-0.1L44.4,258.1z"/>
		<path class="st2" d="M44.3,261.2c0.2-0.9,0.5-1.8,0.9-2.8l0.5-0.1C45.6,259.4,44.1,262,44.3,261.2z"/>
		<path class="st12" d="M44.4,258.3L44.4,258.3l-0.5,0.1c0,0,0,0,0,0L44.4,258.3z"/>
		<path class="st12" d="M44.4,258.3L44.4,258.3l-0.5,0.1c0,0,0,0,0,0L44.4,258.3z"/>
		<path class="st2" d="M42.1,262.9c1-0.2,1.8-1,2-2c0.2-0.7,0.5-1.8,0.9-2.7c0,0,0,0,0,0c0,0,0-0.1,0-0.1c0,0,0,0,0-0.1l0.1,0
			c0,0.1-0.1,0.1-0.1,0.2l0.6-0.1c0,0.1,0,0.1,0,0.2l-0.5,0.1c-0.4,1-0.7,1.9-0.9,2.8c-0.2,0.8,1.3-1.8,1.4-2.9l43.4-6.2l-0.2,18
			l-0.1,0.1v0.1l-25.7,10.4l0.2,1.4l0,0.5l-0.4,0.1l0,0.3l0,0l0.7,6.1l25.5-12.4c0,0,0,0.1,0,0.3c0,0.1,0,0.2,0,0.4
			c0.2,3.1,0.8,16.6,0.5,28.1c-0.1,1.6-0.1,3.1-0.3,4.5c0,0.1,0,0.2,0,0.3c0,0.2,0,0.3,0,0.5c0,0.1,0,0.2,0,0.3
			c-0.3,3.3-0.7,6-1.3,7.7c-0.4,1.1-1.4,2.4-2.8,3.8l-61.5,17.1c-5.1-21.8-9.8-47.5-13-76.6l4.2-0.7l24.8-3.5l0.1,0
			c0,0.3-0.1,0.5-0.1,0.6c0,0.1,0,0.1,0,0.2c0,0.1-0.1,0.2-0.1,0.4c0,0,0,0,0,0c-0.1,0.5-0.1,1-0.2,1.4c-0.1,1,0.8,1.9,1.8,1.7
			L42.1,262.9z"/>
		<path class="st12" d="M62.1,230.5c-10,6.9-15.5,13.6-18.6,19l-0.2,0c3.1-5.4,8.6-12,18.6-18.9c1-0.7,2-1.3,3.1-1.9
			C64,229.2,63,229.8,62.1,230.5z"/>
		<path class="st12" d="M43.4,249.6c0,0,0-0.1,0.1-0.1l0.9-0.1c-0.2,0.3-0.4,0.5-0.5,0.8l-0.6-0.4C43.3,249.7,43.3,249.7,43.4,249.6
			L43.4,249.6z"/>
		<path class="st12" d="M43.9,258.4C43.9,258.4,43.9,258.4,43.9,258.4l-1.2,0.2L43.9,258.4z"/>
		<path class="st12" d="M43.9,258.3C43.9,258.4,43.9,258.4,43.9,258.3l-1.1,0.2l0.5-0.1L43.9,258.3z"/>
		<path class="st2" d="M43.9,258.3l-0.7,0.1L43.9,258.3L43.9,258.3C43.8,258.3,43.8,258.3,43.9,258.3z"/>
		<path class="st12" d="M43.5,249.5c0,0-0.1,0.1-0.1,0.1l-0.1,0C43.4,249.6,43.4,249.5,43.5,249.5l-0.2,0c0,0,0,0,0,0L43.5,249.5z"
			/>
		<path class="st2" d="M43.4,249.5c0,0,0,0.1-0.1,0.1l-0.1,0C43.3,249.6,43.3,249.6,43.4,249.5L43.4,249.5z"/>
		<path class="st2" d="M43.3,249.6c0,0.1,0,0.1-0.1,0.1l-0.1,0C43.2,249.7,43.2,249.6,43.3,249.6L43.3,249.6L43.3,249.6z"/>
		<path class="st12" d="M43.3,249.5C43.3,249.5,43.3,249.5,43.3,249.5L43.3,249.5L43.3,249.5L43.3,249.5z"/>
		<path class="st2" d="M43.3,249.5c0,0,0,0.1-0.1,0.1h0C43.2,249.6,43.3,249.6,43.3,249.5L43.3,249.5L43.3,249.5z"/>
		<path class="st2" d="M43.3,249.5C43.3,249.6,43.2,249.6,43.3,249.5L43.3,249.5l-33.5,4.9c0,0,0-0.1,0-0.1L43.3,249.5z"/>
		<path class="st2" d="M43.2,249.6c-2,3.6-2.9,6.5-3.3,8.6L15,262.4l-4.3,0.6c-0.3-2.8-0.6-5.7-0.9-8.6L43.2,249.6z"/>
		<path class="st15" d="M42.5,402.8c3.2,8.5,5.5,13.9,6.5,16c-1-2.3-3.8-8.5-7.3-18.3c0.3,0.7,0.5,1.4,0.8,2.1
			C42.4,402.7,42.4,402.8,42.5,402.8z"/>
		<polygon class="st12" points="42.2,258.6 42.7,258.5 42.6,258.5 		"/>
		<path class="st12" d="M40.1,258.8l3.1-0.4l-0.5,0.1l-0.6,0.1l-2.1,0.3C40.1,258.9,40.1,258.8,40.1,258.8L40.1,258.8z"/>
		<path class="st12" d="M44,250.2c-1.7,2.7-2.8,5.2-3.5,7.2c0.6-2.1,1.6-4.6,3.3-7.2L44,250.2z"/>
		<path class="st12" d="M42.2,260.7l-0.8,0.2c-0.3,0.1-0.6,0.1-0.8,0c0.6-0.9,1.5-2.2,2-2.3l0.1,0l1.2-0.2c0.2,0.2,0.4,0.3,0.3,0.3
			C44,259.7,43.2,260.5,42.2,260.7z"/>
		<path class="st12" d="M41.4,260.9l0.8-0.2c1-0.2,1.8-1,2-2c0.1,0-0.2-0.2-0.3-0.3l0.5-0.1v0l0,0l0.2,0c-0.1,0.2-0.3,0.4-0.4,0.5
			c-0.2,1-1,1.8-2,2l-0.8,0.2c-0.3,0.1-0.6,0-0.9-0.1c0,0,0,0,0-0.1C40.8,261,41.1,261,41.4,260.9z"/>
		<path class="st12" d="M46.6,251.7c-2.6,2.4-5.7,4.9-6.4,6.8c0.1-0.3,0.2-0.6,0.3-1c0-0.1,0-0.2,0.1-0.2c0.7-2,1.8-4.4,3.5-7.2
			L46.6,251.7z"/>
		<path class="st12" d="M43.2,258.4l-3.1,0.4c0,0,0-0.1,0-0.1c0,0,0,0,0-0.1c0.8-1.9,3.8-4.4,6.4-6.8l0.6,0.4
			c-1.3,2.1-2.2,4.1-2.7,5.9l-0.7,0c0,0.1,0,0.2,0,0.3L43.2,258.4z"/>
		<path class="st12" d="M40.2,258.6C40.2,258.6,40.2,258.6,40.2,258.6C40.2,258.6,40.2,258.6,40.2,258.6z"/>
		<path class="st12" d="M43.9,250.1c-1.7,2.7-2.7,5.2-3.3,7.2c0,0.1-0.1,0.2-0.1,0.2c-0.1,0.4-0.3,0.8-0.4,1.2l-0.1,0c0,0,0,0,0,0
			l-0.1,0c0-0.3,0-0.5,0-0.6c0,0,0,0,0,0c0.5-2.1,1.4-5,3.3-8.5L43.9,250.1z"/>
		<path class="st6" d="M40.1,258.8c0.1-0.4,0.2-0.8,0.4-1.2c-0.1,0.3-0.2,0.7-0.3,1c0,0,0,0,0,0.1C40.2,258.7,40.2,258.7,40.1,258.8
			L40.1,258.8L40.1,258.8z"/>
		<path class="st12" d="M39.7,261.7c0-0.4,0.1-0.8,0.2-1.3c0.2,0.2,0.4,0.4,0.6,0.5C40,261.6,39.7,262.1,39.7,261.7z"/>
		<path class="st12" d="M39.9,260.4c0.2,0.2,0.4,0.4,0.7,0.5c0,0,0,0,0,0.1C40.3,260.8,40,260.6,39.9,260.4
			C39.9,260.4,39.9,260.4,39.9,260.4z"/>
		<path class="st12" d="M40.1,258.8L40.1,258.8l-0.1,0C40,258.8,40,258.8,40.1,258.8L40.1,258.8z"/>
		<path class="st12" d="M42.6,258.5c-0.5,0.1-1.4,1.4-2,2.3c-0.3-0.1-0.5-0.3-0.7-0.5c0,0,0,0,0-0.1c-0.1-0.2-0.1-0.4-0.1-0.6
			c0.1-0.3,0.1-0.5,0.2-0.9l0.1,0v0l0,0c0,0,0,0.1,0,0.1l2.1-0.3L42.6,258.5z"/>
		<path class="st2" d="M39.9,258.2c0.4-2.1,1.3-5,3.3-8.6h0c0,0,0,0.1,0,0.1l0.1,0C41.3,253.2,40.4,256.1,39.9,258.2L39.9,258.2z"/>
		<path class="st2" d="M39.9,258.2C39.9,258.2,39.9,258.2,39.9,258.2c0,0.2-0.1,0.5-0.1,0.7C39.8,258.7,39.9,258.5,39.9,258.2
			L39.9,258.2z"/>
		<path class="st2" d="M39.9,258.2c0,0.1,0,0.4,0,0.6l-0.1,0C39.8,258.7,39.9,258.5,39.9,258.2z"/>
		<path class="st2" d="M15,262.4l24.9-4.2c0,0.2-0.1,0.5-0.1,0.7L15,262.4z"/>
		<path class="st12" d="M39.9,260.3C39.9,260.3,39.9,260.3,39.9,260.3c-0.1,0-0.1-0.1-0.2-0.3c0-0.1,0-0.2,0.1-0.4
			C39.8,259.9,39.8,260.1,39.9,260.3z"/>
		<path class="st12" d="M39.9,260.4C39.9,260.4,39.9,260.4,39.9,260.4c-0.1-0.1-0.1-0.2-0.2-0.3c0,0,0,0,0-0.1
			C39.8,260.1,39.8,260.3,39.9,260.4z"/>
		<path class="st6" d="M40,258.8c-0.1,0.3-0.1,0.6-0.2,0.9c0-0.1,0-0.1,0-0.2C39.8,259.4,39.9,259.1,40,258.8L40,258.8z"/>
		<path class="st12" d="M41.4,261l0.8-0.2c1-0.2,1.8-1,2-2c0.1-0.2,0.3-0.3,0.4-0.5l0.4,0l0,0c-0.4,0.9-0.7,2-0.9,2.7
			c-0.2,1-1,1.8-2,2l-0.8,0.2c-1,0.2-1.9-0.7-1.8-1.7c0.1-0.4,0.1-0.9,0.2-1.4c0,0,0,0,0,0c0,0,0,0,0,0.1c0,0.1,0.1,0.2,0.2,0.3
			c-0.1,0.5-0.2,0.9-0.2,1.3c0,0.4,0.3-0.1,0.8-0.8C40.8,261,41.1,261.1,41.4,261z"/>
		<path class="st6" d="M24.3,342.1c6.4,26.8,13.2,47.3,18.1,60.6c-0.3-0.7-0.5-1.4-0.8-2.1C36.7,387.3,30.3,367.5,24.3,342.1z"/>
		<path class="st10" d="M24.3,342.1c6,25.4,12.5,45.2,17.3,58.5c-2.3-6.1-4.9-13.4-7.2-21.2L0,400.1v-53.8l23.7-6.6
			C23.9,340.5,24.1,341.3,24.3,342.1z"/>
		<path class="st2" d="M23.8,339.7l61.5-17.1c-0.4,0.4-0.9,0.8-1.4,1.3c-1.5,1.3-3.2,2.6-5.1,3.9c-0.3,0.2-0.7,0.5-1,0.7
			c-0.7,0.4-1.3,0.9-2,1.3c-0.7,0.5-1.4,0.9-2.2,1.4c-6.8,4.1-14.3,8-18.7,10.1c-1.2,0.6-2.7,0.8-4,0.6c-1-0.2-2-0.5-2.9-1.1
			l-0.2-0.1c-0.3-0.2-0.6-0.3-0.9-0.3c-0.9,0-1.7,0.7-1.7,1.7c0,0.1,0,0.6,0,1.1c-0.2,0.3-0.3,0.6-0.3,1c0,1.5,0.9,2.8,2.6,3.5
			l1.7,0.7c1.2,0.5,2.4,0.7,3.7,0.8c0.1,0,0.3,0,0.4,0c1.6,0,3.2-0.3,4.6-1c0.3-0.2,0.7-0.3,1-0.5c12.6-4.8,20.5-10.8,25.7-16.5
			c4.2-4.2,6.3-7.7,7.2-10.4l21.9-6.2l0.4,33.2l-64.7,72c0.1-0.5-3-7-7-17.1c0-0.1,0-0.1-0.1-0.2c-4.9-13.2-11.7-33.8-18.1-60.6
			C24.1,341.3,23.9,340.5,23.8,339.7L23.8,339.7C23.8,339.7,23.8,339.7,23.8,339.7z"/>
		<path class="st9" d="M10.7,263.1c3.2,29.1,7.9,54.8,13,76.6L0,346.3v-81.7L10.7,263.1z"/>
		<path class="st6" d="M111.8,155.4l1.1,84.3l-0.1,0l-1.1-84.3L6.6,183c-0.2,25.5,1.1,49.4,3.2,71.4h0c0.3,2.9,0.6,5.8,0.9,8.6
			l4.3-0.6l-4.2,0.7c3.2,29.1,7.9,54.8,13,76.6v0l-0.1,0c-5.1-21.8-9.8-47.5-13-76.6L0,264.6V0h213.1v152.9h2.2L111.8,155.4z"/>
		<path class="st2" d="M43.3,249.5L43.3,249.5L43.3,249.5l-33.5,4.8c0,0,0,0.1,0,0.1h0c-2.1-22-3.4-45.9-3.2-71.4l105.1-27.6
			l1.1,84.3l-0.1,0l-20.2,2.9v-13.2c-3.1-2.6-7-4-11.5-4.3c-4.9-0.4-9.8,0.6-14.2,2.7c-0.6,0.3-1.2,0.6-1.8,0.9
			c-1.1,0.6-2.1,1.2-3.1,1.9C51.9,237.5,46.4,244.1,43.3,249.5L43.3,249.5z"/>
	</g>
	<g>
	</g>
</g>
</svg>
