<?xml version="1.0" encoding="utf-8"?>
<!-- Generator: Adobe Illustrator 25.1.0, SVG Export Plug-In . SVG Version: 6.00 Build 0)  -->
<svg version="1.1" id="Lager_2_1_" xmlns="http://www.w3.org/2000/svg" xmlns:xlink="http://www.w3.org/1999/xlink" x="0px" y="0px"
	 viewBox="0 0 500 500" style="enable-background:new 0 0 500 500;" xml:space="preserve">
<style type="text/css">
	.st0{fill:#56341B;}
	.st1{fill:#2D1D12;}
	.st2{fill:#CEC0BA;}
	.st3{fill:#664020;}
	.st4{fill:#A57A68;}
	.st5{fill:#4F3D33;}
	.st6{fill:#BC8F79;}
	.st7{fill:#3F2D21;}
	.st8{fill:#D8D1B4;}
	.st9{fill:#E2D0C7;}
	.st10{fill:#306A7A;}
	.st11{fill:#E0DBC3;}
	.st12{fill:#FFFFFF;}
	.st13{fill:#C9C3A9;}
	.st14{fill:#7C5D52;}
	.st15{fill:#382B24;}
</style>
<g id="XMLID_2_">
	<g>
		<polygon class="st0" points="504.6,382.9 504.6,504 75.7,500.6 500.6,500.6 500.6,380.9 		"/>
		<path class="st0" d="M323.3,290.3l87.1,44.5l0,0c0,0.1,0,0.1,0,0.1l89,45.4l1.2,0.6v119.7H75.7L0,500h466.8h32.6l0.6-105.2
			L240.2,257.9l0.5-9.7l20.7,10.6l17.4,8.8L323.3,290.3z"/>
		<path class="st1" d="M500.6,173.7v207.2l-1.2-0.6c0,0,0.4-58.9,0.7-130.4L452,236.3l48,13.5c0.1-14.2,0.1-28.8,0.2-43.6
			l-45.6,10.3l1.4-10.4c-0.1,0.8,43.4-10.3,44.3-10.5c0-7.3,0.1-14.6,0.1-21.9H500.6z"/>
		<path class="st2" d="M500.6,0v173.7h-0.2c0-0.6,0-1.3,0-1.9l-0.4-3l-68.7,13.1c3.3-23.9,5.6-41,5.6-41.3
			c0-1.1-113.6-2.5-113.8-2.4l-61.8,14v0.1v62.1l-19.1,3.7l3.2-66l-26,0.7h-0.1V0H500.6z"/>
		<path class="st3" d="M500.4,171.8c0,0.6,0,1.3,0,1.9l-41.2,7.9l-28.6,5.4c0.2-1.7,0.5-3.4,0.7-5.1l68.7-13.1L500.4,171.8z"/>
		<path class="st0" d="M459.2,181.6l41.2-7.9c0,7.3-0.1,14.6-0.1,21.9c-0.9,0.2-44.4,11.3-44.3,10.5L459.2,181.6z"/>
		<path class="st1" d="M454.6,216.5l45.6-10.3c-0.1,14.8-0.1,29.4-0.2,43.6l-48-13.5L454.6,216.5z"/>
		<path class="st4" d="M452,236.3l48.1,13.6c-0.3,71.5-0.7,130.4-0.7,130.4l-89-45.5c0.3-2.2,6.4-47.2,12.8-93.3L452,236.3z"/>
		<polygon class="st5" points="500,394.8 499.4,500 466.8,500 235.8,346.6 240.2,257.9 		"/>
		<path class="st4" d="M499.4,380.3l-89-45.4c0,0,0,0,0-0.1L499.4,380.3z"/>
		<path class="st6" d="M466.8,500H0v-99.9l49.4,19.8c0,0,0,0,0,0l64.7-72l121.7-1.3L466.8,500z"/>
		<path class="st7" d="M454.6,216.5l-2.6,19.8l-28.8,5.2v-0.1c2.1-15.4,4.2-30.8,6.1-44.9c0.3-2.2,0.6-4.3,0.9-6.4
			c0.1-1.1,0.3-2.1,0.4-3.1l28.6-5.4l-3.2,24.5L454.6,216.5z"/>
		<path class="st8" d="M436.9,140.6c0,0.3-2.3,17.4-5.6,41.3l-31.2,6c-2.6-2.2-6.3-4.5-11.5-5.8c-2.7-0.7-5.8-1.1-9.4-1.1
			c-2.5,0-4.8,0.2-7,0.4c-9.4,1.2-15.6,4.7-19,7.2c-1.8,1.3-2.9,2.4-3.2,2.8c-0.1,0.1-0.1,0.1-0.1,0.1l-0.3,6.1l-26.3,5v-22.2v-42.2
			l-62,14.1v-0.1l61.8-14C323.3,138.1,436.9,139.5,436.9,140.6z"/>
		<path class="st8" d="M400.1,187.9l31.2-6c-0.2,1.7-0.5,3.4-0.7,5.1l-26.7,5.1c-0.2-0.3-0.4-0.6-0.6-0.9c-0.1-0.1-0.2-0.2-0.3-0.4
			C402.3,190,401.3,188.9,400.1,187.9z"/>
		<path class="st8" d="M430.6,187c-0.1,1-0.3,2.1-0.4,3.1c-0.3,2.1-0.6,4.2-0.9,6.4c-1.9,14.1-4.1,29.5-6.1,44.9l-71.3,12.9
			l-1.8-2.2l1-28.8H381v-0.1v-3.4v-0.1h-28.9l0.7-17.8l44.9-8.6c0,0,0.1,0.1,0.1,0.1c0,0,0,0,0,0c2.6,2.7,3.9,4.9,3.9,4.9l3.6-3.8
			c0,0,0-0.1-0.1-0.3l0,0c0-0.1-0.1-0.1-0.1-0.2c0,0,0-0.1-0.1-0.1c-0.2-0.4-0.5-0.9-0.9-1.5c0-0.1-0.1-0.2-0.2-0.3
			c0,0,0-0.1-0.1-0.1L430.6,187z"/>
		<path class="st9" d="M430.2,190.1c-0.3,2.1-0.6,4.2-0.9,6.4C429.6,194.3,429.9,192.2,430.2,190.1z"/>
		<path class="st9" d="M429.3,196.5c-1.9,14.1-4,29.5-6.1,44.9C425.2,226,427.4,210.6,429.3,196.5z"/>
		<path class="st8" d="M423.2,241.4v0.1c-6.3,46.1-12.5,91.1-12.8,93.3l0,0l-87.1-44.5V260l7-1.7c0.5,0.9,1.1,1.5,1.9,1.4
			c0.9,0,1.7-0.9,2.2-2.2l12.8-2.3v0.7l5.3,3.8l2.1,1.4h35.6l4.8-1.6l6.1-4.6v-4.3h-1.4l-6.3,6l-39.2,0.7l-2.3-2.9l-1.8-2.2v-0.1
			l1.8,2.2L423.2,241.4z"/>
		<path class="st10" d="M405.2,194.3L405.2,194.3C405.2,194.3,405.2,194.3,405.2,194.3c0.1,0.1,0.1,0.2,0.1,0.2l-3.6,3.8
			c0,0-1.3-2.2-3.9-4.9l0.1,0c2.5,2.6,3.7,4.7,3.7,4.7L405.2,194.3z"/>
		<path class="st10" d="M405.2,194.3L405.2,194.3l-3.6,3.8c0,0-1.1-2.1-3.7-4.7l6.2-1c0.4,0.6,0.7,1.1,0.9,1.5c0,0,0,0.1,0.1,0.1
			C405.1,194.1,405.1,194.2,405.2,194.3L405.2,194.3C405.2,194.3,405.2,194.3,405.2,194.3z"/>
		<path class="st10" d="M405.1,194.1c0,0.1,0.1,0.1,0.1,0.2C405.1,194.2,405.1,194.1,405.1,194.1z"/>
		<path class="st10" d="M404.2,192.5c0.4,0.6,0.7,1.1,0.9,1.5C404.9,193.6,404.6,193.1,404.2,192.5L404.2,192.5z"/>
		<path class="st10" d="M404,192.2c0.1,0.1,0.1,0.2,0.2,0.3h0C404.1,192.4,404,192.3,404,192.2L404,192.2z"/>
		<path class="st10" d="M404.1,192.5l-6.2,1c0,0,0,0,0,0l6.1-1.2C404,192.3,404.1,192.4,404.1,192.5z"/>
		<path class="st10" d="M404,192.2L404,192.2c0,0-0.1-0.1-0.1-0.1L404,192.2C404,192.1,404,192.2,404,192.2z"/>
		<path class="st10" d="M403.9,192.1c0,0,0.1,0.1,0.1,0.1l-6.1,1.2c-0.1-0.1-0.1-0.1-0.2-0.2l-0.1,0c-0.3-0.3-0.5-0.5-0.8-0.8
			c-0.8-0.7-1.6-1.4-2.5-2.1c-0.5-0.3-0.9-0.7-1.5-1l7.3-1.4c1.1,0.9,2.1,2,2.9,3c0.1,0.1,0.2,0.2,0.3,0.4
			C403.5,191.5,403.7,191.8,403.9,192.1z"/>
		<path class="st10" d="M403.9,192.1L403.9,192.1c-0.2-0.3-0.4-0.6-0.6-0.9C403.5,191.5,403.7,191.8,403.9,192.1z"/>
		<polygon class="st10" points="401.1,250.6 401.1,254.9 395,259.5 390.2,261.1 354.6,261.1 352.5,259.7 354.2,257.3 393.4,256.6 
			399.7,250.6 		"/>
		<path class="st9" d="M403,190.9c-0.8-1-1.8-2.1-2.9-3C401.3,188.9,402.3,190,403,190.9z"/>
		<path class="st10" d="M400.1,187.9l-7.3,1.4c-0.5-0.3-1-0.6-1.5-0.9c0,0,0,0,0,0c-7.1-4.1-18.1-6.2-33.6,1c-1,0.5-2.1,1-3.2,1.6
			l-0.8-2.7c3.5-2.5,9.6-5.7,18.6-6.9c2.1-0.3,4.5-0.4,7-0.4c3.6,0,6.7,0.4,9.4,1.1C393.8,183.4,397.5,185.7,400.1,187.9z"/>
		<path class="st10" d="M397.9,193.4C397.9,193.4,397.9,193.4,397.9,193.4L397.9,193.4C397.8,193.4,397.8,193.4,397.9,193.4
			L397.9,193.4z"/>
		<path class="st10" d="M397.9,193.4L397.9,193.4c-0.1,0-0.1,0-0.2-0.1c0,0-0.1-0.1-0.1-0.1l0.1,0
			C397.8,193.3,397.8,193.3,397.9,193.4z"/>
		<path class="st8" d="M397.7,193.3l-44.9,8.6v-0.1L397.7,193.3C397.6,193.2,397.7,193.3,397.7,193.3z"/>
		<path class="st8" d="M396.8,192.4c0.3,0.3,0.6,0.5,0.8,0.8l-44.8,8.6l0.2-4.9l39.8-7.6c0.5,0.3,1,0.7,1.5,1
			C395.2,191,396,191.7,396.8,192.4z"/>
		<path class="st10" d="M396.8,192.4c-0.8-0.7-1.6-1.4-2.5-2.1C395.2,191,396,191.7,396.8,192.4z"/>
		<path class="st9" d="M388.6,182.1c5.2,1.3,8.9,3.6,11.5,5.8C397.5,185.7,393.8,183.4,388.6,182.1z"/>
		<path class="st8" d="M392.8,189.3l-39.8,7.6l0.2-5.2c0.5-0.2,0.9-0.5,1.3-0.7c1.1-0.6,2.2-1.1,3.2-1.6c15.3-7.1,26.4-5,33.6-1
			c0,0,0,0,0,0C391.8,188.7,392.3,189,392.8,189.3z"/>
		<path class="st8" d="M391.3,188.4c0.5,0.3,1,0.6,1.5,0.9C392.3,189,391.8,188.7,391.3,188.4z"/>
		<rect x="351.1" y="223.2" class="st10" width="29.9" height="0.1"/>
		<polygon class="st10" points="381,219.8 381,223.2 351.1,223.2 351.1,223.3 350.1,252.1 350.1,252.2 351.9,254.4 347.2,255.2 
			349.5,202.5 352.8,201.9 352.1,219.7 352.1,219.8 		"/>
		<rect x="352.1" y="219.7" class="st9" width="28.9" height="0.1"/>
		<path class="st8" d="M357.7,189.4c15.5-7.3,26.4-5.1,33.6-1C384.1,184.4,373,182.3,357.7,189.4z"/>
		<path class="st9" d="M372.2,181.4c-9,1.2-15.1,4.4-18.6,6.9v0c-0.1,0.1-0.2,0.1-0.3,0.2c0,0,0,0-0.1,0.1c-1.9,1.4-3.2,2.8-3.3,2.8
			c0.3-0.3,1.4-1.5,3.2-2.8C356.6,186.1,362.8,182.6,372.2,181.4z"/>
		<path class="st10" d="M353.7,188.3l0.8,2.7c-0.1,0-0.2,0.1-0.2,0.1l-1-2.5c0,0,0,0,0.1-0.1C353.5,188.5,353.6,188.4,353.7,188.3z"
			/>
		<path class="st9" d="M354.2,191.1c0.1-0.1,0.2-0.1,0.2-0.1c-0.4,0.2-0.8,0.5-1.3,0.7C353.5,191.5,353.9,191.3,354.2,191.1z"/>
		<path class="st10" d="M353.3,188.6l1,2.5c-0.4,0.2-0.7,0.4-1,0.6l-0.2,5.2l-3.3,0.7l0.3-6.2C350.1,191.4,351.4,190.1,353.3,188.6z
			"/>
		<polygon class="st10" points="351.9,254.4 354.2,257.3 352.5,259.7 347.2,255.9 347.2,255.2 		"/>
		<path class="st10" d="M353.7,188.3L353.7,188.3c-0.1,0.1-0.2,0.2-0.3,0.2C353.5,188.5,353.6,188.4,353.7,188.3z"/>
		<polygon class="st10" points="353,196.9 352.8,201.8 352.8,201.9 349.5,202.5 349.7,197.7 		"/>
		<polygon class="st10" points="353,196.9 349.7,197.7 349.7,197.6 		"/>
		<path class="st8" d="M350,191.4l-0.3,6.2h0v0.1l-0.2,4.8l-26.2,5v-4.9l26.3-5l0.3-6.1C349.9,191.5,349.9,191.5,350,191.4z"/>
		<polygon class="st10" points="349.7,197.6 349.7,197.7 349.7,197.6 		"/>
		<path class="st8" d="M349.5,202.5l-2.3,52.7l-12.8,2.3c0.3-0.7,0.4-1.6,0.4-2.5c0-0.8-0.1-1.6-0.3-2.2c-0.4-1.5-1.3-2.6-2.3-2.6
			c-1.2,0-2.3,1.6-2.6,3.8c0,0.3,0,0.6,0,1c0,1.3,0.3,2.4,0.7,3.3l-7,1.7v-52.5L349.5,202.5z"/>
		<path class="st10" d="M334.5,252.8c0.2,0.7,0.3,1.4,0.3,2.2c0,0.9-0.1,1.8-0.4,2.5l-4.1,0.8c-0.4-0.9-0.7-2-0.7-3.3
			c0-0.3,0-0.7,0-1c0.3-2.2,1.3-3.8,2.6-3.8C333.2,250.3,334,251.3,334.5,252.8z"/>
		<path class="st10" d="M330.3,258.3l4.1-0.8c-0.5,1.3-1.3,2.2-2.2,2.2C331.4,259.8,330.8,259.2,330.3,258.3z"/>
		<path class="st9" d="M332.2,250.2c1,0,1.8,1.1,2.3,2.6C334,251.3,333.2,250.3,332.2,250.2z"/>
		<path class="st9" d="M329.6,254c0.2-2.2,1.3-3.8,2.6-3.8C331,250.2,329.9,251.9,329.6,254z"/>
		<polygon class="st11" points="323.3,260 323.3,290.3 278.8,267.6 287.5,266.1 314.7,261.2 312.5,261.2 316.2,208.9 312.6,261.1 
			314.8,261.1 314.7,262 		"/>
		<polygon class="st11" points="323.3,207.5 323.3,260 314.7,262 314.8,261.1 318.6,208.4 		"/>
		<polygon class="st11" points="323.3,202.6 323.3,207.5 318.6,208.4 318.9,203.5 		"/>
		<polygon class="st11" points="323.3,180.4 323.3,202.6 318.9,203.5 318.9,203.4 320.6,180.4 		"/>
		<path class="st11" d="M302.9,206.5c-3-10.8-8.5-21.6-18.1-15.6v0c0,0-0.1,0-0.1,0.1v19l-23.3,4.5v-0.1l-0.1,0v-62.1l62-14.1v42.2
			h-2.7l-2.4,1.2l-1.6,22.3L302.9,206.5z"/>
		<polygon class="st10" points="320.6,180.4 318.9,203.4 316.6,203.9 318.2,181.6 		"/>
		<polygon class="st10" points="318.9,203.5 318.6,208.4 316.2,208.9 316.6,203.9 318.9,203.4 		"/>
		<polygon class="st10" points="318.6,208.4 314.8,261.1 312.6,261.1 316.2,208.9 		"/>
		<path class="st11" d="M316.6,203.9l-0.4,5l-12.2,2.3c0,0,0-0.1,0-0.1h0c-0.3-1.5-0.7-3-1.2-4.6l0.1,0c0,0,0,0,0,0L316.6,203.9z"/>
		<path class="st11" d="M316.2,208.9l-3.7,52.3h2.2l-27.2,4.9l-0.7-32.5l19.3-9.6c0,0-0.2-2.5-0.8-6.3c-0.3-1.9-0.7-4.2-1.3-6.5
			L316.2,208.9z"/>
		<path class="st10" d="M306.1,224l-19.3,9.6l0.7,32.5l-2.7,0.3V235l-3.1,2.6l-1.2-2.2l4.3-4.1v-0.1v-16.3v-0.1l3.1-0.6v0.1v16v0.1
			l15.6-8c0,0,0,0,0-0.1h0c0,0,0-0.2-0.1-0.6c-0.1-1.4-0.6-5.5-1.6-10.2l2.2-0.4c0,0,0,0.1,0,0.1c0.5,2.4,1,4.6,1.3,6.5
			C305.9,221.5,306.1,224,306.1,224z"/>
		<path class="st12" d="M304,211.2c0.5,2.4,1,4.6,1.3,6.5C305,215.8,304.5,213.6,304,211.2L304,211.2z"/>
		<path class="st12" d="M304,211.1C304,211.1,304,211.2,304,211.1L304,211.1C304,211.2,304,211.1,304,211.1L304,211.1z"/>
		<path class="st10" d="M304,211.1l-2.2,0.4c1,4.7,1.5,8.8,1.6,10.2c-0.2-1.6-0.6-5.6-1.6-10.1c-0.3-1.5-0.8-3.1-1.2-4.7l2.2-0.4
			C303.3,208.1,303.7,209.6,304,211.1z"/>
		<path class="st12" d="M303.5,222.3C303.5,222.4,303.5,222.4,303.5,222.3l-15.6,8.1v-0.1L303.5,222.3z"/>
		<path class="st12" d="M303.5,222.3L303.5,222.3c0-0.1,0-0.3-0.1-0.6C303.5,222.1,303.5,222.3,303.5,222.3z"/>
		<path class="st11" d="M303.5,222.3l-15.6,8v-16l13.9-2.7c1,4.5,1.5,8.6,1.6,10.1C303.5,222,303.5,222.2,303.5,222.3z"/>
		<path class="st12" d="M302.9,206.5C302.9,206.5,302.9,206.5,302.9,206.5L302.9,206.5C302.8,206.5,302.8,206.5,302.9,206.5
			L302.9,206.5z"/>
		<path class="st12" d="M302.9,206.5L302.9,206.5c-3.1-10.7-8.6-21.5-18.1-15.5v0C294.4,184.9,299.9,195.7,302.9,206.5z"/>
		<path class="st10" d="M302.8,206.5C302.8,206.5,302.8,206.5,302.8,206.5l-2.2,0.4c-0.5-1.7-1.1-3.4-1.9-5c-2.3-5-5.5-8.8-10.1-8.3
			c-0.2,0-0.5,0.1-0.7,0.1v15.6l-3.1,0.6v-19C294.3,185,299.8,195.7,302.8,206.5z"/>
		<path class="st11" d="M301.8,211.6l-13.9,2.7v-0.1v-4.8v-0.1l12.7-2.4C301,208.5,301.5,210.1,301.8,211.6z"/>
		<path class="st11" d="M300.6,206.9l-12.7,2.4v-15.6c0.2,0,0.5-0.1,0.7-0.1c4.6-0.4,7.9,3.4,10.1,8.3
			C299.5,203.5,300.1,205.2,300.6,206.9z"/>
		<path class="st12" d="M288.6,193.6c4.6-0.5,7.9,3.3,10.1,8.3C296.5,197,293.2,193.2,288.6,193.6z"/>
		<path class="st10" d="M287.9,209.4v4.8l-3.1,0.6V210h-0.1v-19c0,0,0.1,0,0.1-0.1v19L287.9,209.4L287.9,209.4z"/>
		<polygon class="st11" points="287.5,266.1 278.8,267.6 261.4,258.8 261.4,219.3 284.8,214.9 284.8,231.2 280.5,235.4 281.7,237.6 
			284.8,235 284.8,266.4 284.8,266.5 		"/>
		<polygon class="st12" points="287.5,266.1 284.8,266.5 284.8,266.4 		"/>
		<polygon class="st12" points="284.8,231.2 284.8,231.3 280.5,235.4 		"/>
		<polygon class="st11" points="284.8,214.8 284.8,214.9 261.4,219.3 261.4,214.5 284.7,210 284.8,210 		"/>
		<polygon class="st7" points="261.4,219.3 261.4,258.8 240.7,248.2 241.9,223 		"/>
		<polygon class="st3" points="261.4,214.5 261.4,219.3 241.9,223 242.2,218.1 261.3,214.4 261.3,214.5 		"/>
		<polygon class="st3" points="261.4,214.4 261.4,214.5 261.3,214.5 261.3,214.4 		"/>
		<polygon class="st13" points="245.4,152.1 242.2,218.1 219.4,222.5 219.4,152.8 		"/>
		<polygon class="st13" points="242.2,218.1 241.9,223 219.4,227.4 219.4,222.6 219.4,222.5 		"/>
		<polygon class="st13" points="241.9,223 240.7,248.2 219.3,237.3 219.3,227.4 219.4,227.4 219.4,227.4 		"/>
		<polygon class="st13" points="240.7,248.2 240.2,257.9 199.1,236.2 193.6,237 193.8,228.3 193.8,228.2 193.9,228.2 193.9,228.3 
			199.9,227.4 219.3,237.3 		"/>
		<path class="st13" d="M200,251.5h-6.9l0.5-14.5l5.4-0.7l41.2,21.6l-4.4,88.7l-69.9-46.4l-39.3,10.9l-0.8-2.9v-2.1h0.1l1-59.6
			l0.1,0v0l22.7-3.2c-0.1,0.2-0.2,0.3-0.2,0.5c0,0,0,0,0,0c-3.1,6.6-4.8,11.4-4.8,11.4h0.6c-0.5,1.3-0.8,2.1-0.8,2.1l0.1,0
			c0,0.1,0,0.1,0,0.1l42.8-1.9l-3.1,46.7l0.1,0.1v0l-0.1,2.1l5.9,4.4l0.1-2.1l2.5-50.1h7.3h0.1v-2.1h0.1L200,251.5z"/>
		<polygon class="st13" points="240.2,257.9 199,236.3 193.6,237 199.1,236.2 		"/>
		<polygon class="st13" points="235.8,346.6 114.1,347.9 113.7,314.7 126.6,311.1 165.9,300.2 		"/>
		<polygon class="st13" points="219.4,227.4 219.4,227.4 219.3,227.4 		"/>
		<polygon class="st13" points="219.4,222.6 219.4,227.4 219.3,227.4 219.3,222.5 219.4,222.5 		"/>
		<polygon class="st13" points="219.4,152.8 219.4,222.5 219.3,222.5 219.3,152.9 219.3,152.8 		"/>
		<path class="st13" d="M219.3,227.4v9.9l-19.4-9.9l-6,0.8l0.7-24.4c-1.2-0.2-2.3-0.4-3.4-0.4c-0.6,0-1.1,0-1.7,0
			c-0.7,0-1.4,0.1-2.1,0.2c-13.7,1.8-25.1,16.7-32.7,30.3l-0.1,0v0l0,0l-27.4,3.9l0.5-30h-0.1h-6.1h-0.1v2.1l-0.4,28.7v0l-0.1,0v0
			l-8,1.2l-1.1-84.3l103.5-2.5h4v69.6V227.4z"/>
		<polygon class="st14" points="219.3,152.8 219.3,152.9 215.3,152.9 		"/>
		<polygon class="st14" points="219.3,0 219.3,152.8 215.3,152.9 213.1,152.9 213.1,0 		"/>
		<path class="st9" d="M215.3,152.9l-103.5,2.5l1.1,84.3l-0.1,0l-1.1-84.3L6.6,183c-0.2,25.5,1.1,49.4,3.2,71.4h0
			c0.3,2.9,0.6,5.8,0.9,8.6l4.3-0.6l-4.2,0.7c3.2,29.1,7.9,54.8,13,76.6v0l-0.1,0c-5.1-21.8-9.8-47.5-13-76.6L0,264.6V0h213.1v152.9
			H215.3z"/>
		<polygon class="st9" points="200,251.5 200.2,254.6 200.1,254.6 200.1,256.7 200,256.7 200,254.6 		"/>
		<polygon class="st10" points="200,254.6 200,256.7 192.7,256.7 192.6,256.7 192.7,254.6 		"/>
		<path class="st10" d="M200,251.5v3.1h-7.3l-0.1,2.1h-0.1l-2.4,50l-5.8-4.3l3.1-46.8h-0.1l0-0.1h0l0.1-2.1l-42.1,1.8
			c1-2.4,2.7-6.6,5.2-11.6l5.7-1.2c-2.1,4.5-3.2,7.6-3.2,7.6h0c0,0.1,0,0.1,0,0.1h35.6V250l0.5-12.3h0l4.5-0.6l-0.4,14.4H200z"/>
		<polygon class="st13" points="199.9,227.4 193.9,228.3 193.9,228.2 		"/>
		<path class="st9" d="M194.6,203.8l-0.7,24.4l-0.1,0l0.7-24.4c-1.1-0.2-2.2-0.4-3.3-0.4C192.3,203.4,193.4,203.6,194.6,203.8z"/>
		<path class="st10" d="M194.5,203.8l-0.7,24.4l0.5-21.7l0-0.5v-0.1c-1.4-0.3-2.7-0.5-4.1-0.5c-14.3-0.1-26.3,14.4-34.4,28.2l-1,0.2
			c7.5-13.4,18.9-28.4,32.6-30.2c0.7-0.1,1.4-0.1,2.1-0.2c0.6,0,1.1,0,1.7,0C192.3,203.4,193.4,203.6,194.5,203.8z"/>
		<path class="st10" d="M194.3,205.9v0.1c-1.4-0.3-2.8-0.4-4.1-0.4h0l0-0.2C191.6,205.4,192.9,205.6,194.3,205.9z"/>
		<path class="st10" d="M194.3,206l0,0.5l-0.6,21.7l-4.4,0.6l0.8-21.1v-0.1l0.1-2h0C191.5,205.6,192.9,205.7,194.3,206z"/>
		<polygon class="st10" points="193.7,228.2 194.3,206.5 193.8,228.2 		"/>
		<polygon class="st10" points="193.8,228.2 193.8,228.3 193.7,228.3 193.7,228.2 		"/>
		<polygon class="st9" points="193.8,228.3 193.6,237 193.1,251.5 193.5,237.1 193.5,237 		"/>
		<polygon class="st10" points="193.8,228.3 193.5,237 189,237.6 189,237.7 189,237.7 189.3,228.9 189.3,228.8 		"/>
		<polygon class="st10" points="193.8,228.3 189.3,228.8 193.7,228.2 193.7,228.3 		"/>
		<polygon class="st10" points="193.5,237 193.5,237.1 189,237.7 189,237.6 		"/>
		<polygon class="st10" points="192.7,256.7 190.2,306.8 190.1,308.9 184.2,304.5 184.3,302.4 184.3,302.4 190.1,306.7 192.5,256.7 
			192.6,256.7 		"/>
		<path class="st10" d="M190.2,205.4l0,0.2c-14.2-0.2-26.2,14.2-34.3,28l-0.1,0C163.9,219.8,175.9,205.3,190.2,205.4z"/>
		<path class="st10" d="M190.2,205.6l-0.1,2c-12.4,1.3-22.4,14-28.9,25.2l-5.3,0.8C164,219.9,176,205.4,190.2,205.6z"/>
		<path class="st9" d="M190.1,207.6L190.1,207.6c-12.3,1.4-22.4,14.1-28.9,25.3c-2,3.4-3.7,6.6-4.9,9.4c0.1-0.1,0.1-0.3,0.1-0.4
			c1.3-2.6,2.9-5.9,4.8-9.1C167.7,221.6,177.7,208.9,190.1,207.6z"/>
		<path class="st13" d="M190.1,207.7l-0.8,21.1v0.1l-28.1,4C167.7,221.7,177.8,209,190.1,207.7z"/>
		<path class="st13" d="M189.3,228.9l-0.3,8.8l-32.8,4.6c1.3-2.8,3-6,4.9-9.4L189.3,228.9z"/>
		<path class="st13" d="M189,237.7l-0.5,12.3h-35.6c0.2-0.6,1.4-3.6,3.3-7.6L189,237.7z"/>
		<path class="st13" d="M189,237.7l-32.8,4.7c0,0,0-0.1,0.1-0.1L189,237.7z"/>
		<path class="st9" d="M188.5,250v0.1h-35.6c0,0,0,0,0-0.1H188.5z"/>
		<path class="st10" d="M189.5,203.3c-0.7,0-1.4,0.1-2.1,0.2C188.1,203.4,188.8,203.4,189.5,203.3z"/>
		<path class="st10" d="M187.4,253.4l-0.1,2.1l-42.7,1.9c0.1-0.3,0.3-1,0.8-2.1L187.4,253.4z"/>
		<polygon class="st10" points="187.4,255.6 184.3,302.4 184.2,302.3 187.3,255.6 		"/>
		<path class="st10" d="M187.4,253.4l-42.1,1.9c0,0,0-0.1,0-0.1L187.4,253.4z"/>
		<polygon class="st10" points="187.3,255.5 187.3,255.6 187.3,255.6 187.3,255.5 		"/>
		<polygon class="st10" points="187.3,255.6 184.2,302.3 187.3,255.6 		"/>
		<path class="st9" d="M187.3,255.5v0.1l-42.8,1.9c0,0,0,0,0-0.1L187.3,255.5z"/>
		<path class="st10" d="M155.9,233.6l5.3-0.8c-1.9,3.2-3.5,6.5-4.8,9.1c0.9-2.7-2.3-5-0.8-8c0,0,0,0,0-0.1h0l0.1,0
			C155.8,233.7,155.9,233.6,155.9,233.6z"/>
		<path class="st10" d="M155.6,233.9c-1.5,3,1.6,5.3,0.8,8c-0.1,0.1-0.1,0.3-0.2,0.4l-5.6,0.8C152.1,240.2,153.8,237.1,155.6,233.9z
			"/>
		<path class="st10" d="M156.2,242.3c0.1-0.1,0.1-0.3,0.2-0.4C156.4,242,156.3,242.2,156.2,242.3L156.2,242.3L156.2,242.3z"/>
		<path class="st13" d="M156.2,242.3c0,0,0,0.1-0.1,0.1C156.2,242.4,156.2,242.3,156.2,242.3L156.2,242.3z"/>
		<path class="st10" d="M156.2,242.3c0,0,0,0.1,0,0.1l-0.1,0C156.2,242.4,156.2,242.3,156.2,242.3L156.2,242.3z"/>
		<path class="st10" d="M156.2,242.3c0,0,0,0.1-0.1,0.1l-5.5,0.8c0,0,0,0,0,0l-0.8,0.1c0.2-0.4,0.4-0.9,0.6-1.4
			c0.6-1.2,1.3-2.6,2-3.9c0.7-1.4,1.5-2.7,2.3-4.2l0,0c0,0.1-0.1,0.1-0.1,0.2l1.1-0.2c0,0,0,0,0,0.1c-1.8,3.2-3.6,6.3-5,9.2
			L156.2,242.3z"/>
		<path class="st13" d="M156.1,242.4L156.1,242.4c-1.8,4-3,7-3.2,7.6h0C152.9,250,154.1,246.9,156.1,242.4z"/>
		<path class="st10" d="M156.1,242.4l-5.7,1.2c0.1-0.1,0.1-0.3,0.2-0.4l-0.1,0c0,0,0,0,0,0L156.1,242.4z"/>
		<path class="st10" d="M155.9,233.6c0,0.1-0.1,0.1-0.1,0.2l-0.1,0c0-0.1,0.1-0.2,0.1-0.2L155.9,233.6z"/>
		<path class="st10" d="M155.8,233.6c0,0.1-0.1,0.1-0.1,0.2h0l-1.1,0.2c0-0.1,0.1-0.1,0.1-0.2l0.1,0c0,0,0,0,0,0L155.8,233.6z"/>
		<path class="st10" d="M187.4,203.5c-13.7,1.8-25.1,16.8-32.6,30.2l-0.1,0C162.4,220.2,173.8,205.3,187.4,203.5z"/>
		<path class="st10" d="M154.8,233.8C154.8,233.8,154.8,233.8,154.8,233.8l-0.1,0.1c0,0,0,0,0,0L154.8,233.8z"/>
		<path class="st10" d="M154.7,233.8C154.7,233.8,154.7,233.8,154.7,233.8L154.7,233.8l-0.1,0v0L154.7,233.8z"/>
		<path class="st13" d="M154.7,233.8L154.7,233.8L154.7,233.8l-0.1,0c0,0,0,0,0,0L154.7,233.8L154.7,233.8z"/>
		<path class="st13" d="M154.6,233.8l0.1,0c-0.8,1.4-1.6,2.8-2.3,4.2C153.1,236.6,153.9,235.1,154.6,233.8z"/>
		<path class="st13" d="M154.6,233.8C154.6,233.8,154.6,233.8,154.6,233.8l-27.4,3.9v0L154.6,233.8z"/>
		<path class="st13" d="M127.2,237.7l27.4-3.9c-0.7,1.3-1.4,2.8-2.2,4.2c-0.7,1.4-1.4,2.7-2,3.9c-0.2,0.5-0.5,0.9-0.7,1.4h0
			l-22.7,3.2L127.2,237.7L127.2,237.7L127.2,237.7z"/>
		<path class="st9" d="M152.4,238c-0.7,1.4-1.3,2.7-2,3.9C151,240.7,151.7,239.4,152.4,238z"/>
		<path class="st10" d="M150.7,243.2c-0.1,0.1-0.1,0.3-0.2,0.4l-0.1,0c0.1-0.1,0.1-0.3,0.2-0.4L150.7,243.2z"/>
		<path class="st10" d="M150.6,243.2c-0.1,0.1-0.1,0.3-0.2,0.4l-0.9,0.2c0,0,0,0,0,0c0.1-0.2,0.2-0.3,0.3-0.5l0.1,0v0L150.6,243.2z"
			/>
		<path class="st10" d="M150.4,243.6l0.1,0c-2.5,4.9-4.2,9.1-5.2,11.6l-0.1,0C146.2,252.8,147.9,248.6,150.4,243.6z"/>
		<path class="st10" d="M149.4,243.9l0.9-0.2c-2.5,4.9-4.2,9.1-5.1,11.6h0c0,0,0,0.1,0,0.1h-0.6
			C144.6,255.3,146.3,250.5,149.4,243.9z"/>
		<path class="st13" d="M150.4,241.9c-0.2,0.5-0.4,0.9-0.6,1.4l-0.1,0C150,242.9,150.2,242.4,150.4,241.9z"/>
		<path class="st10" d="M149.8,243.3L149.8,243.3L149.8,243.3C149.7,243.3,149.7,243.3,149.8,243.3L149.8,243.3z"/>
		<path class="st10" d="M149.7,243.3C149.7,243.3,149.7,243.3,149.7,243.3L149.7,243.3C149.7,243.3,149.7,243.3,149.7,243.3
			L149.7,243.3z"/>
		<path class="st10" d="M149.7,243.3c-0.1,0.2-0.2,0.4-0.3,0.5C149.5,243.7,149.6,243.5,149.7,243.3L149.7,243.3z"/>
		<path class="st13" d="M149.7,243.3C149.7,243.3,149.7,243.3,149.7,243.3l-22.7,3.2v0L149.7,243.3z"/>
		<path class="st10" d="M145.3,255.2c0,0,0,0.1,0,0.1h-0.1C145.2,255.3,145.2,255.2,145.3,255.2L145.3,255.2z"/>
		<path class="st10" d="M145.2,255.3h0.1c-0.5,1.1-0.7,1.8-0.8,2.1l-0.1,0C144.4,257.4,144.7,256.6,145.2,255.3L145.2,255.3z"/>
		<path class="st10" d="M145.2,255.2c0,0,0,0.1,0,0.1h0C145.2,255.3,145.2,255.2,145.2,255.2L145.2,255.2z"/>
		<polygon class="st9" points="127.7,207.7 127.2,237.7 127.1,237.7 127.6,207.7 		"/>
		<polygon class="st10" points="127.6,207.7 127.1,237.7 127,237.7 127.4,209.8 121.5,209.8 121.5,207.7 		"/>
		<polygon class="st10" points="127.4,209.8 127,237.7 121.1,238.5 121.4,209.8 121.5,209.8 		"/>
		<polygon class="st9" points="127.1,237.7 127,246.5 126.9,246.5 125.9,306.1 125.8,306.1 126.8,246.5 127,237.7 		"/>
		<polygon class="st10" points="127,237.7 126.8,246.5 120.9,247.4 121,238.5 121.1,238.5 121.1,238.5 		"/>
		<polygon class="st10" points="126.8,246.5 125.8,306.1 120.3,306.1 120.9,247.4 		"/>
		<polygon class="st13" points="125.8,308.2 126.6,311.1 113.7,314.7 112.8,248.5 120.8,247.4 120.2,308.2 		"/>
		<polygon class="st10" points="125.8,306.1 125.8,308.2 120.2,308.2 120.8,247.4 120.9,247.4 120.3,306.1 		"/>
		<rect x="121.4" y="207.7" class="st10" width="0.1" height="2.1"/>
		<polygon class="st10" points="121.4,209.8 121.1,238.5 121,238.5 		"/>
		<polygon class="st10" points="121.1,238.5 121.1,238.5 121,238.5 121,238.5 		"/>
		<polygon class="st9" points="120.9,238.5 121,238.5 120.9,247.4 120.8,247.4 		"/>
		<polygon class="st13" points="120.9,238.5 120.9,238.5 112.9,239.7 112.9,239.7 		"/>
		<polygon class="st13" points="120.9,238.5 120.8,247.4 112.8,248.5 112.7,239.7 112.8,239.7 112.8,239.7 112.9,239.7 112.9,239.7 
					"/>
		<path class="st8" d="M113.7,314.7l0.4,33.2l-64.7,72c0.1-0.5-3-7-7-17.1c0-0.1,0-0.1-0.1-0.2c-4.9-13.2-11.7-33.8-18.1-60.6
			c-0.2-0.8-0.4-1.6-0.6-2.4l0.1,0c0,0,0,0,0,0l61.5-17.1c-0.4,0.4-0.9,0.8-1.4,1.3c-1.5,1.3-3.2,2.6-5.1,3.9
			c-0.3,0.2-0.7,0.5-1,0.7c-0.7,0.4-1.3,0.9-2,1.3c-0.7,0.5-1.4,0.9-2.2,1.4c-6.8,4.1-14.3,8-18.7,10.1c-1.2,0.6-2.7,0.8-4,0.6
			c-1-0.1-2-0.5-2.9-1.1l-0.2-0.1c-0.3-0.2-0.6-0.3-0.9-0.3c-0.9,0-1.7,0.7-1.7,1.7c0,0.1,0,0.6,0,1.1c-0.2,0.3-0.3,0.6-0.3,1
			c0,1.5,0.9,2.8,2.6,3.5l1.7,0.7c1.2,0.5,2.4,0.7,3.7,0.8c0.1,0,0.3,0,0.4,0c1.6,0,3.2-0.3,4.6-1c0.3-0.2,0.7-0.3,1-0.5
			c12.6-4.8,20.5-10.8,25.7-16.5c4.2-4.2,6.3-7.7,7.2-10.4L113.7,314.7z"/>
		<path class="st8" d="M112.8,248.5l0.9,66.2l-21.9,6.2c-1,2.6-3,6.2-7.2,10.4c3.2-3.5,5.2-6.9,6.7-9.8c0,0,0.1-0.1,0.1-0.1
			c0.1-0.1,0.2-0.3,0.2-0.5l0,0c0.2-0.4,0.3-0.8,0.4-1.2c0,0,0-0.1,0-0.1c0.4-1.5,0.4-2.6,0.4-3.3c0-0.2,0-0.3,0-0.4
			c0.2-1.5,0-2.4,0-2.4v-62.1L112.8,248.5z M107.1,309c0-0.3,0.1-0.6,0.1-0.9c0-2.6-1.2-4.8-2.6-4.8c0,0-0.1,0-0.1,0c0,0,0,0-0.1,0
			c-1.4,0-2.6,2.2-2.6,4.8c0,0.2,0,1.6,0,1.8c0,0,0,0,0-0.1c0,0.1,0,0.2,0,0.3c0,0.3,0,0.7,0,1c0.2,2.2,1.3,3.8,2.6,3.8
			s2.3-1.6,2.5-3.8c0-0.3,0.1-0.6,0.1-1c0-0.2,0-0.3,0-0.5c0,0,0-0.1,0-0.1C107.1,309.4,107.1,309.2,107.1,309
			C107.1,309,107.1,309,107.1,309z"/>
		<polygon class="st8" points="112.8,239.7 112.8,239.7 112.7,239.7 112.7,239.7 		"/>
		<polygon class="st8" points="112.7,239.7 112.8,248.5 92.4,251.4 92.4,242.6 92.5,242.6 92.5,242.6 		"/>
		<path class="st8" d="M111.7,155.4l1.1,84.3l-0.1,0l-20.2,2.9v-13.2c-3.1-2.6-7-4-11.5-4.3c-4.9-0.4-9.8,0.6-14.2,2.7
			c-0.6,0.3-1.2,0.6-1.8,0.9c-1.1,0.6-2.1,1.2-3.1,1.9c-10,6.9-15.5,13.5-18.6,18.9h0v0l0,0l-33.5,4.8c0,0,0,0.1,0,0.1h0
			c-2.1-22-3.4-45.9-3.2-71.4L111.7,155.4z"/>
		<polygon class="st8" points="112.7,239.7 112.7,239.7 92.5,242.6 92.5,242.6 		"/>
		<path class="st10" d="M107.2,308.2c0,0.3,0,0.5,0,0.8c0,0,0,0,0,0c0,0.2-0.1,0.4-0.1,0.5c0,0,0,0.1,0,0.1
			c-0.2-2.4-1.3-4.3-2.6-4.3c-1.1,0-2,1.1-2.4,2.7c0-2.6,1.1-4.7,2.5-4.8C106.1,303.5,107.2,305.6,107.2,308.2z"/>
		<path class="st9" d="M107.1,309c0-0.3,0-0.5,0-0.8c0-2.6-1.1-4.8-2.7-4.9c0,0,0.1,0,0.1,0c1.4,0,2.6,2.2,2.6,4.8
			C107.2,308.4,107.2,308.7,107.1,309z"/>
		<path class="st10" d="M107,309.6c0-0.2,0.1-0.3,0.1-0.5C107.1,309.2,107.1,309.4,107,309.6z"/>
		<path class="st9" d="M107,309.7c0,0,0-0.1,0-0.1C107,309.6,107,309.7,107,309.7C107,309.7,107,309.7,107,309.7z"/>
		<path class="st10" d="M107,309.7c0,0.2,0,0.3,0,0.5c0,0.3,0,0.7-0.1,1c-0.3,2.1-1.3,3.8-2.5,3.8s-2.3-1.7-2.6-3.8c0-0.3,0-0.6,0-1
			c0-0.1,0-0.2,0-0.3c0,0,0,0,0,0c0-0.2,0.1-0.4,0.2-0.6c0.3,2.1,1.4,4.1,2.5,4.1c1.1,0,1.9-1.5,2.4-3.2
			C106.9,310,107,309.9,107,309.7z"/>
		<path class="st10" d="M107,309.7C107,309.7,107,309.7,107,309.7c0,0.2-0.1,0.4-0.1,0.5c-0.5,1.5-1.4,2.6-2.3,2.7
			c-1.3,0-2.4-1.7-2.6-3.9c0,0,0,0,0,0c0.5-1.7,1.4-3.5,2.3-3.5c1.4,0,2.5,1.9,2.6,4.3C107,309.8,107,309.7,107,309.7z"/>
		<path class="st10" d="M107,309.7c0,0,0,0.1-0.1,0.1c-0.1-2.4-1.2-4.3-2.6-4.3c-0.9,0-1.8,1.9-2.3,3.5c0-0.1,0-0.3,0-0.4
			c0-0.2,0-0.3,0-0.5c0.4-1.6,1.3-2.7,2.4-2.7C105.7,305.4,106.8,307.3,107,309.7z"/>
		<path class="st9" d="M104.4,315c1.2,0,2.3-1.7,2.5-3.8C106.7,313.4,105.6,315,104.4,315z"/>
		<path class="st10" d="M106.9,310.2c-0.4,1.6-1.3,3.2-2.4,3.2c-1.2,0-2.2-2-2.5-4.1c0-0.1,0-0.1,0.1-0.2c0.2,2.2,1.3,3.9,2.6,3.9
			C105.5,312.8,106.4,311.7,106.9,310.2z"/>
		<path class="st10" d="M104.4,303.3C104.5,303.3,104.5,303.3,104.4,303.3c-1.3,0.1-2.4,2.2-2.4,4.8c0,0.1-0.1,0.3-0.1,0.4
			c0,0.1,0,0.3,0,0.5c0,0,0,0,0,0c0,0,0,0,0,0c0,0,0,0,0,0.1c0,0.1,0,0.2-0.1,0.4c0,0.1,0,0.3,0,0.5c0,0,0,0,0,0c0,0,0,0.1,0,0.1
			c0-0.2,0-1.6,0-1.8C101.8,305.5,103.1,303.3,104.4,303.3z"/>
		<path class="st10" d="M101.8,311.2c0.3,2.1,1.3,3.8,2.6,3.8C103.2,315,102.1,313.4,101.8,311.2z"/>
		<path class="st10" d="M102,309C102,309,102,309,102,309c0,0.1,0,0.1-0.1,0.2C101.9,309.2,101.9,309.1,102,309
			C101.9,309,101.9,309,102,309c-0.1-0.2,0-0.3,0-0.4C102,308.8,102,308.9,102,309z"/>
		<path class="st10" d="M102,308.1c0,0.2,0,0.3,0,0.5c0,0.1-0.1,0.2-0.1,0.4c0-0.2,0-0.3,0-0.5C101.9,308.4,102,308.2,102,308.1z"/>
		<path class="st10" d="M102,308.6c0,0.1-0.1,0.2-0.1,0.4c0,0,0,0,0,0C101.9,308.8,102,308.7,102,308.6z"/>
		<path class="st10" d="M101.9,309c0,0.1,0,0.2,0,0.3c-0.1,0.2-0.1,0.4-0.2,0.6c0-0.2,0-0.3,0-0.5
			C101.9,309.3,101.9,309.2,101.9,309C101.9,309,101.9,309,101.9,309z"/>
		<path class="st10" d="M101.9,309c0,0.1,0,0.2-0.1,0.4C101.9,309.3,101.9,309.2,101.9,309z"/>
		<path class="st9" d="M92.5,229.4v13.2l-0.1,0L92.5,229.4c-3.2-2.5-7-3.9-11.7-4.2c-4.8-0.4-9.6,0.6-14,2.6c4.4-2.1,9.3-3,14.2-2.7
			C85.5,225.4,89.4,226.8,92.5,229.4z"/>
		<path class="st9" d="M92.4,313.5c0,0,0.2,0.9,0,2.4c0-0.1-0.1-0.2-0.1-0.2h-0.1v-64.3l0.1,0v-8.8h0.1v8.8V313.5z"/>
		<path class="st10" d="M92.4,229.4v13.2h-0.1v-11c-3.1-2.6-7-4-11.4-4.5c-6.7-0.5-13.4,1.5-18.9,5.4c-8.7,6.1-14,11.9-17.3,16.8
			l-0.3,0c0,0,0,0,0,0l-0.9,0.1c3.1-5.4,8.6-12,18.6-19c0.9-0.7,1.9-1.3,2.9-1.8c0.6-0.3,1.2-0.6,1.8-0.9c4.4-2,9.2-2.9,14-2.6
			C85.5,225.5,89.3,226.9,92.4,229.4z"/>
		<path class="st10" d="M92.4,315.9c0,0.1,0,0.2,0,0.4c0,0.2-0.1,0.4-0.1,0.6c0-0.2,0-0.4,0-0.6C92.3,316.2,92.3,316,92.4,315.9z"/>
		<path class="st10" d="M92.4,315.9c0,0.1,0,0.3-0.1,0.4c0,0.2,0,0.4,0,0.6c0,0,0,0,0,0c-0.2,1.2-0.7,2.5-1.6,4l0.9-0.2
			c0.2-0.4,0.3-0.8,0.4-1.1c-0.1,0.4-0.2,0.8-0.4,1.2l-0.9,0.2l-3.3,0.9c0.2-0.4,0.4-0.7,0.5-1.1c0.6-1.5,1-3.9,1.3-6.7
			c0-0.1,0-0.1,0-0.2c0.2-1.1,0.3-2.3,0.4-3.6c0-0.1,0-0.2,0-0.3c0,0,0-0.1,0-0.1c0-0.1,0-0.1,0-0.2c1.1-13.6-0.2-35.3-0.2-35.3
			l-0.8-2l0.3-0.1v-1.9l0.1,0l0.2-18.4l-0.1,0v-0.4l0.1,0v0.2l3-0.5v64.3h0.1C92.3,315.7,92.3,315.8,92.4,315.9z"/>
		<path class="st10" d="M92.3,317C92.3,316.9,92.3,316.9,92.3,317c0.1-0.3,0.1-0.5,0.1-0.7c-0.1,0.8-0.1,2-0.4,3.3c0,0,0,0.1,0,0.1
			c-0.1,0.4-0.2,0.7-0.4,1.1l-0.9,0.2C91.5,319.5,92,318.1,92.3,317z"/>
		<polygon class="st10" points="92.3,242.6 92.3,251.4 92.2,251.4 92.2,251.3 89.2,251.7 89.3,243 		"/>
		<path class="st10" d="M92.3,231.6v11h-0.1v-11c-3.1-2.6-7-4-11.5-4.3c-6.7-0.5-13.4,1.5-18.9,5.4c-6.2,4.3-9,9.9-11.3,14.7
			c-0.3,0.4-0.6,0.8-0.9,1.2l-0.1,0c0,0,0,0,0,0l-3.4,0.5l-1.4,0.2c3.3-4.9,8.6-10.7,17.3-16.8c5.5-3.9,12.2-5.9,18.9-5.4
			C85.3,227.6,89.2,229,92.3,231.6z"/>
		<path class="st10" d="M92.3,242.6l-3,0.4l0.1-10.7c0,0,0,0,0,0c-0.5-0.3-11.6-6.6-20.5-1.1c-5,1.9-12.9,9-18.4,16.2
			c2.3-4.7,5.1-10.4,11.3-14.7c5.5-3.9,12.2-5.9,18.9-5.4c4.5,0.3,8.4,1.7,11.5,4.3v11H92.3z"/>
		<polygon class="st10" points="92.2,251.3 92.2,251.4 89.2,251.9 89.2,251.7 		"/>
		<path class="st10" d="M92,319.6c0.3-1.3,0.3-2.5,0.4-3.3C92.4,316.9,92.4,318.1,92,319.6z"/>
		<path class="st10" d="M91.6,320.9c-0.1,0.1-0.2,0.3-0.2,0.5C91.4,321.2,91.5,321.1,91.6,320.9L91.6,320.9z"/>
		<path class="st10" d="M90.7,321.1l0.9-0.2c-0.1,0.1-0.1,0.3-0.2,0.4c0,0,0,0.1-0.1,0.1l-1.3,1C90.2,322,90.5,321.5,90.7,321.1z"/>
		<path class="st10" d="M90,322.4l1.3-1c-1.5,2.9-3.6,6.3-6.7,9.8c-5,4.9-12.9,10.5-25.7,16.5c-0.4,0.2-0.8,0.3-1.2,0.5
			c-1.4,0.6-2.9,1-4.4,1c-0.1,0-0.3,0-0.4,0c-1.2-0.1-2.4-0.3-3.5-0.8l-1.7-0.7c-1.2-0.5-2-1.3-2.4-2.2c0.6-0.2,2.9,0.5,3.7,0.7h0
			l0.3,0.1c2.8,1.1,5.8,1,8.5-0.2c14.1-6.5,22.5-12.6,27.5-17.8c0,0,0,0,0,0c0.5-0.5,0.9-1,1.3-1.4C88.1,325.2,89.2,323.8,90,322.4z
			"/>
		<path class="st10" d="M87.4,322l3.3-0.9c-0.2,0.4-0.5,0.9-0.7,1.3l-6.2,4.3c0.1-0.2,0.7-1,1.4-2.1c0.1-0.1,0.2-0.2,0.2-0.2
			c0.3-0.4,0.7-0.7,1-1.1c0.3-0.4,0.5-0.7,0.8-1C87.3,322.2,87.3,322.1,87.4,322z"/>
		<path class="st10" d="M56.2,345.2c-1.3,0.1-2.4,0-1.4-0.6c7.4-3.5,23.8-13,30.5-19.9c-0.7,1-1.4,1.9-1.4,2.1l6.2-4.3
			c-0.8,1.4-1.9,2.8-3.3,4.4c-0.4,0.5-0.9,0.9-1.3,1.4c0,0,0,0,0,0c-5,5.1-13.4,11.3-27.6,17.7c-2.7,1.2-5.8,1.3-8.5,0.2
			c0.3,0,4.5,0.2,4.8,0.4L56.2,345.2z M56.2,345.2c1.5-0.1,3.1-0.6,2-1.4L56.2,345.2z"/>
		<path class="st10" d="M89.3,274.5c0.1,1,0.9,16.2,0.5,28.9c0.2-10.9-0.4-23-0.6-26.1c0-0.1,0-0.3,0-0.4c0-0.3,0-0.4,0-0.4
			l-25.5,12.2L63,283l0.4-0.1l0-0.3l0,0l0.4,4.2L88.4,275L89.3,274.5z"/>
		<path class="st10" d="M89.8,303.5c0.4-12.7-0.5-27.9-0.5-28.9l0.1,0c0,0,1.3,21.7,0.2,35.3c0-0.4,0-0.7,0.1-1.1
			c0.1-1.6,0.1-3.3,0.2-5.1C89.8,303.6,89.8,303.5,89.8,303.5z"/>
		<path class="st9" d="M89.2,277.4c0.2,3.1,0.8,15.2,0.6,26.1c0,0,0,0.1,0,0.2c0,0.6,0,1.2-0.1,1.8C90,294,89.4,280.5,89.2,277.4z"
			/>
		<path class="st8" d="M89.2,277.4c0.2,3.1,0.8,16.6,0.5,28.1c-0.1,1.6-0.1,3.1-0.3,4.5c0,0.1,0,0.2,0,0.3c0,0.2,0,0.3,0,0.5
			c0,0.1,0,0.2,0,0.3c-0.3,3.3-0.7,6-1.3,7.7c-0.4,1.1-1.4,2.4-2.8,3.8l-61.5,17.1c-5.1-21.8-9.8-47.5-13-76.6l4.2-0.7l24.8-3.5
			l0.1,0c0,0.2,0,0.3,0,0.5c0,0,0,0,0,0c0,0.1,0,0.1,0,0.1c0,0,0,0.1,0,0.1c0,0.2,0,0.3-0.1,0.4c0,0,0,0,0,0c-0.1,0.5-0.1,1-0.2,1.4
			c-0.1,1,0.8,1.9,1.8,1.7l0.8-0.2c1-0.2,1.8-1,2-2c0.2-0.7,0.5-1.8,0.9-2.7c0-0.1,0.1-0.1,0.1-0.2l0.4-0.1c0.2,0,0.3,0.1,0.2,0.4
			l-0.5,0.1c-0.4,1-0.7,1.9-0.9,2.8c-0.2,0.8,1.3-1.8,1.4-2.9l43.4-6.2l-0.2,18l-0.1,0.1v0.1l-25.7,10.4l0.2,1.4l0,0.5l-0.4,0.1
			l0,0.3l0,0l0.7,6.1l25.5-12.4c0,0,0,0.1,0,0.3C89.2,277.1,89.2,277.2,89.2,277.4z"/>
		<path class="st10" d="M89.8,305.5c0-0.6,0.1-1.2,0.1-1.8c0,1.7-0.1,3.4-0.2,5.1C89.7,307.7,89.7,306.6,89.8,305.5z"/>
		<path class="st8" d="M89.8,305.5c0,1.1-0.1,2.2-0.1,3.2c0,0.4,0,0.7-0.1,1.1c0,0.1,0,0.1,0,0.2c0,0,0,0.1,0,0.1c0,0.1,0,0.2,0,0.3
			c-0.1,1.3-0.2,2.5-0.4,3.6c0.1-1.1,0.2-2.4,0.3-3.6c0,0.1,0,0.3,0,0.4c0-0.2,0-0.3,0-0.5c0-0.1,0-0.2,0-0.3
			C89.6,308.6,89.7,307.1,89.8,305.5z"/>
		<path class="st10" d="M89.5,310.8c0-0.1,0-0.3,0-0.4c-0.1,1.3-0.2,2.5-0.3,3.6c0,0.1,0,0.1,0,0.2c0,0,0,0.1,0,0.1
			c0.1-1,0.2-2.1,0.3-3.2C89.4,311,89.5,310.9,89.5,310.8z"/>
		<path class="st10" d="M89.4,232.3L89.3,243h-0.1l0.1-8.6c0,0-5.4-1.9-11.4-2.2c-0.9-0.1-1.8-0.1-2.7-0.1c-2.2,0.1-4.5,0.4-6.6,1.1
			c-4.8,1.8-12.1,8.3-17.5,15.1l0.2,0c0,0,0,0,0,0l-0.1,0l0,0l-1.3,0.2c0.2-0.4,0.4-0.8,0.6-1.2c5.5-7.2,13.4-14.3,18.4-16.2
			C77.2,228.2,88.8,232.1,89.4,232.3C89.4,232.3,89.4,232.3,89.4,232.3z"/>
		<path class="st10" d="M88.6,272.5l0.8,2l-0.1,0c0,0,0,0,0,0L88.6,272.5L88.6,272.5z"/>
		<path class="st10" d="M89.3,274.5C89.3,274.5,89.3,274.5,89.3,274.5l-0.9,0.5l-24.5,11.7l-0.5-4.1l25.2-10.1L89.3,274.5z"/>
		<path class="st8" d="M89.3,234.4l-0.1,8.6h0.1l-0.1,8.7l-0.1,0v0.4l-43.4,6.2c0-0.3,0-0.5-0.2-0.4l-0.4,0.1c0,0,0,0,0,0
			c1.3-2.9,3.5-6.2,6.1-9.6l0.1,0c0,0,0,0,0,0l37.8-5.4l0.1-8.6c0,0-5.3-1.8-11.3-2.2C83.9,232.5,89.3,234.4,89.3,234.4z"/>
		<path class="st10" d="M89.4,311.1c-0.1,1.1-0.2,2.2-0.3,3.2c0,0.2,0,0.3-0.1,0.5c-0.3,1.7-0.6,3.1-0.9,4.1
			c-0.4,1.2-1.4,2.4-2.8,3.8l-0.1,0c1.4-1.4,2.4-2.7,2.8-3.8C88.8,317.1,89.2,314.4,89.4,311.1z"/>
		<path class="st9" d="M89.2,276.6c0,0,0,0.1,0,0.4c0-0.2,0-0.3,0-0.3l-25.5,12.4L63,283l0,0l0.7,5.8L89.2,276.6z"/>
		<path class="st8" d="M89.2,234.4l-0.1,8.6l-37.8,5.4c5.4-6.8,12.7-13.3,17.5-15.1c2-0.7,4.2-1.1,6.3-1.1c0.9,0,1.8,0,2.7,0.1
			C83.9,232.6,89.2,234.4,89.2,234.4z"/>
		<polygon class="st8" points="89.2,252.1 89,270.5 88.9,270.5 88.9,270.3 88.8,270.3 88.8,270.2 88.9,270.1 89.1,252.1 		"/>
		<path class="st10" d="M89.2,314.3c0,0,0-0.1,0-0.1c-0.3,2.9-0.7,5.2-1.3,6.7c-0.1,0.4-0.3,0.7-0.5,1.1l-0.3,0.1
			c0.5-0.7,0.8-1.2,0.8-1.3c0.5-1.4,0.9-3.5,1.2-6.1C89.1,314.6,89.1,314.4,89.2,314.3z"/>
		<path class="st10" d="M88.2,318.8c0.3-1,0.6-2.4,0.9-4.1c-0.3,2.5-0.7,4.6-1.2,6.1c0,0.1-0.4,0.6-0.8,1.3l-1.6,0.5
			C86.8,321.2,87.8,320,88.2,318.8z"/>
		<polygon class="st10" points="88.9,270.5 88.9,272.4 88.6,272.5 88.6,272.5 88.5,272.4 88.8,272.3 88.8,270.6 		"/>
		<polygon class="st10" points="88.9,270.3 88.9,270.5 88.8,270.6 88.8,270.3 		"/>
		<polygon class="st10" points="88.8,270.6 88.8,272.3 88.5,272.4 88.6,272.5 63.4,282.6 63.3,282.1 63.2,280.9 		"/>
		<polygon class="st10" points="88.8,270.3 88.8,270.6 63.2,280.9 63.3,282.1 63.1,280.7 		"/>
		<polygon class="st10" points="88.4,275 63.8,286.8 63.4,282.6 63.9,286.7 		"/>
		<path class="st10" d="M87.4,322c-0.1,0.1-0.1,0.2-0.2,0.3c-0.2,0.3-0.5,0.7-0.8,1c-0.3,0.4-0.6,0.7-1,1.1c0,0-0.1,0.1-0.2,0.1
			c0.6-0.8,1.3-1.8,1.8-2.5L87.4,322z"/>
		<path class="st10" d="M85.4,322.6l1.6-0.5c-0.5,0.7-1.2,1.7-1.8,2.5c-6.7,6.8-23.2,15.3-30.7,18.9c-2.2,1.1-4.8,0.9-6.9-0.5
			l-0.2-0.1c-0.3-0.2-0.6-0.3-0.9-0.3c-0.4,0-0.9,0.2-1.2,0.6c-0.1-0.3-0.2-0.7-0.2-1.1c0-1,0.8-1.7,1.7-1.7c0.3,0,0.6,0.1,0.9,0.3
			l0.2,0.1c0.9,0.6,1.9,1,2.9,1.1c1.4,0.2,2.8,0,4-0.6c4.3-2.1,11.8-5.9,18.7-10.1c0.7-0.5,1.5-0.9,2.2-1.4c0.7-0.4,1.3-0.9,2-1.3
			c0.3-0.2,0.7-0.5,1-0.7c1.9-1.3,3.7-2.6,5.1-3.9c0.5-0.4,1-0.9,1.4-1.3L85.4,322.6C85.4,322.6,85.4,322.6,85.4,322.6z"/>
		<path class="st10" d="M87.2,322.3c-0.2,0.3-0.5,0.7-0.8,1C86.7,323,87,322.7,87.2,322.3z"/>
		<path class="st10" d="M86.7,326.9c-0.4,0.5-0.9,0.9-1.3,1.4C85.8,327.8,86.3,327.3,86.7,326.9z"/>
		<path class="st10" d="M85.5,324.5c-0.1,0.1-0.1,0.1-0.2,0.2c0,0,0,0,0.1-0.1C85.3,324.5,85.4,324.5,85.5,324.5z"/>
		<path class="st10" d="M85.4,322.6C85.4,322.6,85.4,322.6,85.4,322.6l-0.2,0.1c0,0,0,0,0,0L85.4,322.6z"/>
		<path class="st10" d="M85.3,324.6C85.3,324.6,85.3,324.6,85.3,324.6c-6.8,7-23.1,16.5-30.5,20c-1,0.5,0.1,0.7,1.4,0.6l-2.1,1.4
			c-0.3-0.2-4.5-0.4-4.8-0.4l-1.7-0.7c-0.4-0.2-0.8-0.4-1.1-0.6c-0.5-0.4-0.9-0.9-1.1-1.5c0,0,0-0.1,0.1-0.1v0
			c0.3-0.4,0.8-0.6,1.2-0.6c0.3,0,0.6,0.1,0.9,0.3l0.2,0.1c2.1,1.4,4.7,1.6,6.9,0.5C62.1,339.9,78.6,331.4,85.3,324.6z"/>
		<path class="st8" d="M85.3,322.6C85.3,322.6,85.3,322.6,85.3,322.6l-61.5,17.1c0,0,0,0,0,0v0L85.3,322.6z"/>
		<path class="st10" d="M58.9,347.7c12.8-5.9,20.7-11.6,25.7-16.5C79.4,337,71.5,342.9,58.9,347.7z"/>
		<path class="st10" d="M57.8,346c14.2-6.4,22.6-12.6,27.6-17.7c-5,5.2-13.3,11.3-27.5,17.8c-2.7,1.2-5.7,1.3-8.5,0.2l-0.3-0.1
			c0.1,0,0.2,0,0.2,0C52,347.3,55.1,347.2,57.8,346z"/>
		<path class="st9" d="M83.9,323.9c-1.4,1.3-3.2,2.6-5.1,3.9C80.7,326.5,82.4,325.2,83.9,323.9z"/>
		<path class="st10" d="M68.9,231.2c8.8-5.6,20,0.8,20.5,1.1C88.8,232.1,77.2,228.2,68.9,231.2z"/>
		<path class="st9" d="M77.7,328.5c-0.7,0.4-1.3,0.9-2,1.3C76.4,329.4,77.1,329,77.7,328.5z"/>
		<polygon class="st9" points="75.7,500.6 0,500.6 0,500 		"/>
		<path class="st10" d="M54.9,341.3c4.3-2.1,11.8-5.9,18.7-10.1C66.7,335.4,59.2,339.2,54.9,341.3z"/>
		<path class="st8" d="M75.2,232.2c-2.2,0.1-4.4,0.4-6.3,1.1c-4.8,1.8-12.1,8.3-17.5,15.1l-0.2,0c5.4-6.8,12.7-13.3,17.5-15.1
			C70.7,232.6,72.9,232.2,75.2,232.2z"/>
		<polygon class="st9" points="63.3,282.1 63.4,282.6 63.4,282.6 		"/>
		<polygon class="st10" points="63.4,282.6 63.4,282.9 63,283 63,282.7 		"/>
		<path class="st10" d="M65,228.7c-1,0.6-2,1.1-2.9,1.8c-10,6.9-15.5,13.6-18.6,19l-0.2,0c3.1-5.4,8.6-12,18.6-18.9
			C62.9,229.9,63.9,229.3,65,228.7z"/>
		<path class="st9" d="M57.7,348.2c0.4-0.2,0.8-0.3,1.2-0.5c-0.3,0.2-0.7,0.3-1,0.5c-1.5,0.6-3.1,1-4.6,1
			C54.8,349.2,56.3,348.8,57.7,348.2z"/>
		<path class="st10" d="M58.2,343.8c1.1,0.7-0.6,1.2-2,1.4L58.2,343.8z"/>
		<polygon class="st10" points="51.2,248.4 51.2,248.4 49.9,248.6 49.9,248.6 49.9,248.6 		"/>
		<path class="st10" d="M49.9,248.6l1.3-0.1c-2.6,3.3-4.8,6.6-6.1,9.6l-0.6,0c0,0,0,0,0-0.1c0.5-1.8,1.4-3.8,2.7-5.8l0.6,0.3
			C48.5,251.3,49.2,250,49.9,248.6z"/>
		<path class="st10" d="M49.6,248.6c0.3-0.4,0.6-0.8,0.9-1.2c-0.2,0.4-0.4,0.8-0.6,1.2h0L49.6,248.6z"/>
		<path class="st10" d="M49.9,248.6L49.9,248.6l-0.3,0.1c0,0,0,0,0,0L49.9,248.6z"/>
		<path class="st10" d="M49.6,248.6l0.3,0c-0.7,1.4-1.4,2.8-2.1,3.9l-0.6-0.3C47.9,251,48.7,249.8,49.6,248.6l-0.2,0.1
			c0,0,0-0.1,0.1-0.1L49.6,248.6z"/>
		<path class="st10" d="M49.4,348.4c1.1,0.5,2.3,0.7,3.5,0.8c-1.2,0-2.5-0.3-3.7-0.8l-1.7-0.7c-1.7-0.7-2.6-2-2.6-3.5
			c0-0.4,0.1-0.7,0.3-1c0,0.1,0,0.3,0,0.5c0,0.1-0.1,0.3-0.1,0.5c0,0.2,0,0.5,0.1,0.7c0,0.4,0,0.6,0,0.7c0,0,0.1-0.1,0.1-0.1
			c0.4,0.9,1.2,1.7,2.4,2.2L49.4,348.4z"/>
		<path class="st10" d="M49.6,248.6C49.6,248.6,49.6,248.6,49.6,248.6l-0.1,0c0,0,0,0,0,0L49.6,248.6z"/>
		<path class="st10" d="M49.4,248.7L49.4,248.7c-0.8,1.1-1.5,2.3-2.2,3.4l-0.6-0.4C47.7,250.7,48.7,249.7,49.4,248.7z"/>
		<path class="st10" d="M49.5,248.6C49.5,248.6,49.4,248.7,49.5,248.6l-3.4,0.5L49.5,248.6z"/>
		<path class="st15" d="M42.5,402.8c3.9,10,7,16.6,7,17.1l0,0c0,0-0.1-0.1-0.2-0.3c-0.1-0.1-0.1-0.2-0.2-0.4c0-0.1-0.1-0.2-0.1-0.3
			C48,416.7,45.6,411.3,42.5,402.8z"/>
		<path class="st15" d="M49.4,419.9L49.4,419.9C49.4,419.9,49.4,419.9,49.4,419.9z"/>
		<path class="st10" d="M46.1,249.1l3.3-0.4c-0.7,1-1.7,2-2.8,3l-2.6-1.5c0.2-0.3,0.4-0.6,0.6-0.9l-0.2,0c0,0,0,0,0,0l0.3,0
			c0,0,0,0,0,0L46.1,249.1z"/>
		<path class="st15" d="M49.4,419.9L0,400.1l34.4-20.8c2.3,7.9,4.8,15.1,7.2,21.2c3.6,9.8,6.3,16,7.3,18.3c0,0.1,0.1,0.2,0.1,0.3
			c0.1,0.2,0.1,0.3,0.2,0.4C49.3,419.8,49.4,419.9,49.4,419.9z"/>
		<path class="st10" d="M47.6,345.5l1.7,0.7c0,0-0.1,0-0.2,0h0l-1.4-0.6c-0.5-0.2-0.9-0.5-1.2-0.7C46.8,345.1,47.2,345.3,47.6,345.5
			z"/>
		<path class="st15" d="M49,419.1c0.1,0.2,0.1,0.3,0.2,0.4C49.2,419.5,49.1,419.3,49,419.1z"/>
		<path class="st10" d="M47.7,345.6l1.4,0.6c-0.8-0.2-3.1-0.9-3.7-0.7c-0.1-0.2-0.1-0.4-0.2-0.6c0-0.3,0-0.8,0-1.2
			c0-0.1,0.1-0.2,0.1-0.3c0.2,0.6,0.6,1,1.2,1.4C46.8,345.1,47.2,345.4,47.7,345.6z"/>
		<path class="st10" d="M48,340.8c0.9,0.6,1.9,1,2.9,1.1C49.9,341.8,48.9,341.4,48,340.8z"/>
		<path class="st10" d="M46.6,251.7l0.6,0.4c-1.3,2.1-2.2,4-2.7,5.8c0-0.2,0-0.4,0.1-0.7l-3.9,0.5C41.8,255.9,44.4,253.8,46.6,251.7
			z"/>
		<path class="st10" d="M44,250.2l2.6,1.5c-2.2,2.1-4.8,4.2-6,6l-0.2,0c0-0.1,0.1-0.2,0.1-0.4C41.2,255.4,42.3,252.9,44,250.2z"/>
		<path class="st10" d="M46.1,249.1l-1.4,0.2c0,0,0,0,0,0L46.1,249.1z"/>
		<path class="st8" d="M45.2,258.4l0.5-0.1c-0.1,1-1.6,3.7-1.4,2.9C44.5,260.3,44.8,259.4,45.2,258.4z"/>
		<path class="st10" d="M45.3,343.3c0.2,0.6,0.6,1.1,1.1,1.5C45.9,344.5,45.5,344,45.3,343.3C45.3,343.4,45.3,343.4,45.3,343.3
			C45.3,343.4,45.3,343.4,45.3,343.3z"/>
		<path class="st10" d="M45.4,343.2L45.4,343.2c0,0.1-0.1,0.1-0.1,0.1c0,0,0,0,0,0C45.3,343.3,45.4,343.2,45.4,343.2z"/>
		<path class="st10" d="M45.4,343.2c0,0-0.1,0.1-0.1,0.1c0,0,0,0,0,0c0,0,0,0,0,0.1c0-0.1-0.1-0.1-0.1-0.2c0,0,0,0,0,0
			c0-0.5,0-1,0-1.1C45.2,342.5,45.3,342.9,45.4,343.2z"/>
		<path class="st10" d="M45.3,343.4C45.3,343.4,45.3,343.4,45.3,343.4c0,0.1-0.1,0.2-0.1,0.3c0-0.1,0-0.3,0-0.5c0,0,0,0,0,0
			C45.2,343.3,45.2,343.3,45.3,343.4z"/>
		<path class="st10" d="M45.3,345.5c-0.1,0-0.1,0.1-0.1,0.1c0-0.1,0-0.4,0-0.7C45.2,345.1,45.3,345.3,45.3,345.5z"/>
		<path class="st10" d="M45.2,343.7c0,0.4,0,0.8,0,1.2c0-0.2-0.1-0.5-0.1-0.7C45.1,344,45.1,343.9,45.2,343.7z"/>
		<path class="st10" d="M45.1,258C45.1,258,45.1,258,45.1,258l-0.6,0.2c0-0.1,0-0.1,0-0.2L45.1,258z"/>
		<path class="st10" d="M45.1,258c0,0.1-0.1,0.1-0.1,0.2l0,0l-0.6,0.1c0,0,0-0.1,0-0.1L45.1,258z"/>
		<path class="st10" d="M45,258.2L45,258.2c-0.4,0.9-0.7,2-0.9,2.7c-0.2,1-1,1.8-2,2l-0.8,0.2c-1,0.2-1.9-0.7-1.8-1.7
			c0.1-0.4,0.1-0.9,0.2-1.4c0,0,0,0,0,0c0,0,0,0,0,0.1c0,0.1,0.1,0.2,0.2,0.3c-0.1,0.5-0.2,0.9-0.2,1.3c0,0.4,0.3-0.1,0.8-0.8
			c0.3,0.1,0.6,0.2,0.9,0.1l0.8-0.2c1-0.2,1.8-1,2-2c0.1-0.1,0.2-0.2,0.2-0.5L45,258.2z"/>
		<path class="st10" d="M44.4,249.3l0.2,0c-0.2,0.3-0.4,0.6-0.6,0.9l-0.1-0.1C44,249.9,44.2,249.6,44.4,249.3z"/>
		<path class="st10" d="M40.7,257.7l3.9-0.5c0,0.3,0,0.5-0.1,0.7c0,0,0,0,0,0.1l-0.7,0c0,0.1,0,0.2,0,0.3l-1.1,0.2l-0.6,0.1
			l-2.1,0.3c0-0.1,0.1-0.2,0.1-0.3C40.3,258.3,40.5,258,40.7,257.7z"/>
		<path class="st10" d="M44.5,258C44.5,258,44.5,257.9,44.5,258C44.5,257.9,44.5,258,44.5,258L44.5,258z"/>
		<path class="st10" d="M44.5,258L44.5,258c0,0.1,0,0.1,0,0.2h0C44.5,258.1,44.5,258,44.5,258z"/>
		<path class="st10" d="M44.5,258c0,0.1,0,0.1-0.1,0.2l-0.6,0.1h0c0-0.1-0.1-0.2,0-0.3L44.5,258z"/>
		<path class="st10" d="M44.4,258.1L44.4,258.1c0,0,0,0.1,0,0.1h0C44.4,258.2,44.4,258.2,44.4,258.1z"/>
		<path class="st10" d="M44.4,258.1c0,0,0,0.1,0,0.1l0,0l-0.5,0.1c0,0,0,0,0-0.1L44.4,258.1z"/>
		<path class="st10" d="M44.4,258.3L44.4,258.3c0,0.3-0.2,0.4-0.2,0.5c-0.2,1-1,1.8-2,2l-0.8,0.2c-0.3,0.1-0.6,0-0.9-0.1
			c0,0,0,0,0-0.1c0.2,0.1,0.5,0.1,0.8,0l0.8-0.2c1-0.2,1.8-1,2-2c0.1,0-0.2-0.2-0.3-0.3L44.4,258.3L44.4,258.3L44.4,258.3z"/>
		<path class="st10" d="M44.4,258.3L44.4,258.3l-0.5,0.1c0,0,0,0,0,0L44.4,258.3z"/>
		<path class="st10" d="M43.5,249.5l0.9-0.1c-0.2,0.3-0.4,0.5-0.5,0.8l-0.6-0.4c0,0,0.1-0.1,0.1-0.1l0.1,0
			C43.4,249.6,43.5,249.5,43.5,249.5z"/>
		<path class="st10" d="M43.9,258.4c0.2,0.2,0.4,0.3,0.3,0.3c-0.2,1-1,1.8-2,2l-0.8,0.2c-0.3,0.1-0.6,0.1-0.8,0
			c0.6-0.9,1.5-2.2,2-2.3l0.1,0L43.9,258.4z"/>
		<path class="st10" d="M43.9,250.1l0.1,0.1c-1.7,2.7-2.8,5.2-3.5,7.2C41.2,255.3,42.2,252.8,43.9,250.1z"/>
		<path class="st10" d="M43.9,258.4C43.9,258.4,43.9,258.4,43.9,258.4l-1.2,0.2L43.9,258.4z"/>
		<path class="st10" d="M43.3,249.7l0.6,0.4c-1.7,2.7-2.7,5.2-3.3,7.2c0,0.1-0.1,0.2-0.1,0.4l-0.4,0.1
			C40.5,255.8,41.4,253,43.3,249.7z"/>
		<path class="st10" d="M43.9,258.4l-1.2,0.2L43.9,258.4L43.9,258.4C43.8,258.3,43.9,258.3,43.9,258.4z"/>
		<path class="st10" d="M43.5,249.5c0,0-0.1,0.1-0.1,0.1l-0.1,0C43.4,249.6,43.4,249.5,43.5,249.5l-0.2,0c0,0,0,0,0,0L43.5,249.5z"
			/>
		<path class="st8" d="M43.4,249.5c0,0,0,0.1-0.1,0.1l-0.1,0C43.3,249.6,43.3,249.6,43.4,249.5L43.4,249.5z"/>
		<path class="st8" d="M43.3,249.6c0,0.1,0,0.1-0.1,0.1l-0.1,0C43.2,249.7,43.2,249.6,43.3,249.6L43.3,249.6L43.3,249.6z"/>
		<path class="st10" d="M43.3,249.5C43.3,249.5,43.3,249.5,43.3,249.5L43.3,249.5L43.3,249.5L43.3,249.5z"/>
		<path class="st8" d="M43.3,249.5c0,0,0,0.1-0.1,0.1h0C43.2,249.6,43.3,249.6,43.3,249.5L43.3,249.5L43.3,249.5z"/>
		<path class="st8" d="M43.3,249.5C43.3,249.6,43.2,249.6,43.3,249.5L43.3,249.5l-33.5,4.9c0,0,0-0.1,0-0.1L43.3,249.5z"/>
		<path class="st8" d="M43.2,249.7L43.2,249.7c-1.8,3.3-2.7,6.1-3.2,8.1h0C40.4,255.8,41.3,253,43.2,249.7L43.2,249.7
			C43.2,249.6,43.2,249.7,43.2,249.7z"/>
		<path class="st8" d="M9.8,254.4l33.4-4.8c-1.9,3.4-2.8,6.2-3.2,8.2l-0.1,0c0,0.1,0,0.2,0,0.3c0,0,0,0,0,0.1L15,262.4l-4.3,0.6
			C10.4,260.2,10.1,257.3,9.8,254.4z"/>
		<path class="st15" d="M42.5,402.8c3.2,8.5,5.5,13.9,6.5,16c-1-2.3-3.8-8.5-7.3-18.3c0.3,0.7,0.5,1.4,0.8,2.1
			C42.4,402.7,42.4,402.8,42.5,402.8z"/>
		<polygon class="st10" points="42.7,258.5 42.6,258.5 42.2,258.6 		"/>
		<path class="st10" d="M42.2,258.6l0.5-0.1c-0.5,0.1-1.4,1.4-2,2.3c-0.3-0.1-0.5-0.3-0.7-0.5c0,0,0,0,0-0.1
			c-0.1-0.3-0.1-0.4-0.1-0.7c0-0.1,0-0.2,0-0.3c0,0,0,0,0,0c0-0.1,0-0.3,0.1-0.5l0.2-0.1c0.1-0.3,0.2-0.7,0.3-1.1
			c-0.1,0.3-0.2,0.6-0.2,0.9c0,0.1-0.1,0.2-0.1,0.3L42.2,258.6z"/>
		<path class="st9" d="M42.4,402.6c-0.3-0.7-0.5-1.4-0.8-2.1c-4.8-13.3-11.3-33-17.3-58.5C30.7,368.9,37.5,389.4,42.4,402.6z"/>
		<path class="st6" d="M24.3,342.1c6,25.4,12.5,45.2,17.3,58.5c-2.3-6.1-4.9-13.4-7.2-21.2L0,400.1v-53.8l23.7-6.6
			C23.9,340.5,24.1,341.3,24.3,342.1z"/>
		<path class="st10" d="M40.4,257.7l0.2,0c-0.2,0.3-0.4,0.6-0.5,0.9C40.3,258.4,40.3,258,40.4,257.7z"/>
		<path class="st10" d="M40.6,260.9C40.5,260.9,40.5,260.9,40.6,260.9c-0.3-0.1-0.5-0.2-0.7-0.5c0,0,0,0,0,0
			C40,260.6,40.3,260.8,40.6,260.9z"/>
		<path class="st10" d="M40,257.8l0.4-0.1c-0.1,0.4-0.2,0.7-0.3,1.1l-0.2,0.1c0-0.3,0-0.5,0-0.6c0,0,0,0,0,0
			C40,258.1,40,257.9,40,257.8z"/>
		<path class="st8" d="M40,257.8L40,257.8c0,0.1,0,0.3-0.1,0.4h0c0,0,0,0,0-0.1C40,258,40,257.9,40,257.8z"/>
		<path class="st10" d="M39.9,257.8L39.9,257.8c0,0.1,0,0.2,0,0.3C39.9,258,39.9,257.9,39.9,257.8z"/>
		<path class="st8" d="M39.9,258.2C39.9,258.2,39.9,258.2,39.9,258.2C39.9,258.2,39.9,258.3,39.9,258.2
			C39.9,258.3,39.9,258.2,39.9,258.2L39.9,258.2z"/>
		<path class="st8" d="M39.9,258.3C39.9,258.3,39.9,258.2,39.9,258.3c0,0,0,0.3,0,0.6l0,0C39.9,258.7,39.9,258.5,39.9,258.3
			C39.9,258.3,39.9,258.3,39.9,258.3z"/>
		<path class="st10" d="M39.9,260.4c0.2,0.2,0.4,0.4,0.6,0.5c-0.5,0.7-0.9,1.2-0.8,0.8C39.7,261.3,39.8,260.9,39.9,260.4z"/>
		<path class="st10" d="M39.9,258.2C39.9,258.2,39.9,258.2,39.9,258.2C39.9,258.2,39.9,258.2,39.9,258.2L39.9,258.2z"/>
		<path class="st8" d="M39.9,258.2C39.9,258.2,39.9,258.3,39.9,258.2c0,0.1,0,0.1,0,0.1c0,0.2-0.1,0.4-0.1,0.6
			C39.8,258.7,39.9,258.5,39.9,258.2L39.9,258.2z"/>
		<path class="st8" d="M15,262.4l24.9-4.2c0,0.2-0.1,0.5-0.1,0.7L15,262.4z"/>
		<path class="st10" d="M39.9,258.9L39.9,258.9c0,0.2,0,0.3,0,0.5C39.9,259.2,39.9,259,39.9,258.9z"/>
		<path class="st10" d="M39.9,258.3c0,0.2,0,0.4,0,0.6l-0.1,0C39.8,258.7,39.9,258.5,39.9,258.3z"/>
		<path class="st10" d="M39.9,260.3C39.9,260.3,39.9,260.3,39.9,260.3c-0.1,0-0.1-0.1-0.2-0.3c0-0.1,0.1-0.2,0.1-0.4
			C39.8,259.9,39.8,260,39.9,260.3z"/>
		<path class="st10" d="M39.9,260.4C39.9,260.4,39.9,260.4,39.9,260.4c-0.1-0.1-0.1-0.2-0.2-0.3c0,0,0,0,0-0.1
			C39.8,260.1,39.8,260.3,39.9,260.4z"/>
		<path class="st10" d="M39.8,259.5c0,0,0-0.1,0-0.1c0,0.1,0,0.2,0,0.3C39.8,259.6,39.8,259.5,39.8,259.5z"/>
		<path class="st5" d="M23.7,339.7L0,346.3v-81.7l10.7-1.5C13.9,292.2,18.6,317.9,23.7,339.7z"/>
	</g>
	<g>
	</g>
</g>
<g>
	<g>
		<g>
			<g>
				<path d="M508.7,172.3c0.5,67.4,0.3,135.5,0.5,197.1l-0.2-73.9c0.1,36.9-0.1,68.1-0.6,105.8c-0.6-11.3-0.1-35.7-0.9-41.6
					c0-90.2,0.9-180.7,1.8-268.5C511.1,126,508.7,147.6,508.7,172.3z"/>
				<path d="M507.6,501.2c0-9.1,0-17.9,0-26.6C507.6,483.9,507.7,493,507.6,501.2z"/>
				<path d="M77-0.2C66.7-0.1,56.3,0,46.3,0C56.4-0.1,66.7-0.2,77-0.2z"/>
				<path d="M504.5,53.9c-0.1-5.4-0.2-10.9-0.3-16.4c0.1-13.3,0.1-26.8,0.2-40.6c-30-0.2-60.7-0.3-91.7-0.5c14.4,0.1,29.1,0,44,0
					c16.1,0,32.3-0.1,48.4-0.1c0,5.8,0,11.6,0,17.3c0,4.5-0.1,9.1-0.1,13.6C504.8,36.2,504.6,45.1,504.5,53.9z"/>
				<path d="M502.8,98.8c0.1,42.3-0.2,85.2-1,125.3C502.4,184,502.7,141.8,502.8,98.8z"/>
				<path d="M9,239.3c0.2-0.2,0.3,0.6,0.4,1.8c0,1.3,0.1,2.4,0.2,3.3c-0.2,17.1-0.4,34.1-0.6,51.1c-0.1-4.2-0.4-8.2-0.4-12.5
					C8.7,264.3,9.4,260.3,9,239.3z"/>
				<path d="M88.5-0.2c0.4,0,0.7-0.1,1.1-0.1c3.5,0,7-0.1,10.5-0.1c0.4,0,0.8,0,1.3,0C97.1-0.3,92.8-0.3,88.5-0.2z"/>
				<path d="M9,217.5c0.3-0.3,0.6-0.7,0.8-2.2c-0.1,9.6-0.2,19.3-0.3,28.9c-0.1-1.2-0.1-2.3-0.2-3.1C9.1,234.7,9.4,224.7,9,217.5z"
					/>
				<path d="M11.5,11.3c0.4,0,0.7-0.2,1.1-0.3c0.1,0,0.2-0.1,0.3-0.1l0.1-0.1c0.1,0,0,0,0.4-0.1c1-0.1,1.9-0.1,2.6-0.2
					c15.9,0.4,31.9,0.8,50.7,1c2.9-0.1,9.1-0.2,14.9-0.5c3.4,0.2,7.2,0.4,11.1,0.6c-15.1,0-30.3-0.1-45.7-0.1
					c-7.7,0-15.5,0-23.3-0.1c-3.6,0-7.1,0-10.7,0c-0.5,0-1,0-1.6,0c0,0.4,0,0.7,0,1.1l0,0.6c0,1.3,0,2.5,0,3.8
					c0,5.8-0.1,11.6-0.1,17.5c0-5.6,0-11.2,0-17c0-1.6,0-3.3,0-4.9c0-0.4,0-0.8,0-1.3C11.4,11.3,11.4,11.3,11.5,11.3z"/>
				<path d="M493.1,498.1c-55.1,0.4-118.8-1.1-172.5,0.4c63,1,150,1.3,159.2,3.8c9.3,2.5-86.2,0.2-135.5,0.3c6.5,0.3,6.5,0.3,13,0.5
					c-6.5-0.3-13-0.5-18.8-0.2c13,0.5,38.3,1,45.6,1.9l-11.6,0.6c33.2,1.9,95.5,2.3,128.8,4.2c-69.8-2.6-151.3-3.6-237.3-3.9
					c-43-0.1-87.1-0.1-131.4,0.1c-46,0.2-92.2,0.4-137.6,0.5c-0.1-29.9-0.2-59.5-0.3-88.5C-6.2,307.6-8.5,205.3-11,109.5
					c-0.3-18.1-0.2-61.6,0-92.7c0-9.3-0.1-18.6-0.1-27.9c9.9,0,19.8-0.1,29.6-0.1c6.2-0.1,12.4-0.1,18.5-0.2
					c12.4-0.1,24.7-0.2,37-0.4c24.7-0.3,49.2-0.6,73.7-1c58-0.6,115.1-0.5,173.2-0.3c29,0.1,58.3,0.2,88.1,0.3c14.9,0,29.9,0,45,0.1
					c19,0,38.2,0,57.6,0c0.8,0,1.6,0,2.4,0c0,5.9,0,12.1-0.1,18.1c0,2.8-0.1,5.6-0.1,8.4c-0.1,1.5-0.1,2.9-0.2,4.2
					c-0.2,5.4-0.5,9.8-0.9,11.8c-0.3,1.9-0.7,1.4-1-3c-0.2-2.2-0.3-5.4-0.4-9.8c0-1.1-0.1-2.3-0.1-3.5c0-2.2-0.1-4.4-0.1-6.8
					c0-4.8-0.1-10.2-0.2-16.2c-1.7,0-3.9,0-6.2,0c-5.5,0.1-11,0.1-16.4,0.2c-3.2,0-6.4,0.1-9.6,0.1c-6.3,0.1-12.6,0.2-19,0.2
					c-12.7,0.1-25.4,0.2-38.1,0.4c-25.4,0.2-51,0.3-76.5,0.3c5.9-0.8,30.3-0.3,41.6-0.9C349.1-9.9,318-10.1,281-10
					c24.7-0.1,49.3-0.1,73.9-0.2c-61.6,0.2-129.7,0.1-197.1,0.5c-24.7,0.1-46.3-2.4-81.1-0.6C164.5-9.5,255-8.5,345.2-8.5
					c-0.2,0-0.4,0-0.5,0.1c40.2,0,76.6,0,115.4,0c-12.1,0.1-24.4,0.2-35,0.1c12.7,0.1,25.4,0.3,38.1,0.4c6.3,0,12.7,0.1,19,0.1
					c8.9,0,17.8,0.1,26.7,0.1c-0.1,33.3-0.2,66.5-0.3,99.8c-0.2-15-0.4-30.2-0.6-45.5c-0.1-7.7-0.2-15.4-0.2-23.1
					c-0.1-9.9-0.1-19.7-0.2-29.7c-18.6,0.1-37.3,0.2-56.1,0.3c-16.7,0-33.4,0.1-50.2,0.1c-33.6,0-67.4,0-101.1,0
					c-67.4,0-134.5-0.1-199,0.3c44.8,1.3,104.4-0.6,143.4,1c-73.1,0-146.4-0.2-221.5-0.5c5.6-0.1,11-0.2,16.4-0.3
					c-6.5-0.1-13-0.2-19.6-0.3c-3.8,0-7.5-0.1-11.3-0.1c-4.8,0-9.6,0-14.4-0.1c0,10.6,0,21.2,0,31.8c0,8.7,0,17.3,0.1,26
					c0.1,17.3,0.1,34.4,0,51.2c0,4.2-0.1,8.3-0.1,12.5c0-4.1,0.1-8.3,0.1-12.5C-5.6,66.4-5.4,30.3-5.2-5.2c9.7,0,19,0.1,28.3,0.1
					C19.2-5.1,15.3-5,11.2-5C6-4.9,0.6-4.9-4.9-4.9c0,7.7,0,15.7,0,24.1c0,6.7-0.1,13.7-0.1,21c0.2-5.3,0.4-11.6,0.5-18.4
					c0.1-3.6,0.1-7.4,0.2-11.3c0.1-4.8,0.1-9.7,0.2-14.7C0.4-4,5-4,9.6-4c25,0.1,50,0.1,74.7,0.2C69.9-3.7,55.6-3.7,41.5-3.6
					C26.3-3.4,11.4-3.3-3.1-3.1C-3.1,2.1-3,7.4-3,12.6c0.1,4.2,0.1,8.4,0.2,12.5C-2.7,16-2.6,6.8-2.5-2.5
					c44.2,0.2,89.2,0.4,133.2,0.6c-28.4,0.1-56.7,0.2-85,0.3C30-1.7,14.3-1.7-1.8-1.8C-2,31.1-2.1,64.4-2.2,98.1
					c0-1.8,0-3.7-0.1-5.5c0,3.7,0,7.4,0,11c0,18.9-0.1,38-0.1,57.1c0,17.2,0.4,34,0.8,50.7c0,2.8,0,5.7,0,8.5
					c-0.2-5.4-0.5-8-0.6,2.4C-3,266.4-1.7,314.3-2.7,365c-0.3,13.3-0.1,31.2,0.1,50.6c-0.2,5.3-0.1,8,0.1,10.5
					c0,4.2,0.1,8.4,0.1,12.6c0,10.3,0,20.6,0.2,30.7c0-10-0.1-20.4-0.2-30.7c0-3.9,0-7.7-0.1-11.5c0.2,2.6,0.5,5.4,0.5,11.1
					c0.2-70.9,0.5-144.4,0.3-218.4c0.2,4.4,0.4,10.7,0.5,13.3c-0.2-7.3-0.4-14.5-0.6-21.8c-0.1-23.9-0.2-47.8-0.3-71.6
					c0.1,7.1,0.3,13.7,0.6,19.5c0-26.4,0-52.9,0-79.5c-0.1-27-0.1-54.1-0.2-81.2C14.3-1.5,30-1.5,45.7-1.6
					c64.3,0.3,127.9,0.7,191.4,1c-34.2-0.7-69.9-1.1-106.4-1.3c96.8-0.3,193.9-0.5,290.5,0.2c-17.4,0.9-41.4,1.5-52.3,2.7
					c0.7,0.6,31.8,0.8,13.7,1.1c-66,1.6-113.4,0.2-140.3,3.3c-5.1,0.9,69,3.9,45,4.5c-20,0.3-55.8,0.6-94.4,0.8
					c-11.1,0-22.7-0.1-34.7-0.1c-1.5-0.1-4,0.1-7.1,0.3c-41.8,0.1-81.7,0.2-103.7,0c-8.2-0.1-16.3-0.1-24.4-0.2
					c-2.1-0.1-4.1-0.2-5.9-0.3c-0.9-0.1-1.7-0.1-2.6-0.2c-0.4,0-0.8-0.1-1.2-0.1c-0.1,0-0.2,0-0.2,0l-0.1,0L13,10
					c-1,0.2-1.8,0.3-2.5,0.4l0.1,0.7l-0.1,1.6l0,0.4l0,2l0,4.1c0,5.4-0.1,10.8-0.1,16.2c-0.1,10.7-0.1,21.4-0.2,32.1
					c-0.3,11.8-0.5,23.7-0.8,35.4c0.2-0.2,0.5-2.1,0.7,0.1c-0.1,26.7-0.1,53.1-0.2,79.6c-0.3,10.7-0.6,20.6-1.2,29.3
					c1.8,28.7,0.7,94.9,0.9,141l0.1-0.1c0,23.2-0.1,46.5-0.1,70.1c-0.2,3.9-0.4,7.6-0.6,11.1c0.3,5.8,0.3,12,0.5,14.9
					c-0.1,9.4-0.3,18.1-0.4,26.4c-0.1,4.2-0.2,8.2-0.3,12.3l0,0.5l0,0.3l0,0.5L8.5,490l-0.1,2.2c0,0.1,0.1,0.3,0.1,0.5
					c0.6-0.1,1.4-0.2,2.3-0.4c0.8-0.1,1.6-0.2,2.4-0.2c6.1,0,12.1,0,18.1,0c6,0,11.9,0,17.7,0c13.7,0.1,27.5,0.1,41.5,0.2
					c47.1,0.3,93.5,0.7,139.4,1.2c1.5,0.2,1.8,0.5,2.2,0.8c7.1-0.4,17.1-0.1,23.5-0.3c-1.2,0.1-2,0.2-1.8,0.4
					c21-0.5,25,0.2,43.8,0.5c4.3,0,8.2-0.3,12.4-0.4c2.1,0,4.1,0.1,6.2,0.1c21.4,1.3,42.6,0.8,66.5,0.9c23.8,0.3,47.5,0.7,71.3,1
					C472.8,496.7,480,497.5,493.1,498.1z"/>
				<path d="M8.8,301.8c-0.3,22.2-0.6,44.4-0.9,66.5C8,344.4,7.5,323.2,8.8,301.8z"/>
				<path d="M303.7,10.8c8.8,0.5,18.6,0.9,29.4,1.2c-56.5-0.1-112.8-0.1-170.3-0.2l-0.1-0.1C208.8,11.5,275,12.6,303.7,10.8z"/>
				<path d="M9.3,241.1c0.1,0.9,0.1,2,0.2,3.1c0,0.1,0,0.1,0,0.2C9.4,243.5,9.4,242.4,9.3,241.1z"/>
				<path d="M412.1-0.1c1.8,0,3.6,0,5.5,0c-13.9,0.1-27.7,0.2-41.6,0.3C387,0.1,399.4,0,412.1-0.1z"/>
				<path d="M500.6,60.2c0.1,28.3,0.2,56.7,0.3,85c-0.2,36.4-0.5,72.2-1.3,106.4C499.9,188.1,500.3,124.4,500.6,60.2z"/>
				<path d="M412.8,11.5c11.7,0.3,23.5,0.5,35.4,0.8c-11.9,0-23.7-0.1-35.5-0.1C414.9,12,413,11.7,412.8,11.5z"/>
				<path d="M295.8,0.6c2.8,0,5.7,0,8.5,0c-7.3,0.2-14.5,0.4-21.8,0.6C285.1,1,291.4,0.8,295.8,0.6z"/>
				<path d="M488.3,37.4c0.1-8.2,0.1-16.3,0.2-24.3l0,0l0,0c0,0,0-0.1,0,0.2l0,1.9l0.1,3.8c0.1,2.6,0.2,5.1,0.3,7.7
					C488.7,29.6,488.5,33.2,488.3,37.4z"/>
				<path d="M488.4,172.7c0,11.9-0.1,23.5-0.1,34.6c-0.1-13.8-0.1-27.9-0.2-41.8C488.3,168.7,488.5,171.3,488.4,172.7z"/>
			</g>
		</g>
	</g>
</g>
<g>
	<g>
		<path d="M457.7,466.5c0.4-1,0.8-2,2-2.4c0.4-0.2,0.8,0,1.2,0.2c0.4,0.4,0.4,1.2,0.4,1.6c0,1.2-0.2,2.4-0.4,3.5
			c-0.2,1.2-0.6,2.2-0.6,3.3c0,1.8,1.4,3.3,2.9,3.9c2,1,4.3,0.8,6.3,0.4c0.6-0.2,0.6-1.2-0.2-1.2c-2.4,0.2-4.7,0.6-6.7-1
			c-0.8-0.6-1.2-1.6-1.2-2.5c0-1.4,0.6-2.5,0.8-3.7c0.2-1.2,0.2-2.4,0.2-3.7c0-0.8-0.4-1.6-1.2-1.8c-2-0.6-3.1,1.4-3.7,2.9
			C457,466.5,457.5,466.7,457.7,466.5L457.7,466.5z"/>
	</g>
</g>
<g>
	<g>
		<path d="M473.2,462.4c-2,0.8-3.5,2.7-3.9,4.9c-0.4,2.2,0.6,4.3,2.4,5.7c1.8,1.4,4.1,1.4,5.9,0.2c1.8-1.2,2.9-3.3,2.2-5.5
			c-0.8-2.2-3.5-3.9-5.7-2.7c-0.6,0.4-0.4,1.4,0.4,1.4c0.8,0,1.4-0.2,2.2,0.2c0.6,0.4,1.2,0.8,1.6,1.4c0.8,1.4,0.2,2.9-1,3.9
			c-2.9,2.4-6.7-0.6-6.5-3.9c0-2,1.4-3.9,2.9-5.1C473.8,462.6,473.4,462.2,473.2,462.4L473.2,462.4z"/>
	</g>
</g>
<g>
	<g>
		<path d="M482.3,463.8c0.8-1.2,2-2.2,3.3-2.5c-0.2-0.2-0.6-0.2-0.8-0.4c1.2,3.1-1.8,6.7,0.2,9.8c0.8,1,2,1.6,3.1,1.4
			c1.2-0.2,2.2-1,2-2.4c0-0.6-1-0.6-1.2,0c-0.2,0.8-0.8,1.2-1.6,1c-1,0-1.6-1-1.8-2c-0.2-1.4,0.2-2.5,0.4-3.7c0.4-1.6,0.6-2.9,0-4.5
			c-0.2-0.4-0.4-0.6-0.8-0.4c-1.8,0.4-3.1,1.8-3.7,3.3C481.3,463.8,482.1,464.2,482.3,463.8L482.3,463.8z"/>
	</g>
</g>
<g>
	<g>
		<path d="M442.4,455.3c3.3-11.4,5.5-22.9,6.1-34.9c-0.4,0.2-1,0.2-1.4,0.4c3.1,4.9,3.9,11.2,5.1,16.7c1.4,6.1,2.7,12.4,4.1,18.4
			c0.4-0.2,1-0.4,1.4-0.6c-2.7-6.3-9.2-9-15.3-11.4c0,0.4-0.2,1-0.2,1.4c5.7-0.8,11.6-1.8,17.1-3.3c1-0.2,0.6-1.6-0.4-1.4
			c-5.5,1.4-11.2,2.7-16.9,3.5c-0.8,0.2-0.6,1.2,0,1.4c5.5,2.4,11.6,5.1,14.3,10.8c0.4,0.8,1.6,0.2,1.4-0.6
			c-1.4-6.3-2.7-12.7-4.3-19c-1.2-5.5-2-11.6-5.3-16.5c-0.4-0.6-1.4-0.4-1.4,0.4c-0.6,11.8-2.2,23.3-5.5,34.7
			C441.5,455.5,442.2,455.9,442.4,455.3L442.4,455.3z"/>
	</g>
</g>
<g>
	<g>
		<path d="M455.4,420.2c0.4,5.5,1.4,10.8,2.4,16.1c1,5.5,2.2,11,3.3,16.5c0.2,0.4,0.8,0.8,1.2,0.6c1.4-1,2-2.5,1.6-4.1
			c-0.4-1-1.8-0.6-1.6,0.4s0,1.8-0.8,2.4c0.4,0.2,0.8,0.4,1.2,0.6c-1.2-5.3-2.4-10.8-3.5-16.1c-1-5.3-1.8-10.8-2.9-16.3
			C456.4,419.7,455.4,419.8,455.4,420.2L455.4,420.2z"/>
	</g>
</g>
<g>
	<g>
		<path d="M489.5,457.6c1.1,4.3,3,8.5,5.7,12.1c0.5,0.6,1.3,1,2.1,0.5c0.6-0.4,1-1.4,0.5-2.1c-2.5-3.4-4.4-7.2-5.4-11.4
			C491.9,455,489,455.7,489.5,457.6L489.5,457.6z"/>
	</g>
</g>
</svg>
