<?xml version="1.0" encoding="utf-8"?>
<!-- Generator: Adobe Illustrator 25.1.0, SVG Export Plug-In . SVG Version: 6.00 Build 0)  -->
<svg version="1.1" id="Lager_1" xmlns="http://www.w3.org/2000/svg" xmlns:xlink="http://www.w3.org/1999/xlink" x="0px" y="0px"
	 viewBox="0 0 500 500" style="enable-background:new 0 0 500 500;" xml:space="preserve">
<style type="text/css">
	.st0{fill:#FFFFFF;}
	.st1{fill:#1D1D1D;}
	.st2{fill:#197ACF;}
	.st3{fill:#EAF4FD;}
	.st4{fill:#082742;}
	.st5{fill:#C3CDD7;}
	.st6{fill:none;stroke:#082742;stroke-miterlimit:10;}
	.st7{fill:none;stroke:#082742;stroke-width:0.75;stroke-miterlimit:10;}
	.st8{fill:none;stroke:#082742;stroke-width:0.75;stroke-linecap:round;stroke-linejoin:round;}
</style>
<g>
	<rect class="st0" width="501.1" height="501.1"/>
	<g>
		<g>
			<g>
				<path class="st1" d="M465.2,495.8c4.3,0,8.3,0,8.3,0c0-0.1-0.1-0.1-0.1-0.2C470.4,495.7,467.7,495.7,465.2,495.8z"/>
				<path class="st1" d="M457.1,498.1c0.9,0,1.7,0,2.6,0c-0.3-0.1-0.3-0.1-0.5-0.2C458.5,498,457.9,498.1,457.1,498.1z"/>
				<path class="st1" d="M473.4,495.6c-0.6-0.7-4.1-1.4,0.1-2.1c4.6,0,13.8,0,18.4,0c4.6-0.4,0-0.8,0-1.2c4.6,0,9.2,0,9.2-0.2
					c3-0.5-2-0.9-10.9-1C470.4,493.3,420,494.1,473.4,495.6z"/>
				<path class="st1" d="M436.7,497.2c8.1,0,16.1,0,24.2,0c2.5-0.4,5.9-0.9,3.5-1.3C451.8,496.2,444.2,496.5,436.7,497.2z"/>
				<path class="st1" d="M498,435.2c0.1,0,0.2,0.4,0,4.6C498,438.2,498,436.7,498,435.2c-0.1-0.1-0.3,0.2-0.3-1.9
					c0.2,16,0.4,34.7,0.5,52.9c0.2,2.4,0.4,4.6,0.6,6.7c-0.1-45-0.1-89.9-1.2-126.8C497.6,392.3,498,410.2,498,435.2z"/>
				<path class="st1" d="M500,496.5c0,1.6,0,3,0,4.6C500.2,496.9,500.1,496.5,500,496.5z"/>
				<path class="st1" d="M195.9,5.5c-27.8,0.2-52.1,0.8-76.7,1.5C171.4,6.4,225,6.2,264.9,5.4C242,5.4,219,5.5,195.9,5.5z"/>
				<path class="st1" d="M9.6,10.4c0-0.3,0-0.5,0-0.8c1,0,1.9,0.1,2.8,0.1c3.8,0,7.6,0,11.3,0c7.6,0,14.9-0.1,22-0.1
					c14.2-0.2,27.6-0.4,40.7-0.8C60.9,9,35.6,9.1,10.4,9.3c-0.3,0.1-0.6,0.1-1,0.2C9.5,9.8,9.5,10.1,9.6,10.4z"/>
				<path class="st1" d="M34.8,8.4c31.4,0,58.1-0.7,84.4-1.4C89.6,7.3,60.6,7.7,34.8,8.4z"/>
				<path class="st1" d="M510.7,156.3c0.6,20.7,0.8,33.2,0.9,40.3c0.3,3.2,0.6,7.3,1,13c0-1.2,0-2.5,0-3.7c-0.3-21.3-0.6-43-1-64.9
					c-0.2-9-0.5-17.5-0.8-24.6C510.7,129.8,510.7,143.1,510.7,156.3z"/>
				<path class="st1" d="M511.5,196.7C509.2,169.8,511.8,224.5,511.5,196.7L511.5,196.7z"/>
				<path class="st1" d="M499.3,63c0-1,0-2.1,0-3.2c0-3-0.1-6.2-0.1-9.2C499.2,54.8,499.2,58.8,499.3,63z"/>
				<path class="st1" d="M308-3.7c18.2-0.1,36.3-0.2,54.2-0.4c-36.9,0.2-74,0.4-104.8,1c4.6,0,9.2,0.2,13.8,0.2
					C280.4-3.3,294.2-3.7,308-3.7z"/>
				<path class="st1" d="M501.1,206.3c-0.5-50-1.1-99-1.8-146.6c0-19.5-0.1-38.9-0.1-57.9C481,2,463.1,2.1,445.3,2.1
					c-18.3,0.1-36.5,0.3-54.3,0.4c-35.7,0.3-70.2,0.8-103.3,1.4C251,4.7,200.5,5,149.9,5.5c-25.3,0.2-50.6,0.5-74.1,1
					C64,6.7,52.6,6.9,41.9,7.2c-5.4,0.2-10.5,0.3-15.5,0.5c-2.5,0.1-5,0.2-7.4,0.3c-1.2,0-2.4,0.1-3.6,0.1c-0.6,0-1.2,0-1.8,0.1
					c-0.5,0-1.3,0-1.4,0.1c3.8,0,7.6,0.1,11.3,0.1c3.8,0,7.5,0,11.2,0c-5.4,0.1-10.6,0.3-15.7,0.4c-1.3,0-2.5,0.1-3.8,0.1
					c-0.6,0-1.2,0-1.9,0.1l-0.9,0l-0.3,0c-0.7,0.1-1.3,0.2-1.9,0.3c-0.4,0-0.7,0-1.1,0l0.1,2.9l0.1,10.3c0,7.5,0.1,15,0.1,22.4
					c0.1,14.9,0.1,29.9,0.2,44.8c0.1,29.8,0.2,59.6,0.3,89.5c0.2,59.8,0.3,119.9,0.3,181.2c0,18.4,0.6,32.2,0.6,50.6
					c0,18.6,0.1,36.9,0.1,55.2c0,0.1,0.1-0.2,0.1-0.7c0,5.9,0,11.9,0.1,17.8l0,4.4l0,0.8l0,0.1l0,0.2l0,0.8c28-0.2,56-0.3,84.3-0.5
					c32-0.2,64.4-0.5,97.5-0.7c36.8-0.2,73.6,0,110.3,0c13.8,0,13.8,0.8,23,1c36.8,1,64.3,1.8,105.7,2.2c0,0,0,0.4,0,0.6
					c6.3-0.1,12-0.1,16.7,0c-19.8,2.2-70.2,3-16.8,4.5v0c-3,0.1-5.6,0.1-8.2,0.2c-0.3,0-0.6,0-0.9,0c0,0,0,0,0.1,0
					c-12.5,0.3-20.1,0.7-27.6,1.3c8,0,16.1,0,24.2,0c-1.5,0.3-2.5,0.5-1.7,0.8c-0.7,0.1-1.3,0.1-2.1,0.2c-3.6,0-6.6,0-6.6,0
					c-1.2,0.2-2,0.3-2.6,0.5c-21.1,0.8-54.3,1.3-47.9,2.1c4.9,0.4,20.3,0.1,37.8-0.2c1.1,0.1,2.3,0.1,3.5,0.2
					c-23,0.2,0,1.4-13.8,1.6c-18.4,0.1-36.8,0.1-55.1,0.2c-74.8,0-137.9,0.2-211.5,0.8c-3.2,0-6.5,0-9.7,0.1
					c-17.8,0.1-35.2,0.2-52.4,0.2c-17.9,0-35.7-0.1-53.8-0.1c2.9-0.1,5.8-0.2,8.9-0.4c-5.2,0-10.5,0-15.7,0c0-13,0-26,0-39
					c0-12-0.1-23.9-0.2-35.9c-0.8-69-1.6-137.9-1.8-211.4c-0.1-36.6-0.3-72.5-0.4-108.6C-5.7,71.2-5.9,33-6.2-6.2
					c5.6,0,11.5-0.1,17.4-0.1C5.4-6.2-0.3-6.2-6.1-6.1C-6,10-5.8,26-5.6,42.3c0.1,14.2,0.2,28.4,0.3,42.8c0,14.7,0,29.4,0,43.6
					c0.1-14.8,0-29.3,0-43.6c0-14.3,0-28.8,0.1-43c0-16.1-0.1-32-0.1-47.4c8.5-0.1,16.9-0.1,25.1-0.2c6.5-0.1,12.8-0.2,18.9-0.3
					c12.3-0.2,24-0.6,34.8-1c4.7,0.2,4.7,0.4,9.3,0.4c32.2,0,64.4,0.2,91.9-0.6c0-0.2,13.8-0.2,9.2-0.6c27.6-0.2,59.8-0.2,87.3-0.6
					c11.9-0.1,23.8-0.5,35.8-1c31.6-0.3,63.2-0.7,95.3-1c16.1-0.2,32.3-0.3,48.7-0.5c8.2-0.1,16.5-0.2,24.8-0.2
					c4.2,0,8.4-0.1,12.6-0.1c7.9,0,15.9-0.1,23.9-0.1c0,7.9,0.1,15.8,0.1,23.9c0,4.3,0.1,8.6,0.1,13c0.1,8.8,0.2,17.7,0.3,26.8
					c0.2,18.2,0.4,37,0.5,56.1c0.2,26.4,0.2,56.9,0.2,83.6c-0.7-39.3-1.2-79.9-1.7-121.1c0-12.4,0-24.6,0.1-36.5
					c-0.1-15.6-0.1-30.8-0.2-45.3c-6.3,0-12.6,0.1-18.8,0.1c-1.5,0-3,0-4.5,0c-0.8,0-1.6,0-2.5,0c-1.6,0-3.3,0.1-4.9,0.1
					c-6.4,0.1-12.7,0.3-18.7,0.5c-7.3,0.2-14.6,0.4-21.9,0.5c10.2-0.1,20.4-0.2,30.5-0.3c5.1-0.1,10.1-0.1,15.1-0.2
					c8.4-0.1,16.7-0.1,25-0.2c0.1,9.4,0.1,18.8,0.2,28.1c0.1,6,0.1,11.9,0.2,17.8c0.1,11.8,0.3,23.6,0.4,35.2
					c-0.1,23.6-0.2,47.7-0.2,71.4c0-0.5,0-0.9,0-1.4c-0.2-18.6-0.5-37.3-0.7-56.2c0-15,0-29.8,0.1-44.1c0-7.1-0.1-14.1-0.1-20.9
					c-0.1-10.1-0.2-19.9-0.2-29.5c-4.3,0-8.6,0.1-12.7,0.1c-2,0-4.1,0-6.1,0.1c-1.6,0-3.2,0.1-4.8,0.1c-3.6,0.1-7.3,0.2-10.7,0.3
					c-7.3,0.2-14.6,0.4-21.9,0.5c7.8-0.1,15.7-0.2,23.5-0.2c10.8-0.1,21.5-0.2,32.2-0.2c0.1,8.9,0.1,17.7,0.2,26.4
					c0.1,5.8,0.1,11.6,0.2,17.3c0.2,16.7,0.4,33.5,0.6,50.1c0,10.4-0.1,21-0.1,31.5c-0.1-1.1-0.1-2.3-0.2-3.3
					c-0.2-9.2-2.5-35-3.1-21.2c0,35.4,0.3,77.9,0.5,111.6c0.1,16.8,0.2,31.5,0.3,41.9c0,5.2,0,9.4,0.1,12.2c0,1.4,0,2.5,0,3.3
					c0,0.4,0,0.7,0,0.8c0,0.2,0,0.3,0,0.3c-0.8,4.6-1.8-116.7-2-112.1c-0.1,6.8-0.2,13.6-0.2,20.4c-0.2-6.4-0.3-12.8-0.5-18.6
					c-0.2-13.8,0-32.2-0.4-41.4c-0.6-16.1-0.8-33.3-0.9-51.1c-0.1-8.9-0.1-18-0.2-27.1c-0.1-4.6-0.1-9.1-0.2-13.7
					c-0.1-5.1-0.2-10.3-0.2-15.4c0-1.6-0.1-3.2-0.1-5.5c-6.2,0.1-12.7,0.3-19.4,0.5c-5.9,0.2-12,0.3-18.2,0.5
					c-12.4,0.4-25.4,0.7-38.4,1.1c0,0.4-13.8,0.2-9.2,0.6c-25.9,0-56,0-67.1,1.1c-0.6,0-1.3,0-1.9,0c-1.8,0-4.4,0.1-7.2,0.2
					C299,1.3,268.9,2.4,229.7,3.1c-13.5,0.1-27.1,0.2-41.2,0.2c9.2,0,23,0.2,32.2,0c3.1-0.1,6.1-0.1,9-0.2
					c34.9-0.3,68.1-0.8,101.3-1.2c2.7-0.1,7.1-0.3,11.1-0.4c2.4,0,4.8,0,7.2,0c0.6-0.1,1.2-0.2,1.9-0.2C383,0.8,418.9,0.6,445.9,0
					c9-0.1,18.1-0.2,27.3-0.3c9.3,0,18.8-0.1,28.2-0.1c0,17.2,0,34.5,0,51.7c0,17.1-0.1,34.2-0.1,51c-0.4-25.9-0.7-51.4-1.1-76.5
					c0.4,31.4,0.7,61,1,89.7c0,4.5,0,8.8,0,13.2v27.6c0.1-8.6,0.1-17.1,0.2-25.6c0.2,17.2,0.5,34.1,0.7,50.8
					c0.9,92.2,1.4,187.3,1.1,280.6c-0.2-1.8-0.5-3.9-0.7-6.3c-0.1-45-0.1-89.9-1.2-126.7c0,26,0.3,43.9,0.4,69
					c-0.1,0-0.3,0.2-0.3-1.9c0.2,16,0.4,34.7,0.5,52.9c-0.5-5.8-1-12.3-1.5-18.9c-0.4-9.2-0.4-23-0.6-36.8
					c-0.3-59.7-0.2-115.9-0.7-174.7c0-52.3,0.1-104.6,0.1-155.9C499.8,113.9,500.4,160.8,501.1,206.3z M334.1,496
					c-4.7,0.1-9.6,0.2-14.5,0.3c0.8,0,1.5,0.1,2.2,0.1C326.2,496.4,330.6,496.2,334.1,496z M226.5,495.8
					c31.6,0.3,73.1-0.1,113.3-0.4c0.2-0.1,0.4-0.1,0.4-0.2C306.5,495,265,495.5,226.5,495.8z M100.4,491.7c0.2,0,0.5,0,0.8,0.1
					c0,0-0.1-0.1-0.1-0.1C100.9,491.7,100.7,491.7,100.4,491.7z M3.1,41.3c1,36.8,1,82.8,1.4,128.7c0,13.8,0.8,27.6,0.8,46
					c0.2,23,0.6,36.8,0.8,55.2l0.4-13.8c-0.2,32.2,1,50.6,0.6,82.8c0.2,0,0.6,4.6,0.6,9.2c0.2,23-0.2,46,0.2,64.4
					c0.2,23,0.2,45.9,0.6,64.3c0,2.3,0.1,5.8,0.3,9.8c0,0.2,0,0.5,0,0.7l0,0.2c0,0.2,0,0.3,0.1,0.5c0,0.3,0.1,0.6,0.1,0.9
					c0.1,0.6,0.2,1.2,0.2,1.7l2.3-0.1l1.2,0l4.2,0c5.6,0,11.2-0.1,16.8-0.1c-0.5-0.1-1-0.1-1.4-0.2c-4.6,0-9.2,0-13.8,0
					c-2.1,0-4.1,0-6.2,0l-1.8,0.1c-0.4,0-0.8,0-1.2,0.1c0-0.8-0.1-1.7-0.1-2.6l0-0.7c0-0.9,0-1.7,0-2.6c0-1.7,0-3.5-0.1-5.2
					c-0.1-7-0.2-14-0.3-21.1c-0.1-14.1-0.3-28.2-0.4-41.3c-0.4-69-1.2-133.3-2-197.7c-0.3-13.8-0.5-27.6-0.8-41.4
					c-0.8-41.4-0.6-92-2-119.5C3.5,55.2,3.5,46,3.1,41.3z M9-5.4C4.3-5.3-0.3-5.3-5.2-5.2c0.2,13.1,0.3,26.5,0.5,40
					c0.1,11.7,0.2,23.5,0.3,35.3c0.2,23.4,0.2,46.5,0.1,67.8c0,36.8,1.2,142.5,3.5,124.1c-1.7-18.4-2.1-71.7-2.2-126.4
					c0-27.4-0.1-55.1-0.1-79.1c-0.1-12-0.1-23-0.2-32.6c-0.1-5-0.1-9.6-0.2-13.7C-3.5,4.9-3.6,0.3-3.6-3.6C11-4,17.6-4.5,9-5.4z
					 M393.5-9c-19.3,0.3-37.9,0.6-59.8,0.6C353.7-8.6,373.6-8.8,393.5-9z M197.7-1c59.7-1.4,124.1-1.6,183.9-2.3
					c19.7-0.3,40.2-0.2,60.5-0.2c10.1,0,20.2,0,30.1,0c4.9,0,9.8-0.1,14.7-0.1c6.1-0.1,12.2-0.1,18.1-0.2c0.1,4.1,0.1,8.2,0.2,12.2
					c0,1.9,0.1,3.7,0.1,5.6c0,1.5,0.1,3,0.1,4.5h0.6l-0.2-4.6c0.1-6.8,0.1-13.1,0.2-18.7c-12.2-0.2-22.8-0.3-33.7-0.4
					c0.8,0,1.6,0,2.4-0.1c-1.4,0-2.7,0-4.1,0c-9-0.1-18.4-0.1-29.2,0c-4.9,0.1-10,0.2-15,0.3c-57.5,0.3-116.8,0.6-168.8,1.9
					c-32.2,0.6-59.7,1.6-91.9,2.2C174.7-1,188.5-0.8,197.7-1z"/>
				<path class="st1" d="M501.5,121.5c0.2,19.9,0.4,39.9,0.7,60.1c0.3,15.6,0.5,31,0.8,46.5c1,73.8,0.7,160,1.2,239.3
					c0.6,2.3,1.2,2.6,1.8-0.2c0.6-86.1-0.4-172.2-0.1-258.2c0-0.7,0-1.4-0.1-2c-1.2-36.8-0.8-96.6-1.8-142.5l-0.7-32.2l-0.6-33.9
					l-38.5,0.6l-36.8,0.7c25.1,0,49.7-0.1,74.1-0.1c0,20.5,0.1,40.8,0.1,61.1C501.7,80.8,501.7,101,501.5,121.5z"/>
				<path class="st1" d="M86.4,8.8c18-0.1,36.1-0.2,54.3-0.4c50.8-0.5,95.8-1,141.9-1.8c-33.8,0.1-67.8,0.1-102.1,0.2
					C146.2,7.1,117.2,8,86.4,8.8z"/>
				<path class="st1" d="M320,6.1c-12.6,0.2-25,0.4-37.4,0.6c50.1-0.2,99.9-0.4,149.5-0.6l34.5-0.3l17.2-0.2l6.9-0.1l4.9-0.1
					c0.6,56.8,1.2,113.7,1.9,170.5c0.1,9.3,0.2,18.5,0.3,27.6c0-34.3,0.1-68.6,0.1-102.7c0-32.9,0-65.6-0.1-97.7
					c-19.1,0.1-38,0.1-56.6,0.2c-19.7,0.1-39.1,0.3-58.3,0.4c-38.3,0.3-75.3,0.8-110.6,1.5c-2.4,0-5,0.1-7.5,0.1
					c61.3-0.2,122-0.5,182.5-0.7C405,5.2,362.5,5.6,320,6.1z"/>
				<path class="st1" d="M501.3,102.3c0,4.5,0,8.8,0,13.3c0.1,5.1,0.1,10.2,0.2,15.2c0-3.1,0-6.2,0.1-9.3
					C501.5,115.1,501.4,108.6,501.3,102.3z"/>
				<path class="st1" d="M472.2-5.3c-0.6,0-1.1,0-1.7,0C456-5.2,441.2-5.1,426.2-5c-20.6,0.4-42.1,0.7-64,0.9
					C402-4.4,441.4-4.6,472.2-5.3z"/>
				<path class="st1" d="M344.8-10c-4.6,0-13.8,0-18.4,0c-2.8,0.1-5.6,0.2-8.4,0.4c4.3,0,8.7,0,13,0L344.8-10z"/>
				<path class="st1" d="M73.4-6.8C154.9-7.7,231.3-8.4,307-9.2c3.7-0.1,7.4-0.3,11-0.4c-50.8-0.1-101.3,0.1-147.9,1.2
					c-9.2,0.2-23,0.8-32.2,0.8c-21.8,0.1-43,0.3-64,0.5C52.8-6.8,32-6.6,11.2-6.3c19.9-0.2,40-0.4,60.6-0.5
					C72.3-6.8,72.9-6.8,73.4-6.8z"/>
			</g>
		</g>
	</g>
</g>
<g id="Group_41" transform="translate(-163.045 -188.789)">
	<g id="Group_40">
		<g id="Group_39">
			<g id="Group_37">
				<path id="Path_48" class="st2" d="M628.9,483.7l1.9,2.7L564,549.4l-60.9-41.8l6.2-11.2l61.9-58L628.9,483.7z"/>
				<path id="Path_49" class="st3" d="M606.5,427.8l22.5,55.9l-57.7-45.4l-7.2-32.4L606.5,427.8z"/>
				<path id="Path_50" class="st4" d="M564,405.9l7.2,32.4l-61.9,58l-2.9-2.5l41.9-81.3l12-23.5L564,405.9z"/>
				<path id="Path_51" class="st3" d="M548.3,412.6l-38.9,83.8l-49.5-42.1l-4.9-3.6l12.8-41l0-1.5l23.3-45L548.3,412.6z"/>
				<path id="Path_52" class="st4" d="M520.1,297.8L491,363.2l-23.3,45l5-20.4l11.9-67.4l0.2-0.8l6.1-21.9H520.1z"/>
				<path id="Path_53" class="st5" d="M439.3,212.1l-17.2,63l-59.5,27.6l12.3-52.6L439.3,212.1z"/>
				<path id="Path_54" class="st4" d="M430.3,465.5l-24.8,57.2l-43.8,2.2l-28.1,2l49.4-33.1l4.3-2.6l5.3-3.2l5.4-3.2l6-3.6l5.2-3.1
					l6-3.6l4.7-2.8l5.4-3.2L430.3,465.5z"/>
				<path id="Path_55" class="st4" d="M430.3,573.4L370.1,621l-8.4-38.2l53.5-9L430.3,573.4z"/>
				<path id="Path_56" class="st3" d="M422.1,275.1l-6.9,60.8l-2.2,2.2l-62.2,32.6l10.9-64.3l0.9-3.6L422.1,275.1z"/>
				<path id="Path_57" class="st2" d="M415.2,573.9l-53.5,9L310,543.7l9.2-7l2.9-2l11.5-7.7h0l28.1-2L415.2,573.9z"/>
				<path id="Path_58" class="st2" d="M361.7,306.4l-12.5,65.3l0,0L278,416.8l14.5-63.9L361.7,306.4z"/>
				<path id="Path_59" class="st5" d="M311,300.7l-18.5,52.2l-55.9,31.9l4.9-6.6l18.9-50.2l48.5-25.5L311,300.7z"/>
				<path id="Path_60" class="st2" d="M278,416.8l-19.7,69.9v0l-57.2,32l26-69L278,416.8z"/>
			</g>
			<g id="Group_38">
				<path id="Path_61" class="st6" d="M258.4,486.8l-57.2,32l71.4,53.5l14.2-10.9l23.3-17.8l9.2-7l2.9-2l11.5-7.7"/>
				<path id="Path_62" class="st6" d="M423,426.6l-5.3-4l-5.7-4.3l-5-3.8l-5.3-4l-5.6-4.2l-4.9-3.7l-4.6-3.4l-3.5,2.5l-5,3.5
					l-5.2,3.6l-5.5,3.8l-6,4.2l-6.4,4.5l-7.4,5.2l-8.6,6.1l-7.6,5.4l-0.2,0.1l-5.5,3.8l-0.7,0.5l-2.9,2l-62,41.4l-1.8,1"/>
				<path id="Path_63" class="st6" d="M333.7,527l49.4-33.1l4.3-2.6l5.3-3.2l5.4-3.2l6-3.6l5.2-3.1l6-3.6l4.7-2.8l5.4-3.2l5.1-3
					l24.6-14.8l-26-19.6"/>
				<line id="Line_1" class="st6" x1="258.4" y1="486.8" x2="322.2" y2="534.6"/>
				<path id="Path_64" class="st6" d="M336.6,456l-5.3-4.3l-7.4-6l-1.8-1.4"/>
				<path id="Path_65" class="st6" d="M383.1,493.9l-3.1-2.6l-4.7-3.8l-12.1-9.9l-5.5-4.5l-6.9-5.6"/>
				<path id="Path_66" class="st6" d="M201.1,518.8l26-69l9.5-65l4.9-6.6l18.9-50.2l48.5-25.5l2.2-1.7l62.6-49.8l1.3-0.8l64.4-38
					l61.2,51.6"/>
				<path id="Path_67" class="st6" d="M258.4,486.8L258.4,486.8l19.7-70l-50.9,33"/>
				<path id="Path_68" class="st6" d="M278,416.8l0.5-2.3l14-61.6l-55.9,31.9"/>
				<path id="Path_69" class="st6" d="M276.9,417.5l72.3-45.8l0,0l12.5-65.3l-69.2,46.5l18.5-52.2"/>
				<path id="Path_70" class="st6" d="M361.7,306.4l0.9-3.6l12.3-52.6"/>
				<path id="Path_71" class="st6" d="M362.6,302.8l59.5-27.6l17.2-63"/>
				<path id="Path_72" class="st6" d="M467.7,408.3l-12.8,42.4l0,0l51.5,43.2l2.9,2.5l-6.2,11.2l-35.5,64.7l-16.5,0.5l-20.8,0.6
					l-15.1,0.4l-53.5,9l-6.8,1.2h-40.5l-27.7-22.5"/>
				<path id="Path_73" class="st6" d="M500.5,263.7l-9.5,34.1l-6.1,21.9l-0.2,0.8l-11.9,67.4l-5,20.4"/>
				<path id="Path_74" class="st6" d="M361.7,582.8L310,543.7h0"/>
				<path id="Path_75" class="st7" d="M430.3,465.5l-24.8,57.2l-43.8,2.2l53.5,48.9"/>
				<line id="Line_2" class="st8" x1="428.9" y1="431.1" x2="430.3" y2="465.5"/>
				<line id="Line_3" class="st7" x1="423" y1="426.6" x2="428.9" y2="431.1"/>
				<path id="Path_76" class="st8" d="M343.6,461.8l4-35.3l3.1,41.1l4.3-46.3l2.6,51.9l3.9-56.4l1.6,60.9l4.3-65.1l2.5,70.7
					l2.9-74.5l2.3,78.8l2.8-82.4l1.8,86.2l3.1-89.7l4.3,89.7l3.8-88.7l1.4,85.6l3.4-81.9l2,78.6l3.7-74.4l2.4,70.8l2.9-66.8
					l2.3,63.6l2.8-59.8l3.2,56.2l2.5-51.9l2.1,49.1l3.2-45.1l2.2,41.9l3.6-37.4"/>
				<line id="Line_4" class="st7" x1="350.8" y1="467.6" x2="343.6" y2="461.8"/>
				<path id="Path_77" class="st8" d="M336.6,456l2.5-23.5l4.5,29.2"/>
				<line id="Line_5" class="st7" x1="343.6" y1="461.8" x2="336.6" y2="456"/>
				<path id="Path_78" class="st8" d="M331.3,451.8l0.2-13.8l0,0l5.1,18.1"/>
				<line id="Line_6" class="st6" x1="405.6" y1="522.7" x2="467.7" y2="572.3"/>
				<path id="Path_79" class="st6" d="M361.7,524.9l-28.1,2h0"/>
				<path id="Path_80_1_" class="st6" d="M349.2,371.7l-27.1,72.6"/>
				<path id="Path_81" class="st6" d="M386.6,399.2l27.7-62.3l-65.1,34.9"/>
				<path id="Path_82" class="st6" d="M484.9,319.7l-62.8-44.6l-6.9,60.8l57.5,52"/>
				<path id="Path_83" class="st6" d="M491,297.8h29.1l63,46.5l-5.8,11.4l-12.4,24.4l-4.6,8.9l-12,23.5l-39,83.7"/>
				<path id="Path_84" class="st6" d="M467.7,408.3L467.7,408.3l23.3-45.1l57.3,49.4"/>
				<line id="Line_7" class="st6" x1="491" y1="363.2" x2="520.1" y2="297.8"/>
				<path id="Path_85" class="st6" d="M509.3,496.3l61.9-58l-7.2-32.4l-3.7-16.9"/>
				<path id="Path_86" class="st6" d="M571.2,438.4l57.7,45.4l-22.5-55.9L564,405.9"/>
				<path id="Path_87" class="st6" d="M606.5,427.8l-19.4-33.9l-22.2-13.7"/>
				<line id="Line_8" class="st6" x1="587.1" y1="393.9" x2="577.3" y2="355.7"/>
				<path id="Path_88" class="st6" d="M503.2,507.6l60.9,41.8l66.8-62.9"/>
				<path id="Path_89" class="st6" d="M361.7,582.8l8.4,38.2l63.4,49.4l61.7-59.5l68.8-61.5"/>
				<line id="Line_9" class="st6" x1="451.2" y1="572.8" x2="495.2" y2="610.9"/>
				<line id="Line_10" class="st6" x1="430.3" y1="573.4" x2="370.1" y2="621"/>
			</g>
		</g>
	</g>
	<path id="Path_90" class="st8" d="M430.3,465.5l4.2-30.1l2,26.3l4.9-21.1l3,16.3l3.8-11.1l2.8,7.2"/>
</g>
<g>
	<g>
		<path d="M59.1,460.2c0.4-1,0.8-2,2-2.4c0.4-0.2,0.8,0,1.2,0.2c0.4,0.4,0.4,1.2,0.4,1.6c0,1.2-0.2,2.4-0.4,3.6
			c-0.2,1.2-0.6,2.2-0.6,3.4c0,1.8,1.4,3.4,3,4c2,1,4.5,0.8,6.5,0.4c0.6-0.2,0.6-1.2-0.2-1.2c-2.4,0.2-4.9,0.6-6.9-1
			c-0.8-0.6-1.2-1.6-1.2-2.6c0-1.4,0.6-2.6,0.8-3.8s0.2-2.4,0.2-3.8c0-0.8-0.4-1.6-1.2-1.8c-2-0.6-3.2,1.4-3.8,3
			C58.3,460.2,58.9,460.4,59.1,460.2L59.1,460.2z"/>
	</g>
</g>
<g>
	<g>
		<path d="M75.1,456c-2,0.8-3.6,2.8-4,5.1c-0.4,2.2,0.6,4.5,2.4,5.9c1.8,1.4,4.2,1.4,6.1,0.2c1.8-1.2,3-3.4,2.2-5.7
			c-0.8-2.2-3.6-4-5.9-2.8c-0.6,0.4-0.4,1.4,0.4,1.4c0.8,0,1.4-0.2,2.2,0.2c0.6,0.4,1.2,0.8,1.6,1.4c0.8,1.4,0.2,3-1,4
			c-3,2.4-6.9-0.6-6.7-4c0-2,1.4-4,3-5.3C75.7,456.2,75.3,455.8,75.1,456L75.1,456z"/>
	</g>
</g>
<g>
	<g>
		<path d="M84.4,457.4c0.8-1.2,2-2.2,3.4-2.6c-0.2-0.2-0.6-0.2-0.8-0.4c1.2,3.2-1.8,6.9,0.2,10.1c0.8,1,2,1.6,3.2,1.4
			c1.2-0.2,2.2-1,2-2.4c0-0.6-1-0.6-1.2,0c-0.2,0.8-0.8,1.2-1.6,1c-1,0-1.6-1-1.8-2c-0.2-1.4,0.2-2.6,0.4-3.8c0.4-1.6,0.6-3,0-4.7
			c-0.2-0.4-0.4-0.6-0.8-0.4c-1.8,0.4-3.2,1.8-3.8,3.4C83.4,457.4,84.2,457.8,84.4,457.4L84.4,457.4z"/>
	</g>
</g>
<g>
	<g>
		<path d="M43.3,448.7c3.4-11.7,5.7-23.7,6.3-36c-0.4,0.2-1,0.2-1.4,0.4c3.2,5.1,4,11.5,5.3,17.2c1.4,6.3,2.8,12.7,4.2,19
			c0.4-0.2,1-0.4,1.4-0.6c-2.8-6.5-9.5-9.3-15.8-11.7c0,0.4-0.2,1-0.2,1.4c5.9-0.8,11.9-1.8,17.6-3.4c1-0.2,0.6-1.6-0.4-1.4
			c-5.7,1.4-11.5,2.8-17.4,3.6c-0.8,0.2-0.6,1.2,0,1.4c5.7,2.4,11.9,5.3,14.8,11.1c0.4,0.8,1.6,0.2,1.4-0.6
			c-1.4-6.5-2.8-13.1-4.5-19.6c-1.2-5.7-2-11.9-5.5-17c-0.4-0.6-1.4-0.4-1.4,0.4c-0.6,12.1-2.2,24.1-5.7,35.8
			C42.3,448.9,43.1,449.3,43.3,448.7L43.3,448.7z"/>
	</g>
</g>
<g>
	<g>
		<path d="M56.7,412.5c0.4,5.7,1.4,11.1,2.4,16.6c1,5.7,2.2,11.3,3.4,17c0.2,0.4,0.8,0.8,1.2,0.6c1.4-1,2-2.6,1.6-4.2
			c-0.4-1-1.8-0.6-1.6,0.4c0.2,1,0,1.8-0.8,2.4c0.4,0.2,0.8,0.4,1.2,0.6c-1.2-5.5-2.4-11.1-3.6-16.6c-1-5.5-1.8-11.1-3-16.8
			C57.7,411.9,56.7,412.1,56.7,412.5L56.7,412.5z"/>
	</g>
</g>
<g>
	<g>
		<path d="M91.9,451c1.1,4.5,3.1,8.7,5.9,12.4c0.5,0.6,1.3,1,2.1,0.5c0.6-0.4,1-1.4,0.5-2.1c-2.6-3.5-4.5-7.5-5.6-11.7
			C94.3,448.3,91.4,449.1,91.9,451L91.9,451z"/>
	</g>
</g>
</svg>
